<?xml version="1.0" encoding="UTF-8" standalone="no"?>
<!-- Created with Inkscape (http://www.inkscape.org/) -->

<svg
   xmlns:dc="http://purl.org/dc/elements/1.1/"
   xmlns:cc="http://creativecommons.org/ns#"
   xmlns:rdf="http://www.w3.org/1999/02/22-rdf-syntax-ns#"
   xmlns:svg="http://www.w3.org/2000/svg"
   xmlns="http://www.w3.org/2000/svg"
   xmlns:sodipodi="http://sodipodi.sourceforge.net/DTD/sodipodi-0.dtd"
   xmlns:inkscape="http://www.inkscape.org/namespaces/inkscape"
   id="svg2"
   version="1.1"
   inkscape:version="0.47 r22583"
   width="998"
   height="409"
   sodipodi:docname="logoafsletters.svg"
   style="display:inline">
  <metadata
     id="metadata8">
    <rdf:RDF>
      <cc:Work
         rdf:about="">
        <dc:format>image/svg+xml</dc:format>
        <dc:type
           rdf:resource="http://purl.org/dc/dcmitype/StillImage" />
        <dc:title></dc:title>
      </cc:Work>
    </rdf:RDF>
  </metadata>
  <defs
     id="defs6">
    <inkscape:perspective
       sodipodi:type="inkscape:persp3d"
       inkscape:vp_x="0 : 0.5 : 1"
       inkscape:vp_y="0 : 1000 : 0"
       inkscape:vp_z="1 : 0.5 : 1"
       inkscape:persp3d-origin="0.5 : 0.33333333 : 1"
       id="perspective10" />
    <inkscape:perspective
       id="perspective2830"
       inkscape:persp3d-origin="0.5 : 0.33333333 : 1"
       inkscape:vp_z="1 : 0.5 : 1"
       inkscape:vp_y="0 : 1000 : 0"
       inkscape:vp_x="0 : 0.5 : 1"
       sodipodi:type="inkscape:persp3d" />
    <inkscape:perspective
       sodipodi:type="inkscape:persp3d"
       inkscape:vp_x="0 : 0.5 : 1"
       inkscape:vp_y="0 : 1000 : 0"
       inkscape:vp_z="1 : 0.5 : 1"
       inkscape:persp3d-origin="0.5 : 0.33333333 : 1"
       id="perspective2922-0" />
    <inkscape:perspective
       sodipodi:type="inkscape:persp3d"
       inkscape:vp_x="0 : 0.5 : 1"
       inkscape:vp_y="0 : 1000 : 0"
       inkscape:vp_z="1 : 0.5 : 1"
       inkscape:persp3d-origin="0.5 : 0.33333333 : 1"
       id="perspective2922-7" />
    <inkscape:perspective
       sodipodi:type="inkscape:persp3d"
       inkscape:vp_x="0 : 0.5 : 1"
       inkscape:vp_y="0 : 1000 : 0"
       inkscape:vp_z="1 : 0.5 : 1"
       inkscape:persp3d-origin="0.5 : 0.33333333 : 1"
       id="perspective2922" />
    <inkscape:perspective
       sodipodi:type="inkscape:persp3d"
       inkscape:vp_x="0 : 0.5 : 1"
       inkscape:vp_y="0 : 1000 : 0"
       inkscape:vp_z="1 : 0.5 : 1"
       inkscape:persp3d-origin="0.5 : 0.33333333 : 1"
       id="perspective2897" />
    <inkscape:perspective
       sodipodi:type="inkscape:persp3d"
       inkscape:vp_x="0 : 0.5 : 1"
       inkscape:vp_y="0 : 1000 : 0"
       inkscape:vp_z="1 : 0.5 : 1"
       inkscape:persp3d-origin="0.5 : 0.33333333 : 1"
       id="perspective2835" />
    <inkscape:perspective
       id="perspective10-0"
       inkscape:persp3d-origin="0.5 : 0.33333333 : 1"
       inkscape:vp_z="1 : 0.5 : 1"
       inkscape:vp_y="0 : 1000 : 0"
       inkscape:vp_x="0 : 0.5 : 1"
       sodipodi:type="inkscape:persp3d" />
    <inkscape:perspective
       id="perspective2931"
       inkscape:persp3d-origin="0.5 : 0.33333333 : 1"
       inkscape:vp_z="1 : 0.5 : 1"
       inkscape:vp_y="0 : 1000 : 0"
       inkscape:vp_x="0 : 0.5 : 1"
       sodipodi:type="inkscape:persp3d" />
    <inkscape:perspective
       id="perspective3005"
       inkscape:persp3d-origin="0.5 : 0.33333333 : 1"
       inkscape:vp_z="1 : 0.5 : 1"
       inkscape:vp_y="0 : 1000 : 0"
       inkscape:vp_x="0 : 0.5 : 1"
       sodipodi:type="inkscape:persp3d" />
    <filter
       id="filter3580"
       inkscape:label="Drop shadow"
       width="1.5"
       height="1.5"
       x="-.25"
       y="-.25">
      <feGaussianBlur
         id="feGaussianBlur3582"
         in="SourceAlpha"
         stdDeviation="4,000000"
         result="blur" />
      <feColorMatrix
         id="feColorMatrix3584"
         result="bluralpha"
         type="matrix"
         values="1 0 0 0 0 0 1 0 0 0 0 0 1 0 0 0 0 0 0,400000 0 " />
      <feOffset
         id="feOffset3586"
         in="bluralpha"
         dx="8,000000"
         dy="8,000000"
         result="offsetBlur" />
      <feMerge
         id="feMerge3588">
        <feMergeNode
           id="feMergeNode3590"
           in="offsetBlur" />
        <feMergeNode
           id="feMergeNode3592"
           in="SourceGraphic" />
      </feMerge>
    </filter>
  </defs>
  <sodipodi:namedview
     pagecolor="#ffffff"
     bordercolor="#666666"
     borderopacity="1"
     objecttolerance="10"
     gridtolerance="10"
     guidetolerance="10"
     inkscape:pageopacity="0"
     inkscape:pageshadow="2"
     inkscape:window-width="1280"
     inkscape:window-height="968"
     id="namedview4"
     showgrid="false"
     inkscape:zoom="0.38260287"
     inkscape:cx="663.77685"
     inkscape:cy="-75.80525"
     inkscape:window-x="-4"
     inkscape:window-y="-4"
     inkscape:window-maximized="1"
     inkscape:current-layer="layer6" />
  <g
     inkscape:groupmode="layer"
     id="layer6"
     inkscape:label="let"
     style="display:inline">
    <path
       style="fill:#000000;display:inline;filter:url(#filter3580)"
       d="m 693.80577,391.40717 c -1.35485,-0.53886 -2.5898,-1.10619 -2.74433,-1.26071 -0.15452,-0.15453 2.01641,-7.44227 4.8243,-16.19498 3.93403,-12.26309 5.09706,-17.33534 5.06952,-22.1094 -0.0348,-6.03442 0.0396,-6.21192 2.86467,-6.8324 3.68818,-0.81006 4.94922,-0.0104 4.94922,3.13826 l 0,2.50908 3.0287,-2.15663 c 4.79947,-3.41752 9.29345,-4.28963 13.35649,-2.59198 5.71776,2.38904 7.68071,8.1344 5.07785,14.86242 -0.55337,1.4304 -0.12409,1.75 2.35052,1.75 2.52574,0 3.13281,-0.47935 3.66275,-2.89216 1.2107,-5.51228 6.03217,-11.69149 10.99842,-14.09561 4.08893,-1.97941 5.18984,-2.1297 8.44871,-1.15331 6.98806,2.09367 7.32118,8.15008 0.81906,14.89108 l -3.13483,3.25 4.61671,0 c 4.27833,0 4.66327,-0.21198 5.25193,-2.89216 1.2107,-5.51228 6.03217,-11.69149 10.99842,-14.09561 4.08893,-1.97941 5.18984,-2.1297 8.44871,-1.15331 6.98806,2.09367 7.32118,8.15008 0.81906,14.89108 l -3.13483,3.25 4.56835,0 4.56836,0 0.66692,-4.17069 c 0.49026,-3.06588 1.787,-5.29076 4.89522,-8.39898 3.61885,-3.61886 5.02755,-4.32816 9.77361,-4.92114 l 5.54532,-0.69284 3.75471,-11.40818 3.7547,-11.40817 4.03956,0 c 2.81991,0 3.89524,0.37741 3.56157,1.25 -2.01476,5.26883 -11.73599,36.85696 -11.73599,38.13489 0,1.11802 0.89859,1.61511 2.91963,1.61511 2.61054,0 3.09326,-0.52273 4.55961,-4.93748 1.93566,-5.82775 7.60494,-11.43953 13.08548,-12.95278 6.88546,-1.90117 12.44796,2.32603 11.26552,8.56117 -0.2487,1.31139 -1.40591,1.91693 -4.08856,2.13946 -3.21198,0.26642 -3.74168,0.0187 -3.74168,-1.75 0,-2.60611 -1.04495,-2.59946 -4.38512,0.0279 -2.30936,1.81656 -5.61488,6.73937 -5.61488,8.36207 0,0.30231 4.22857,0.54966 9.39683,0.54966 l 9.39682,0 2.7608,-9 2.7608,-9 3.84237,0 c 2.11331,0 3.84232,0.3375 3.84224,0.75 -7e-5,0.4125 -1.11832,4.35 -2.48499,8.75 -1.36667,4.4 -2.49161,8.1125 -2.49986,8.25 -0.008,0.1375 0.59025,0.25 1.33,0.25 2.32193,0 4.59874,-3.44308 7.00465,-10.59272 l 2.32436,-6.90728 4.1024,-0.30454 4.1024,-0.30453 -2.42441,7.80453 c -3.01038,9.6909 -3.0151,10.30454 -0.0794,10.30454 1.8727,0 2.51058,-0.67791 3.01607,-3.20533 0.35258,-1.76294 3.18905,-10.98794 6.30325,-20.5 l 5.66218,-17.29467 3.82175,0 c 2.10196,0 3.82175,0.27116 3.82175,0.60259 0,0.33142 -2.72649,9.10653 -6.05886,19.50024 -3.33238,10.39372 -5.78082,19.34755 -5.44099,19.89742 1.08368,1.75342 3.5205,1.08051 6.07713,-1.67814 2.2675,-2.44667 2.42359,-3.19222 1.80785,-8.63469 l -0.67394,-5.95681 3.3944,0.65278 c 9.54768,1.83613 12.85018,1.89545 13.48458,0.24222 0.4281,-1.11561 1.84516,-1.62561 4.51682,-1.62561 2.14115,0 3.89301,0.37118 3.89301,0.82485 0,0.45366 -1.125,4.13248 -2.5,8.17515 -1.375,4.04267 -2.5,7.72149 -2.5,8.17515 0,0.45367 1.575,0.82485 3.5,0.82485 3.85648,0 3.99539,0.28049 2.40217,4.85078 -1.00944,2.89569 -1.45587,3.14922 -5.54545,3.14922 -3.44144,0 -5.0282,-0.58057 -7.01392,-2.56629 -2.58955,-2.58955 -2.65598,-3.49123 -0.75024,-10.18371 0.50094,-1.7592 0.23353,-2.24918 -1.22593,-2.24625 -1.27187,0.003 -2.46053,1.44785 -3.73059,4.53603 -4.29111,10.43399 -17.73198,13.88091 -22.04304,5.65296 l -1.32621,-2.53116 -1.24309,3.76661 c -1.16629,3.53389 -1.43711,3.72607 -4.3834,3.1104 -3.24874,-0.67887 -4.59218,-0.71102 -12.05974,-0.28859 -3.45882,0.19566 -4.95358,-0.25181 -6.87687,-2.05864 l -2.45744,-2.30865 -0.64218,2.55865 c -0.63281,2.52133 -0.78137,2.55864 -10.18886,2.55864 -9.43419,0 -12.83827,-0.86618 -15.01719,-3.82116 -0.92056,-1.24843 -1.21181,-1.05689 -1.76905,1.16334 -0.78138,3.11327 -3.99774,3.55272 -8.59659,1.17457 -2.5352,-1.31101 -3.28054,-1.31101 -6.41822,0 -5.31348,2.22011 -8.39889,1.85236 -11.63843,-1.38717 l -2.87042,-2.87043 -1.03257,2.96203 -1.03257,2.96202 -10.61018,-0.3416 c -9.71348,-0.31273 -10.77059,-0.53988 -12.50826,-2.68779 l -1.89809,-2.34618 -1.02157,2.68693 -1.02157,2.68693 -10.58034,-0.34075 c -9.54644,-0.30744 -10.75821,-0.56061 -12.40055,-2.59074 -2.29961,-2.84262 -2.64032,-2.81764 -3.41025,0.25 -0.62562,2.49264 -0.66272,2.5 -12.60841,2.5 l -11.98095,0 0,-4 c 0,-3.98696 0.0128,-4 3.92327,-4 4.84134,0 10.34546,-4.11339 9.87888,-7.38278 -0.77357,-5.42051 -9.40031,-0.55726 -14.55314,8.20422 -1.51196,2.57082 -4.59388,10.05264 -6.84871,16.62628 -2.25484,6.57365 -4.50484,12.057 -5,12.18523 -0.49517,0.12824 -2.00882,-0.20774 -3.36368,-0.74661 l -10e-6,0 z m 109.72245,-31.13634 c 1.15924,-1.2375 2.57654,-3.4875 3.14957,-5 0.95211,-2.51312 0.84039,-2.75 -1.29703,-2.75 -3.02735,0 -7.61161,4.59917 -7.61161,7.63636 0,3.08361 2.92291,3.14128 5.75907,0.11364 z m -52.34289,-6.65738 c 1.04159,-1.15094 1.43474,-2.09262 0.87367,-2.09262 -1.43244,0 -6.28985,3.94453 -6.28985,5.10776 0,1.31182 3.02364,-0.37142 5.41618,-3.01514 z m 27,0 c 1.04159,-1.15094 1.43474,-2.09262 0.87367,-2.09262 -1.43244,0 -6.28985,3.94453 -6.28985,5.10776 0,1.31182 3.02364,-0.37142 5.41618,-3.01514 z m 169.58382,35.48684 c 0,-3.00588 0.37269,-3.50241 3.07428,-4.09577 3.96089,-0.86996 9.84622,-6.04916 11.57468,-10.18595 1.96257,-4.6971 1.7314,-5.23372 -1.99417,-4.62915 -4.38257,0.7112 -9.15012,-1.78214 -10.43046,-5.45493 -1.21115,-3.4743 0.53188,-9.26081 3.85514,-12.79825 2.95478,-3.14523 11.05296,-6.108 17.92053,-6.55634 l 5.5,-0.35907 0.31037,3.75 c 0.28306,3.42017 0.0895,3.75 -2.20078,3.75 -5.94911,0 -13.08396,2.32053 -15.95146,5.18803 -1.94453,1.94452 -2.59966,3.27044 -1.94124,3.92886 1.65967,1.65967 6.08827,-0.13094 9.261,-3.74449 2.50711,-2.85544 3.45271,-3.30783 5.76078,-2.75604 1.51873,0.36309 3.0474,0.81771 3.39703,1.01028 0.75246,0.41442 -5.29207,19.85697 -7.46214,24.00239 -3.29136,6.28736 -11.95817,12.37097 -17.6239,12.37097 -2.80517,0 -3.04966,-0.27423 -3.04966,-3.42054 z m -503,-3.6452 c 0,-2.96485 2.20926,-4.93426 5.53518,-4.93426 4.06438,0 4.73636,-2.26807 1.21482,-4.10027 -3.10089,-1.61335 -3.04133,-1.48685 -1.79584,-3.81408 0.95751,-1.78912 0.83354,-2.08565 -0.87192,-2.08565 -3.09756,0 -6.98382,-2.11454 -7.63041,-4.15176 -0.87487,-2.7565 -2.20765,-2.23647 -2.95183,1.15176 -0.57845,2.63366 -1.08464,3 -4.1452,3 -7.4425,0 -9.92615,-3.68201 -7.65505,-11.34863 0.78997,-2.66675 1.18156,-5.1034 0.87018,-5.41477 -1.12731,-1.12731 -8.39155,7.72823 -9.79721,11.94336 l -1.44063,4.32004 -14.91605,0.19946 c -8.20382,0.1097 -15.92036,-0.009 -17.14785,-0.26449 -1.2275,-0.25517 -2.98612,-1.91992 -3.90806,-3.69946 l -1.67625,-3.23551 -1.19519,3.5 c -1.16206,3.40294 -1.33836,3.49879 -6.35771,3.45645 -3.95988,-0.0334 -5.67899,-0.56001 -7.37954,-2.26057 -2.7406,-2.7406 -2.83239,-8.61651 -0.19741,-12.638 1.7716,-2.70379 1.76918,-2.76677 -0.0923,-2.40828 -1.05132,0.20246 -2.37743,1.30271 -2.94693,2.445 -0.91713,1.83959 -1.40388,1.95283 -4.26013,0.99114 -1.77358,-0.59716 -3.33674,-1.31074 -3.4737,-1.58574 -0.50295,-1.00993 3.56397,-13 4.40949,-13 0.48058,0 2.48929,0.675 4.46379,1.5 2.01032,0.83996 6.61644,1.5 10.46788,1.5 l 6.87788,0 0,4 c 0,2.73938 -0.43606,4 -1.38364,4 -1.52331,0 -8.61636,7.41124 -8.61636,9.00288 0,0.54842 2.1375,0.97867 4.75,0.95613 4.71603,-0.0407 4.76699,-0.0772 7.12568,-5.10173 2.67447,-5.69722 8.62902,-10.20638 14.90314,-11.28559 2.04665,-0.35205 4.95868,-0.88545 6.47118,-1.18534 2.62805,-0.52108 2.75,-0.37002 2.75,3.40639 0,3.86635 -0.0904,3.96609 -4.18668,4.62112 -2.30268,0.36821 -5.65133,1.3645 -7.44144,2.21396 -3.43425,1.62966 -6.82853,5.82428 -5.91244,7.30655 1.13451,1.83568 4.70882,-0.34386 6.58049,-4.01264 1.89269,-3.70998 2.04441,-3.78936 5.20479,-2.72309 4.17377,1.40816 3.97008,1.1062 2.80801,4.16267 -0.99758,2.62383 -0.97627,2.63869 3.78391,2.63869 l 4.78714,0 2.87622,-9 2.87622,-9 3.81189,0 c 2.09654,0 3.81189,0.42659 3.81189,0.94798 0,0.5695 1.23326,0.51806 3.08896,-0.12883 2.59822,-0.90575 3.5117,-0.75953 5.75,0.92042 2.17604,1.63323 2.65943,2.79584 2.65222,6.37884 -0.005,2.40987 -0.35093,5.61909 -0.76906,7.13159 -0.70623,2.5547 -0.54867,2.75 2.21869,2.75 2.63429,0 3.12499,-0.48759 4.24169,-4.21481 1.6524,-5.5152 8.19043,-12.26841 13.203,-13.63753 7.07759,-1.93315 12.64186,2.21073 11.44474,8.52325 -0.2487,1.31139 -1.40591,1.91693 -4.08856,2.13946 -3.21198,0.26642 -3.74168,0.0187 -3.74168,-1.75 0,-2.60611 -1.04495,-2.59946 -4.38512,0.0279 -2.30936,1.81653 -5.61488,6.73934 -5.61488,8.36204 0,0.30231 4.1625,0.53121 9.25,0.50867 l 9.25,-0.041 2.37568,-5.06074 c 2.67447,-5.69722 8.62902,-10.20638 14.90314,-11.28559 2.04665,-0.35205 4.95868,-0.88545 6.47118,-1.18534 2.62805,-0.52108 2.75,-0.37002 2.75,3.40639 0,3.86635 -0.0904,3.96609 -4.18668,4.62112 -2.30268,0.36821 -5.65133,1.3645 -7.44144,2.21396 -3.43425,1.62966 -6.82853,5.82428 -5.91244,7.30655 1.13451,1.83568 4.70882,-0.34386 6.58049,-4.01264 1.89269,-3.70998 2.04441,-3.78936 5.20479,-2.72309 4.17377,1.40816 3.97008,1.1062 2.80801,4.16267 -0.97336,2.56013 -0.89231,2.63824 2.72202,2.62365 l 3.72525,-0.015 2.78309,-8.98495 2.78308,-8.98496 3.96692,0 c 2.1818,0 3.96691,0.37118 3.96691,0.82485 0,0.45366 -1.125,4.13248 -2.5,8.17515 -1.375,4.04267 -2.5,7.72149 -2.5,8.17515 0,0.45367 1.575,0.82485 3.5,0.82485 3.85648,0 3.99539,0.28049 2.40217,4.85078 -1.00006,2.86879 -1.47781,3.14922 -5.36514,3.14922 -2.74172,0 -5.16908,-0.70933 -6.7897,-1.98411 -2.45986,-1.93492 -2.53469,-1.93702 -3.01917,-0.0844 -0.45298,1.73223 -1.53393,1.89765 -12.26022,1.87621 -11.13777,-0.0223 -11.88248,-0.15197 -14.00155,-2.43847 l -2.2381,-2.41496 -0.6332,2.52286 c -0.5423,2.16067 -1.19626,2.52286 -4.55514,2.52286 -4.57521,0 -5.88849,1.40491 -3.63792,3.89175 2.52895,2.79446 2.03004,7.62322 -1.0369,10.03567 -2.85104,2.24263 -12.36514,3.01732 -12.36514,1.00684 z M 19.452898,371.31638 c -0.90005,-4.01255 -1.75959,-8.42055 -1.91009,-9.79555 -0.23799,-2.17417 -0.82756,-2.54008 -4.52365,-2.8075 -2.3375,-0.16912 -4.2499999,-0.43947 -4.2499999,-0.60077 0,-0.16131 0.49402,-1.71043 1.09782,-3.44251 0.9609899,-2.75669 1.5530499,-3.14936 4.7499999,-3.15031 3.57723,-0.001 3.72116,-0.15452 7.01364,-7.4775 7.68608,-17.095 23.59214,-25.53483 32.084789,-17.02434 2.31873,2.3236 2.54492,3.26976 2.45779,10.28102 -0.0773,6.21615 -0.91629,10.20813 -4.30283,20.47191 l -4.20688,12.75 -3.947169,0 c -4.45656,0 -4.51421,-0.14135 -2.44716,-6 0.825,-2.3383 1.5,-4.59913 1.5,-5.02407 0,-0.42495 -3.82283,-0.70587 -8.49519,-0.62428 l -8.49518,0.14835 0.007,3 c 0.004,1.65 0.67137,5.475 1.48332,8.5 0.81194,3.025 1.4816,5.56372 1.48813,5.64159 0.006,0.0779 -1.07133,0.41346 -2.39523,0.74574 -1.32391,0.33228 -3.05186,0.85156 -3.83991,1.15396 -1.08459,0.4162 -1.8305,-1.22319 -3.06925,-6.74574 l 5e-5,0 z m 27.777519,-24.97705 c 1.77757,-5.98573 2.0223,-13.40161 0.47385,-14.3586 -2.385459,-1.4743 -7.885359,0.72564 -11.932779,4.77307 -3.46107,3.46106 -9.00233,12.22248 -9.00233,14.23379 0,0.29328 4.25757,0.53324 9.46126,0.53324 l 9.46126,0 1.538739,-5.1815 z m 281.538733,27.80839 c 0,-0.13844 1.35,-4.24554 3,-9.12689 1.65,-4.88135 3,-9.01576 3,-9.18759 0,-0.17182 -1.35,-0.31241 -3,-0.31241 -3.24453,0 -3.5022,-0.54892 -2.05027,-4.36779 0.69467,-1.82711 1.81338,-2.58316 4.16545,-2.8151 3.07177,-0.30292 3.3395,-0.68637 5.98146,-8.56711 l 2.76575,-8.25 -11.4312,0 c -6.32083,0 -11.43119,0.41275 -11.43119,0.92327 0,0.50781 1.10576,2.2374 2.45725,3.84355 l 2.45725,2.92028 -3.07588,2.27409 -3.07588,2.2741 -2.36433,-2.86765 c -1.30038,-1.5772 -2.89799,-4.57104 -3.55024,-6.65297 -1.04668,-3.34089 -0.95004,-4.10127 0.82311,-6.4762 1.10496,-1.47997 3.09345,-2.99422 4.41887,-3.36499 1.32542,-0.37076 11.49879,-0.71898 22.6075,-0.7738 l 20.19765,-0.0997 -1.29213,3.75 c -1.13383,3.29058 -1.7323,3.78757 -4.88497,4.05663 -3.47841,0.29686 -3.66318,0.51979 -5.80184,7 -1.21495,3.68135 -2.41631,7.25587 -2.66967,7.94337 -0.31576,0.85679 0.69519,1.25 3.21371,1.25 3.01866,0 3.58728,0.3123 3.18633,1.75 -1.78173,6.3889 -1.65657,6.25 -5.632,6.25 l -3.85049,0 -2.63944,7.92553 c -2.58793,7.77084 -2.72616,7.95507 -7.08212,9.4393 -2.44347,0.83258 -4.44268,1.4005 -4.44268,1.26206 l 0,2e-5 z M 55.166437,368.92793 c 0.33618,-0.8761 0.88311,-2.6761 1.21539,-4 0.50172,-1.999 1.23002,-2.4071 4.29574,-2.4071 4.24572,0 6.09159,-1.42419 6.09159,-4.7 0,-2.84945 -1.31747,-2.95508 -3.12803,-0.25081 l -1.37197,2.0492 -3.12247,-2.31178 -3.12248,-2.31177 5.51662,-7.68856 5.51662,-7.68856 3.10586,1.57832 c 4.19804,2.13333 4.15816,2.05618 2.18793,4.23327 -1.57837,1.74407 -1.59787,2.13721 -0.21108,4.25613 2.55712,3.90712 3.06608,10.11122 1.15915,14.12979 -2.1079,4.44206 -6.67677,6.70477 -13.53827,6.70477 -4.35153,0 -5.10555,-0.26141 -4.5946,-1.5929 z m 20,0 c 0.33618,-0.8761 0.88311,-2.6761 1.21539,-4 0.50172,-1.999 1.23002,-2.4071 4.29574,-2.4071 4.24573,0 6.09159,-1.42419 6.09159,-4.7 0,-2.84945 -1.31746,-2.95508 -3.12803,-0.25081 l -1.37197,2.0492 -3.1267,-2.31489 -3.12669,-2.31489 3.97061,-5.4843 c 2.18383,-3.01637 4.57277,-6.32827 5.30873,-7.35978 1.35934,-1.90522 4.2086,-1.7881 7.43429,0.30558 1.25455,0.81429 1.20531,1.22948 -0.34958,2.94762 -1.67361,1.84931 -1.68943,2.17172 -0.21024,4.28356 0.87977,1.25605 1.59958,3.08359 1.59958,4.06122 0,2.72518 1.3293,2.08029 3.08208,-1.49522 2.06763,-4.21779 7.343023,-7.72729 11.615463,-7.72729 3.94634,0 8.7984,2.24405 9.64989,4.46301 0.3765,0.98115 1.8669,1.53699 4.12119,1.53699 2.33876,0 3.53138,0.46685 3.53138,1.38235 0,0.7603 1.69764,-0.31529 3.77254,-2.39019 8.53045,-8.53045 20.91954,-6.13896 19.05769,3.67875 -0.2487,1.31139 -1.40591,1.91693 -4.08856,2.13946 -3.21198,0.26642 -3.74168,0.0187 -3.74168,-1.75 0,-2.60611 -1.04495,-2.59946 -4.38512,0.0279 -2.30936,1.81653 -5.61488,6.73934 -5.61488,8.36204 0,0.30231 4.3875,0.54289 9.75,0.53462 l 9.75,-0.015 2.78309,-8.98495 2.78308,-8.98496 3.96692,0 c 2.1818,0 3.96691,0.37118 3.96691,0.82485 0,0.45366 -1.125,4.13248 -2.5,8.17515 -1.375,4.04267 -2.5,7.72149 -2.5,8.17515 0,0.45367 1.4625,0.8064 3.25,0.78386 2.91176,-0.0367 3.49725,-0.56768 5.62568,-5.10173 2.67447,-5.69722 8.62902,-10.20638 14.90314,-11.28559 2.04665,-0.35205 4.95868,-0.88545 6.47118,-1.18534 2.62805,-0.52108 2.75,-0.37002 2.75,3.40639 0,3.86635 -0.0904,3.96609 -4.18668,4.62112 -2.30268,0.36821 -5.65133,1.3645 -7.44144,2.21396 -3.43425,1.62966 -6.82853,5.82428 -5.91244,7.30655 1.13451,1.83568 4.70882,-0.34386 6.58049,-4.01264 1.89269,-3.70998 2.04441,-3.78936 5.20479,-2.72309 4.17377,1.40816 3.97008,1.1062 2.80801,4.16267 -0.97737,2.57067 -0.90318,2.63869 2.87802,2.63869 3.72807,0 3.94415,-0.18463 5.47525,-4.67814 1.95768,-5.74549 1.98999,-5.32188 -0.406,-5.32188 -2.38802,0 -2.40079,-0.10501 -0.55103,-4.53212 0.95941,-2.29619 2.11575,-3.46788 3.42245,-3.46788 1.39888,0 2.32545,-1.09184 3.18234,-3.75 1.69784,-5.26682 1.57457,-5.17687 5.4601,-3.98436 3.58598,1.10056 3.66069,1.37866 1.74192,6.48436 -0.28751,0.76506 0.38917,1.25 1.74422,1.25 1.61453,0 2.04848,0.43129 1.60272,1.5929 -0.33619,0.8761 -0.88311,2.6761 -1.21539,4 -0.40926,1.6306 -1.31407,2.4071 -2.80486,2.4071 -1.76101,0 -2.5202,0.99903 -3.79966,5 l -1.59893,5 4.40806,0 c 4.7988,0 4.93278,0.19633 3.31023,4.85078 -1.04865,3.00818 -1.33976,3.14922 -6.5,3.14922 -4.06884,0 -5.8958,-0.49363 -7.40217,-2 -2.46684,-2.46684 -2.64377,-2.47022 -3.27342,-0.0625 -0.46241,1.76828 -1.4554,1.93582 -11.36663,1.91781 -13.03852,-0.0237 -13.96479,-0.23905 -15.80268,-3.67403 l -1.43464,-2.68133 -1.15914,3.25 c -1.06207,2.97784 -1.51649,3.25 -5.42646,3.25 -2.76417,0 -5.16994,-0.71001 -6.82981,-2.01566 l -2.5625,-2.01567 -0.63975,2.01567 c -0.58154,1.83231 -1.49369,2.01571 -10.0253,2.01571 -5.16206,0 -10.50132,-0.50837 -11.86503,-1.12972 -2.74644,-1.25137 -5.16506,-5.9935 -4.2599,-8.35232 1.11569,-2.90742 -2.81492,-1.50411 -4.85473,1.73325 -3.19844,5.07619 -8.29327,8.0135 -12.86158,7.41504 -3.95839,-0.51855 -9.638423,-4.85196 -9.638423,-7.35334 0,-2.26455 -1.458,-1.43439 -2.79814,1.5932 -1.67115,3.77539 -6.69706,6.09389 -13.20998,6.09389 -4.35153,0 -5.10555,-0.26141 -4.5946,-1.5929 z m 34.161593,-7.83703 c 1.90711,-1.40487 1.9017,-1.46689 -0.30887,-3.53896 -1.2375,-1.15996 -2.25,-2.54149 -2.25,-3.07007 0,-1.87533 -1.69608,-0.92349 -2.84408,1.59611 -0.82364,1.80769 -0.86037,3.12656 -0.12534,4.5 1.2354,2.30836 2.88342,2.46126 5.52829,0.51292 z m 106.89567,6.97538 c -1.35,-1.35 -2.45455,-3.03638 -2.45455,-3.74752 0,-0.71114 1.38711,-5.4566 3.08246,-10.54546 l 3.08247,-9.25247 3.91753,0 c 2.15465,0 3.91754,0.37118 3.91754,0.82485 0,0.45366 -1.125,4.13248 -2.5,8.17515 -1.375,4.04267 -2.5,7.72149 -2.5,8.17515 0,0.45367 1.575,0.82485 3.5,0.82485 3.85648,0 3.99539,0.28049 2.40217,4.85078 -1.00944,2.89569 -1.45587,3.14922 -5.54545,3.14922 -3.38884,0 -5.03195,-0.58432 -6.90217,-2.45455 z m 21.04545,1.50052 c -3.49905,-1.4473 -6.6485,-5.72466 -7.14047,-9.69768 -0.90247,-7.288 6.10211,-15.34829 13.33801,-15.34829 3.94634,0 8.7984,2.24405 9.64989,4.46301 0.3765,0.98115 1.8669,1.53699 4.12119,1.53699 3.88107,0 4.20318,0.77442 2.43355,5.85078 -0.62169,1.7834 -1.81437,3.16593 -2.75,3.18774 -0.90869,0.0212 -2.55217,1.4669 -3.65217,3.21269 -3.90644,6.19985 -10.58322,9.03529 -16,6.79476 z m 7.05887,-8.4759 c 1.90711,-1.40487 1.9017,-1.46689 -0.30887,-3.53896 -1.2375,-1.15996 -2.25,-2.54149 -2.25,-3.07007 0,-1.87533 -1.69608,-0.92349 -2.84408,1.59611 -0.82364,1.80769 -0.86037,3.12656 -0.12534,4.5 1.2354,2.30836 2.88342,2.46126 5.52829,0.51292 z m 13.6709,8.24385 c 0.27105,-0.72265 2.2281,-6.60142 4.34902,-13.06392 l 3.8562,-11.75 3.7825,0 c 2.08038,0 3.78251,0.42659 3.78251,0.94798 0,0.5695 1.23326,0.51806 3.08896,-0.12883 2.59822,-0.90575 3.5117,-0.75953 5.75,0.92042 2.17604,1.63323 2.65943,2.79584 2.65222,6.37884 -0.005,2.40987 -0.35093,5.61909 -0.76906,7.13159 -0.71203,2.57566 -0.56204,2.75 2.36582,2.75 2.44889,0 2.99363,0.34505 2.51478,1.5929 -0.33619,0.8761 -0.88311,2.6761 -1.21539,4 -0.49247,1.96215 -1.24323,2.4071 -4.06148,2.4071 -7.4802,0 -10.19968,-4.07917 -7.66967,-11.50434 0.86282,-2.53223 1.294,-4.87881 0.95819,-5.21462 -1.16399,-1.16399 -8.40795,7.59979 -9.83541,11.89892 -1.36583,4.11351 -1.64016,4.33505 -5.7382,4.63396 -3.22871,0.23551 -4.18069,-0.0143 -3.81099,-1 z m 254.16751,-0.40682 c 0.33619,-0.8761 0.88311,-2.6761 1.21539,-4 0.50172,-1.999 1.23002,-2.4071 4.29574,-2.4071 4.24572,0 6.09159,-1.42419 6.09159,-4.7 0,-2.84945 -1.31747,-2.95508 -3.12803,-0.25081 l -1.37197,2.0492 -3.12247,-2.31178 -3.12247,-2.31177 5.51662,-7.68856 5.51661,-7.68856 3.10586,1.57832 c 4.19804,2.13333 4.15816,2.05618 2.18793,4.23327 -1.56966,1.73445 -1.5925,2.1489 -0.23452,4.25613 0.82747,1.28401 1.8112,4.01324 2.18608,6.06495 l 0.68159,3.7304 2.47843,-4.97357 c 3.92386,-7.87416 11.36352,-12.11354 17.62913,-10.0457 6.57275,2.1692 6.74512,8.25069 0.41971,14.80848 l -3.13483,3.25 5.14382,0 5.14381,0 -1.29614,3.75 -1.29615,3.75 -10.16186,0.2851 c -9.67962,0.27157 -10.28001,0.16695 -12.65151,-2.20455 -1.3693,-1.3693 -2.49989,-3.5226 -2.51241,-4.7851 -0.0201,-2.02927 -0.20456,-1.92682 -1.59052,0.88357 -2.00234,4.06023 -6.7931,6.32098 -13.39483,6.32098 -4.35153,0 -5.10555,-0.26141 -4.5946,-1.5929 z m 35.0189,-15.31448 c 1.04159,-1.15094 1.43474,-2.09262 0.87367,-2.09262 -1.43244,0 -6.28985,3.94453 -6.28985,5.10776 0,1.31182 3.02364,-0.37142 5.41618,-3.01514 z m 39.58382,16.19794 c -7.70703,-2.83382 -7.72455,-13.69293 -0.0333,-20.64151 3.01354,-2.72255 5.03438,-3.63021 9.25695,-4.15779 l 5.40181,-0.67491 3.75471,-11.40818 3.7547,-11.40817 4.03956,0 c 2.81991,0 3.89524,0.37741 3.56157,1.25 -2.01477,5.26883 -11.736,36.85696 -11.736,38.13489 0,1.09744 0.88632,1.61511 2.76528,1.61511 2.4113,0 2.99041,-0.63387 4.52401,-4.9518 2.34775,-6.61025 5.84287,-10.55135 11.15725,-12.58093 3.57162,-1.36402 5.02972,-1.4652 7.82423,-0.54292 6.62675,2.18702 6.8195,8.24468 0.47173,14.82565 l -3.13483,3.25 5.14382,0 5.14381,0 -1.30327,3.75 -1.30327,3.75 -10.73484,0 c -9.90144,0 -10.87502,-0.17331 -12.5404,-2.23237 l -1.80555,-2.23237 -0.62304,2.48237 c -0.73561,2.9309 -4.0648,3.31982 -8.55255,0.99912 -2.5352,-1.31101 -3.28054,-1.31101 -6.41822,0 -3.65123,1.52558 -5.99662,1.73627 -8.61416,0.77381 z m 7.75907,-9.54056 c 1.15924,-1.2375 2.57654,-3.4875 3.14957,-5 0.95211,-2.51312 0.84039,-2.75 -1.29703,-2.75 -3.02735,0 -7.61161,4.59917 -7.61161,7.63636 0,3.08361 2.92291,3.14128 5.75907,0.11364 z m 31.65711,-6.65738 c 1.04159,-1.15094 1.43474,-2.09262 0.87367,-2.09262 -1.43244,0 -6.28985,3.94453 -6.28985,5.10776 0,1.31182 3.02364,-0.37142 5.41618,-3.01514 z m 34.92934,12.90738 1.06766,-4 11.3248,0 c 9.09465,0 11.43704,-0.29252 11.89481,-1.48544 0.35115,-0.9151 -1.77263,-4.20056 -5.53139,-8.55696 -6.62581,-7.67932 -7.59255,-11.17336 -4.66035,-16.84361 3.07855,-5.95326 16.20812,-13.04464 24.23637,-13.09025 3.38154,-0.0192 4.5895,0.50013 6.34032,2.72595 3.03452,3.85776 2.09559,8.10899 -3.62268,16.40252 -4.87044,7.06385 -5.07406,7.14145 -9.63365,3.67106 -1.60672,-1.2229 -1.39503,-1.81528 2.79082,-7.80966 2.49118,-3.56752 4.06497,-6.64121 3.49731,-6.83043 -3.10616,-1.03539 -15.06708,5.11257 -17.01019,8.74329 -0.88767,1.65863 -0.0612,3.1135 5.45728,9.60709 6.91323,8.13474 7.63485,10.37772 4.98644,15.49917 -2.561,4.95245 -5.92735,5.96727 -19.79448,5.96727 l -12.41073,0 1.06766,-4 z m 255.88425,2.81392 c 0.27105,-0.72265 2.2281,-6.60142 4.34902,-13.06392 l 3.8562,-11.75 3.7825,0 c 2.08038,0 3.78251,0.42659 3.78251,0.94798 0,0.5695 1.23326,0.51806 3.08896,-0.12883 2.59822,-0.90575 3.5117,-0.75953 5.75,0.92042 2.17604,1.63323 2.65943,2.79584 2.65222,6.37884 -0.005,2.40987 -0.35093,5.61909 -0.76906,7.13159 -0.71203,2.57566 -0.56204,2.75 2.36582,2.75 2.44889,0 2.99363,0.34505 2.51478,1.5929 -0.33619,0.8761 -0.88311,2.6761 -1.21539,4 -0.49247,1.96215 -1.24323,2.4071 -4.06148,2.4071 -7.41254,0 -9.89401,-3.69276 -7.6261,-11.34863 0.78997,-2.66675 1.18156,-5.1034 0.87018,-5.41477 -1.12901,-1.12902 -8.39233,7.73103 -9.79097,11.94336 -1.36583,4.11351 -1.64016,4.33505 -5.7382,4.63396 -3.22871,0.23551 -4.18069,-0.0143 -3.81099,-1 z M 159.99166,336.96414 c -3.7462,-2.62394 -2.00248,-9.44331 2.41466,-9.44331 5.0303,0 7.28176,5.95342 3.53409,9.34501 -2.26591,2.05062 -3.14077,2.06507 -5.94875,0.0983 z m 64,0 c -3.7462,-2.62394 -2.00248,-9.44331 2.41466,-9.44331 5.0303,0 7.28176,5.95342 3.53409,9.34501 -2.26591,2.05062 -3.14077,2.06507 -5.94875,0.0983 z m 282,0 c -3.7462,-2.62394 -2.00248,-9.44331 2.41466,-9.44331 5.0303,0 7.28176,5.95342 3.53409,9.34501 -2.26591,2.05062 -3.14077,2.06507 -5.94875,0.0983 z m 405,0 c -3.7462,-2.62394 -2.00248,-9.44331 2.41466,-9.44331 5.0303,0 7.28176,5.95342 3.53409,9.34501 -2.26591,2.05062 -3.14077,2.06507 -5.94875,0.0983 z"
       id="path2818"
       sodipodi:nodetypes="csssscccsssssscccssscccccscccccsssssssssscccccsssscccccsscccsssscccsssssssssssscccsscccsssssccccccccccsscccssssscccsssccssccssccssssscccssssssssccssssssssscccscccssssssssscccssssssssssssscccccssssssssssssscccssssssssscccccssssssssscccsssccsssssssscccsscccsssscccsssccccssssscccscccccssscccssssscccscccssscccccccssssccssscccccsssssssssssssssscccccsssssssssssssssssssssssssscccssssscccscccssssssssccssssccscccssssssccsssssssccsssscccccsssssssssssssccssscccccccsscccscccccccssssccssccscccccssssssccccccccccssccsssccssccccsssssssssssscccccccsssssssssssssccssccssccssccssc" />
  </g>
  <g
     inkscape:groupmode="layer"
     id="layer1"
     inkscape:label="logo"
     style="display:inline">
    <g
       style="display:inline"
       id="g2905"
       transform="translate(194.96591,-122.22556)">
      <g
         style="display:inline"
         inkscape:label="vecto contour"
         id="layer4">
        <path
           sodipodi:nodetypes="csssssszzccscssczssszcssscsccccsssssssscc"
           id="path2824-4"
           d="m 256.22414,415.63881 c -14.15656,-0.50359 -16.39122,-0.82007 -19.3956,-2.74682 -3.18148,-2.04034 -3.55022,-2.07634 -5.84763,-0.57102 -1.34861,0.88364 -4.09559,1.78027 -6.1044,1.9925 -4.08215,0.43128 -25.74131,-0.96108 -52.15237,-3.35261 -26.7905,-2.4259 -26.98725,-2.63611 -29.37971,-31.39122 -3.93748,-47.32472 -3.99785,-53.43029 -0.56911,-57.56167 0.87396,-1.05305 1.29191,-1.68587 -0.81074,-3.85859 -2.10265,-2.17272 -2.74044,-1.96342 -2.74044,-4.07974 l 0,-39.5 c 0,-39.22199 0.0156,-39.52194 2.22346,-42.6171 0,0 2.11541,-1.8454 2.22346,-3.1171 0.12609,-1.48396 -1.94369,-4.02297 -1.94369,-4.02297 -2.14758,-4.44499 -2.04147,-7.91586 1.59718,-52.24283 2.56908,-31.29729 2.50034,-31.22666 33.12141,-34.03162 36.50669,-3.3441 50.42243,-3.95597 52.98819,-2.3573 2.64031,0.88017 3.32618,1.74492 4.47757,1.69752 1.15139,-0.0474 1.88796,-0.19558 3.1891,-0.82655 4.57153,-2.21689 14.83224,-3.65793 47.91456,-3.31547 30.90974,0.31997 32.35227,0.49531 36.6459,2.55055 3.15862,1.51195 2.26475,1.22298 4.44713,1.26483 2.18238,0.0418 3.15211,-1.57152 6.11573,-1.95419 5.51949,-0.32807 22.7918,0.29155 51.06495,2.86979 22.7625,2.07571 27.03511,3.5213 29.8579,10.10206 0.95611,2.22899 2.22032,12.58076 3.4806,28.50038 3.47814,43.93514 3.46688,43.47858 1.18116,47.89395 0,0 -2.11942,2.43604 -2.01579,3.89395 0.0902,1.26856 2.21559,3.10605 2.21559,3.10605 2.18349,3.06106 2.2197,3.66955 2.49961,42.00545 l 0.28401,38.89941 c -0.0717,1.27638 -0.89613,3.81071 -2.20297,4.68985 -1.71127,1.64665 -3.34888,2.56086 -1.9036,5.01134 0.26864,0.45548 1.4608,1.85445 2.07112,4.121 1.16924,4.34223 0.41456,20.16538 -2.56975,53.879 -1.85854,20.99582 -1.90008,21.16655 -6.07371,24.96447 -4.11126,3.74116 -6.64568,4.22199 -34.52344,6.54975 -31.16313,2.60208 -43.13267,2.81345 -46.601,0.8229 -2.82172,-1.61945 -3.14037,-1.60432 -6.86191,0.3257 -3.49209,1.81102 -6.32302,2.07407 -26.90277,2.49976 -12.65,0.26167 -30.2,0.21963 -39,-0.0934 l 0,-1e-5 z"
           style="fill:#000000;display:inline" />
      </g>
      <g
         style="display:inline"
         inkscape:label="vecto couleur"
         id="layer5">
        <path
           sodipodi:nodetypes="csssssssssccsssssssccssssssssssccssssssssccssssscccsscccccccsssssccsssssssccsssssssccsssssssc"
           id="path2824-1"
           d="m 314.90904,410.6872 c 3.83112,-1.46031 7.52634,-5.9085 8.63216,-10.39115 0.57343,-2.32452 1.33262,-17.50141 1.68707,-33.72641 0.59779,-27.36329 0.51233,-29.74737 -1.17983,-32.91519 -1.00337,-1.87836 -3.3993,-4.25123 -5.3243,-5.27306 -3.25566,-1.72816 -6.04808,-1.83879 -40,-1.5848 -36.27759,0.27139 -36.51965,0.28707 -39.72491,2.57328 -5.43593,3.87728 -5.73967,6.53127 -4.63424,40.49281 1.10063,33.81417 1.44352,35.47908 8.11704,39.41269 3.6512,2.15215 4.5483,2.20681 36.92701,2.25 18.2517,0.0243 34.2267,-0.35283 35.5,-0.83817 z m -89.88653,-1.99807 c 5.53661,-2.18975 5.80223,-4.51037 4.55669,-39.81036 -1.22403,-34.69036 -1.55188,-36.53293 -7.21821,-40.56772 -2.96243,-2.10943 -4.72461,-2.28268 -35.62672,-3.50262 -29.94753,-1.18226 -32.76487,-1.15179 -35.74185,0.38652 -7.30296,3.7737 -7.44813,5.04632 -4.71949,41.37469 2.04192,27.18571 2.69586,30.62546 6.58513,34.63817 4.53949,4.68356 5.0176,4.76209 50.86608,8.35414 11.93916,0.93539 17.27982,0.71652 21.29837,-0.87282 z m 149.70163,-0.64561 c 23.66638,-1.76249 27.73377,-2.60711 31.82714,-6.60913 3.99225,-3.90317 4.82234,-8.13355 6.64499,-33.86475 0.83762,-11.825 1.74123,-24.07876 2.00804,-27.23057 0.68565,-8.09961 -2.07104,-13.88283 -7.62661,-15.9998 -1.6889,-0.64356 -59.80939,0.97353 -65.53624,1.82341 -4.16595,0.61825 -10.1048,6.55561 -10.72696,10.72428 -0.81909,5.48821 -2.51231,63.26516 -1.92038,65.52868 0.30981,1.1847 0.93047,2.154 1.37926,2.154 0.44879,0 1.08194,0.83795 1.407,1.86212 0.32505,1.02416 2.04288,2.34713 3.81738,2.93993 3.45788,1.15515 7.02249,1.0329 38.72638,-1.32817 z M 318.3427,319.94635 c 1.88146,-0.8928 4.42447,-3.0303 5.65113,-4.75 2.21184,-3.10082 2.23031,-3.43721 2.23031,-40.62671 0,-37.1895 -0.0185,-37.52589 -2.23031,-40.62671 -4.45351,-6.24348 -5.35519,-6.37329 -44.26969,-6.37329 -38.9145,0 -39.81618,0.12981 -44.26969,6.37329 -2.21184,3.10082 -2.23031,3.43721 -2.23031,40.62671 0,37.12824 0.022,37.53083 2.21818,40.60969 4.45771,6.24929 5.10299,6.3424 44.13069,6.36754 30.57469,0.0197 35.81088,-0.19647 38.76969,-1.60052 z m -97.70337,-1.12826 c 6.93847,-3.55223 7.08481,-4.46619 7.08481,-44.24845 0,-39.74602 -0.0997,-40.36912 -7.07727,-44.24836 -3.21188,-1.78566 -5.02443,-1.86186 -29.42273,-1.23694 -35.56691,0.91099 -39.77842,1.4336 -43.57599,5.40741 -1.6471,1.72352 -3.42881,4.27542 -3.95937,5.67089 -0.54831,1.44217 -0.96464,16.68672 -0.96464,35.32206 l 0,32.78486 3.0334,4.18749 c 1.66837,2.30312 4.25587,4.7032 5.75,5.33352 2.90053,1.22362 23.59838,2.30479 49.7166,2.59697 13.50318,0.15106 16.53295,-0.0939 19.41519,-1.56945 z m 185.27457,-0.4499 c 2.02936,-0.59346 5.17936,-2.61591 7,-4.49433 l 3.31024,-3.4153 0,-35.2723 0,-35.2723 -2.84827,-3.73427 c -1.56654,-2.05385 -4.04154,-4.20225 -5.5,-4.77423 -1.45845,-0.57198 -16.63779,-1.52781 -33.73186,-2.12408 -45.65036,-1.59236 -42.41987,-5.0413 -42.41987,45.28826 0,39.77005 0.13426,40.61007 7.08481,44.3257 3.17006,1.69465 5.56844,1.77998 33.41519,1.18879 16.5,-0.3503 31.66039,-1.12247 33.68976,-1.71594 z M 204.25765,223.6829 c 13.2655,-0.59011 15.39729,-0.92779 18.12671,-2.87132 5.65297,-4.02526 5.98717,-5.89199 7.24716,-40.48016 1.27063,-34.88029 1.19949,-35.49606 -4.53469,-39.25324 -3.10231,-2.03271 -10.68761,-1.84642 -45.87269,1.12665 -29.47882,2.4909 -29.49059,2.50229 -31.89614,30.86481 -2.96921,35.00822 -3.15901,43.05397 -1.10559,46.86692 0.99346,1.84476 2.97527,3.83641 4.40402,4.42589 2.57034,1.06049 19.27395,0.84884 53.63122,-0.67955 z m 204.05161,0.7198 c 2.2455,-0.81198 3.81985,-2.40892 5.17576,-5.25 2.16423,-4.53481 2.04015,-9.06077 -1.28987,-47.04906 -2.38826,-27.24487 -2.65044,-27.49795 -30.97101,-29.89567 -44.22424,-3.74417 -46.49914,-3.61186 -50.54833,2.93988 -1.92999,3.12278 -1.95111,4.0079 -0.83639,35.06272 1.24635,34.7223 1.57697,36.57962 7.2278,40.60336 2.77606,1.97674 4.85889,2.28255 20.12671,2.95509 43.1315,1.89993 47.465,1.95366 51.11533,0.63368 z m -87.86021,-4.63329 c 5.43258,-3.87489 5.73737,-6.53186 4.65093,-40.54363 -0.91439,-28.62561 -1.0864,-30.45174 -3.18879,-33.85349 -4.60444,-7.45014 -3.7827,-7.30265 -40.68705,-7.30265 -37.45947,0 -38.97031,0.23136 -43.19442,6.61442 -2.59506,3.92141 -2.60111,3.98015 -3.62989,35.25383 -1.00036,30.40966 -0.97212,31.44002 0.96553,35.22881 3.80156,7.43337 4.05367,7.47323 45.35878,7.17047 36.28186,-0.26593 36.51927,-0.28128 39.72491,-2.56776 z"
           style="fill:#000000;display:inline" />
        <path
           id="path3757"
           d="m 151.75004,224.49349 c -0.89458,-0.12947 -1.85465,-0.76909 -3.25235,-2.16679 -4.05705,-4.05704 -4.24448,-8.03605 -1.81817,-38.59785 1.90306,-23.97086 2.49204,-28.2065 4.49151,-32.30048 2.16305,-4.4289 5.19107,-6.1628 12.8968,-7.38495 9.79739,-1.55389 37.79186,-3.65653 49.43755,-3.71321 9.1408,-0.0445 9.61579,-0.0115 11.07409,0.76909 2.07079,1.10842 4.13893,3.48573 4.72952,5.43653 1.00558,3.32161 0.12775,46.62883 -1.22078,60.22643 -0.83195,8.38882 -2.10118,11.32842 -5.97124,13.82976 -3.32806,2.15103 -5.02079,2.36774 -25.27804,3.23611 -13.25745,0.56832 -42.75207,1.00356 -45.08889,0.66536 l 0,0 z"
           style="fill:#1aba21;fill-opacity:0;fill-rule:evenodd;stroke:#ffffff;stroke-width:0;stroke-miterlimit:4;stroke-opacity:1;stroke-dasharray:none" />
        <path
           id="path3763"
           d="m 151.75004,224.49349 c -0.89458,-0.12947 -1.85465,-0.76909 -3.25235,-2.16679 -4.05705,-4.05704 -4.24448,-8.03605 -1.81817,-38.59785 1.90306,-23.97086 2.49204,-28.2065 4.49151,-32.30048 2.16305,-4.4289 5.19107,-6.1628 12.8968,-7.38495 9.79739,-1.55389 37.79186,-3.65653 49.43755,-3.71321 9.1408,-0.0445 9.61579,-0.0115 11.07409,0.76909 2.07079,1.10842 4.13893,3.48573 4.72952,5.43653 1.00558,3.32161 0.12775,46.62883 -1.22078,60.22643 -0.83195,8.38882 -2.10118,11.32842 -5.97124,13.82976 -3.32806,2.15103 -5.02079,2.36774 -25.27804,3.23611 -13.25745,0.56832 -42.75207,1.00356 -45.08889,0.66536 l 0,0 z"
           style="fill:#1aba21;fill-opacity:1;fill-rule:evenodd;stroke:#1aba21;stroke-width:1.5;stroke-miterlimit:4;stroke-opacity:1;stroke-dasharray:none" />
        <path
           id="path3765"
           d="m 249.16291,410.86209 c -3.91809,-0.32095 -6.31256,-1.27062 -8.9968,-3.56823 -2.40968,-2.0626 -3.34378,-4.33598 -4.18065,-10.17472 -0.54322,-3.79001 -1.43932,-25.05218 -1.7325,-41.10791 -0.34786,-19.05018 0.22045,-22.6355 4.0906,-25.8068 2.65217,-2.17325 4.20208,-2.48664 14.11262,-2.85349 11.84495,-0.43846 58.30318,-0.43138 61.69639,0.009 3.29701,0.42829 5.08528,1.29818 7.37425,3.58715 3.95948,3.95948 4.16831,5.66013 3.60675,29.37079 -0.47683,20.13261 -1.01424,33.37281 -1.52779,37.63996 -0.45571,3.78654 -1.90803,6.82608 -4.50841,9.43553 -2.85875,2.86872 -3.63983,3.13194 -10.40631,3.5069 -7.08972,0.39286 -54.63738,0.36205 -59.52815,-0.0386 l 0,0 z"
           style="fill:#1aba21;fill-opacity:1;fill-rule:evenodd;stroke:#1aba21;stroke-width:1.5;stroke-miterlimit:4;stroke-opacity:1;stroke-dasharray:none" />
        <path
           id="path3767"
           d="m 250.39628,320.98027 c -6.25601,-0.37193 -9.56552,-1.08792 -11.55983,-2.5009 -2.0172,-1.42919 -4.27145,-4.76252 -4.75885,-7.03685 -0.55082,-2.5702 -0.89417,-56.09949 -0.42566,-66.3608 0.41625,-9.11687 0.65558,-9.93631 3.8496,-13.18111 3.76366,-3.8235 5.40318,-3.97767 42.2951,-3.9772 38.65514,4.9e-4 39.00299,0.0433 43.30831,5.32518 0.87636,1.07516 1.8069,2.59199 2.06785,3.37075 0.62223,1.85692 0.93568,68.77871 0.34302,73.23564 -0.46319,3.48331 -1.04982,4.71166 -3.2899,6.88877 -2.50513,2.43471 -4.48312,3.44981 -7.63693,3.91923 -3.4132,0.50804 -56.56519,0.77076 -64.19271,0.31729 l 0,0 z"
           style="fill:#ffffff;fill-opacity:1;fill-rule:evenodd;stroke:#ffffff;stroke-width:1.5;stroke-miterlimit:4;stroke-opacity:1;stroke-dasharray:none" />
        <path
           id="path3769"
           d="m 205.45305,409.51603 c -0.82396,-0.0829 -6.80703,-0.57121 -13.2957,-1.08501 -32.76826,-2.59471 -35.86107,-3.22658 -39.72603,-8.11612 -3.07045,-3.88441 -3.71059,-6.9082 -5.19863,-24.55638 -2.2333,-26.48716 -2.74751,-41.40753 -1.5553,-45.12856 0.56702,-1.76972 2.30279,-3.51744 4.87485,-4.90842 2.65313,-1.43481 5.30948,-1.61422 18.94623,-1.27965 22.6123,0.55479 46.40907,1.79603 49.43755,2.57866 2.17357,0.56171 5.24133,2.78183 6.52791,4.72421 2.13104,3.21727 2.70464,7.85059 3.60697,29.13532 0.79727,18.80676 0.90508,39.29503 0.22243,42.27248 -0.66618,2.90562 -2.15323,4.52197 -5.11394,5.55857 -1.95257,0.68364 -3.22913,0.79785 -9.73769,0.87126 -4.1198,0.0465 -8.16469,0.0166 -8.98865,-0.0664 l 0,0 z"
           style="fill:#ffffff;fill-opacity:1;fill-rule:evenodd;stroke:#ffffff;stroke-width:1.5;stroke-miterlimit:4;stroke-opacity:1;stroke-dasharray:none" />
        <path
           sodipodi:nodetypes="cscccssssssssc"
           id="path3771"
           d="m 182.98144,319.8459 c -13.16901,-0.38718 -27.58116,-1.33653 -30.06288,-1.98028 -2.4885,-0.64551 -5.49626,-1.85327 -8.61187,-5.99515 -1.56184,-2.35066 -1.35778,-2.93542 -1.69991,-4.06637 l 0.26591,-28.3302 c 0.14626,-15.58161 0.41564,-30.74408 0.59863,-33.69437 0.38487,-6.20512 0.80582,-7.24072 4.45826,-10.96801 2.4769,-2.52766 4.84162,-3.41863 10.76799,-4.05708 9.81231,-1.0571 52.178,-2.22803 56.99883,-1.57537 5.42369,0.73428 9.17876,3.43404 10.27218,7.38532 1.19487,4.31786 1.3943,9.71802 1.39398,37.74602 -3.6e-4,32.51013 -0.34308,38.04997 -2.53935,41.04841 -1.00428,1.37108 -3.96678,3.28065 -6.20518,3.99975 -2.37288,0.7623 -18.69338,0.98548 -35.63659,0.48733 z"
           style="fill:#3535ff;fill-opacity:1;fill-rule:evenodd;stroke:#3535ff;stroke-width:1.5;stroke-miterlimit:4;stroke-opacity:1;stroke-dasharray:none" />
        <path
           sodipodi:nodetypes="ccccssssssssscc"
           id="path3773"
           d="m 246.09706,221.71884 c -6.30643,-0.78071 -10.38723,-3.98477 -10.99779,-6.63942 -0.28025,-0.66141 -0.59555,-2.50173 -0.60903,-2.85342 l -0.32888,-7.33638 c -0.19326,-10.83573 1.04826,-47.83273 1.80005,-53.64084 0.17925,-1.38485 0.7466,-3.43681 1.26077,-4.55991 1.05643,-2.30755 3.58637,-5.23663 5.27911,-6.11198 3.58628,-1.85453 11.72233,-2.34292 38.98072,-2.3399 27.77841,0.003 33.87506,0.45049 36.72913,2.6955 1.5961,1.25549 4.54887,6.06944 4.99294,8.14007 0.521,2.42936 1.0476,11.0428 1.51198,24.73133 1.22879,36.22093 0.94837,40.58277 -2.85383,44.38923 -1.96622,1.96843 -3.45991,2.68092 -6.71823,3.20464 -3.29018,0.52883 -65.04891,0.81602 -69.04694,0.32108 l 0,0 z"
           style="fill:#ffff00;fill-opacity:1;fill-rule:evenodd;stroke:#ffff00;stroke-width:1.5;stroke-miterlimit:4;stroke-opacity:1;stroke-dasharray:none" />
        <path
           sodipodi:nodetypes="ccccsssssssssccc"
           id="path3775"
           d="m 336.63636,409.41169 c -1.84146,-0.60618 -4.03785,-1.62441 -5.02153,-2.68823 -0.87895,-0.87819 -1.65047,-2.25757 -1.81885,-3.26787 l 0.047,-15.48259 c 0.0467,-15.37208 0.5344,-32.31091 1.29224,-44.88295 0.46331,-7.68592 0.95366,-9.25131 4.27528,-12.62643 3.03402,-3.08289 4.75551,-3.81759 8.67596,-4.23767 4.11346,-0.44077 30.94844,-1.3769 49.19441,-1.71612 13.33569,-0.24794 13.71023,-0.23514 15.18816,0.51884 2.19665,1.12065 3.8488,2.93796 5.13556,5.64899 1.60071,3.37247 1.66878,6.5525 0.4821,22.52461 -2.94793,39.67754 -3.3099,42.26799 -6.52406,46.68959 -2.26662,3.1181 -5.79416,4.83572 -12.09205,5.88784 -11.46997,1.91617 -55.74386,4.6493 -58.83426,3.63199 l 0,0 4e-5,0 z"
           style="fill:#ffff00;fill-opacity:1;fill-rule:evenodd;stroke:#ffff00;stroke-width:1.5;stroke-miterlimit:4;stroke-opacity:1;stroke-dasharray:none" />
        <path
           sodipodi:nodetypes="csssssscccccssccc"
           id="path3777"
           d="m 343.55539,319.95362 c -3.95331,-0.41754 -8.05302,-2.73757 -9.38328,-5.31 -0.31482,-0.60879 -0.8238,-2.31622 -1.13107,-3.79429 -1.20479,-5.79539 -1.62706,-61.32476 -0.52312,-68.79139 0.90252,-6.10431 2.77869,-9.59304 6.05886,-11.26646 2.95654,-1.50832 6.0465,-1.91886 14.35919,-1.90782 11.49452,0.0153 46.72205,0.68459 52.42791,1.41864 2.98785,0.38439 5.06233,0.12913 8.67186,3.05874 1.57348,2.16153 1.81885,4.72032 2.00801,6.61702 l 0,35.27025 0,35.27024 c -0.072,2.47915 -1.47346,3.96115 -2.9291,5.40254 -3.43488,3.22981 -6.17737,2.08266 -9.47888,2.54017 -3.2135,0.44532 -17.92824,1.05918 -35.90599,1.49789 -16.47495,0.40204 -20.32382,0.40116 -24.17439,-0.006 l 0,1e-5 0,4.6e-4 z"
           style="fill:#ff0000;fill-opacity:1;fill-rule:evenodd;stroke:#ff0000;stroke-width:1.5;stroke-miterlimit:4;stroke-opacity:1;stroke-dasharray:none" />
        <path
           id="path3779"
           d="m 390.95045,224.96961 c -16.95961,-0.62033 -41.06707,-1.72504 -44.5687,-2.04233 -5.47808,-0.49638 -6.82337,-0.85951 -9.31738,-2.51493 -3.51434,-2.33269 -4.83327,-5.42614 -5.65667,-13.26732 -0.90712,-8.63834 -2.38057,-53.49044 -1.88687,-57.43639 0.33702,-2.69373 1.09071,-4.40849 2.83158,-6.4423 1.53082,-1.78842 3.115,-2.47543 7.1033,-3.08051 3.66204,-0.55558 8.77624,-0.34576 28.08681,1.15234 30.438,2.36136 34.59304,3.06424 38.32517,6.48319 3.74772,3.43324 4.63367,7.46401 6.59507,30.00522 2.28072,26.21102 2.64765,35.89996 1.49233,39.40587 -1.19377,3.62258 -3.70628,6.4142 -6.49194,7.21312 -1.39161,0.39911 -11.31687,0.71409 -16.5127,0.52404 l 0,0 z"
           style="fill:#ff8000;fill-opacity:1;fill-rule:evenodd;stroke:#ff8000;stroke-width:1.5;stroke-miterlimit:4;stroke-opacity:1;stroke-dasharray:none" />
      </g>
      <g
         style="display:inline"
         inkscape:label="vecto lettre"
         id="layer3">
        <path
           sodipodi:nodetypes="csssscccssscccssscccccccssscccccccscccccccssssscccccscccssccssccccccccccccsssssssssssssssc"
           id="path2824-9"
           d="m 273.23862,299.52646 c 2.44004,-7.27497 4.19593,-13.61637 3.90196,-14.09202 -0.29396,-0.47564 -2.30792,-0.8648 -4.47546,-0.8648 -2.16754,0 -3.93415,-0.1125 -3.9258,-0.25 0.008,-0.1375 0.61842,-2.275 1.35571,-4.75 1.33413,-4.4785 1.36415,-4.50141 6.28221,-4.79523 l 4.94169,-0.29524 3.84131,-11.70476 c 2.11273,-6.43762 4.05204,-12.26727 4.3096,-12.95477 0.36353,-0.9704 -3.47004,-1.25 -17.13871,-1.25 -16.83641,0 -17.60699,0.086 -17.60699,1.9652 0,1.08087 1.45073,3.6175 3.22385,5.63697 l 3.22385,3.67176 -3.86081,3.3374 c -2.12345,1.83558 -4.21598,3.11791 -4.65007,2.84962 -0.43409,-0.26828 -2.62246,-3.23303 -4.86304,-6.58832 -4.44885,-6.6622 -5.1485,-10.89366 -2.6122,-15.79834 2.87459,-5.55884 6.26871,-6.07429 39.99776,-6.07429 l 30.41887,0 -1.78017,5.25 -1.78018,5.25 -5.61856,0.2987 -5.61856,0.2987 -3.58796,11.49352 c -1.97337,6.32144 -3.83968,12.14952 -4.14735,12.9513 -0.44906,1.17022 0.54661,1.45778 5.04758,1.45778 3.08385,0 5.60699,0.14484 5.60699,0.32186 0,0.17702 -0.71001,2.40561 -1.57779,4.95242 l -1.57779,4.63055 -5.65827,0.29759 -5.65827,0.29758 -3.80143,11.68209 -3.80143,11.68208 -5.21251,1.71357 c -2.86688,0.94247 -5.75745,1.91443 -6.42349,2.15993 -0.69409,0.25584 0.68263,-5.19941 3.22546,-12.78085 z m -109.82753,10.87762 c -2.33965,-8.29799 -3.68695,-15.56394 -3.68695,-19.88366 l 0,-3.95078 -6.625,0 -6.625,0 0.55224,-2.75 c 1.53952,-7.66641 2.15303,-8.25 8.67301,-8.25 5.00907,0 6.02475,-0.28725 6.02475,-1.70388 0,-0.93714 2.04772,-5.91321 4.55048,-11.05794 7.94006,-16.32173 20.87293,-27.13485 33.55107,-28.05191 10.36753,-0.74992 16.50336,4.50303 17.57443,15.04565 0.74418,7.32495 -0.73896,14.43674 -7.40533,35.50908 l -5.77065,18.24099 -5.64143,0.009 -5.64142,0.009 2.39129,-7.75 c 1.31521,-4.2625 2.39135,-8.0875 2.39142,-8.5 8e-5,-0.41249 -6.07486,-0.74999 -13.49986,-0.74999 l -13.5,0 0,4.81763 c 0,2.64969 0.88941,8.16219 1.97646,12.25 2.47589,9.31041 2.50261,8.79973 -0.52056,9.94914 -6.95392,2.64387 -7.14587,2.57421 -8.76895,-3.18233 z m 40.59029,-41.33444 c 2.4782,-8.00749 3.42521,-19.94867 1.74283,-21.97582 -1.60521,-1.93415 -7.04789,-1.95722 -11.61435,-0.0492 -6.93828,2.89899 -18.91533,17.65397 -20.94461,25.80244 l -0.69168,2.7774 14.82545,-0.2774 14.82545,-0.27739 1.85691,-6 0,-3e-5 z m 135.04444,38.10409 c 0.29462,-0.76775 1.08899,-3.24275 1.76528,-5.5 l 1.22962,-4.10409 16.86315,0 16.86315,0 1.11808,-2.45393 c 1.03509,-2.27177 0.48012,-3.14893 -7.47662,-11.81701 -4.72709,-5.1497 -9.06487,-10.59973 -9.63952,-12.11118 -4.516,-11.87799 6.44816,-24.39041 27.81363,-31.7412 14.47386,-4.97974 23.53037,0.47998 20.93937,12.62332 -0.72085,3.37844 -13.1603,23.5 -14.52805,23.5 -0.81099,0 -8.22653,-5.48479 -8.24842,-6.10081 -0.0117,-0.33044 2.48324,-4.09148 5.54441,-8.35785 3.06116,-4.26637 5.97502,-8.83351 6.47524,-10.14919 0.81152,-2.13445 0.63535,-2.39215 -1.63527,-2.39215 -1.39962,0 -6.00098,1.42569 -10.22525,3.16819 -8.43358,3.47885 -16.18048,10.04798 -16.18048,13.72056 0,1.31115 3.55537,6.06498 9.09996,12.16741 7.28864,8.02194 9.19201,10.7548 9.56241,13.72967 0.60281,4.84154 -2.96709,11.9037 -7.56025,14.9561 -3.23575,2.15032 -4.32642,2.25807 -22.85699,2.25807 -16.24126,0 -19.37053,-0.23083 -18.92345,-1.39591 z"
           style="fill:#000000;display:inline" />
      </g>
    </g>
  </g>
</svg>
