<?xml version="1.0" encoding="utf-8"?>
<!-- Generator: Adobe Illustrator 21.1.0, SVG Export Plug-In . SVG Version: 6.00 Build 0)  -->
<svg version="1.1" id="Calque_1" xmlns="http://www.w3.org/2000/svg" xmlns:xlink="http://www.w3.org/1999/xlink" x="0px" y="0px"
	 viewBox="0 0 790.5 781.5" style="enable-background:new 0 0 790.5 781.5;" xml:space="preserve">
<style type="text/css">
	.st0{clip-path:url(#SVGID_2_);fill:url(#SVGID_3_);}
	.st1{clip-path:url(#SVGID_5_);fill:url(#SVGID_6_);}
	.st2{clip-path:url(#SVGID_8_);fill:url(#SVGID_9_);}
	.st3{opacity:0.5;}
	.st4{clip-path:url(#SVGID_11_);fill:none;stroke:#F2631C;stroke-width:1.5;stroke-miterlimit:10;}
	.st5{clip-path:url(#SVGID_13_);fill:none;stroke:#F2631C;stroke-width:1.5;stroke-miterlimit:10;}
	.st6{clip-path:url(#SVGID_15_);fill:none;stroke:#F2631C;stroke-width:1.5;stroke-miterlimit:10;}
	.st7{clip-path:url(#SVGID_17_);fill:none;stroke:#F2631C;stroke-width:1.5;stroke-miterlimit:10;}
	.st8{clip-path:url(#SVGID_19_);fill:none;stroke:#019F01;stroke-width:1.5;stroke-miterlimit:10;}
	.st9{clip-path:url(#SVGID_21_);fill:none;stroke:#019F01;stroke-width:1.5;stroke-miterlimit:10;}
	.st10{clip-path:url(#SVGID_23_);fill:none;stroke:#019F01;stroke-width:1.5;stroke-miterlimit:10;}
	.st11{clip-path:url(#SVGID_25_);fill:none;stroke:#019F01;stroke-width:1.5;stroke-miterlimit:10;}
	.st12{clip-path:url(#SVGID_27_);fill:none;stroke:#F2631C;stroke-width:1.5;stroke-miterlimit:10;}
	.st13{clip-path:url(#SVGID_29_);fill:none;stroke:#F2631C;stroke-width:1.5;stroke-miterlimit:10;}
	.st14{clip-path:url(#SVGID_31_);fill:none;stroke:#F2631C;stroke-width:1.5;stroke-miterlimit:10;}
	.st15{clip-path:url(#SVGID_33_);fill:none;stroke:#F2631C;stroke-width:1.5;stroke-miterlimit:10;}
	.st16{opacity:0.85;fill:#E57917;enable-background:new    ;}
	.st17{opacity:0.6;}
	.st18{opacity:0.85;}
	.st19{opacity:0.7;fill:#03050F;enable-background:new    ;}
	
		.st20{clip-path:url(#SVGID_35_);fill:none;stroke:#FFFFFF;stroke-width:3;stroke-linecap:round;stroke-linejoin:round;stroke-miterlimit:10;}
	
		.st21{clip-path:url(#SVGID_37_);fill:none;stroke:#FFFFFF;stroke-width:3;stroke-linecap:round;stroke-linejoin:round;stroke-miterlimit:10;}
	.st22{fill:#A84108;}
	.st23{fill:#EF1F1C;}
	.st24{fill:url(#Letter_x5F_A_1_);}
	.st25{fill:url(#Letter_x5F_F_2_);}
	.st26{clip-path:url(#SVGID_39_);fill:#9FA083;stroke:#FFFFFF;stroke-miterlimit:10;}
	.st27{clip-path:url(#SVGID_41_);fill:#9FA083;stroke:#FFFFFF;stroke-miterlimit:10;}
	.st28{clip-path:url(#SVGID_43_);fill:none;stroke:#FFFFFF;stroke-miterlimit:10;}
	.st29{display:none;clip-path:url(#SVGID_45_);fill:#9FA083;stroke:#FFFFFF;stroke-miterlimit:10;}
	.st30{opacity:0.75;enable-background:new    ;}
	.st31{clip-path:url(#SVGID_47_);fill:#100E56;}
	.st32{clip-path:url(#SVGID_49_);fill:#100E56;}
	.st33{fill:none;stroke:#FFFFFF;stroke-miterlimit:10;}
	.st34{clip-path:url(#SVGID_51_);fill:#2273C4;}
	.st35{clip-path:url(#SVGID_53_);fill:none;stroke:#CBD6EF;stroke-linecap:round;stroke-miterlimit:10;}
	.st36{clip-path:url(#SVGID_55_);fill:none;stroke:#CBD6EF;stroke-linecap:round;stroke-miterlimit:10;}
	.st37{clip-path:url(#SVGID_57_);fill:#A10201;}
	.st38{clip-path:url(#SVGID_59_);fill:#912323;}
	.st39{clip-path:url(#SVGID_61_);fill:none;stroke:#FFFFFF;stroke-linecap:round;stroke-miterlimit:10;}
	.st40{clip-path:url(#SVGID_63_);fill:none;stroke:#FFFFFF;stroke-linecap:round;stroke-miterlimit:10;}
	.st41{clip-path:url(#SVGID_65_);fill:none;stroke:#FFFFFF;stroke-linecap:round;stroke-miterlimit:10;}
</style>
<g id="Logo_x5F_All_x5F_Elements">
	<g id="InColor">
		<g>
			<g>
				<g>
					<defs>
						<path id="SVGID_1_" d="M407.8,774.8c-3.4-0.9-4.9-6.8-6.8-5.4c-2.1,1.2-3.5,3.1-5.4,3.2c-3.8,0-4.9-3.4-8-4.5
							c-1.7,2.4-2.3,6-6.6,6.3c-0.8-0.6-2.2-1.2-3.2-2.3c-5.2-5.3-10.3-10.7-15.5-16c-22.4-22.6-44.8-45.1-67.2-67.6
							c-1.8-1.8-3.9-3.4-4.5-3.9c-3-6.5-2.4-11.7-3.2-16.7c-2.5-3.1-4.8-6.1-7.2-9.1c-0.3-0.4-0.6-0.9-1-1.1
							c-7.5-4.7-12.9-11.6-19.1-17.7c-13.6-13.2-26.9-26.8-40.3-40.1c-7.5-7.4-15.1-14.6-22.5-22.1c-2.7-2.7-5.1-5.7-7.6-8.6
							c-0.7-0.8-1.2-1.8-2-2.3c-6-3.7-10.2-9.3-15.3-13.9c-0.5-0.5-1.3-0.8-1.9-1.2c-1.6,1.7-2.5,4-5.3,4c-0.3,0-0.5,0-0.8-0.1
							c-0.2-0.1-0.5-0.2-0.7-0.4c-18.3-18.3-34.9-37.4-53.5-55.9C76.2,368.5,40.6,238.1,6.6,107.3c0.7-2.4,2.5-2.8,4.3-3.1
							c1.5-0.2,3.1,0.1,4.6,0c0.9-0.1,1.8-0.7,2.7-1.1c-1-2.4-1.9-4.4-2.6-6.5c-0.2-0.7,0-1.5,0-2.6c1.6-0.7,3.2-1.6,4.8-2
							c18.2-4.1,36.4-8.1,54.6-12.1c20-4.4,40-8.7,59.9-13.1c14.7-3.2,29.4-6.7,44.1-9.9c21.7-4.8,43.4-9.6,65.1-14.4
							c24.7-5.5,49.4-11.1,74.1-16.5c23.2-5.1,46.4-10.2,69.6-15.3c4.4-1,8.6-0.9,12.9,0.1c31.9,7.1,63.9,14.1,95.8,21.3
							c21.7,4.8,43.4,9.8,65.1,14.7c25.9,5.8,51.9,11.4,77.9,17.2c31.9,7.1,63.9,14.2,95.8,21.3c10.5,2.3,21,4.5,31.5,6.8
							c2.2,0.5,4.4,1.3,6.2,1.8c2,3.6-0.8,6.3-0.8,9.6c0.9,0.5,1.9,1.3,3,1.6c1.2,0.2,2.5-0.3,3.7-0.1c1.2,0.2,2.4,0.7,3.3,1
							c1.3,2.4,0.5,4.4,0,6.3c-5.4,21-11,42-16.4,63.1c-4.6,17.8-9.2,35.6-13.9,53.4c-0.5,2-1.2,3.9-1.8,5.7
							c-3.4,2.6-6.7,5-10.2,7.6c-0.9,2.8-1.7,5.7-2.7,8.6c-0.9,2.7-1.7,5.3-2.6,8c-0.3,1-1,1.9-1.1,2.9c0,6-2.4,14.9-3.3,20.7
							c-0.1,0.7,0,0.8,0.1,1.6c2.2,0.8,4.7-1.2,6.7-0.5c0.7,2.7-0.3,4.9-0.8,7c-4.7,18.3-9.5,36.6-14.3,54.9
							c-11.1,42.8-22.1,85.6-33.2,128.4c-2.2,8.4-4.5,16.8-6.8,25.5c-1.6,1.6-3.3,3.5-5.1,5.3c-10.3,10.4-20.6,20.7-30.9,31.1
							c-49.2,49.7-98.4,99.4-147.6,149.2c-28.1,28.4-56.2,56.9-84.3,85.3C412,772.1,410.4,773.6,407.8,774.8z"/>
					</defs>
					<clipPath id="SVGID_2_">
						<use xlink:href="#SVGID_1_"  style="overflow:visible;"/>
					</clipPath>
					
						<radialGradient id="SVGID_3_" cx="392.9154" cy="238.546" r="288.4555" gradientTransform="matrix(1 0 0 1 0 62)" gradientUnits="userSpaceOnUse">
						<stop  offset="0" style="stop-color:#FFE800"/>
						<stop  offset="1" style="stop-color:#FFDA00"/>
					</radialGradient>
					<path class="st0" d="M407.9,775.4c-3.4-0.9-4.7-4-6.8-6.3c-2.1,1.2-4,2.3-5.4,3.2c-3.8,0-4.9-3.4-8-4.5
						c-2.5,0.3-2.3,4.8-6.6,5.2c-0.8-0.6-1.5-0.7-2.5-1.8c-5.2-5.3-11-10-16.2-15.3c-22.4-22.6-44.8-45.1-67.2-67.6
						c-1.8-1.8-3.9-3.4-4.5-3.9c-3-6.5-2.4-11.7-3.2-16.7c-2.5-3.1-4.8-6.1-7.2-9.1c-0.3-0.4-0.6-0.9-1-1.1
						c-7.5-4.7-12.9-11.6-19.1-17.7c-13.6-13.2-26.7-26.9-40.1-40.2c-7.5-7.4-14.9-14.8-22.3-22.2c-2.7-2.7-5.1-5.8-7.6-8.6
						c-0.7-0.8-1.4-1.7-2.2-2.2c-6-3.7-10.2-9.3-15.3-13.9c-0.5-0.5-2.3-1.7-2.9-2.1c-1.6,1.7-1.9,4.7-4.6,4.7c-0.3,0-0.5,0-0.8-0.1
						c-0.2-0.1-0.5-0.2-0.7-0.4c-18.3-18.3-36.5-36.1-55.1-54.6C74.7,369,40.7,237.9,6.8,107c0.7-2.4,2.5-2.8,4.3-3.1
						c1.5-0.2,3.1,0.1,4.6,0c0.9-0.1,1.8-0.7,2.7-1.1c-1-2.4-1.9-4.4-2.6-6.5c-0.2-0.7,0-1.5,0-2.6c1.6-0.7,3.2-1.6,4.8-2
						c18.2-4.1,36.4-8.1,54.6-12.1c20-4.4,40-8.7,59.9-13.1c14.7-3.2,29.4-6.7,44.1-9.9c21.7-4.8,43.4-9.6,65.1-14.4
						c24.7-5.5,49.4-11.1,74.1-16.5c23.2-5.1,46.4-10.2,69.6-15.3c4.4-1,8.6-0.9,12.9,0.1c31.9,7.1,63.9,14.1,95.8,21.3
						c21.7,4.8,43.4,9.8,65.1,14.7c25.9,5.8,51.9,11.4,77.9,17.2c31.9,7.1,63.9,14.2,95.8,21.3c10.5,2.3,21,4.5,31.5,6.8
						c2.2,0.5,4.4,1.3,6.2,1.8c2,3.6-0.8,6.3-0.8,9.6c0.9,0.5,1.9,1.3,3,1.6c1.2,0.2,2.5-0.3,3.7-0.1c1.2,0.2,2.4,0.7,3.3,1
						c1.3,2.4,0.5,4.4,0,6.3c-5.4,21-11,42-16.4,63.1c-4.6,17.8-9.2,35.6-13.9,53.4c-0.5,2-1.2,3.9-1.8,5.7c-3.4,2.6-6.7,5-10.2,7.6
						c-0.9,2.8-1.7,5.7-2.7,8.6c-0.9,2.7-1.7,5.3-2.6,8c-0.3,1-1,1.9-1.1,2.9c0,6-2.2,11.5-3.2,17.3c-0.1,0.7,0.2,1.5,0.3,2.2
						c2.2,0.8,4.3,1.6,6.3,2.3c0.7,2.7-0.3,4.9-0.8,7c-4.7,18.3-9.5,36.6-14.3,54.9c-11.1,42.8-22.1,85.6-33.2,128.4
						c-2.2,8.4-4.5,16.8-6.8,25.5c-1.6,1.6-3.3,3.5-5.1,5.3c-10.3,10.4-20.6,20.7-30.9,31.1c-49.2,49.7-98.4,99.4-147.6,149.2
						c-28.1,28.4-56.2,56.9-84.3,85.3C412.1,771.9,410.5,774.2,407.9,775.4z"/>
				</g>
			</g>
			<g>
				<g>
					<defs>
						<path id="SVGID_4_" d="M407.8,774.8c-3.4-0.9-4.9-6.8-6.8-5.4c-2.1,1.2-3.5,3.1-5.4,3.2c-3.8,0-4.9-3.4-8-4.5
							c-1.7,2.4-2.3,6-6.6,6.3c-0.8-0.6-2.2-1.2-3.2-2.3c-5.2-5.3-10.3-10.7-15.5-16c-22.4-22.6-44.8-45.1-67.2-67.6
							c-1.8-1.8-3.9-3.4-4.5-3.9c-3-6.5-2.4-11.7-3.2-16.7c-2.5-3.1-4.8-6.1-7.2-9.1c-0.3-0.4-0.6-0.9-1-1.1
							c-7.5-4.7-12.9-11.6-19.1-17.7c-13.6-13.2-26.9-26.8-40.3-40.1c-7.5-7.4-15.1-14.6-22.5-22.1c-2.7-2.7-5.1-5.7-7.6-8.6
							c-0.7-0.8-1.2-1.8-2-2.3c-6-3.7-10.2-9.3-15.3-13.9c-0.5-0.5-1.3-0.8-1.9-1.2c-1.6,1.7-2.5,4-5.3,4c-0.3,0-0.5,0-0.8-0.1
							c-0.2-0.1-0.5-0.2-0.7-0.4c-18.3-18.3-34.9-37.4-53.5-55.9C76.2,368.5,40.6,238.1,6.6,107.3c0.7-2.4,2.5-2.8,4.3-3.1
							c1.5-0.2,3.1,0.1,4.6,0c0.9-0.1,1.8-0.7,2.7-1.1c-1-2.4-1.9-4.4-2.6-6.5c-0.2-0.7,0-1.5,0-2.6c1.6-0.7,3.2-1.6,4.8-2
							c18.2-4.1,36.4-8.1,54.6-12.1c20-4.4,40-8.7,59.9-13.1c14.7-3.2,29.4-6.7,44.1-9.9c21.7-4.8,43.4-9.6,65.1-14.4
							c24.7-5.5,49.4-11.1,74.1-16.5c23.2-5.1,46.4-10.2,69.6-15.3c4.4-1,8.6-0.9,12.9,0.1c31.9,7.1,63.9,14.1,95.8,21.3
							c21.7,4.8,43.4,9.8,65.1,14.7c25.9,5.8,51.9,11.4,77.9,17.2c31.9,7.1,63.9,14.2,95.8,21.3c10.5,2.3,21,4.5,31.5,6.8
							c2.2,0.5,4.4,1.3,6.2,1.8c2,3.6-0.8,6.3-0.8,9.6c0.9,0.5,1.9,1.3,3,1.6c1.2,0.2,2.5-0.3,3.7-0.1c1.2,0.2,2.4,0.7,3.3,1
							c1.3,2.4,0.5,4.4,0,6.3c-5.4,21-11,42-16.4,63.1c-4.6,17.8-9.2,35.6-13.9,53.4c-0.5,2-1.2,3.9-1.8,5.7
							c-3.4,2.6-6.7,5-10.2,7.6c-0.9,2.8-1.7,5.7-2.7,8.6c-0.9,2.7-1.7,5.3-2.6,8c-0.3,1-1,1.9-1.1,2.9c0,6-2.4,14.9-3.3,20.7
							c-0.1,0.7,0,0.8,0.1,1.6c2.2,0.8,4.7-1.2,6.7-0.5c0.7,2.7-0.3,4.9-0.8,7c-4.7,18.3-9.5,36.6-14.3,54.9
							c-11.1,42.8-22.1,85.6-33.2,128.4c-2.2,8.4-4.5,16.8-6.8,25.5c-1.6,1.6-3.3,3.5-5.1,5.3c-10.3,10.4-20.6,20.7-30.9,31.1
							c-49.2,49.7-98.4,99.4-147.6,149.2c-28.1,28.4-56.2,56.9-84.3,85.3C412,772.1,410.4,773.6,407.8,774.8z"/>
					</defs>
					<clipPath id="SVGID_5_">
						<use xlink:href="#SVGID_4_"  style="overflow:visible;"/>
					</clipPath>
					
						<radialGradient id="SVGID_6_" cx="393.3895" cy="239.9684" r="350.1449" gradientTransform="matrix(1 0 0 1 0 62)" gradientUnits="userSpaceOnUse">
						<stop  offset="0" style="stop-color:#FFD924"/>
						<stop  offset="1" style="stop-color:#FF7D00"/>
					</radialGradient>
					<polygon class="st1" points="385.9,302.9 800.9,89.9 777.6,231.1 694.9,542.7 391.2,802.1 					"/>
				</g>
			</g>
		</g>
		<g id="In_x5F_Green">
			<g>
				<g>
					<defs>
						<polygon id="SVGID_7_" points="6.9,97.7 394.6,299 394.6,804.4 -60.9,732.4 -411.4,184.9 -133.9,-16.1 						"/>
					</defs>
					<clipPath id="SVGID_8_">
						<use xlink:href="#SVGID_7_"  style="overflow:visible;"/>
					</clipPath>
					
						<radialGradient id="SVGID_9_" cx="393.9079" cy="238.8616" r="349.943" gradientTransform="matrix(1 0 0 1 0 62)" gradientUnits="userSpaceOnUse">
						<stop  offset="0" style="stop-color:#00FF00"/>
						<stop  offset="1" style="stop-color:#31BE31"/>
					</radialGradient>
					<path class="st2" d="M407.9,775.7c-3.4-0.9-4.7-4-6.8-6.3c-2.1,1.2-4,2.3-5.4,3.1c-3.8,0-5-3-8-4.5c-0.1,0.1-0.7,0.7-1.1,0.9
						c-0.8-0.6-5.9-0.2-6.9-1.2c-5.2-5.3-8.9-10-14.1-15.3c-22.4-22.6-46-42.6-68.4-65.2c-1.8-1.8-3.5-4.6-4.2-5.2
						c-3-6.5-4.7-9.3-5.4-14.2c-2.5-3.1-4.8-6.1-7.2-9.1c-0.3-0.4-0.6-0.9-1-1.1c-7.5-4.7-12.9-11.6-19.1-17.7
						c-13.6-13.2-26.9-26.8-40.3-40.1c-7.5-7.4-15.1-14.6-22.5-22.1c-2.7-2.7-5.1-5.7-7.6-8.6c-0.7-0.8-1.2-1.8-2-2.3
						c-6-3.7-10.2-9.3-15.3-13.9c-0.5-0.5-1.9-1.4-2.5-1.8c-1.9,1.2-0.9,0.4-3.7,0.3c-0.3,0-2.2,3.6-2.4,3.5s-0.5-0.2-0.7-0.4
						C145,536.2,128,518,109.4,499.4C75.3,368.7,40.7,238.2,6.8,107.3c0.7-2.4,2.5-2.8,4.3-3.1c1.5-0.2,3.1,0.1,4.6,0
						c0.9-0.1,1.8-0.7,2.7-1.1c-1-2.4-1.9-4.4-2.6-6.5c-0.2-0.7,0-1.5,0-2.6c1.6-0.7,3.2-1.6,4.8-2c18.2-4.1,36.4-8.1,54.6-12.1
						c20-4.4,40-8.7,59.9-13.1c14.7-3.2,29.4-6.7,44.1-9.9c21.7-4.8,43.4-9.6,65.1-14.4c24.7-5.5,49.4-11,74.1-16.5
						c23.2-5.1,46.4-10.2,69.6-15.3c4.4-1,8.6-0.9,12.9,0.1c31.9,7.1,63.9,14.1,95.8,21.3c21.7,4.8,43.4,9.8,65.1,14.7
						c25.9,5.8,51.9,11.4,77.9,17.2c31.9,7.1,63.9,14.2,95.8,21.3c10.5,2.3,21,4.5,31.5,6.8c2.2,0.5,4.4,1.3,6.2,1.8
						c2,3.6-0.8,6.3-0.8,9.6c0.9,0.5,1.9,1.3,3,1.6c1.2,0.2,2.5-0.3,3.7-0.1c1.2,0.2,2.4,0.7,3.3,1c1.3,2.4,0.5,4.4,0,6.3
						c-5.4,21-11,42-16.4,63.1c-4.6,17.8-9.2,35.6-13.9,53.4c-0.5,2-1.2,3.9-1.8,5.7c-3.4,2.6-6.7,5-10.2,7.6
						c-0.9,2.8-1.7,5.7-2.7,8.6c-0.9,2.7-1.7,5.3-2.6,8c-0.3,1-1,1.9-1.1,2.9c0,6-2.2,11.5-3.2,17.3c-0.1,0.7,0.2,1.5,0.3,2.2
						c2.2,0.8,4.3,1.6,6.3,2.3c0.7,2.7-0.3,4.9-0.8,7c-4.7,18.3-9.5,36.6-14.3,54.9c-11.1,42.8-22.1,85.6-33.2,128.4
						c-2.2,8.4-4.5,16.8-6.8,25.5c-1.6,1.6-3.3,3.5-5.1,5.3c-10.3,10.4-20.6,20.7-30.9,31.1c-49.2,49.7-98.4,99.4-147.6,149.2
						c-28.1,28.4-56.2,56.9-84.3,85.3C412.1,772.2,410.5,774.5,407.9,775.7z"/>
				</g>
			</g>
		</g>
	</g>
	<g id="Traits_x5F_Jaunes" class="st3">
		<g>
			<g>
				<g>
					<defs>
						<path id="SVGID_10_" d="M407.8,774.9c-3.4-0.9-3.8-4.6-6.9-5.5c-2.1,1.2-3.5,3.1-5.4,3.2c-3.8,0-4.9-3.4-8-4.5
							c-1.7,2.4-2.3,6-6.6,6.3c-0.8-0.6-2.2-1.2-3.2-2.3c-5.2-5.3-10.3-10.7-15.5-16c-22.4-22.6-44.8-45.1-67.2-67.6
							c-1.8-1.8-3.9-3.4-4.5-3.9c-3-6.5-2.4-11.7-3.2-16.7c-2.5-3.1-4.8-6.1-7.2-9.1c-0.3-0.4-0.6-0.9-1-1.1
							c-7.5-4.7-12.9-11.6-19.1-17.7c-13.6-13.2-26.9-26.8-40.3-40.1c-7.5-7.4-15.1-14.6-22.5-22.1c-2.7-2.7-5.1-5.7-7.6-8.6
							c-0.7-0.8-1.2-1.8-2-2.3c-6-3.7-10.2-9.3-15.3-13.9c-0.5-0.5-1.3-0.8-1.9-1.2c-1.6,1.7-2.5,4-5.3,4c-0.3,0-0.5,0-0.8-0.1
							c-0.2-0.1-0.5-0.2-0.7-0.4c-18.3-18.3-35.8-37.1-54.3-55.7C75.3,368.7,40.6,238.1,6.6,107.3c0.7-2.4,2.5-2.8,4.3-3.1
							c1.5-0.2,3.1,0.1,4.6,0c0.9-0.1,1.8-0.7,2.7-1.1c-1-2.4-1.9-4.4-2.6-6.5c-0.2-0.7,0-1.5,0-2.6c1.6-0.7,3.2-1.6,4.8-2
							c18.2-4.1,36.4-8.1,54.6-12.1c20-4.4,40-8.7,59.9-13.1c14.7-3.2,29.4-6.7,44.1-9.9c21.7-4.8,43.4-9.6,65.1-14.4
							c24.7-5.5,49.4-11.1,74.1-16.5c23.2-5.1,46.4-10.2,69.6-15.3c4.4-1,8.6-0.9,12.9,0.1c31.9,7.1,63.9,14.1,95.8,21.3
							c21.7,4.8,43.4,9.8,65.1,14.7c25.9,5.8,51.9,11.4,77.9,17.2c31.9,7.1,63.9,14.2,95.8,21.3c10.5,2.3,21,4.5,31.5,6.8
							c2.2,0.5,4.4,1.3,6.2,1.8c2,3.6-0.8,6.3-0.8,9.6c0.9,0.5,1.9,1.3,3,1.6c1.2,0.2,2.5-0.3,3.7-0.1c1.2,0.2,2.4,0.7,3.3,1
							c1.3,2.4,0.5,4.4,0,6.3c-5.4,21-11,42-16.4,63.1c-4.6,17.8-9.2,35.6-13.9,53.4c-0.5,2-1.2,3.9-1.8,5.7
							c-3.4,2.6-6.7,5-10.2,7.6c-0.9,2.8-1.7,5.7-2.7,8.6c-0.9,2.7-1.7,5.3-2.6,8c-0.3,1-1,1.9-1.1,2.9c0,6-2.2,11.5-3.2,17.3
							c-0.1,0.7,0.2,1.5,0.3,2.2c2.2,0.8,4.3,1.6,6.3,2.3c0.7,2.7-0.3,4.9-0.8,7c-4.7,18.3-9.5,36.6-14.3,54.9
							c-11.1,42.8-22.1,85.6-33.2,128.4c-2.2,8.4-4.5,16.8-6.8,25.5c-1.6,1.6-3.3,3.5-5.1,5.3c-10.3,10.4-20.6,20.7-30.9,31.1
							c-49.2,49.7-98.4,99.4-147.6,149.2c-28.1,28.4-56.2,56.9-84.3,85.3C412,772.1,410.4,773.7,407.8,774.9z"/>
					</defs>
					<clipPath id="SVGID_11_">
						<use xlink:href="#SVGID_10_"  style="overflow:visible;"/>
					</clipPath>
					<line class="st4" x1="76.9" y1="158.7" x2="524.2" y2="31.4"/>
				</g>
			</g>
			<g>
				<g>
					<defs>
						<path id="SVGID_12_" d="M407.8,774.9c-3.4-0.9-3.8-4.6-6.9-5.5c-2.1,1.2-3.5,3.1-5.4,3.2c-3.8,0-4.9-3.4-8-4.5
							c-1.7,2.4-2.3,6-6.6,6.3c-0.8-0.6-2.2-1.2-3.2-2.3c-5.2-5.3-10.3-10.7-15.5-16c-22.4-22.6-44.8-45.1-67.2-67.6
							c-1.8-1.8-3.9-3.4-4.5-3.9c-3-6.5-2.4-11.7-3.2-16.7c-2.5-3.1-4.8-6.1-7.2-9.1c-0.3-0.4-0.6-0.9-1-1.1
							c-7.5-4.7-12.9-11.6-19.1-17.7c-13.6-13.2-26.9-26.8-40.3-40.1c-7.5-7.4-15.1-14.6-22.5-22.1c-2.7-2.7-5.1-5.7-7.6-8.6
							c-0.7-0.8-1.2-1.8-2-2.3c-6-3.7-10.2-9.3-15.3-13.9c-0.5-0.5-1.3-0.8-1.9-1.2c-1.6,1.7-2.5,4-5.3,4c-0.3,0-0.5,0-0.8-0.1
							c-0.2-0.1-0.5-0.2-0.7-0.4c-18.3-18.3-35.8-37.1-54.3-55.7C75.3,368.7,40.6,238.1,6.6,107.3c0.7-2.4,2.5-2.8,4.3-3.1
							c1.5-0.2,3.1,0.1,4.6,0c0.9-0.1,1.8-0.7,2.7-1.1c-1-2.4-1.9-4.4-2.6-6.5c-0.2-0.7,0-1.5,0-2.6c1.6-0.7,3.2-1.6,4.8-2
							c18.2-4.1,36.4-8.1,54.6-12.1c20-4.4,40-8.7,59.9-13.1c14.7-3.2,29.4-6.7,44.1-9.9c21.7-4.8,43.4-9.6,65.1-14.4
							c24.7-5.5,49.4-11.1,74.1-16.5c23.2-5.1,46.4-10.2,69.6-15.3c4.4-1,8.6-0.9,12.9,0.1c31.9,7.1,63.9,14.1,95.8,21.3
							c21.7,4.8,43.4,9.8,65.1,14.7c25.9,5.8,51.9,11.4,77.9,17.2c31.9,7.1,63.9,14.2,95.8,21.3c10.5,2.3,21,4.5,31.5,6.8
							c2.2,0.5,4.4,1.3,6.2,1.8c2,3.6-0.8,6.3-0.8,9.6c0.9,0.5,1.9,1.3,3,1.6c1.2,0.2,2.5-0.3,3.7-0.1c1.2,0.2,2.4,0.7,3.3,1
							c1.3,2.4,0.5,4.4,0,6.3c-5.4,21-11,42-16.4,63.1c-4.6,17.8-9.2,35.6-13.9,53.4c-0.5,2-1.2,3.9-1.8,5.7
							c-3.4,2.6-6.7,5-10.2,7.6c-0.9,2.8-1.7,5.7-2.7,8.6c-0.9,2.7-1.7,5.3-2.6,8c-0.3,1-1,1.9-1.1,2.9c0,6-2.2,11.5-3.2,17.3
							c-0.1,0.7,0.2,1.5,0.3,2.2c2.2,0.8,4.3,1.6,6.3,2.3c0.7,2.7-0.3,4.9-0.8,7c-4.7,18.3-9.5,36.6-14.3,54.9
							c-11.1,42.8-22.1,85.6-33.2,128.4c-2.2,8.4-4.5,16.8-6.8,25.5c-1.6,1.6-3.3,3.5-5.1,5.3c-10.3,10.4-20.6,20.7-30.9,31.1
							c-49.2,49.7-98.4,99.4-147.6,149.2c-28.1,28.4-56.2,56.9-84.3,85.3C412,772.1,410.4,773.7,407.8,774.9z"/>
					</defs>
					<clipPath id="SVGID_13_">
						<use xlink:href="#SVGID_12_"  style="overflow:visible;"/>
					</clipPath>
					<line class="st5" x1="204.2" y1="221.4" x2="654.2" y2="56.7"/>
				</g>
			</g>
			<g>
				<g>
					<defs>
						<path id="SVGID_14_" d="M407.8,774.9c-3.4-0.9-3.8-4.6-6.9-5.5c-2.1,1.2-3.5,3.1-5.4,3.2c-3.8,0-4.9-3.4-8-4.5
							c-1.7,2.4-2.3,6-6.6,6.3c-0.8-0.6-2.2-1.2-3.2-2.3c-5.2-5.3-10.3-10.7-15.5-16c-22.4-22.6-44.8-45.1-67.2-67.6
							c-1.8-1.8-3.9-3.4-4.5-3.9c-3-6.5-2.4-11.7-3.2-16.7c-2.5-3.1-4.8-6.1-7.2-9.1c-0.3-0.4-0.6-0.9-1-1.1
							c-7.5-4.7-12.9-11.6-19.1-17.7c-13.6-13.2-26.9-26.8-40.3-40.1c-7.5-7.4-15.1-14.6-22.5-22.1c-2.7-2.7-5.1-5.7-7.6-8.6
							c-0.7-0.8-1.2-1.8-2-2.3c-6-3.7-10.2-9.3-15.3-13.9c-0.5-0.5-1.3-0.8-1.9-1.2c-1.6,1.7-2.5,4-5.3,4c-0.3,0-0.5,0-0.8-0.1
							c-0.2-0.1-0.5-0.2-0.7-0.4c-18.3-18.3-35.8-37.1-54.3-55.7C75.3,368.7,40.6,238.1,6.6,107.3c0.7-2.4,2.5-2.8,4.3-3.1
							c1.5-0.2,3.1,0.1,4.6,0c0.9-0.1,1.8-0.7,2.7-1.1c-1-2.4-1.9-4.4-2.6-6.5c-0.2-0.7,0-1.5,0-2.6c1.6-0.7,3.2-1.6,4.8-2
							c18.2-4.1,36.4-8.1,54.6-12.1c20-4.4,40-8.7,59.9-13.1c14.7-3.2,29.4-6.7,44.1-9.9c21.7-4.8,43.4-9.6,65.1-14.4
							c24.7-5.5,49.4-11.1,74.1-16.5c23.2-5.1,46.4-10.2,69.6-15.3c4.4-1,8.6-0.9,12.9,0.1c31.9,7.1,63.9,14.1,95.8,21.3
							c21.7,4.8,43.4,9.8,65.1,14.7c25.9,5.8,51.9,11.4,77.9,17.2c31.9,7.1,63.9,14.2,95.8,21.3c10.5,2.3,21,4.5,31.5,6.8
							c2.2,0.5,4.4,1.3,6.2,1.8c2,3.6-0.8,6.3-0.8,9.6c0.9,0.5,1.9,1.3,3,1.6c1.2,0.2,2.5-0.3,3.7-0.1c1.2,0.2,2.4,0.7,3.3,1
							c1.3,2.4,0.5,4.4,0,6.3c-5.4,21-11,42-16.4,63.1c-4.6,17.8-9.2,35.6-13.9,53.4c-0.5,2-1.2,3.9-1.8,5.7
							c-3.4,2.6-6.7,5-10.2,7.6c-0.9,2.8-1.7,5.7-2.7,8.6c-0.9,2.7-1.7,5.3-2.6,8c-0.3,1-1,1.9-1.1,2.9c0,6-2.2,11.5-3.2,17.3
							c-0.1,0.7,0.2,1.5,0.3,2.2c2.2,0.8,4.3,1.6,6.3,2.3c0.7,2.7-0.3,4.9-0.8,7c-4.7,18.3-9.5,36.6-14.3,54.9
							c-11.1,42.8-22.1,85.6-33.2,128.4c-2.2,8.4-4.5,16.8-6.8,25.5c-1.6,1.6-3.3,3.5-5.1,5.3c-10.3,10.4-20.6,20.7-30.9,31.1
							c-49.2,49.7-98.4,99.4-147.6,149.2c-28.1,28.4-56.2,56.9-84.3,85.3C412,772.1,410.4,773.7,407.8,774.9z"/>
					</defs>
					<clipPath id="SVGID_15_">
						<use xlink:href="#SVGID_14_"  style="overflow:visible;"/>
					</clipPath>
					<line class="st6" x1="590.9" y1="224.1" x2="91.6" y2="39.4"/>
				</g>
			</g>
			<g>
				<g>
					<defs>
						<path id="SVGID_16_" d="M407.8,774.9c-3.4-0.9-3.8-4.6-6.9-5.5c-2.1,1.2-3.5,3.1-5.4,3.2c-3.8,0-4.9-3.4-8-4.5
							c-1.7,2.4-2.3,6-6.6,6.3c-0.8-0.6-2.2-1.2-3.2-2.3c-5.2-5.3-10.3-10.7-15.5-16c-22.4-22.6-44.8-45.1-67.2-67.6
							c-1.8-1.8-3.9-3.4-4.5-3.9c-3-6.5-2.4-11.7-3.2-16.7c-2.5-3.1-4.8-6.1-7.2-9.1c-0.3-0.4-0.6-0.9-1-1.1
							c-7.5-4.7-12.9-11.6-19.1-17.7c-13.6-13.2-26.9-26.8-40.3-40.1c-7.5-7.4-15.1-14.6-22.5-22.1c-2.7-2.7-5.1-5.7-7.6-8.6
							c-0.7-0.8-1.2-1.8-2-2.3c-6-3.7-10.2-9.3-15.3-13.9c-0.5-0.5-1.3-0.8-1.9-1.2c-1.6,1.7-2.5,4-5.3,4c-0.3,0-0.5,0-0.8-0.1
							c-0.2-0.1-0.5-0.2-0.7-0.4c-18.3-18.3-35.8-37.1-54.3-55.7C75.3,368.7,40.6,238.1,6.6,107.3c0.7-2.4,2.5-2.8,4.3-3.1
							c1.5-0.2,3.1,0.1,4.6,0c0.9-0.1,1.8-0.7,2.7-1.1c-1-2.4-1.9-4.4-2.6-6.5c-0.2-0.7,0-1.5,0-2.6c1.6-0.7,3.2-1.6,4.8-2
							c18.2-4.1,36.4-8.1,54.6-12.1c20-4.4,40-8.7,59.9-13.1c14.7-3.2,29.4-6.7,44.1-9.9c21.7-4.8,43.4-9.6,65.1-14.4
							c24.7-5.5,49.4-11.1,74.1-16.5c23.2-5.1,46.4-10.2,69.6-15.3c4.4-1,8.6-0.9,12.9,0.1c31.9,7.1,63.9,14.1,95.8,21.3
							c21.7,4.8,43.4,9.8,65.1,14.7c25.9,5.8,51.9,11.4,77.9,17.2c31.9,7.1,63.9,14.2,95.8,21.3c10.5,2.3,21,4.5,31.5,6.8
							c2.2,0.5,4.4,1.3,6.2,1.8c2,3.6-0.8,6.3-0.8,9.6c0.9,0.5,1.9,1.3,3,1.6c1.2,0.2,2.5-0.3,3.7-0.1c1.2,0.2,2.4,0.7,3.3,1
							c1.3,2.4,0.5,4.4,0,6.3c-5.4,21-11,42-16.4,63.1c-4.6,17.8-9.2,35.6-13.9,53.4c-0.5,2-1.2,3.9-1.8,5.7
							c-3.4,2.6-6.7,5-10.2,7.6c-0.9,2.8-1.7,5.7-2.7,8.6c-0.9,2.7-1.7,5.3-2.6,8c-0.3,1-1,1.9-1.1,2.9c0,6-2.2,11.5-3.2,17.3
							c-0.1,0.7,0.2,1.5,0.3,2.2c2.2,0.8,4.3,1.6,6.3,2.3c0.7,2.7-0.3,4.9-0.8,7c-4.7,18.3-9.5,36.6-14.3,54.9
							c-11.1,42.8-22.1,85.6-33.2,128.4c-2.2,8.4-4.5,16.8-6.8,25.5c-1.6,1.6-3.3,3.5-5.1,5.3c-10.3,10.4-20.6,20.7-30.9,31.1
							c-49.2,49.7-98.4,99.4-147.6,149.2c-28.1,28.4-56.2,56.9-84.3,85.3C412,772.1,410.4,773.7,407.8,774.9z"/>
					</defs>
					<clipPath id="SVGID_17_">
						<use xlink:href="#SVGID_16_"  style="overflow:visible;"/>
					</clipPath>
					<line class="st7" x1="710.9" y1="158.7" x2="210.2" y2="16.1"/>
				</g>
			</g>
		</g>
	</g>
	<g id="Traits_x5F_Verts">
		<g>
			<g>
				<g>
					<defs>
						<path id="SVGID_18_" d="M407.8,774.8c-3.4-0.9-3.7-4.3-6.8-5.4c-2.1,1.2-3.5,3.1-5.4,3.2c-3.8,0-4.9-3.4-8-4.5
							c-1.7,2.4-2.3,6-6.6,6.3c-0.8-0.6-1.8-1.5-2.8-2.6c-5.2-5.3-10.7-10.4-15.9-15.7c-22.4-22.6-44.8-45.1-67.2-67.6
							c-1.8-1.8-3.9-3.4-4.5-3.9c-3-6.5-2.4-11.7-3.2-16.7c-2.5-3.1-4.8-6.1-7.2-9.1c-0.3-0.4-0.6-0.9-1-1.1
							c-7.5-4.7-12.9-11.6-19.1-17.7c-13.6-13.2-26.9-26.8-40.3-40.1c-7.5-7.4-15.1-14.6-22.5-22.1c-2.7-2.7-5.1-5.7-7.6-8.6
							c-0.7-0.8-1.2-1.8-2-2.3c-6-3.7-10.2-9.3-15.3-13.9c-0.5-0.5-1.3-0.8-1.9-1.2c-1.6,1.7-2.5,4-5.3,4c-0.3,0-0.5,0-0.8-0.1
							c-0.2-0.1-0.5-0.2-0.7-0.4c-18.3-18.3-35.4-37.4-53.9-56C75.7,368.4,40.6,238.1,6.6,107.3c0.7-2.4,2.5-2.8,4.3-3.1
							c1.5-0.2,3.1,0.1,4.6,0c0.9-0.1,1.8-0.7,2.7-1.1c-1-2.4-1.9-4.4-2.6-6.5c-0.2-0.7,0-1.5,0-2.6c1.6-0.7,3.2-1.6,4.8-2
							c18.2-4.1,36.4-8.1,54.6-12.1c20-4.4,40-8.7,59.9-13.1c14.7-3.2,29.4-6.7,44.1-9.9c21.7-4.8,43.4-9.6,65.1-14.4
							c24.7-5.5,49.4-11.1,74.1-16.5c23.2-5.1,46.4-10.2,69.6-15.3c4.4-1,8.6-0.9,12.9,0.1c31.9,7.1,63.9,14.1,95.8,21.3
							c21.7,4.8,43.4,9.8,65.1,14.7c25.9,5.8,51.9,11.4,77.9,17.2c31.9,7.1,63.9,14.2,95.8,21.3c10.5,2.3,21,4.5,31.5,6.8
							c2.2,0.5,4.4,1.3,6.2,1.8c2,3.6-0.8,6.3-0.8,9.6c0.9,0.5,1.9,1.3,3,1.6c1.2,0.2,2.5-0.3,3.7-0.1c1.2,0.2,2.4,0.7,3.3,1
							c1.3,2.4,0.5,4.4,0,6.3c-5.4,21-11,42-16.4,63.1c-4.6,17.8-9.2,35.6-13.9,53.4c-0.5,2-1.2,3.9-1.8,5.7
							c-3.4,2.6-6.7,5-10.2,7.6c-0.9,2.8-1.7,5.7-2.7,8.6c-0.9,2.7-1.7,5.3-2.6,8c-0.3,1-1,1.9-1.1,2.9c0,6-2.2,11.5-3.2,17.3
							c-0.1,0.7,0.2,1.5,0.3,2.2c2.2,0.8,4.3,1.6,6.3,2.3c0.7,2.7-0.3,4.9-0.8,7c-4.7,18.3-9.5,36.6-14.3,54.9
							c-11.1,42.8-22.1,85.6-33.2,128.4c-2.2,8.4-4.5,16.8-6.8,25.5c-1.6,1.6-3.3,3.5-5.1,5.3c-10.3,10.4-20.6,20.7-30.9,31.1
							c-49.2,49.7-98.4,99.4-147.6,149.2c-28.1,28.4-56.2,56.9-84.3,85.3C412,772.1,410.4,773.6,407.8,774.8z"/>
					</defs>
					<clipPath id="SVGID_19_">
						<use xlink:href="#SVGID_18_"  style="overflow:visible;"/>
					</clipPath>
					<line class="st8" x1="-115.8" y1="213.7" x2="395.1" y2="657.4"/>
				</g>
			</g>
			<g>
				<g>
					<defs>
						<path id="SVGID_20_" d="M407.8,774.8c-3.4-0.9-3.7-4.3-6.8-5.4c-2.1,1.2-3.5,3.1-5.4,3.2c-3.8,0-4.9-3.4-8-4.5
							c-1.7,2.4-2.3,6-6.6,6.3c-0.8-0.6-1.8-1.5-2.8-2.6c-5.2-5.3-10.7-10.4-15.9-15.7c-22.4-22.6-44.8-45.1-67.2-67.6
							c-1.8-1.8-3.9-3.4-4.5-3.9c-3-6.5-2.4-11.7-3.2-16.7c-2.5-3.1-4.8-6.1-7.2-9.1c-0.3-0.4-0.6-0.9-1-1.1
							c-7.5-4.7-12.9-11.6-19.1-17.7c-13.6-13.2-26.9-26.8-40.3-40.1c-7.5-7.4-15.1-14.6-22.5-22.1c-2.7-2.7-5.1-5.7-7.6-8.6
							c-0.7-0.8-1.2-1.8-2-2.3c-6-3.7-10.2-9.3-15.3-13.9c-0.5-0.5-1.3-0.8-1.9-1.2c-1.6,1.7-2.5,4-5.3,4c-0.3,0-0.5,0-0.8-0.1
							c-0.2-0.1-0.5-0.2-0.7-0.4c-18.3-18.3-35.4-37.4-53.9-56C75.7,368.4,40.6,238.1,6.6,107.3c0.7-2.4,2.5-2.8,4.3-3.1
							c1.5-0.2,3.1,0.1,4.6,0c0.9-0.1,1.8-0.7,2.7-1.1c-1-2.4-1.9-4.4-2.6-6.5c-0.2-0.7,0-1.5,0-2.6c1.6-0.7,3.2-1.6,4.8-2
							c18.2-4.1,36.4-8.1,54.6-12.1c20-4.4,40-8.7,59.9-13.1c14.7-3.2,29.4-6.7,44.1-9.9c21.7-4.8,43.4-9.6,65.1-14.4
							c24.7-5.5,49.4-11.1,74.1-16.5c23.2-5.1,46.4-10.2,69.6-15.3c4.4-1,8.6-0.9,12.9,0.1c31.9,7.1,63.9,14.1,95.8,21.3
							c21.7,4.8,43.4,9.8,65.1,14.7c25.9,5.8,51.9,11.4,77.9,17.2c31.9,7.1,63.9,14.2,95.8,21.3c10.5,2.3,21,4.5,31.5,6.8
							c2.2,0.5,4.4,1.3,6.2,1.8c2,3.6-0.8,6.3-0.8,9.6c0.9,0.5,1.9,1.3,3,1.6c1.2,0.2,2.5-0.3,3.7-0.1c1.2,0.2,2.4,0.7,3.3,1
							c1.3,2.4,0.5,4.4,0,6.3c-5.4,21-11,42-16.4,63.1c-4.6,17.8-9.2,35.6-13.9,53.4c-0.5,2-1.2,3.9-1.8,5.7
							c-3.4,2.6-6.7,5-10.2,7.6c-0.9,2.8-1.7,5.7-2.7,8.6c-0.9,2.7-1.7,5.3-2.6,8c-0.3,1-1,1.9-1.1,2.9c0,6-2.2,11.5-3.2,17.3
							c-0.1,0.7,0.2,1.5,0.3,2.2c2.2,0.8,4.3,1.6,6.3,2.3c0.7,2.7-0.3,4.9-0.8,7c-4.7,18.3-9.5,36.6-14.3,54.9
							c-11.1,42.8-22.1,85.6-33.2,128.4c-2.2,8.4-4.5,16.8-6.8,25.5c-1.6,1.6-3.3,3.5-5.1,5.3c-10.3,10.4-20.6,20.7-30.9,31.1
							c-49.2,49.7-98.4,99.4-147.6,149.2c-28.1,28.4-56.2,56.9-84.3,85.3C412,772.1,410.4,773.6,407.8,774.8z"/>
					</defs>
					<clipPath id="SVGID_21_">
						<use xlink:href="#SVGID_20_"  style="overflow:visible;"/>
					</clipPath>
					<line class="st9" x1="-34.4" y1="193.4" x2="395.2" y2="504.4"/>
				</g>
			</g>
			<g>
				<g>
					<defs>
						<path id="SVGID_22_" d="M407.8,774.8c-3.4-0.9-3.7-4.3-6.8-5.4c-2.1,1.2-3.5,3.1-5.4,3.2c-3.8,0-4.9-3.4-8-4.5
							c-1.7,2.4-2.3,6-6.6,6.3c-0.8-0.6-1.8-1.5-2.8-2.6c-5.2-5.3-10.7-10.4-15.9-15.7c-22.4-22.6-44.8-45.1-67.2-67.6
							c-1.8-1.8-3.9-3.4-4.5-3.9c-3-6.5-2.4-11.7-3.2-16.7c-2.5-3.1-4.8-6.1-7.2-9.1c-0.3-0.4-0.6-0.9-1-1.1
							c-7.5-4.7-12.9-11.6-19.1-17.7c-13.6-13.2-26.9-26.8-40.3-40.1c-7.5-7.4-15.1-14.6-22.5-22.1c-2.7-2.7-5.1-5.7-7.6-8.6
							c-0.7-0.8-1.2-1.8-2-2.3c-6-3.7-10.2-9.3-15.3-13.9c-0.5-0.5-1.3-0.8-1.9-1.2c-1.6,1.7-2.5,4-5.3,4c-0.3,0-0.5,0-0.8-0.1
							c-0.2-0.1-0.5-0.2-0.7-0.4c-18.3-18.3-35.4-37.4-53.9-56C75.7,368.4,40.6,238.1,6.6,107.3c0.7-2.4,2.5-2.8,4.3-3.1
							c1.5-0.2,3.1,0.1,4.6,0c0.9-0.1,1.8-0.7,2.7-1.1c-1-2.4-1.9-4.4-2.6-6.5c-0.2-0.7,0-1.5,0-2.6c1.6-0.7,3.2-1.6,4.8-2
							c18.2-4.1,36.4-8.1,54.6-12.1c20-4.4,40-8.7,59.9-13.1c14.7-3.2,29.4-6.7,44.1-9.9c21.7-4.8,43.4-9.6,65.1-14.4
							c24.7-5.5,49.4-11.1,74.1-16.5c23.2-5.1,46.4-10.2,69.6-15.3c4.4-1,8.6-0.9,12.9,0.1c31.9,7.1,63.9,14.1,95.8,21.3
							c21.7,4.8,43.4,9.8,65.1,14.7c25.9,5.8,51.9,11.4,77.9,17.2c31.9,7.1,63.9,14.2,95.8,21.3c10.5,2.3,21,4.5,31.5,6.8
							c2.2,0.5,4.4,1.3,6.2,1.8c2,3.6-0.8,6.3-0.8,9.6c0.9,0.5,1.9,1.3,3,1.6c1.2,0.2,2.5-0.3,3.7-0.1c1.2,0.2,2.4,0.7,3.3,1
							c1.3,2.4,0.5,4.4,0,6.3c-5.4,21-11,42-16.4,63.1c-4.6,17.8-9.2,35.6-13.9,53.4c-0.5,2-1.2,3.9-1.8,5.7
							c-3.4,2.6-6.7,5-10.2,7.6c-0.9,2.8-1.7,5.7-2.7,8.6c-0.9,2.7-1.7,5.3-2.6,8c-0.3,1-1,1.9-1.1,2.9c0,6-2.2,11.5-3.2,17.3
							c-0.1,0.7,0.2,1.5,0.3,2.2c2.2,0.8,4.3,1.6,6.3,2.3c0.7,2.7-0.3,4.9-0.8,7c-4.7,18.3-9.5,36.6-14.3,54.9
							c-11.1,42.8-22.1,85.6-33.2,128.4c-2.2,8.4-4.5,16.8-6.8,25.5c-1.6,1.6-3.3,3.5-5.1,5.3c-10.3,10.4-20.6,20.7-30.9,31.1
							c-49.2,49.7-98.4,99.4-147.6,149.2c-28.1,28.4-56.2,56.9-84.3,85.3C412,772.1,410.4,773.6,407.8,774.8z"/>
					</defs>
					<clipPath id="SVGID_23_">
						<use xlink:href="#SVGID_22_"  style="overflow:visible;"/>
					</clipPath>
					<line class="st10" x1="236.1" y1="276.6" x2="281.2" y2="669.1"/>
				</g>
			</g>
			<g>
				<g>
					<defs>
						<path id="SVGID_24_" d="M407.8,774.8c-3.4-0.9-3.7-4.3-6.8-5.4c-2.1,1.2-3.5,3.1-5.4,3.2c-3.8,0-4.9-3.4-8-4.5
							c-1.7,2.4-2.3,6-6.6,6.3c-0.8-0.6-1.8-1.5-2.8-2.6c-5.2-5.3-10.7-10.4-15.9-15.7c-22.4-22.6-44.8-45.1-67.2-67.6
							c-1.8-1.8-3.9-3.4-4.5-3.9c-3-6.5-2.4-11.7-3.2-16.7c-2.5-3.1-4.8-6.1-7.2-9.1c-0.3-0.4-0.6-0.9-1-1.1
							c-7.5-4.7-12.9-11.6-19.1-17.7c-13.6-13.2-26.9-26.8-40.3-40.1c-7.5-7.4-15.1-14.6-22.5-22.1c-2.7-2.7-5.1-5.7-7.6-8.6
							c-0.7-0.8-1.2-1.8-2-2.3c-6-3.7-10.2-9.3-15.3-13.9c-0.5-0.5-1.3-0.8-1.9-1.2c-1.6,1.7-2.5,4-5.3,4c-0.3,0-0.5,0-0.8-0.1
							c-0.2-0.1-0.5-0.2-0.7-0.4c-18.3-18.3-35.4-37.4-53.9-56C75.7,368.4,40.6,238.1,6.6,107.3c0.7-2.4,2.5-2.8,4.3-3.1
							c1.5-0.2,3.1,0.1,4.6,0c0.9-0.1,1.8-0.7,2.7-1.1c-1-2.4-1.9-4.4-2.6-6.5c-0.2-0.7,0-1.5,0-2.6c1.6-0.7,3.2-1.6,4.8-2
							c18.2-4.1,36.4-8.1,54.6-12.1c20-4.4,40-8.7,59.9-13.1c14.7-3.2,29.4-6.7,44.1-9.9c21.7-4.8,43.4-9.6,65.1-14.4
							c24.7-5.5,49.4-11.1,74.1-16.5c23.2-5.1,46.4-10.2,69.6-15.3c4.4-1,8.6-0.9,12.9,0.1c31.9,7.1,63.9,14.1,95.8,21.3
							c21.7,4.8,43.4,9.8,65.1,14.7c25.9,5.8,51.9,11.4,77.9,17.2c31.9,7.1,63.9,14.2,95.8,21.3c10.5,2.3,21,4.5,31.5,6.8
							c2.2,0.5,4.4,1.3,6.2,1.8c2,3.6-0.8,6.3-0.8,9.6c0.9,0.5,1.9,1.3,3,1.6c1.2,0.2,2.5-0.3,3.7-0.1c1.2,0.2,2.4,0.7,3.3,1
							c1.3,2.4,0.5,4.4,0,6.3c-5.4,21-11,42-16.4,63.1c-4.6,17.8-9.2,35.6-13.9,53.4c-0.5,2-1.2,3.9-1.8,5.7
							c-3.4,2.6-6.7,5-10.2,7.6c-0.9,2.8-1.7,5.7-2.7,8.6c-0.9,2.7-1.7,5.3-2.6,8c-0.3,1-1,1.9-1.1,2.9c0,6-2.2,11.5-3.2,17.3
							c-0.1,0.7,0.2,1.5,0.3,2.2c2.2,0.8,4.3,1.6,6.3,2.3c0.7,2.7-0.3,4.9-0.8,7c-4.7,18.3-9.5,36.6-14.3,54.9
							c-11.1,42.8-22.1,85.6-33.2,128.4c-2.2,8.4-4.5,16.8-6.8,25.5c-1.6,1.6-3.3,3.5-5.1,5.3c-10.3,10.4-20.6,20.7-30.9,31.1
							c-49.2,49.7-98.4,99.4-147.6,149.2c-28.1,28.4-56.2,56.9-84.3,85.3C412,772.1,410.4,773.6,407.8,774.8z"/>
					</defs>
					<clipPath id="SVGID_25_">
						<use xlink:href="#SVGID_24_"  style="overflow:visible;"/>
					</clipPath>
					<line class="st11" x1="119.9" y1="215" x2="191.4" y2="582.9"/>
				</g>
			</g>
		</g>
	</g>
	<g id="Traits_x5F_Orange">
		<g>
			<g>
				<g>
					<defs>
						<path id="SVGID_26_" d="M407.7,774.6c-3.4-0.9-3.8-4.8-6.8-5.2c-2.1,1.2-3.4,3.1-5.4,3.2c-3.8,0-4.9-3.4-8-4.5
							c-1.7,2.4-2.3,6-6.6,6.3c-0.8-0.6-1.7-1.7-2.7-2.7c-5.2-5.3-10.8-10.3-16-15.6c-22.4-22.6-44.8-45.1-67.2-67.6
							c-1.8-1.8-3.9-3.4-4.5-3.9c-3-6.5-2.4-11.7-3.2-16.7c-2.5-3.1-4.8-6.1-7.2-9.1c-0.3-0.4-0.6-0.9-1-1.1
							c-7.5-4.7-12.9-11.6-19.1-17.7c-13.6-13.2-26.9-26.8-40.3-40.1c-7.5-7.4-15.1-14.6-22.5-22.1c-2.7-2.7-5.1-5.7-7.6-8.6
							c-0.7-0.8-1.2-1.8-2-2.3c-6-3.7-10.2-9.3-15.3-13.9c-0.5-0.5-1.3-0.8-1.9-1.2c-1.6,1.7-2.5,4-5.3,4c-0.3,0-0.5,0-0.8-0.1
							c-0.2-0.1-0.5-0.2-0.7-0.4c-18.3-18.3-35.6-37.6-54.1-56.1C75.6,368.3,40.6,238.1,6.6,107.3c0.7-2.4,2.5-2.8,4.3-3.1
							c1.5-0.2,3.1,0.1,4.6,0c0.9-0.1,1.8-0.7,2.7-1.1c-1-2.4-1.9-4.4-2.6-6.5c-0.2-0.7,0-1.5,0-2.6c1.6-0.7,3.2-1.6,4.8-2
							c18.2-4.1,36.4-8.1,54.6-12.1c20-4.4,40-8.7,59.9-13.1c14.7-3.2,29.4-6.7,44.1-9.9c21.7-4.8,43.4-9.6,65.1-14.4
							c24.7-5.5,49.4-11.1,74.1-16.5c23.2-5.1,46.4-10.2,69.6-15.3c4.4-1,8.6-0.9,12.9,0.1c31.9,7.1,63.9,14.1,95.8,21.3
							c21.7,4.8,43.4,9.8,65.1,14.7c25.9,5.8,51.9,11.4,77.9,17.2c31.9,7.1,63.9,14.2,95.8,21.3c10.5,2.3,21,4.5,31.5,6.8
							c2.2,0.5,4.4,1.3,6.2,1.8c2,3.6-0.8,6.3-0.8,9.6c0.9,0.5,1.9,1.3,3,1.6c1.2,0.2,2.5-0.3,3.7-0.1c1.2,0.2,2.4,0.7,3.3,1
							c1.3,2.4,0.5,4.4,0,6.3c-5.4,21-11,42-16.4,63.1c-4.6,17.8-9.2,35.6-13.9,53.4c-0.5,2-1.2,3.9-1.8,5.7
							c-3.4,2.6-6.7,5-10.2,7.6c-0.9,2.8-1.7,5.7-2.7,8.6c-0.9,2.7-1.7,5.3-2.6,8c-0.3,1-1,1.9-1.1,2.9c0,6-2.2,11.5-3.2,17.3
							c-0.1,0.7,0.2,1.5,0.3,2.2c2.2,0.8,4.3,1.6,6.3,2.3c0.7,2.7-0.3,4.9-0.8,7c-4.7,18.3-9.5,36.6-14.3,54.9
							c-11.1,42.8-22.1,85.6-33.2,128.4c-2.2,8.4-4.5,16.8-6.8,25.5c-1.6,1.6-3.3,3.5-5.1,5.3c-10.3,10.4-20.6,20.7-30.9,31.1
							c-49.2,49.7-98.4,99.4-147.6,149.2c-28.1,28.4-56.2,56.9-84.3,85.3C412,772.1,410.4,773.4,407.7,774.6z"/>
					</defs>
					<clipPath id="SVGID_27_">
						<use xlink:href="#SVGID_26_"  style="overflow:visible;"/>
					</clipPath>
					<line class="st12" x1="905.3" y1="213.7" x2="394.4" y2="657.4"/>
				</g>
			</g>
			<g>
				<g>
					<defs>
						<path id="SVGID_28_" d="M407.7,774.6c-3.4-0.9-3.8-4.8-6.8-5.2c-2.1,1.2-3.4,3.1-5.4,3.2c-3.8,0-4.9-3.4-8-4.5
							c-1.7,2.4-2.3,6-6.6,6.3c-0.8-0.6-1.7-1.7-2.7-2.7c-5.2-5.3-10.8-10.3-16-15.6c-22.4-22.6-44.8-45.1-67.2-67.6
							c-1.8-1.8-3.9-3.4-4.5-3.9c-3-6.5-2.4-11.7-3.2-16.7c-2.5-3.1-4.8-6.1-7.2-9.1c-0.3-0.4-0.6-0.9-1-1.1
							c-7.5-4.7-12.9-11.6-19.1-17.7c-13.6-13.2-26.9-26.8-40.3-40.1c-7.5-7.4-15.1-14.6-22.5-22.1c-2.7-2.7-5.1-5.7-7.6-8.6
							c-0.7-0.8-1.2-1.8-2-2.3c-6-3.7-10.2-9.3-15.3-13.9c-0.5-0.5-1.3-0.8-1.9-1.2c-1.6,1.7-2.5,4-5.3,4c-0.3,0-0.5,0-0.8-0.1
							c-0.2-0.1-0.5-0.2-0.7-0.4c-18.3-18.3-35.6-37.6-54.1-56.1C75.6,368.3,40.6,238.1,6.6,107.3c0.7-2.4,2.5-2.8,4.3-3.1
							c1.5-0.2,3.1,0.1,4.6,0c0.9-0.1,1.8-0.7,2.7-1.1c-1-2.4-1.9-4.4-2.6-6.5c-0.2-0.7,0-1.5,0-2.6c1.6-0.7,3.2-1.6,4.8-2
							c18.2-4.1,36.4-8.1,54.6-12.1c20-4.4,40-8.7,59.9-13.1c14.7-3.2,29.4-6.7,44.1-9.9c21.7-4.8,43.4-9.6,65.1-14.4
							c24.7-5.5,49.4-11.1,74.1-16.5c23.2-5.1,46.4-10.2,69.6-15.3c4.4-1,8.6-0.9,12.9,0.1c31.9,7.1,63.9,14.1,95.8,21.3
							c21.7,4.8,43.4,9.8,65.1,14.7c25.9,5.8,51.9,11.4,77.9,17.2c31.9,7.1,63.9,14.2,95.8,21.3c10.5,2.3,21,4.5,31.5,6.8
							c2.2,0.5,4.4,1.3,6.2,1.8c2,3.6-0.8,6.3-0.8,9.6c0.9,0.5,1.9,1.3,3,1.6c1.2,0.2,2.5-0.3,3.7-0.1c1.2,0.2,2.4,0.7,3.3,1
							c1.3,2.4,0.5,4.4,0,6.3c-5.4,21-11,42-16.4,63.1c-4.6,17.8-9.2,35.6-13.9,53.4c-0.5,2-1.2,3.9-1.8,5.7
							c-3.4,2.6-6.7,5-10.2,7.6c-0.9,2.8-1.7,5.7-2.7,8.6c-0.9,2.7-1.7,5.3-2.6,8c-0.3,1-1,1.9-1.1,2.9c0,6-2.2,11.5-3.2,17.3
							c-0.1,0.7,0.2,1.5,0.3,2.2c2.2,0.8,4.3,1.6,6.3,2.3c0.7,2.7-0.3,4.9-0.8,7c-4.7,18.3-9.5,36.6-14.3,54.9
							c-11.1,42.8-22.1,85.6-33.2,128.4c-2.2,8.4-4.5,16.8-6.8,25.5c-1.6,1.6-3.3,3.5-5.1,5.3c-10.3,10.4-20.6,20.7-30.9,31.1
							c-49.2,49.7-98.4,99.4-147.6,149.2c-28.1,28.4-56.2,56.9-84.3,85.3C412,772.1,410.4,773.4,407.7,774.6z"/>
					</defs>
					<clipPath id="SVGID_29_">
						<use xlink:href="#SVGID_28_"  style="overflow:visible;"/>
					</clipPath>
					<line class="st13" x1="823.9" y1="193.4" x2="394.3" y2="504.4"/>
				</g>
			</g>
			<g>
				<g>
					<defs>
						<path id="SVGID_30_" d="M407.7,774.6c-3.4-0.9-3.8-4.8-6.8-5.2c-2.1,1.2-3.4,3.1-5.4,3.2c-3.8,0-4.9-3.4-8-4.5
							c-1.7,2.4-2.3,6-6.6,6.3c-0.8-0.6-1.7-1.7-2.7-2.7c-5.2-5.3-10.8-10.3-16-15.6c-22.4-22.6-44.8-45.1-67.2-67.6
							c-1.8-1.8-3.9-3.4-4.5-3.9c-3-6.5-2.4-11.7-3.2-16.7c-2.5-3.1-4.8-6.1-7.2-9.1c-0.3-0.4-0.6-0.9-1-1.1
							c-7.5-4.7-12.9-11.6-19.1-17.7c-13.6-13.2-26.9-26.8-40.3-40.1c-7.5-7.4-15.1-14.6-22.5-22.1c-2.7-2.7-5.1-5.7-7.6-8.6
							c-0.7-0.8-1.2-1.8-2-2.3c-6-3.7-10.2-9.3-15.3-13.9c-0.5-0.5-1.3-0.8-1.9-1.2c-1.6,1.7-2.5,4-5.3,4c-0.3,0-0.5,0-0.8-0.1
							c-0.2-0.1-0.5-0.2-0.7-0.4c-18.3-18.3-35.6-37.6-54.1-56.1C75.6,368.3,40.6,238.1,6.6,107.3c0.7-2.4,2.5-2.8,4.3-3.1
							c1.5-0.2,3.1,0.1,4.6,0c0.9-0.1,1.8-0.7,2.7-1.1c-1-2.4-1.9-4.4-2.6-6.5c-0.2-0.7,0-1.5,0-2.6c1.6-0.7,3.2-1.6,4.8-2
							c18.2-4.1,36.4-8.1,54.6-12.1c20-4.4,40-8.7,59.9-13.1c14.7-3.2,29.4-6.7,44.1-9.9c21.7-4.8,43.4-9.6,65.1-14.4
							c24.7-5.5,49.4-11.1,74.1-16.5c23.2-5.1,46.4-10.2,69.6-15.3c4.4-1,8.6-0.9,12.9,0.1c31.9,7.1,63.9,14.1,95.8,21.3
							c21.7,4.8,43.4,9.8,65.1,14.7c25.9,5.8,51.9,11.4,77.9,17.2c31.9,7.1,63.9,14.2,95.8,21.3c10.5,2.3,21,4.5,31.5,6.8
							c2.2,0.5,4.4,1.3,6.2,1.8c2,3.6-0.8,6.3-0.8,9.6c0.9,0.5,1.9,1.3,3,1.6c1.2,0.2,2.5-0.3,3.7-0.1c1.2,0.2,2.4,0.7,3.3,1
							c1.3,2.4,0.5,4.4,0,6.3c-5.4,21-11,42-16.4,63.1c-4.6,17.8-9.2,35.6-13.9,53.4c-0.5,2-1.2,3.9-1.8,5.7
							c-3.4,2.6-6.7,5-10.2,7.6c-0.9,2.8-1.7,5.7-2.7,8.6c-0.9,2.7-1.7,5.3-2.6,8c-0.3,1-1,1.9-1.1,2.9c0,6-2.2,11.5-3.2,17.3
							c-0.1,0.7,0.2,1.5,0.3,2.2c2.2,0.8,4.3,1.6,6.3,2.3c0.7,2.7-0.3,4.9-0.8,7c-4.7,18.3-9.5,36.6-14.3,54.9
							c-11.1,42.8-22.1,85.6-33.2,128.4c-2.2,8.4-4.5,16.8-6.8,25.5c-1.6,1.6-3.3,3.5-5.1,5.3c-10.3,10.4-20.6,20.7-30.9,31.1
							c-49.2,49.7-98.4,99.4-147.6,149.2c-28.1,28.4-56.2,56.9-84.3,85.3C412,772.1,410.4,773.4,407.7,774.6z"/>
					</defs>
					<clipPath id="SVGID_31_">
						<use xlink:href="#SVGID_30_"  style="overflow:visible;"/>
					</clipPath>
					<line class="st14" x1="553.4" y1="276.6" x2="508.3" y2="669.1"/>
				</g>
			</g>
			<g>
				<g>
					<defs>
						<path id="SVGID_32_" d="M407.7,774.6c-3.4-0.9-3.8-4.8-6.8-5.2c-2.1,1.2-3.4,3.1-5.4,3.2c-3.8,0-4.9-3.4-8-4.5
							c-1.7,2.4-2.3,6-6.6,6.3c-0.8-0.6-1.7-1.7-2.7-2.7c-5.2-5.3-10.8-10.3-16-15.6c-22.4-22.6-44.8-45.1-67.2-67.6
							c-1.8-1.8-3.9-3.4-4.5-3.9c-3-6.5-2.4-11.7-3.2-16.7c-2.5-3.1-4.8-6.1-7.2-9.1c-0.3-0.4-0.6-0.9-1-1.1
							c-7.5-4.7-12.9-11.6-19.1-17.7c-13.6-13.2-26.9-26.8-40.3-40.1c-7.5-7.4-15.1-14.6-22.5-22.1c-2.7-2.7-5.1-5.7-7.6-8.6
							c-0.7-0.8-1.2-1.8-2-2.3c-6-3.7-10.2-9.3-15.3-13.9c-0.5-0.5-1.3-0.8-1.9-1.2c-1.6,1.7-2.5,4-5.3,4c-0.3,0-0.5,0-0.8-0.1
							c-0.2-0.1-0.5-0.2-0.7-0.4c-18.3-18.3-35.6-37.6-54.1-56.1C75.6,368.3,40.6,238.1,6.6,107.3c0.7-2.4,2.5-2.8,4.3-3.1
							c1.5-0.2,3.1,0.1,4.6,0c0.9-0.1,1.8-0.7,2.7-1.1c-1-2.4-1.9-4.4-2.6-6.5c-0.2-0.7,0-1.5,0-2.6c1.6-0.7,3.2-1.6,4.8-2
							c18.2-4.1,36.4-8.1,54.6-12.1c20-4.4,40-8.7,59.9-13.1c14.7-3.2,29.4-6.7,44.1-9.9c21.7-4.8,43.4-9.6,65.1-14.4
							c24.7-5.5,49.4-11.1,74.1-16.5c23.2-5.1,46.4-10.2,69.6-15.3c4.4-1,8.6-0.9,12.9,0.1c31.9,7.1,63.9,14.1,95.8,21.3
							c21.7,4.8,43.4,9.8,65.1,14.7c25.9,5.8,51.9,11.4,77.9,17.2c31.9,7.1,63.9,14.2,95.8,21.3c10.5,2.3,21,4.5,31.5,6.8
							c2.2,0.5,4.4,1.3,6.2,1.8c2,3.6-0.8,6.3-0.8,9.6c0.9,0.5,1.9,1.3,3,1.6c1.2,0.2,2.5-0.3,3.7-0.1c1.2,0.2,2.4,0.7,3.3,1
							c1.3,2.4,0.5,4.4,0,6.3c-5.4,21-11,42-16.4,63.1c-4.6,17.8-9.2,35.6-13.9,53.4c-0.5,2-1.2,3.9-1.8,5.7
							c-3.4,2.6-6.7,5-10.2,7.6c-0.9,2.8-1.7,5.7-2.7,8.6c-0.9,2.7-1.7,5.3-2.6,8c-0.3,1-1,1.9-1.1,2.9c0,6-2.2,11.5-3.2,17.3
							c-0.1,0.7,0.2,1.5,0.3,2.2c2.2,0.8,4.3,1.6,6.3,2.3c0.7,2.7-0.3,4.9-0.8,7c-4.7,18.3-9.5,36.6-14.3,54.9
							c-11.1,42.8-22.1,85.6-33.2,128.4c-2.2,8.4-4.5,16.8-6.8,25.5c-1.6,1.6-3.3,3.5-5.1,5.3c-10.3,10.4-20.6,20.7-30.9,31.1
							c-49.2,49.7-98.4,99.4-147.6,149.2c-28.1,28.4-56.2,56.9-84.3,85.3C412,772.1,410.4,773.4,407.7,774.6z"/>
					</defs>
					<clipPath id="SVGID_33_">
						<use xlink:href="#SVGID_32_"  style="overflow:visible;"/>
					</clipPath>
					<line class="st15" x1="669.6" y1="215" x2="598.1" y2="582.9"/>
				</g>
			</g>
		</g>
	</g>
</g>
<g id="Reflections">
	<path id="Letter_x5F_F_1_" class="st16" d="M351.9,75.6c14.8,4.2,29.5,8.4,44.3,12.5c27.1,7.7,54.3,15.3,81.4,23
		c2,0.6,4.2,0.8,4,3.7c-0.2,2.8,0.2,5.3-3.6,6.7c-34.2,12.2-57.7,20.7-91.9,32.9c-1.9,0.7-4.6,0.5-6.6-0.3
		c-45.1-16.2-90.2-32.5-135.3-48.7c-2.4-0.9-5.6-1-8.1-0.4c-51,13.6-90.3,23.4-141.2,37.2c-3.1,0.8-5.6,0.6-8.4-0.9
		c-22.3-11.5-44.8-22.8-67.1-34.3c-1.3-0.7-2.9-1.5-3.6-2.7c-3-4.5-1.7-6.8,3.5-8c98.1-21.6,196.2-43.3,294.3-65
		c3.2-0.7,28.4-6.4,77-17c2.3-0.5,4.9-0.5,7.2,0c101,22.3,201.9,44.8,302.9,67.2c23.3,5.2,46.5,10.3,69.8,15.6
		c1.7,0.4,4,0.8,4.6,2.8c1.4,5.1-0.3,5.6-3.5,7.1c-8.4,4.1-16.7,8.4-25,12.7c-14.3,7.3-28.6,14.5-42.8,21.9
		c-2.8,1.5-5.3,1.7-8.4,0.9c-78.9-21.4-157.8-42.7-236.7-64c-20.4-5.5-40.6-11-60.7-16.4c-1.3-0.4-2.8-0.8-4.1-0.5
		c-6.6,1.6-35.3,11.3-41.8,13C352,75,352,75.3,351.9,75.6z"/>
</g>
<g id="Contact_x5F_Shadow" class="st17">
	<path id="Letter_x5F_F_x5F_ContactShadow" d="M352,71.6c14.8,4.2,29.5,8.4,44.3,12.5c27.1,7.7,54.3,15.3,81.4,23
		c2,0.6,4.2,0.8,4,3.7c-0.2,2.8,0.2,5.3-3.6,6.7c-34.2,12.2-57.7,20.7-91.9,32.9c-1.9,0.7-4.6,0.5-6.6-0.3
		c-45.1-16.2-90.2-32.5-135.3-48.7c-2.4-0.9-5.6-1-8.1-0.4c-51,13.6-90.3,23.4-141.2,37.2c-3.1,0.8-5.6,0.6-8.4-0.9
		c-22.3-11.5-44.8-22.8-67.1-34.3c-1.3-0.7-5.6-2.8-4.9-4c2.5-4.6,7.1,2.4,12.3,1.3c98-21.6,188.6-51.3,286.7-73
		c3.2-0.7,28.4-6.4,77-17c2.3-0.5,4.9-0.5,7.2,0c101,22.3,201.9,44.8,302.9,67.2c23.3,5.2,46.5,10.3,69.8,15.6
		c1.7,0.4,3.5,2.1,3.6,3.1c-0.1,2.7,0.7,5.3-2.5,6.8c-8.4,4.1-16.7,8.4-25,12.7c-14.3,7.3-28.6,14.5-42.8,21.9
		c-2.8,1.5-5.3,1.7-8.4,0.9c-78.9-21.4-157.8-42.7-236.7-64c-20.4-5.5-40.6-11-60.7-16.4c-1.3-0.4-2.8-0.8-4.1-0.5
		c-6.6,1.6-35.3,11.3-41.8,13C352,71,352,71.3,352,71.6z"/>
</g>
<g id="Shadow_1_" class="st18">
	<path id="Letter_x5F_A_x5F_Shadow" class="st19" d="M149.3,440.6c2.6,12.3,5,23.7,7.5,35.1c5.2,24.2,9.9,46,15.1,70.2
		c0.6,2.7-0.1,4.3-2.5,5.7c-2.5,1.5-3.3,2.3-4.8,0.8c-17.2-17.4-34.5-34.8-51.6-52.3c-1.3-1.3-2.3-3.1-2.7-4.9
		C76.6,366,43.1,236.7,9.7,107.5c-0.4-1.5-0.2-4.6,0.4-4.7c2.4-0.7,4.7,0,6.8,0.9c6.8,3,13.3,6.6,19.9,10
		C151.1,172.9,265.6,231.6,380,290.8c3.5,1.8,5.8,3,5.8,7.1c1.4,155.4,2.9,307,4.4,462.4c0,3-0.1,5.7-2.6,8c-2.4,2.2-3.9,2-6-0.2
		c-12.9-13.2-26-22.6-39-35.7c-16.1-16.2-32.2-32.4-48.1-48.8c-1.6-1.7-2.9-4.3-3.2-6.6c-4.8-40.5-9.4-81-14.1-121.5
		c-0.2-1.7-1.4-3.6-2.7-4.7c-28.7-25.4-57.5-50.7-86.3-76.1c-11.7-10.3-23.5-20.7-35.2-31C151.9,442.8,150.9,442,149.3,440.6z
		 M116.4,285c0,0.9-0.1,1.5,0,2c2.6,12.4,5.2,24.8,8.1,37.2c0.5,2,2.1,4.1,3.8,5.4c43.5,32.8,87.1,65.6,130.6,98.3
		c1.1,0.8,2.2,1.5,3.9,2.7c-0.2-2.4-0.3-3.9-0.4-5.4c-1.4-12.3-3-24.7-4.2-37.1c-0.3-3-1.4-4.9-3.8-6.6
		c-44.9-31.4-89.7-62.9-134.5-94.3C118.8,286.5,117.7,285.8,116.4,285z"/>
</g>
<g id="Bevel_x5F_Whole_x5F_Cube">
	<g>
		<g>
			<g>
				<defs>
					<path id="SVGID_34_" d="M407.9,774.4c-3.4-0.9-3.8-4.4-6.9-5c-2.1,1.2-3.7,3.2-5.4,3.2c-3.8-0.1-5-3.4-8-4.5
						c-3.1,0.1-1.6,4-5.9,4.4c-0.8-0.6-1.9-0.7-2.9-1.7c-5.2-5.3-9.7-10.3-14.9-15.6c-22.4-22.6-43.4-45.1-65.8-67.7
						c-1.8-1.8-3.6-3.7-4.3-4.3c-3-6.5-5.5-10.4-6.3-15.3c-2.5-3.1-4.8-6.1-7.2-9.1c-0.3-0.4-0.6-0.9-1-1.1
						c-7.5-4.7-12.9-11.6-19.1-17.7c-13.6-13.2-26.9-26.8-40.3-40.1c-7.5-7.4-15.1-14.6-22.5-22.1c-2.7-2.7-5.1-5.7-7.6-8.6
						c-0.7-0.8-1.2-1.8-2-2.3c-6-3.7-10.2-9.3-15.3-13.9c-0.5-0.5-2.2-2-2.9-2.4c-1.6,1.7-2.5,4-5.3,4c-0.3,0-0.5,0-0.8-0.1
						c-0.2-0.1-0.5-0.2-0.7-0.4c-18.3-18.3-35-36.2-53.5-54.8C75.1,368.4,40.6,238.1,6.6,107.3c0.7-2.4,2.5-2.8,4.3-3.1
						c1.5-0.2-1.6-1.3-0.1-1.7c1-0.2,2.6-0.7,3.7-0.5c-0.6-1.6,1.8-3.3,1.1-5.4c-0.2-0.7,0-1.5,0-2.6c1.6-0.7,3.2-1.6,4.8-2
						c18.2-4.1,36.4-8.1,54.6-12.1c20-4.4,40-8.7,59.9-13.1c14.7-3.2,29.4-6.7,44.1-9.9c21.7-4.8,43.4-9.6,65.1-14.4
						c24.7-5.5,49.4-11.1,74.1-16.5c23.2-5.1,46.4-10.2,69.6-15.3c4.4-1,8.6-0.9,12.9,0.1c31.9,7.1,63.9,14.1,95.8,21.3
						c21.7,4.8,43.4,9.8,65.1,14.7c25.9,5.8,51.9,11.4,77.9,17.2c31.9,7.1,63.9,14.2,95.8,21.3c10.5,2.3,21,4.5,31.5,6.8
						c2.2,0.5,4.4,1.3,6.2,1.8c2,3.6-1.5,6.8-1.5,10.1c7.3-3.3,12.1-0.4,11.6,0.8c-0.5,1.1-2.1-0.3-3,0.7c1.2,0.2,1.2,0.2,2.2,0.5
						c1.3,2.4,0.5,4.4,0,6.3c-5.4,21-11,42-16.4,63.1c-4.6,17.8-9.2,35.6-13.9,53.4c-0.5,2-1.2,3.9-1.8,5.7c-3.4,2.6-6.7,5-10.2,7.6
						c-0.9,2.8-1.7,5.7-2.7,8.6c-0.9,2.7-1.7,5.3-2.6,8c-0.3,1-1,1.9-1.1,2.9c0,6-2.2,11.5-3.2,17.3c-0.1,0.7,0.2,1.5,0.3,2.2
						c2.2,0.8,4.3,1.6,6.3,2.3c0.7,2.7-0.3,4.9-0.8,7c-4.7,18.3-9.5,36.6-14.3,54.9c-11.1,42.8-22.1,85.6-33.2,128.4
						c-2.2,8.4-4.5,16.8-6.8,25.5c-1.6,1.6-3.3,3.5-5.1,5.3c-10.3,10.4-20.6,20.7-30.9,31.1c-49.2,49.7-98.4,99.4-147.6,149.2
						c-28.1,28.4-56.2,56.9-84.3,85.3C412,772.1,410.5,773.2,407.9,774.4z"/>
				</defs>
				<clipPath id="SVGID_35_">
					<use xlink:href="#SVGID_34_"  style="overflow:visible;"/>
				</clipPath>
				<polyline class="st20" points="395.5,772.5 395,298.6 779.5,101.5 				"/>
			</g>
		</g>
		<g>
			<g>
				<defs>
					<path id="SVGID_36_" d="M407.9,774.4c-3.4-0.9-3.8-4.4-6.9-5c-2.1,1.2-3.7,3.2-5.4,3.2c-3.8-0.1-5-3.4-8-4.5
						c-3.1,0.1-1.6,4-5.9,4.4c-0.8-0.6-1.9-0.7-2.9-1.7c-5.2-5.3-9.7-10.3-14.9-15.6c-22.4-22.6-43.4-45.1-65.8-67.7
						c-1.8-1.8-3.6-3.7-4.3-4.3c-3-6.5-5.5-10.4-6.3-15.3c-2.5-3.1-4.8-6.1-7.2-9.1c-0.3-0.4-0.6-0.9-1-1.1
						c-7.5-4.7-12.9-11.6-19.1-17.7c-13.6-13.2-26.9-26.8-40.3-40.1c-7.5-7.4-15.1-14.6-22.5-22.1c-2.7-2.7-5.1-5.7-7.6-8.6
						c-0.7-0.8-1.2-1.8-2-2.3c-6-3.7-10.2-9.3-15.3-13.9c-0.5-0.5-2.2-2-2.9-2.4c-1.6,1.7-2.5,4-5.3,4c-0.3,0-0.5,0-0.8-0.1
						c-0.2-0.1-0.5-0.2-0.7-0.4c-18.3-18.3-35-36.2-53.5-54.8C75.1,368.4,40.6,238.1,6.6,107.3c0.7-2.4,2.5-2.8,4.3-3.1
						c1.5-0.2-1.6-1.3-0.1-1.7c1-0.2,2.6-0.7,3.7-0.5c-0.6-1.6,1.8-3.3,1.1-5.4c-0.2-0.7,0-1.5,0-2.6c1.6-0.7,3.2-1.6,4.8-2
						c18.2-4.1,36.4-8.1,54.6-12.1c20-4.4,40-8.7,59.9-13.1c14.7-3.2,29.4-6.7,44.1-9.9c21.7-4.8,43.4-9.6,65.1-14.4
						c24.7-5.5,49.4-11.1,74.1-16.5c23.2-5.1,46.4-10.2,69.6-15.3c4.4-1,8.6-0.9,12.9,0.1c31.9,7.1,63.9,14.1,95.8,21.3
						c21.7,4.8,43.4,9.8,65.1,14.7c25.9,5.8,51.9,11.4,77.9,17.2c31.9,7.1,63.9,14.2,95.8,21.3c10.5,2.3,21,4.5,31.5,6.8
						c2.2,0.5,4.4,1.3,6.2,1.8c2,3.6-1.5,6.8-1.5,10.1c7.3-3.3,12.1-0.4,11.6,0.8c-0.5,1.1-2.1-0.3-3,0.7c1.2,0.2,1.2,0.2,2.2,0.5
						c1.3,2.4,0.5,4.4,0,6.3c-5.4,21-11,42-16.4,63.1c-4.6,17.8-9.2,35.6-13.9,53.4c-0.5,2-1.2,3.9-1.8,5.7c-3.4,2.6-6.7,5-10.2,7.6
						c-0.9,2.8-1.7,5.7-2.7,8.6c-0.9,2.7-1.7,5.3-2.6,8c-0.3,1-1,1.9-1.1,2.9c0,6-2.2,11.5-3.2,17.3c-0.1,0.7,0.2,1.5,0.3,2.2
						c2.2,0.8,4.3,1.6,6.3,2.3c0.7,2.7-0.3,4.9-0.8,7c-4.7,18.3-9.5,36.6-14.3,54.9c-11.1,42.8-22.1,85.6-33.2,128.4
						c-2.2,8.4-4.5,16.8-6.8,25.5c-1.6,1.6-3.3,3.5-5.1,5.3c-10.3,10.4-20.6,20.7-30.9,31.1c-49.2,49.7-98.4,99.4-147.6,149.2
						c-28.1,28.4-56.2,56.9-84.3,85.3C412,772.1,410.5,773.2,407.9,774.4z"/>
				</defs>
				<clipPath id="SVGID_37_">
					<use xlink:href="#SVGID_36_"  style="overflow:visible;"/>
				</clipPath>
				<line class="st21" x1="9.9" y1="101.3" x2="394" y2="298.7"/>
			</g>
		</g>
	</g>
</g>
<g id="Leters">
	<g id="Letters_x5F_Base">
		<path id="Letter_x5F_S_x5F_Shadow" class="st22" d="M535.4,427.4c11.1-8.4,21.6-16.2,32-24c53.2-40,106.4-80.1,159.7-120
			c1.4-1.1,3.6-1.8,5.4-1.6c3.2,0.3,4.3,2,3.3,5.6c-18.2,69.8-36.3,139.6-54.5,209.4c-0.5,2-1.8,4-3.3,5.4
			C604.2,576.8,530.4,651.4,456.6,726c-15.8,16-31.6,31.9-47.4,47.8c-1.2,1.2-3.3-0.9-3.8-1.3c-4.5-2.8-4.8-3.3-5.2-5.8
			c-0.3-1.8-0.3-5.1-0.2-6.4c0.2-25.4,0.4-48.1,0.8-73.5c0-2,1.1-4.6,2.6-5.9c76-69.5,152.1-137.1,228.2-206.5
			c2.3-2.1,3.7-2.9,4.3-6c1.5-8.1,3.4-16.2,5.4-25.5c-5.2,4.6-9.6,8.3-13.9,12.1C556,517.8,484.7,580.7,413.3,643.4
			c-1.7,1.5-3.2,2.7-6.1,1c-3-1.7-5.1-4-5.1-8.2c0.9-77,1.6-152.2,2.3-229.2c0.3-35.8,0.7-71.6,0.9-107.4c0-3.9,1.3-6,4.8-7.8
			c97.2-50.1,194.3-100.3,291.5-150.5c23.5-12.1,47-24.2,70.5-36.2c1-0.5,2-1.2,3.1-1.4c5.1-1,7.6,1.5,6.3,6.4
			c-10.4,40.2-20.8,80.4-31.3,120.5c-0.6,2.1-2.2,4.4-3.9,5.7c-67.1,47.3-134.3,94.4-201.5,141.5c-3,2.1-4.4,4.4-4.7,8.1
			c-1.3,12.9-3,25.7-4.5,38.6C535.4,425.3,535.4,425.9,535.4,427.4z"/>
		<path id="Letter_x5F_S_3_" class="st23" d="M537.4,426.4c11.1-8.4,21.6-16.2,32-24c53.2-40,106.4-80.1,159.7-120
			c1.4-1.1,3.6-1.8,5.4-1.6c3.2,0.3,4.3,2,3.3,5.6c-18.2,69.8-36.3,139.6-54.5,209.4c-0.5,2-1.8,4-3.3,5.4
			C606.2,575.8,532.4,650.4,458.6,725c-15.8,16-31.7,32.5-47.5,48.4c-3.2,2.9-4.2,2-5.3,1.4c-1.8-1-2.5-2-3.5-3.5
			c-0.5-1-0.2-4.8-0.2-6c0.2-25.4,0.4-50.8,0.8-76.2c0-2,1.1-4.6,2.6-5.9c76-69.5,152.1-139,228.3-208.4c2.3-2.1,3.7-4.3,4.3-7.4
			c1.5-8.1,3.4-16.2,5.4-25.5c-5.2,4.6-9.6,8.3-13.9,12.1c-71.4,62.8-142.7,125.7-214.1,188.4c-1.7,1.5-3.2,4.4-6.1,2.8
			c-3-1.7-5.1-4-5.1-8.2c0.9-77,1.6-154,2.3-230.9c0.3-35.8,0.7-71.6,0.9-107.4c0-3.9,1.3-6,4.8-7.8
			c97.2-50.1,194.3-100.3,291.5-150.5c23.5-12.1,47-24.2,70.5-36.2c1-0.5,2-1.2,3.1-1.4c5.1-1,7.6,1.5,6.3,6.4
			c-10.4,40.2-20.8,80.4-31.3,120.5c-0.6,2.1-2.2,4.4-3.9,5.7c-67.1,47.3-134.3,94.4-201.5,141.5c-3,2.1-4.4,4.4-4.7,8.1
			c-1.3,12.9-3,25.7-4.5,38.6C537.4,424.3,537.4,424.9,537.4,426.4z"/>
		
			<radialGradient id="Letter_x5F_A_1_" cx="377.5496" cy="231.2309" r="335.6125" gradientTransform="matrix(1 0 0 1 0 62)" gradientUnits="userSpaceOnUse">
			<stop  offset="0" style="stop-color:#3C3FF0"/>
			<stop  offset="1" style="stop-color:#0A0CD9"/>
		</radialGradient>
		<path id="Letter_x5F_A_3_" class="st24" d="M146.3,441.6c2.6,12.3,5,23.7,7.5,35.1c5.2,24.2,10.3,48.4,15.6,72.5
			c0.6,2.7-0.1,4.3-2.5,5.7c-2.5,1.5-3.8,0-5.2-1.5c-17.2-17.4-34.5-34.8-51.6-52.3c-1.3-1.3-2.3-3.1-2.7-4.9
			C73.6,367,40.1,237.7,6.7,108.5c-0.4-1.5-1-3.8,0.4-4.7c2-1.5,5.5-1.5,7.6-0.6c6.8,3,13.3,6.6,19.9,10.1
			C149,172.5,263.4,231.8,377.9,291c3.5,1.8,5,3.9,5,8c1.4,155.4,2.9,310.7,4.4,466.1c0,3-0.1,5.7-2.6,8c-2.4,2.2-3.9,2-6-0.2
			c-12.9-13.2-26-26.3-39-39.4c-16.1-16.2-32.2-32.4-48.1-48.8c-1.6-1.7-2.9-4.3-3.2-6.6c-4.8-40.5-9.4-81-14.1-121.5
			c-0.2-1.7-1.4-3.6-2.7-4.7c-28.7-25.4-57.5-50.7-86.3-76.1c-11.7-10.3-23.5-20.7-35.2-31C148.9,443.8,147.9,443,146.3,441.6z
			 M113.4,286c0,0.9-0.1,1.5,0,2c2.6,12.4,5.2,24.8,8.1,37.2c0.5,2,2.1,4.1,3.8,5.4c43.5,32.8,87.1,65.6,130.6,98.3
			c1.1,0.8,2.2,1.5,3.9,2.7c-0.2-2.4-0.3-3.9-0.4-5.4c-1.4-12.3-3-24.7-4.2-37.1c-0.3-3-1.4-4.9-3.8-6.6
			c-44.9-31.4-89.7-62.9-134.5-94.3C115.8,287.5,114.7,286.8,113.4,286z"/>
		
			<radialGradient id="Letter_x5F_F_2_" cx="284.6011" cy="-8.3427" r="500.5325" gradientTransform="matrix(1 0 0 1 0 62)" gradientUnits="userSpaceOnUse">
			<stop  offset="0" style="stop-color:#D5D5D5"/>
			<stop  offset="1" style="stop-color:#FFFFFF"/>
		</radialGradient>
		<path id="Letter_x5F_F" class="st25" d="M350.9,69.2c14.8,4.2,30.6,8.8,45.3,12.9c27.1,7.7,54.3,15.3,81.4,23c2,0.6,4.2,0.8,4,3.7
			c-0.2,2.8,0.2,5.3-3.6,6.7c-34.2,12.2-57.7,20.7-91.9,32.9c-1.9,0.7-4.6,0.5-6.6-0.3c-45.1-16.2-90.2-32.5-135.3-48.7
			c-2.4-0.9-5.6-1-8.1-0.4c-51,13.6-90.3,23.4-141.2,37.2c-3.1,0.8-5.6,0.6-8.4-0.9c-22.3-11.5-44.8-22.8-67.1-34.3
			c-1.3-0.7-2.9-1.5-3.6-2.7c-2.9-4.4-1.7-6.8,3.5-8c98.1-21.6,196.2-43.3,294.3-65c3.2-0.7,28.4-6.4,77-17c2.3-0.5,4.9-0.5,7.2,0
			c101,22.3,201.9,44.8,302.9,67.2c23.3,5.2,46.5,10.3,69.8,15.6c1.7,0.4,4.6,1,4.6,2.8c0,2.6-0.3,5.6-3.5,7.1
			c-8.4,4.1-16.7,8.4-25,12.7c-14.3,7.3-28.6,14.5-42.8,21.9c-2.8,1.5-5.3,1.7-8.4,0.9c-78.9-21.4-157.8-42.7-236.7-64
			c-20.4-5.5-40.6-11-60.7-16.4c-1.3-0.4-2.8-0.8-4.1-0.5c-6.6,1.6-35.3,11.3-41.8,13C352,69,350.9,68.9,350.9,69.2z"/>
		<g id="Letter_x5F_F_x5F_OverShadow">
			<g>
				<g>
					<defs>
						<path id="SVGID_38_" d="M351,69.2c10.5,10.7,11.6,23.7,26.6,27.6c27.1,7.7,73,0.7,100.1,8.3c2,0.6,4.2,0.8,4,3.7
							c-0.2,2.8,0.2,5.3-3.6,6.7c-34.2,12.2-57.7,20.7-91.9,32.9c-1.9,0.7-4.6,0.5-6.6-0.3c-45.1-16.2-90.2-32.5-135.3-48.7
							c-2.4-0.9-5.6-1-8.1-0.4c-51,13.6-90.3,23.4-141.2,37.2c-3.1,0.8-5.6,0.6-8.4-0.9c-22.3-11.5-44.8-22.8-67.1-34.3
							c-1.3-0.7-2.9-1.5-3.6-2.7c-2.9-4.4-1.7-6.8,3.5-8c98-21.6,196.1-43.3,294.2-65c3.2-0.7,28.4-6.4,77-17c2.3-0.5,4.9-0.5,7.2,0
							c101,22.3,201.9,44.8,302.9,67.2c23.3,5.2,46.5,10.3,69.8,15.6c1.7,0.4,4.5,1.4,4.6,2.4c0,2.6,0,5.8-3.5,7.6
							c-8.4,4.1-16.7,8.4-25,12.7c-14.3,7.3-28.6,14.5-42.8,21.9c-2.8,1.5-5.3,1.7-8.4,0.9c-78.9-21.4-157.8-42.7-236.7-64
							C438.3,67,418.1,61.5,398,56.1c-1.3-0.4-2.8-0.8-4.1-0.5c-6.6,1.6-35,11.2-41.6,13C352.3,68.9,352,69.4,351,69.2z"/>
					</defs>
					<clipPath id="SVGID_39_">
						<use xlink:href="#SVGID_38_"  style="overflow:visible;"/>
					</clipPath>
					<path id="Shadow" class="st26" d="M11.2,91.7c0,0,76.3,37.2,77.3,37.8c1,0.7,2.2-0.2,7-1.2s140.1-35,141.1-35.2s2.7-1,5.3,0
						s136,48,137.8,48.8s4.5,1,7.7,0s96.9-33.7,96.9-33.7l22.2,45l-297.7,9l-311-29L11.2,91.7z"/>
				</g>
			</g>
			<g>
				<g>
					<defs>
						<path id="SVGID_40_" d="M351,69.2c10.5,10.7,11.6,23.7,26.6,27.6c27.1,7.7,73,0.7,100.1,8.3c2,0.6,4.2,0.8,4,3.7
							c-0.2,2.8,0.2,5.3-3.6,6.7c-34.2,12.2-57.7,20.7-91.9,32.9c-1.9,0.7-4.6,0.5-6.6-0.3c-45.1-16.2-90.2-32.5-135.3-48.7
							c-2.4-0.9-5.6-1-8.1-0.4c-51,13.6-90.3,23.4-141.2,37.2c-3.1,0.8-5.6,0.6-8.4-0.9c-22.3-11.5-44.8-22.8-67.1-34.3
							c-1.3-0.7-2.9-1.5-3.6-2.7c-2.9-4.4-1.7-6.8,3.5-8c98-21.6,196.1-43.3,294.2-65c3.2-0.7,28.4-6.4,77-17c2.3-0.5,4.9-0.5,7.2,0
							c101,22.3,201.9,44.8,302.9,67.2c23.3,5.2,46.5,10.3,69.8,15.6c1.7,0.4,4.5,1.4,4.6,2.4c0,2.6,0,5.8-3.5,7.6
							c-8.4,4.1-16.7,8.4-25,12.7c-14.3,7.3-28.6,14.5-42.8,21.9c-2.8,1.5-5.3,1.7-8.4,0.9c-78.9-21.4-157.8-42.7-236.7-64
							C438.3,67,418.1,61.5,398,56.1c-1.3-0.4-2.8-0.8-4.1-0.5c-6.6,1.6-35,11.2-41.6,13C352.3,68.9,352,69.4,351,69.2z"/>
					</defs>
					<clipPath id="SVGID_41_">
						<use xlink:href="#SVGID_40_"  style="overflow:visible;"/>
					</clipPath>
					<path class="st27" d="M352.6,69.3l-7.3-2.6c-0.4-0.1-0.4-0.7,0-0.8l49.2-14.8c0.1,0,0.2,0,0.2,0l300.7,79
						c2.1,0.6,4.4,0.3,6.4-0.6l76.7-36.6c0.2-0.1,0.2-1.8,0.4-1.6l21.4,24.9c0.2,0.2,0.1,0.6-0.2,0.7l-88.6,27.9c-0.1,0-0.1,0-0.2,0
						l-193-38.2l0,0L384.2,66c-0.1,0-0.1,0-0.2,0l-31.3,3.3H352.6z"/>
				</g>
			</g>
			<g>
				<g>
					<defs>
						<path id="SVGID_42_" d="M351,69.2c10.5,10.7,11.6,23.7,26.6,27.6c27.1,7.7,73,0.7,100.1,8.3c2,0.6,4.2,0.8,4,3.7
							c-0.2,2.8,0.2,5.3-3.6,6.7c-34.2,12.2-57.7,20.7-91.9,32.9c-1.9,0.7-4.6,0.5-6.6-0.3c-45.1-16.2-90.2-32.5-135.3-48.7
							c-2.4-0.9-5.6-1-8.1-0.4c-51,13.6-90.3,23.4-141.2,37.2c-3.1,0.8-5.6,0.6-8.4-0.9c-22.3-11.5-44.8-22.8-67.1-34.3
							c-1.3-0.7-2.9-1.5-3.6-2.7c-2.9-4.4-1.7-6.8,3.5-8c98-21.6,196.1-43.3,294.2-65c3.2-0.7,28.4-6.4,77-17c2.3-0.5,4.9-0.5,7.2,0
							c101,22.3,201.9,44.8,302.9,67.2c23.3,5.2,46.5,10.3,69.8,15.6c1.7,0.4,4.5,1.4,4.6,2.4c0,2.6,0,5.8-3.5,7.6
							c-8.4,4.1-16.7,8.4-25,12.7c-14.3,7.3-28.6,14.5-42.8,21.9c-2.8,1.5-5.3,1.7-8.4,0.9c-78.9-21.4-157.8-42.7-236.7-64
							C438.3,67,418.1,61.5,398,56.1c-1.3-0.4-2.8-0.8-4.1-0.5c-6.6,1.6-35,11.2-41.6,13C352.3,68.9,352,69.4,351,69.2z"/>
					</defs>
					<clipPath id="SVGID_43_">
						<use xlink:href="#SVGID_42_"  style="overflow:visible;"/>
					</clipPath>
					<line class="st28" x1="89" y1="136.7" x2="89" y2="129.9"/>
				</g>
			</g>
			<g>
				<g>
					<defs>
						<path id="SVGID_44_" d="M351,69.2c10.5,10.7,11.6,23.7,26.6,27.6c27.1,7.7,73,0.7,100.1,8.3c2,0.6,4.2,0.8,4,3.7
							c-0.2,2.8,0.2,5.3-3.6,6.7c-34.2,12.2-57.7,20.7-91.9,32.9c-1.9,0.7-4.6,0.5-6.6-0.3c-45.1-16.2-90.2-32.5-135.3-48.7
							c-2.4-0.9-5.6-1-8.1-0.4c-51,13.6-90.3,23.4-141.2,37.2c-3.1,0.8-5.6,0.6-8.4-0.9c-22.3-11.5-44.8-22.8-67.1-34.3
							c-1.3-0.7-2.9-1.5-3.6-2.7c-2.9-4.4-1.7-6.8,3.5-8c98-21.6,196.1-43.3,294.2-65c3.2-0.7,28.4-6.4,77-17c2.3-0.5,4.9-0.5,7.2,0
							c101,22.3,201.9,44.8,302.9,67.2c23.3,5.2,46.5,10.3,69.8,15.6c1.7,0.4,4.5,1.4,4.6,2.4c0,2.6,0,5.8-3.5,7.6
							c-8.4,4.1-16.7,8.4-25,12.7c-14.3,7.3-28.6,14.5-42.8,21.9c-2.8,1.5-5.3,1.7-8.4,0.9c-78.9-21.4-157.8-42.7-236.7-64
							C438.3,67,418.1,61.5,398,56.1c-1.3-0.4-2.8-0.8-4.1-0.5c-6.6,1.6-35,11.2-41.6,13C352.3,68.9,352,69.4,351,69.2z"/>
					</defs>
					<clipPath id="SVGID_45_">
						<use xlink:href="#SVGID_44_"  style="overflow:visible;"/>
					</clipPath>
					<path class="st29" d="M239.6,99.3c0-1.6,0-6.6,0-6.6"/>
				</g>
			</g>
		</g>
		<g class="st30">
			<g>
				<g>
					<defs>
						<path id="SVGID_46_" d="M146.3,441.6c2.6,12.3,5,23.7,7.5,35.1c5.2,24.2,10.3,48.4,15.6,72.5c0.6,2.7-0.1,4.3-2.5,5.7
							c-2.5,1.5-3.8,0-5.2-1.5c-17.2-17.4-34.5-34.8-51.6-52.3c-1.3-1.3-2.3-3.1-2.7-4.9C73.6,367,40.1,237.7,6.7,108.5
							c-0.4-1.5-0.2-4.6,0.4-4.7c2.4-0.7,5.5-1.5,7.6-0.6c6.8,3,13.3,6.6,19.9,10.1C149,172.5,263.4,231.8,377.9,291
							c3.5,1.8,5,3.9,5,8c1.4,155.4,2.9,310.7,4.4,466.1c0,3-0.1,5.7-2.6,8c-2.4,2.2-3.9,2-6-0.2c-12.9-13.2-26-26.3-39-39.4
							c-16.1-16.2-32.2-32.4-48.1-48.8c-1.6-1.7-2.9-4.3-3.2-6.6c-4.8-40.5-9.4-81-14.1-121.5c-0.2-1.7-1.4-3.6-2.7-4.7
							c-28.7-25.4-57.5-50.7-86.3-76.1c-11.7-10.3-23.5-20.7-35.2-31C148.9,443.8,147.9,443,146.3,441.6z M113.4,286
							c0,0.9-0.1,1.5,0,2c2.6,12.4,5.2,24.8,8.1,37.2c0.5,2,2.1,4.1,3.8,5.4c43.5,32.8,87.1,65.6,130.6,98.3
							c1.1,0.8,2.2,1.5,3.9,2.7c-0.2-2.4-0.3-3.9-0.4-5.4c-1.4-12.3-3-24.7-4.2-37.1c-0.3-3-1.4-4.9-3.8-6.6
							c-44.9-31.4-89.7-62.9-134.5-94.3C115.8,287.5,114.7,286.8,113.4,286z"/>
					</defs>
					<clipPath id="SVGID_47_">
						<use xlink:href="#SVGID_46_"  style="overflow:visible;"/>
					</clipPath>
					<path class="st31" d="M106.6,282.4l6.8,3.6l8.1,39.1c0,0,0.3,2.7,4.4,5.9c4.2,3.2,133.8,100.5,133.8,100.5l0.5,8L120.4,333.9
						c0,0-4.3-3-5.3-8.5S106.6,282.4,106.6,282.4z"/>
				</g>
			</g>
			<g>
				<g>
					<defs>
						<path id="SVGID_48_" d="M146.3,441.6c2.6,12.3,5,23.7,7.5,35.1c5.2,24.2,10.3,48.4,15.6,72.5c0.6,2.7-0.1,4.3-2.5,5.7
							c-2.5,1.5-3.8,0-5.2-1.5c-17.2-17.4-34.5-34.8-51.6-52.3c-1.3-1.3-2.3-3.1-2.7-4.9C73.6,367,40.1,237.7,6.7,108.5
							c-0.4-1.5-0.2-4.6,0.4-4.7c2.4-0.7,5.5-1.5,7.6-0.6c6.8,3,13.3,6.6,19.9,10.1C149,172.5,263.4,231.8,377.9,291
							c3.5,1.8,5,3.9,5,8c1.4,155.4,2.9,310.7,4.4,466.1c0,3-0.1,5.7-2.6,8c-2.4,2.2-3.9,2-6-0.2c-12.9-13.2-26-26.3-39-39.4
							c-16.1-16.2-32.2-32.4-48.1-48.8c-1.6-1.7-2.9-4.3-3.2-6.6c-4.8-40.5-9.4-81-14.1-121.5c-0.2-1.7-1.4-3.6-2.7-4.7
							c-28.7-25.4-57.5-50.7-86.3-76.1c-11.7-10.3-23.5-20.7-35.2-31C148.9,443.8,147.9,443,146.3,441.6z M113.4,286
							c0,0.9-0.1,1.5,0,2c2.6,12.4,5.2,24.8,8.1,37.2c0.5,2,2.1,4.1,3.8,5.4c43.5,32.8,87.1,65.6,130.6,98.3
							c1.1,0.8,2.2,1.5,3.9,2.7c-0.2-2.4-0.3-3.9-0.4-5.4c-1.4-12.3-3-24.7-4.2-37.1c-0.3-3-1.4-4.9-3.8-6.6
							c-44.9-31.4-89.7-62.9-134.5-94.3C115.8,287.5,114.7,286.8,113.4,286z"/>
					</defs>
					<clipPath id="SVGID_49_">
						<use xlink:href="#SVGID_48_"  style="overflow:visible;"/>
					</clipPath>
					<polyline class="st32" points="146.3,441.6 139.7,436.7 164.9,558 175.3,552.8 146.3,441.6 					"/>
				</g>
			</g>
		</g>
	</g>
	<g id="Calque_14">
		<path class="st33" d="M351,68.7c26.1,9,126,36.3,126,36.3c0.7,0.2,1.6,0.4,2.3,0.8c1.5,0.7,2.2,1.6,1.9,3.5"/>
	</g>
</g>
<g id="Relief_x5F_A">
	<g id="Letter_x5F_A_x5F_Edges">
		<g>
			<g>
				<defs>
					<path id="SVGID_50_" d="M146.3,441.6c2.6,12.3,5,23.7,7.5,35.1c5.2,24.2,10.3,48.4,15.6,72.5c0.6,2.7-0.1,4.3-2.5,5.7
						c-2.5,1.5-3.8,0-5.2-1.5c-17.2-17.4-34.5-34.8-51.6-52.3c-1.3-1.3-2.3-3.1-2.7-4.9C73.6,367,40.1,237.7,6.7,108.5
						c-0.4-1.5-1-3.8,0.4-4.7c2.1-1.4,5.5-1.5,7.6-0.6c6.8,3,13.3,6.6,19.9,10.1C149,172.5,263.4,231.8,377.9,291c3.5,1.8,5,3.9,5,8
						c1.4,155.4,2.9,310.7,4.4,466.1c0,3-0.1,5.7-2.6,8c-2.4,2.2-3.9,2-6-0.2c-12.9-13.2-26-26.3-39-39.4
						c-16.1-16.2-32.2-32.4-48.1-48.8c-1.6-1.7-2.9-4.3-3.2-6.6c-4.8-40.5-9.4-81-14.1-121.5c-0.2-1.7-1.4-3.6-2.7-4.7
						c-28.7-25.4-57.5-50.7-86.3-76.1c-11.7-10.3-23.5-20.7-35.2-31C148.9,443.8,147.9,443,146.3,441.6z M113.4,286
						c0,0.9-0.1,1.5,0,2c2.6,12.4,5.2,24.8,8.1,37.2c0.5,2,2.1,4.1,3.8,5.4c43.5,32.8,87.1,65.6,130.6,98.3c1.1,0.8,2.2,1.5,3.9,2.7
						c-0.2-2.4-0.3-3.9-0.4-5.4c-1.4-12.3-3-24.7-4.2-37.1c-0.3-3-1.4-4.9-3.8-6.6c-44.9-31.4-89.7-62.9-134.5-94.3
						C115.8,287.5,114.7,286.8,113.4,286z"/>
				</defs>
				<clipPath id="SVGID_51_">
					<use xlink:href="#SVGID_50_"  style="overflow:visible;"/>
				</clipPath>
				<path id="Epaisseur_x5F_Clair_x5F_A" class="st34" d="M6.1,107.4L2.2,83.5l390,202.5l-2,517.2l-9.5-29.6l-7.6-471.3
					c0-2.1-1.2-3.5-3.1-4.5L6.1,107.4z"/>
			</g>
		</g>
		<g>
			<g>
				<defs>
					<path id="SVGID_52_" d="M146.3,441.6c2.6,12.3,5,23.7,7.5,35.1c5.2,24.2,10.3,48.4,15.6,72.5c0.6,2.7-0.1,4.3-2.5,5.7
						c-2.5,1.5-3.8,0-5.2-1.5c-17.2-17.4-34.5-34.8-51.6-52.3c-1.3-1.3-2.3-3.1-2.7-4.9C73.6,367,40.1,237.7,6.7,108.5
						c-0.4-1.5-1-3.8,0.4-4.7c2.1-1.4,5.5-1.5,7.6-0.6c6.8,3,13.3,6.6,19.9,10.1C149,172.5,263.4,231.8,377.9,291c3.5,1.8,5,3.9,5,8
						c1.4,155.4,2.9,310.7,4.4,466.1c0,3-0.1,5.7-2.6,8c-2.4,2.2-3.9,2-6-0.2c-12.9-13.2-26-26.3-39-39.4
						c-16.1-16.2-32.2-32.4-48.1-48.8c-1.6-1.7-2.9-4.3-3.2-6.6c-4.8-40.5-9.4-81-14.1-121.5c-0.2-1.7-1.4-3.6-2.7-4.7
						c-28.7-25.4-57.5-50.7-86.3-76.1c-11.7-10.3-23.5-20.7-35.2-31C148.9,443.8,147.9,443,146.3,441.6z M113.4,286
						c0,0.9-0.1,1.5,0,2c2.6,12.4,5.2,24.8,8.1,37.2c0.5,2,2.1,4.1,3.8,5.4c43.5,32.8,87.1,65.6,130.6,98.3c1.1,0.8,2.2,1.5,3.9,2.7
						c-0.2-2.4-0.3-3.9-0.4-5.4c-1.4-12.3-3-24.7-4.2-37.1c-0.3-3-1.4-4.9-3.8-6.6c-44.9-31.4-89.7-62.9-134.5-94.3
						C115.8,287.5,114.7,286.8,113.4,286z"/>
				</defs>
				<clipPath id="SVGID_53_">
					<use xlink:href="#SVGID_52_"  style="overflow:visible;"/>
				</clipPath>
				<line class="st35" x1="5.5" y1="106.7" x2="371.2" y2="298.6"/>
			</g>
		</g>
		<g>
			<g>
				<defs>
					<path id="SVGID_54_" d="M146.3,441.6c2.6,12.3,5,23.7,7.5,35.1c5.2,24.2,10.3,48.4,15.6,72.5c0.6,2.7-0.1,4.3-2.5,5.7
						c-2.5,1.5-3.8,0-5.2-1.5c-17.2-17.4-34.5-34.8-51.6-52.3c-1.3-1.3-2.3-3.1-2.7-4.9C73.6,367,40.1,237.7,6.7,108.5
						c-0.4-1.5-1-3.8,0.4-4.7c2.1-1.4,5.5-1.5,7.6-0.6c6.8,3,13.3,6.6,19.9,10.1C149,172.5,263.4,231.8,377.9,291c3.5,1.8,5,3.9,5,8
						c1.4,155.4,2.9,310.7,4.4,466.1c0,3-0.1,5.7-2.6,8c-2.4,2.2-3.9,2-6-0.2c-12.9-13.2-26-26.3-39-39.4
						c-16.1-16.2-32.2-32.4-48.1-48.8c-1.6-1.7-2.9-4.3-3.2-6.6c-4.8-40.5-9.4-81-14.1-121.5c-0.2-1.7-1.4-3.6-2.7-4.7
						c-28.7-25.4-57.5-50.7-86.3-76.1c-11.7-10.3-23.5-20.7-35.2-31C148.9,443.8,147.9,443,146.3,441.6z M113.4,286
						c0,0.9-0.1,1.5,0,2c2.6,12.4,5.2,24.8,8.1,37.2c0.5,2,2.1,4.1,3.8,5.4c43.5,32.8,87.1,65.6,130.6,98.3c1.1,0.8,2.2,1.5,3.9,2.7
						c-0.2-2.4-0.3-3.9-0.4-5.4c-1.4-12.3-3-24.7-4.2-37.1c-0.3-3-1.4-4.9-3.8-6.6c-44.9-31.4-89.7-62.9-134.5-94.3
						C115.8,287.5,114.7,286.8,113.4,286z"/>
				</defs>
				<clipPath id="SVGID_55_">
					<use xlink:href="#SVGID_54_"  style="overflow:visible;"/>
				</clipPath>
				<path class="st36" d="M371.2,298.6c0,0,2,1.2,2.1,2.7s7.7,473.1,7.7,473.1"/>
			</g>
		</g>
	</g>
</g>
<g id="Relief_x5F_S">
	<g>
		<g>
			<g>
				<defs>
					<path id="SVGID_56_" d="M537.4,426.4c11.1-8.4,21.6-16.2,32-24c53.2-40,106.4-80.1,159.7-120c1.4-1.1,3.6-1.8,5.4-1.6
						c3.2,0.3,4.3,2,3.3,5.6c-18.2,69.8-36.3,139.6-54.5,209.4c-0.5,2-1.8,4-3.3,5.4C606.2,575.8,532.4,650.4,458.6,725
						c-15.8,16-31.6,31.9-47.4,47.8c-1.2,1.2-4,2.8-4.5,2.4c-1.1-0.4-3.1-1.6-4.5-3.8c-0.5-1-0.3-4.9-0.2-6.2
						c0.2-25.4,0.4-50.8,0.8-76.2c0-2,1.1-4.6,2.6-5.9c76-69.5,152.1-139,228.3-208.4c2.3-2.1,3.7-4.3,4.3-7.4
						c1.5-8.1,3.4-16.2,5.4-25.5c-5.2,4.6-9.6,8.3-13.9,12.1c-71.4,62.8-142.7,125.7-214.1,188.4c-1.7,1.5-3.2,4.4-6.1,2.8
						c-3-1.7-5.1-4-5.1-8.2c0.9-77,1.6-154,2.3-230.9c0.3-35.8,0.7-71.6,0.9-107.4c0-3.9,1.3-6,4.8-7.8
						c97.2-50.1,194.3-100.3,291.5-150.5c23.5-12.1,46.9-24.2,70.4-36.3c1-0.5,2.1-1.1,3.2-1.3c5.1-1.2,7.6,1.5,6.3,6.4
						c-10.4,40.2-20.8,80.4-31.3,120.5c-0.6,2.1-2.2,4.4-3.9,5.7c-67.1,47.3-134.3,94.4-201.5,141.5c-3,2.1-4.4,4.4-4.7,8.1
						c-1.3,12.9-3,25.7-4.5,38.6C537.4,424.3,537.4,424.9,537.4,426.4z"/>
				</defs>
				<clipPath id="SVGID_57_">
					<use xlink:href="#SVGID_56_"  style="overflow:visible;"/>
				</clipPath>
				<path class="st37" d="M406.8,779.4l2.3-85.3c0-2.2,1-4.3,2.6-5.7l228.4-211.2c0.8-0.8,1.4-1.8,1.6-2.9l7.3-36.8l-6,5l-8,27.6
					l-224.5,206l5.4-372.1c0-2.8,1.6-5.3,4-6.6l373-195.9l-16.3-19.3l-375,209l-2.5,488.2H406.8z"/>
			</g>
		</g>
		<g>
			<g>
				<defs>
					<path id="SVGID_58_" d="M537.4,426.4c11.1-8.4,21.6-16.2,32-24c53.2-40,106.4-80.1,159.7-120c1.4-1.1,3.6-1.8,5.4-1.6
						c3.2,0.3,4.3,2,3.3,5.6c-18.2,69.8-36.3,139.6-54.5,209.4c-0.5,2-1.8,4-3.3,5.4C606.2,575.8,532.4,650.4,458.6,725
						c-15.8,16-31.6,31.9-47.4,47.8c-1.2,1.2-4,2.8-4.5,2.4c-1.1-0.4-3.1-1.6-4.5-3.8c-0.5-1-0.3-4.9-0.2-6.2
						c0.2-25.4,0.4-50.8,0.8-76.2c0-2,1.1-4.6,2.6-5.9c76-69.5,152.1-139,228.3-208.4c2.3-2.1,3.7-4.3,4.3-7.4
						c1.5-8.1,3.4-16.2,5.4-25.5c-5.2,4.6-9.6,8.3-13.9,12.1c-71.4,62.8-142.7,125.7-214.1,188.4c-1.7,1.5-3.2,4.4-6.1,2.8
						c-3-1.7-5.1-4-5.1-8.2c0.9-77,1.6-154,2.3-230.9c0.3-35.8,0.7-71.6,0.9-107.4c0-3.9,1.3-6,4.8-7.8
						c97.2-50.1,194.3-100.3,291.5-150.5c23.5-12.1,46.9-24.2,70.4-36.3c1-0.5,2.1-1.1,3.2-1.3c5.1-1.2,7.6,1.5,6.3,6.4
						c-10.4,40.2-20.8,80.4-31.3,120.5c-0.6,2.1-2.2,4.4-3.9,5.7c-67.1,47.3-134.3,94.4-201.5,141.5c-3,2.1-4.4,4.4-4.7,8.1
						c-1.3,12.9-3,25.7-4.5,38.6C537.4,424.3,537.4,424.9,537.4,426.4z"/>
				</defs>
				<clipPath id="SVGID_59_">
					<use xlink:href="#SVGID_58_"  style="overflow:visible;"/>
				</clipPath>
				<path class="st38" d="M536.2,436.1l1.5-11.7l200.5-152.8c0,0,8.3,0.8,9,3.8s-10.8,10-10.8,10L536.2,436.1z"/>
			</g>
		</g>
	</g>
</g>
<g id="Edges_x5F_S">
	<g>
		<g>
			<g>
				<defs>
					<path id="SVGID_60_" d="M537.4,426.4c11.1-8.4,21.6-16.2,32-24c53.2-40,106.4-80.1,159.7-120c1.4-1.1,3.6-1.8,5.4-1.6
						c3.2,0.3,4.3,2,3.3,5.6c-18.2,69.8-36.3,139.6-54.5,209.4c-0.5,2-1.8,4-3.3,5.4C606.2,575.8,532.4,650.4,458.6,725
						c-15.8,16-31.6,31.9-47.4,47.8c-1.2,1.2-2.7,3.1-4.5,2.4c-2-0.7-3.4-4-4.6-6.2c-0.5-1-0.1-2.5-0.1-3.8
						c0.2-25.4,0.4-50.8,0.8-76.2c0-2,1.1-4.6,2.6-5.9c76-69.5,152.1-139,228.3-208.4c2.3-2.1,3.7-4.3,4.3-7.4
						c1.5-8.1,3.4-16.2,5.4-25.5c-5.2,4.6-9.6,8.3-13.9,12.1c-71.4,62.8-142.7,125.7-214.1,188.4c-1.7,1.5-3.2,4.4-6.1,2.8
						c-3-1.7-5.1-4-5.1-8.2c0.9-77,1.6-154,2.3-230.9c0.3-35.8,0.7-71.6,0.9-107.4c0-3.9,1.3-6,4.8-7.8
						c97.2-50.1,194.3-100.3,291.5-150.5c23.5-12.1,47-24.2,70.5-36.2c1-0.5,2-1.2,3.1-1.4c5.1-1,7.6,1.5,6.3,6.4
						c-10.4,40.2-20.8,80.4-31.3,120.5c-0.6,2.1-2.2,4.4-3.9,5.7c-67.1,47.3-134.3,94.4-201.5,141.5c-3,2.1-4.4,4.4-4.7,8.1
						c-1.3,12.9-3,25.7-4.5,38.6C537.4,424.3,537.4,424.9,537.4,426.4z"/>
				</defs>
				<clipPath id="SVGID_61_">
					<use xlink:href="#SVGID_60_"  style="overflow:visible;"/>
				</clipPath>
				<path class="st39" d="M411.1,646.9l5.4-343.7c0-2.3,1.4-4.5,3.4-5.6l375.2-197.2"/>
			</g>
		</g>
		<g>
			<g>
				<defs>
					<path id="SVGID_62_" d="M537.4,426.4c11.1-8.4,21.6-16.2,32-24c53.2-40,106.4-80.1,159.7-120c1.4-1.1,3.6-1.8,5.4-1.6
						c3.2,0.3,4.3,2,3.3,5.6c-18.2,69.8-36.3,139.6-54.5,209.4c-0.5,2-1.8,4-3.3,5.4C606.2,575.8,532.4,650.4,458.6,725
						c-15.8,16-31.6,31.9-47.4,47.8c-1.2,1.2-2.7,3.1-4.5,2.4c-2-0.7-3.4-4-4.6-6.2c-0.5-1-0.1-2.5-0.1-3.8
						c0.2-25.4,0.4-50.8,0.8-76.2c0-2,1.1-4.6,2.6-5.9c76-69.5,152.1-139,228.3-208.4c2.3-2.1,3.7-4.3,4.3-7.4
						c1.5-8.1,3.4-16.2,5.4-25.5c-5.2,4.6-9.6,8.3-13.9,12.1c-71.4,62.8-142.7,125.7-214.1,188.4c-1.7,1.5-3.2,4.4-6.1,2.8
						c-3-1.7-5.1-4-5.1-8.2c0.9-77,1.6-154,2.3-230.9c0.3-35.8,0.7-71.6,0.9-107.4c0-3.9,1.3-6,4.8-7.8
						c97.2-50.1,194.3-100.3,291.5-150.5c23.5-12.1,47-24.2,70.5-36.2c1-0.5,2-1.2,3.1-1.4c5.1-1,7.6,1.5,6.3,6.4
						c-10.4,40.2-20.8,80.4-31.3,120.5c-0.6,2.1-2.2,4.4-3.9,5.7c-67.1,47.3-134.3,94.4-201.5,141.5c-3,2.1-4.4,4.4-4.7,8.1
						c-1.3,12.9-3,25.7-4.5,38.6C537.4,424.3,537.4,424.9,537.4,426.4z"/>
				</defs>
				<clipPath id="SVGID_63_">
					<use xlink:href="#SVGID_62_"  style="overflow:visible;"/>
				</clipPath>
				<path class="st40" d="M407,777.3c0,0,1.9-79.7,2.2-83.3s0.5-3.8,2.9-6c2.3-2.2,211.8-196.1,227.9-211c0.6-0.6,1.1-1.4,1.3-2.2
					l7.9-37.4"/>
			</g>
		</g>
		<g>
			<g>
				<defs>
					<path id="SVGID_64_" d="M537.4,426.4c11.1-8.4,21.6-16.2,32-24c53.2-40,106.4-80.1,159.7-120c1.4-1.1,3.6-1.8,5.4-1.6
						c3.2,0.3,4.3,2,3.3,5.6c-18.2,69.8-36.3,139.6-54.5,209.4c-0.5,2-1.8,4-3.3,5.4C606.2,575.8,532.4,650.4,458.6,725
						c-15.8,16-31.6,31.9-47.4,47.8c-1.2,1.2-2.7,3.1-4.5,2.4c-2-0.7-3.4-4-4.6-6.2c-0.5-1-0.1-2.5-0.1-3.8
						c0.2-25.4,0.4-50.8,0.8-76.2c0-2,1.1-4.6,2.6-5.9c76-69.5,152.1-139,228.3-208.4c2.3-2.1,3.7-4.3,4.3-7.4
						c1.5-8.1,3.4-16.2,5.4-25.5c-5.2,4.6-9.6,8.3-13.9,12.1c-71.4,62.8-142.7,125.7-214.1,188.4c-1.7,1.5-3.2,4.4-6.1,2.8
						c-3-1.7-5.1-4-5.1-8.2c0.9-77,1.6-154,2.3-230.9c0.3-35.8,0.7-71.6,0.9-107.4c0-3.9,1.3-6,4.8-7.8
						c97.2-50.1,194.3-100.3,291.5-150.5c23.5-12.1,47-24.2,70.5-36.2c1-0.5,2-1.2,3.1-1.4c5.1-1,7.6,1.5,6.3,6.4
						c-10.4,40.2-20.8,80.4-31.3,120.5c-0.6,2.1-2.2,4.4-3.9,5.7c-67.1,47.3-134.3,94.4-201.5,141.5c-3,2.1-4.4,4.4-4.7,8.1
						c-1.3,12.9-3,25.7-4.5,38.6C537.4,424.3,537.4,424.9,537.4,426.4z"/>
				</defs>
				<clipPath id="SVGID_65_">
					<use xlink:href="#SVGID_64_"  style="overflow:visible;"/>
				</clipPath>
				<line class="st41" x1="536.2" y1="436.1" x2="743.9" y2="280"/>
			</g>
		</g>
	</g>
</g>
</svg>
