<?xml version="1.0" standalone="no"?>
<!DOCTYPE svg PUBLIC "-//W3C//DTD SVG 20010904//EN"
 "http://www.w3.org/TR/2001/REC-SVG-20010904/DTD/svg10.dtd">
<svg version="1.0" xmlns="http://www.w3.org/2000/svg"
 width="1000.000000pt" height="1000.000000pt" viewBox="0 0 1000.000000 1000.000000"
 preserveAspectRatio="xMidYMid meet">
<metadata>
Created by potrace 1.15, written by Peter Selinger 2001-2017
</metadata>
<g transform="translate(0.000000,1000.000000) scale(0.100000,-0.100000)"
fill="#000000" stroke="none">
<path d="M6396 9985 c-21 -7 -60 -27 -86 -43 -26 -16 -63 -35 -83 -41 -19 -7
-41 -19 -47 -27 -7 -7 -17 -14 -22 -14 -24 0 -207 -183 -221 -222 -9 -25 -94
-131 -118 -148 -33 -23 -192 -163 -207 -182 -7 -9 -18 -23 -25 -30 -17 -17
-39 -58 -73 -133 -15 -33 -32 -67 -39 -75 -7 -8 -29 -46 -50 -85 -55 -104 -87
-144 -120 -154 -16 -5 -68 -24 -115 -41 -119 -44 -209 -66 -325 -80 -93 -11
-166 -33 -197 -60 -34 -28 -157 -123 -190 -145 -60 -40 -94 -92 -199 -308 -11
-21 -19 -43 -19 -50 0 -6 -11 -34 -24 -62 -52 -113 -65 -167 -66 -280 0 -82
-37 -326 -60 -401 -6 -17 -10 -46 -10 -65 -1 -19 -9 -44 -18 -55 -25 -29 -156
-97 -217 -113 -27 -7 -68 -17 -90 -22 -22 -6 -60 -16 -85 -24 -25 -8 -73 -18
-106 -24 -34 -5 -82 -19 -107 -30 -25 -12 -49 -21 -52 -21 -18 0 -115 -87
-145 -131 -19 -28 -53 -74 -75 -102 -22 -29 -46 -64 -54 -77 -51 -88 -71 -134
-91 -200 -48 -157 -114 -303 -161 -356 -10 -11 -23 -47 -29 -80 -5 -32 -12
-72 -15 -89 -3 -17 3 -56 13 -90 l18 -60 -29 -42 -28 -43 -65 0 c-69 0 -120
16 -143 44 -13 15 -13 22 -1 49 7 18 14 52 16 77 1 25 10 81 20 126 15 69 16
87 5 127 -15 51 -33 66 -164 136 l-79 41 -122 0 c-120 0 -124 -1 -164 -29 -22
-16 -43 -34 -47 -40 -3 -6 -14 -11 -25 -11 -24 0 -79 -64 -87 -101 -3 -16 -10
-32 -14 -35 -18 -11 -8 -53 26 -119 65 -124 66 -125 144 -125 49 0 72 -4 81
-15 7 -8 19 -15 26 -15 18 0 28 -43 20 -78 -4 -15 -11 -55 -16 -89 -5 -35 -14
-72 -20 -82 -15 -30 -11 -63 14 -100 21 -33 21 -37 8 -80 -9 -25 -30 -64 -47
-86 -32 -39 -60 -52 -152 -70 -19 -4 -45 -21 -63 -41 l-30 -35 0 -126 0 -126
42 -96 c38 -85 43 -103 41 -164 -2 -78 -22 -122 -68 -147 -17 -9 -40 -32 -53
-51 -22 -31 -23 -43 -20 -136 4 -127 5 -126 -152 -129 -97 -2 -126 -6 -185
-28 -38 -15 -76 -33 -85 -41 -9 -8 -21 -15 -26 -15 -19 -1 -53 -38 -83 -92
-29 -51 -33 -67 -38 -165 -6 -113 -14 -143 -38 -143 -24 0 -155 -138 -162
-171 -6 -30 -6 -30 -37 26 -36 65 -80 113 -113 126 -33 12 -129 11 -176 -2
-43 -12 -72 -39 -94 -89 -12 -28 -13 -54 -7 -125 8 -105 8 -171 -1 -275 -6
-62 -12 -82 -36 -112 l-29 -37 0 -340 0 -340 30 -16 c21 -11 61 -15 153 -15
134 0 162 7 232 57 22 16 69 46 104 68 36 21 82 56 103 76 28 27 53 41 90 49
59 12 99 40 176 120 88 93 100 104 131 130 17 14 31 28 31 32 0 5 19 34 43 67
23 32 49 68 57 81 8 12 25 33 36 47 l22 26 12 -23 c6 -12 16 -54 20 -94 5 -39
13 -91 19 -116 6 -25 15 -67 20 -95 5 -27 25 -79 43 -115 28 -53 44 -71 88
-97 44 -27 65 -33 111 -33 55 0 121 20 134 40 3 5 35 10 71 10 72 0 109 15
146 58 13 15 38 37 57 48 18 10 60 56 93 102 l60 83 92 -4 c104 -5 288 -38
309 -55 25 -21 111 -42 173 -42 33 0 64 -3 68 -7 7 -8 69 -19 231 -44 90 -14
154 -49 201 -107 63 -78 126 -132 193 -167 18 -9 57 -36 85 -59 51 -41 71 -49
206 -80 238 -54 326 -79 340 -97 3 -3 28 -14 55 -23 28 -10 59 -22 70 -27 63
-26 101 -39 157 -54 63 -15 89 -26 182 -71 28 -13 55 -24 61 -24 7 0 17 -11
25 -24 15 -30 119 -130 179 -174 42 -30 50 -32 131 -32 60 0 105 6 146 20 77
25 157 26 192 1 31 -21 198 -101 212 -101 11 0 111 -51 120 -61 3 -3 13 -8 23
-12 9 -3 17 -15 17 -26 0 -25 -38 -99 -65 -127 -11 -12 -27 -31 -35 -44 -8
-12 -25 -36 -37 -53 -13 -17 -23 -36 -23 -42 0 -23 -150 -180 -182 -191 -10
-3 -18 -9 -18 -14 0 -5 -11 -15 -25 -22 -13 -7 -55 -34 -92 -59 -38 -26 -79
-50 -93 -54 -68 -21 -166 -133 -215 -245 -16 -36 -30 -67 -32 -70 -2 -2 -54
-3 -116 -2 -77 2 -119 -2 -133 -10 -47 -28 -135 -91 -142 -102 -4 -6 -29 -27
-57 -46 -27 -19 -63 -48 -78 -65 l-28 -30 4 -135 c2 -74 9 -164 16 -200 7 -36
15 -80 17 -97 l5 -33 194 0 c107 0 195 4 195 8 0 5 10 13 23 19 12 6 48 34 80
62 32 28 64 51 71 51 8 0 32 18 55 40 22 22 46 40 51 40 6 0 10 5 10 10 0 6
21 32 46 58 25 26 50 54 55 63 5 10 27 19 53 23 35 6 53 15 78 45 18 20 47 42
63 48 41 16 152 33 208 33 28 0 67 10 99 24 63 29 75 39 108 88 14 20 35 40
47 43 35 8 63 45 63 82 0 27 10 44 54 87 30 30 78 66 108 80 51 24 207 56 277
56 53 0 197 54 229 86 7 8 23 16 35 19 91 20 119 25 167 25 30 0 84 7 120 15
75 17 316 20 325 5 3 -6 34 -10 69 -10 69 0 89 12 117 71 30 61 59 187 59 253
0 50 4 67 17 74 23 14 61 -34 72 -91 10 -54 36 -93 99 -145 75 -62 73 -62 289
-62 194 0 201 1 264 27 54 23 85 28 204 34 77 4 165 13 195 19 30 6 82 14 115
19 59 7 132 39 156 67 6 8 15 14 20 14 14 0 92 52 112 75 41 47 87 167 87 230
0 14 4 25 9 25 5 0 19 15 30 34 21 33 21 42 18 458 -3 442 -2 434 -47 543 -14
33 -21 67 -29 135 -16 130 -82 245 -157 276 -46 19 -158 18 -202 -3 -53 -23
-134 -87 -157 -123 -11 -16 -23 -30 -27 -30 -28 0 12 202 47 236 8 9 15 24 15
35 0 11 13 51 30 90 16 38 36 100 43 137 8 37 28 93 46 125 25 46 31 69 31
116 0 56 -28 142 -50 156 -6 4 -4 17 5 35 11 22 15 76 17 237 3 247 4 244
-120 343 -42 34 -86 76 -98 93 -27 40 -41 117 -21 117 14 0 37 -40 37 -65 0
-22 21 -18 27 5 l6 21 14 -21 c8 -11 23 -20 33 -20 10 0 21 -6 23 -12 3 -7 6
-3 6 9 1 17 -8 27 -33 37 -52 22 -103 73 -134 135 -43 84 -68 122 -105 161
-18 19 -51 58 -71 85 -50 66 -62 76 -143 128 -72 47 -121 67 -159 67 -13 0
-24 4 -24 9 0 5 -8 11 -18 13 -20 6 -62 85 -62 118 0 37 -30 94 -73 138 -22
23 -47 42 -54 42 -6 0 -19 15 -28 34 -9 19 -23 37 -31 40 -20 8 -19 137 2 206
22 74 16 178 -12 208 -38 41 -111 72 -170 72 -66 0 -97 25 -107 86 -8 47 -56
105 -104 124 -40 15 -200 5 -256 -17 -35 -14 -41 -14 -77 2 -74 33 -88 95 -41
185 27 52 36 174 26 362 -7 139 -8 147 -33 175 -36 38 -114 83 -145 83 -48 0
-57 9 -57 56 0 30 11 69 35 118 19 41 35 89 35 108 0 23 10 46 32 73 18 22 36
42 40 43 5 2 8 10 8 17 0 8 6 18 14 22 7 4 19 19 26 33 7 14 29 45 48 69 l36
44 8 161 c9 189 32 380 49 402 26 32 38 305 18 378 -9 32 -73 125 -101 146
-15 11 -46 109 -53 165 -9 69 -37 139 -68 174 -24 26 -118 105 -163 136 -76
53 -84 66 -103 160 -11 50 -26 110 -35 135 -9 25 -16 58 -16 73 0 16 -4 26 -9
23 -12 -8 -37 56 -50 128 -6 31 -18 71 -28 87 -21 36 -92 83 -148 98 -58 16
-291 13 -339 -4z"/>
</g>
</svg>
