<?xml version="1.0" standalone="no"?>
<!DOCTYPE svg PUBLIC "-//W3C//DTD SVG 20010904//EN"
 "http://www.w3.org/TR/2001/REC-SVG-20010904/DTD/svg10.dtd">
<svg version="1.0" xmlns="http://www.w3.org/2000/svg"
 width="791.000000pt" height="791.000000pt" viewBox="0 0 791.000000 791.000000"
 preserveAspectRatio="xMidYMid meet">
<metadata>
Created by potrace 1.11, written by Peter Selinger 2001-2013
</metadata>
<g transform="translate(0.000000,791.000000) scale(0.100000,-0.100000)"
fill="#000000" stroke="none">
<path d="M3845 7774 c-27 -7 -63 -16 -80 -18 -16 -3 -45 -10 -63 -15 -18 -5
-35 -10 -37 -10 -3 0 -18 -2 -33 -5 -15 -4 -36 -8 -47 -10 -11 -3 -60 -13
-110 -25 -113 -25 -144 -32 -172 -36 -11 -2 -30 -6 -41 -9 -21 -7 -48 -13 -92
-22 -14 -3 -32 -7 -40 -9 -8 -2 -30 -7 -49 -10 -19 -3 -38 -8 -43 -11 -5 -3
-21 -7 -36 -9 -15 -2 -49 -9 -77 -15 -27 -6 -59 -13 -70 -16 -11 -2 -47 -10
-80 -18 -33 -8 -73 -17 -90 -20 -16 -2 -59 -11 -95 -20 -36 -8 -76 -17 -90
-20 -14 -3 -43 -10 -65 -15 -22 -5 -51 -12 -65 -15 -14 -2 -44 -9 -67 -14 -24
-5 -43 -8 -43 -6 0 3 -8 0 -17 -5 -10 -5 -34 -12 -53 -15 -19 -3 -44 -8 -55
-11 -11 -2 -36 -8 -55 -13 -19 -5 -38 -9 -42 -10 -5 -1 -9 -2 -10 -3 -2 0 -12
-2 -23 -4 -11 -1 -54 -10 -95 -20 -105 -23 -111 -25 -145 -31 -16 -3 -48 -9
-70 -15 -22 -5 -49 -12 -60 -14 -11 -3 -33 -8 -50 -10 -16 -3 -38 -8 -47 -11
-9 -3 -27 -7 -40 -10 -13 -3 -32 -7 -43 -9 -30 -7 -66 -14 -105 -21 -19 -4
-39 -9 -45 -12 -5 -3 -16 -7 -25 -8 -18 -1 -341 -71 -390 -84 -19 -5 -46 -11
-60 -14 -22 -3 -96 -18 -110 -21 -3 -1 -23 -6 -45 -13 -22 -6 -53 -13 -70 -15
-16 -3 -73 -15 -125 -27 -52 -12 -106 -24 -120 -26 -14 -3 -33 -7 -42 -10 -9
-3 -27 -7 -40 -9 -62 -12 -85 -18 -109 -31 -23 -11 -25 -18 -23 -58 1 -25 -1
-46 -4 -47 -4 0 -17 -2 -30 -3 -13 -2 -30 -10 -38 -18 -13 -13 -12 -28 16
-132 17 -64 33 -124 35 -134 2 -9 15 -60 30 -112 14 -52 27 -104 29 -115 8
-44 29 -121 37 -131 5 -6 7 -13 4 -16 -3 -2 0 -20 6 -39 9 -29 63 -237 73
-279 2 -8 9 -35 16 -60 7 -25 14 -52 16 -60 2 -8 10 -40 19 -70 8 -30 17 -66
20 -80 3 -14 12 -50 20 -80 9 -30 18 -62 20 -70 2 -8 8 -35 14 -60 17 -68 16
-63 65 -255 47 -182 70 -265 86 -320 5 -16 11 -41 14 -55 3 -14 22 -88 42
-165 20 -77 38 -147 40 -155 3 -13 11 -43 30 -115 3 -11 6 -24 7 -30 2 -5 6
-16 10 -22 5 -7 6 -13 4 -13 -3 0 4 -33 14 -72 11 -40 21 -80 23 -88 2 -8 14
-51 26 -95 12 -44 23 -89 25 -100 2 -11 13 -56 25 -100 12 -44 23 -87 25 -95
2 -8 4 -15 5 -15 1 0 3 -9 5 -20 3 -16 35 -138 45 -173 2 -4 4 -11 6 -17 4
-14 53 -208 70 -280 8 -33 17 -67 21 -75 3 -8 7 -22 8 -30 1 -8 12 -51 25 -95
12 -44 22 -89 23 -100 0 -12 62 -82 149 -170 81 -82 148 -151 148 -152 0 -8
275 -273 284 -273 17 1 47 26 39 33 -3 4 0 7 9 7 8 0 35 -21 60 -48 25 -26 60
-58 78 -72 19 -14 41 -34 49 -45 17 -21 828 -831 903 -901 76 -72 77 -74 93
-189 2 -11 7 -30 12 -42 12 -32 904 -933 924 -933 18 0 49 30 49 48 0 18 18
14 42 -8 28 -26 56 -25 87 3 14 12 23 18 18 13 -9 -12 41 -66 61 -66 8 0 109
96 224 212 655 664 1810 1832 2258 2283 223 225 270 278 279 310 5 22 19 76
31 120 12 44 23 87 25 95 2 8 18 69 35 135 18 66 33 127 35 135 2 8 8 35 15
60 7 25 13 50 15 55 1 6 5 17 8 25 4 8 8 26 10 40 2 14 6 32 10 40 7 20 17 59
23 95 3 17 10 35 15 41 5 6 6 13 4 16 -3 3 -1 17 5 32 5 15 12 39 15 54 3 15
18 77 35 137 17 61 32 119 34 130 2 11 8 38 14 60 6 22 12 43 12 47 1 4 10 38
21 75 11 38 21 77 24 88 2 11 11 47 20 80 19 69 85 323 90 345 2 8 15 60 29
114 28 110 24 131 -25 124 -25 -4 -27 -2 -24 26 2 17 4 31 5 31 2 0 7 31 15
85 10 74 66 240 88 261 12 10 36 29 54 42 33 23 49 50 59 101 3 16 7 33 10 38
3 4 7 16 9 25 1 10 10 45 19 78 9 33 19 71 22 85 2 14 9 39 14 55 10 34 120
461 125 488 2 9 15 59 29 110 14 50 31 112 37 137 7 25 14 50 15 55 3 10 5 19
23 95 9 40 8 47 -9 61 -10 9 -29 16 -42 15 -23 -1 -49 14 -42 25 2 3 6 19 8
36 6 33 -10 46 -69 57 -16 4 -39 8 -50 11 -21 5 -55 13 -90 20 -74 17 -187 42
-225 51 -14 3 -34 7 -45 9 -11 2 -58 12 -105 24 -87 20 -106 24 -170 36 -19 4
-46 11 -60 15 -14 5 -38 11 -55 14 -16 3 -41 7 -55 10 -14 3 -37 8 -52 12 -15
3 -30 5 -33 5 -2 0 -19 5 -37 10 -18 5 -44 11 -58 14 -14 3 -36 7 -50 11 -35
8 -110 24 -140 30 -14 3 -41 9 -60 14 -19 5 -46 11 -60 14 -14 2 -55 11 -91
20 -37 8 -78 17 -90 20 -21 4 -57 12 -144 32 -11 3 -31 7 -45 10 -14 2 -36 7
-50 10 -14 3 -34 7 -45 9 -11 2 -49 11 -85 20 -36 9 -76 18 -90 20 -14 3 -45
9 -70 16 -48 11 -53 13 -140 29 -30 6 -62 14 -70 17 -18 7 -27 9 -65 16 -16 3
-61 13 -100 22 -38 9 -79 18 -90 20 -11 1 -40 7 -65 13 -25 6 -56 13 -70 16
-14 3 -45 10 -70 16 -25 6 -54 12 -65 14 -11 3 -31 7 -45 11 -14 3 -40 8 -59
11 -18 2 -41 9 -51 14 -9 5 -20 7 -22 4 -3 -2 -16 0 -30 5 -14 5 -42 12 -64
15 -21 4 -47 9 -56 12 -9 3 -25 7 -35 9 -10 2 -38 9 -63 15 -25 6 -58 13 -75
15 -16 2 -31 4 -32 5 -2 2 -6 3 -10 4 -63 16 -81 19 -98 22 -11 2 -29 5 -40 8
-62 15 -154 36 -180 41 -59 13 -141 12 -190 -1z"/>
</g>
</svg>
