<?xml version="1.0" encoding="utf-8"?>
<!-- Generator: Adobe Illustrator 21.1.0, SVG Export Plug-In . SVG Version: 6.00 Build 0)  -->
<svg version="1.1" xmlns="http://www.w3.org/2000/svg" xmlns:xlink="http://www.w3.org/1999/xlink" x="0px" y="0px"
	 viewBox="0 0 1828.4 649.5" style="enable-background:new 0 0 1828.4 649.5;" xml:space="preserve">
<style type="text/css">
	.st0{clip-path:url(#SVGID_2_);fill:url(#SVGID_3_);}
	.st1{clip-path:url(#SVGID_5_);fill:url(#SVGID_6_);}
	.st2{clip-path:url(#SVGID_8_);fill:url(#SVGID_9_);}
	.st3{opacity:0.5;}
	.st4{clip-path:url(#SVGID_11_);fill:none;stroke:#F2631C;stroke-width:1.5;stroke-miterlimit:10;}
	.st5{clip-path:url(#SVGID_13_);fill:none;stroke:#F2631C;stroke-width:1.5;stroke-miterlimit:10;}
	.st6{clip-path:url(#SVGID_15_);fill:none;stroke:#F2631C;stroke-width:1.5;stroke-miterlimit:10;}
	.st7{clip-path:url(#SVGID_17_);fill:none;stroke:#F2631C;stroke-width:1.5;stroke-miterlimit:10;}
	.st8{clip-path:url(#SVGID_19_);fill:none;stroke:#019F01;stroke-width:1.5;stroke-miterlimit:10;}
	.st9{clip-path:url(#SVGID_21_);fill:none;stroke:#019F01;stroke-width:1.5;stroke-miterlimit:10;}
	.st10{clip-path:url(#SVGID_23_);fill:none;stroke:#019F01;stroke-width:1.5;stroke-miterlimit:10;}
	.st11{clip-path:url(#SVGID_25_);fill:none;stroke:#019F01;stroke-width:1.5;stroke-miterlimit:10;}
	.st12{clip-path:url(#SVGID_27_);fill:none;stroke:#F2631C;stroke-width:1.5;stroke-miterlimit:10;}
	.st13{clip-path:url(#SVGID_29_);fill:none;stroke:#F2631C;stroke-width:1.5;stroke-miterlimit:10;}
	.st14{clip-path:url(#SVGID_31_);fill:none;stroke:#F2631C;stroke-width:1.5;stroke-miterlimit:10;}
	.st15{clip-path:url(#SVGID_33_);fill:none;stroke:#F2631C;stroke-width:1.5;stroke-miterlimit:10;}
	.st16{opacity:0.85;fill:#E57917;enable-background:new    ;}
	.st17{opacity:0.6;}
	.st18{opacity:0.85;}
	.st19{opacity:0.7;fill:#03050F;enable-background:new    ;}
	
		.st20{clip-path:url(#SVGID_35_);fill:none;stroke:#FFFFFF;stroke-width:3;stroke-linecap:round;stroke-linejoin:round;stroke-miterlimit:10;}
	
		.st21{clip-path:url(#SVGID_37_);fill:none;stroke:#FFFFFF;stroke-width:3;stroke-linecap:round;stroke-linejoin:round;stroke-miterlimit:10;}
	.st22{fill:#A84108;}
	.st23{fill:#EF1F1C;}
	.st24{fill:url(#Letter_x5F_A_1_);}
	.st25{fill:url(#Letter_x5F_F_2_);}
	.st26{clip-path:url(#SVGID_39_);fill:#9FA083;stroke:#FFFFFF;stroke-miterlimit:10;}
	.st27{clip-path:url(#SVGID_41_);fill:#9FA083;stroke:#FFFFFF;stroke-miterlimit:10;}
	.st28{clip-path:url(#SVGID_43_);fill:none;stroke:#FFFFFF;stroke-miterlimit:10;}
	.st29{display:none;clip-path:url(#SVGID_45_);fill:#9FA083;stroke:#FFFFFF;stroke-miterlimit:10;}
	.st30{opacity:0.75;enable-background:new    ;}
	.st31{clip-path:url(#SVGID_47_);fill:#100E56;}
	.st32{clip-path:url(#SVGID_49_);fill:#100E56;}
	.st33{fill:none;stroke:#FFFFFF;stroke-miterlimit:10;}
	.st34{clip-path:url(#SVGID_51_);fill:#2273C4;}
	.st35{clip-path:url(#SVGID_53_);fill:none;stroke:#CBD6EF;stroke-linecap:round;stroke-miterlimit:10;}
	.st36{clip-path:url(#SVGID_55_);fill:none;stroke:#CBD6EF;stroke-linecap:round;stroke-miterlimit:10;}
	.st37{clip-path:url(#SVGID_57_);fill:#A10201;}
	.st38{clip-path:url(#SVGID_59_);fill:#912323;}
	.st39{clip-path:url(#SVGID_61_);fill:none;stroke:#FFFFFF;stroke-linecap:round;stroke-miterlimit:10;}
	.st40{clip-path:url(#SVGID_63_);fill:none;stroke:#FFFFFF;stroke-linecap:round;stroke-miterlimit:10;}
	.st41{clip-path:url(#SVGID_65_);fill:none;stroke:#FFFFFF;stroke-linecap:round;stroke-miterlimit:10;}
</style>
<g id="Logo">
	<g id="Logo_x5F_All_x5F_Elements">
		<g id="InColor">
			<g>
				<g>
					<g>
						<defs>
							<path id="SVGID_1_" d="M339.5,621.6c-2.6-0.7-3.8-5.2-5.2-4.1c-1.6,0.9-2.7,2.4-4.1,2.5c-2.9,0-3.8-2.6-6.1-3.5
								c-1.3,1.8-1.8,4.6-5.1,4.8c-0.6-0.5-1.7-0.9-2.5-1.8c-4-4.1-7.9-8.2-11.9-12.3c-17.2-17.3-34.4-34.6-51.6-51.9
								c-1.4-1.4-3-2.6-3.5-3c-2.3-5-1.8-9-2.5-12.8c-1.9-2.4-3.7-4.7-5.5-7c-0.2-0.3-0.5-0.7-0.8-0.8c-5.8-3.6-9.9-8.9-14.7-13.6
								c-10.4-10.1-20.6-20.6-30.9-30.8c-5.8-5.7-11.6-11.2-17.3-17c-2.1-2.1-3.9-4.4-5.8-6.6c-0.5-0.6-0.9-1.4-1.5-1.8
								c-4.6-2.8-7.8-7.1-11.7-10.7c-0.4-0.4-1-0.6-1.5-0.9c-1.2,1.3-1.9,3.1-4.1,3.1c-0.2,0-0.4,0-0.6-0.1
								c-0.2-0.1-0.4-0.2-0.5-0.3c-14-14-26.8-28.7-41.1-42.9C85,309.7,57.7,209.7,31.6,109.3c0.5-1.8,1.9-2.1,3.3-2.4
								c1.2-0.2,2.4,0.1,3.5,0c0.7-0.1,1.4-0.5,2.1-0.8c-0.8-1.8-1.5-3.4-2-5c-0.2-0.5,0-1.2,0-2c1.2-0.5,2.5-1.2,3.7-1.5
								c14-3.1,27.9-6.2,41.9-9.3c15.3-3.4,30.7-6.7,46-10.1c11.3-2.5,22.6-5.1,33.8-7.6c16.7-3.7,33.3-7.4,50-11.1
								c19-4.2,37.9-8.5,56.9-12.7c17.8-3.9,35.6-7.8,53.4-11.7c3.4-0.8,6.6-0.7,9.9,0.1c24.5,5.4,49,10.8,73.5,16.3
								c16.7,3.7,33.3,7.5,50,11.3c19.9,4.5,39.8,8.7,59.8,13.2c24.5,5.4,49,10.9,73.5,16.3c8.1,1.8,16.1,3.5,24.2,5.2
								c1.7,0.4,3.4,1,4.8,1.4c1.5,2.8-0.6,4.8-0.6,7.4c0.7,0.4,1.5,1,2.3,1.2c0.9,0.2,1.9-0.2,2.8-0.1c0.9,0.2,1.8,0.5,2.5,0.8
								c1,1.8,0.4,3.4,0,4.8c-4.1,16.1-8.4,32.2-12.6,48.4c-3.5,13.7-7.1,27.3-10.7,41c-0.4,1.5-0.9,3-1.4,4.4
								c-2.6,2-5.1,3.8-7.8,5.8c-0.7,2.1-1.3,4.4-2.1,6.6c-0.7,2.1-1.3,4.1-2,6.1c-0.2,0.8-0.8,1.5-0.8,2.2c0,4.6-1.8,11.4-2.5,15.9
								c-0.1,0.5,0,0.6,0.1,1.2c1.7,0.6,3.6-0.9,5.1-0.4c0.5,2.1-0.2,3.8-0.6,5.4c-3.6,14-7.3,28.1-11,42.1
								c-8.5,32.8-17,65.7-25.5,98.5c-1.7,6.4-3.5,12.9-5.2,19.6c-1.2,1.2-2.5,2.7-3.9,4.1c-7.9,8-15.8,15.9-23.7,23.9
								c-37.8,38.1-75.5,76.3-113.3,114.5c-21.6,21.8-43.1,43.7-64.7,65.5C342.7,619.5,341.5,620.6,339.5,621.6z"/>
						</defs>
						<clipPath id="SVGID_2_">
							<use xlink:href="#SVGID_1_"  style="overflow:visible;"/>
						</clipPath>
						
							<radialGradient id="SVGID_3_" cx="328.0422" cy="195.5956" r="221.3743" gradientTransform="matrix(1 0 0 1 0 62)" gradientUnits="userSpaceOnUse">
							<stop  offset="0" style="stop-color:#FFE800"/>
							<stop  offset="1" style="stop-color:#FFDA00"/>
						</radialGradient>
						<path class="st0" d="M339.5,622c-2.6-0.7-3.6-3.1-5.2-4.8c-1.6,0.9-3.1,1.8-4.1,2.5c-2.9,0-3.8-2.6-6.1-3.5
							c-1.9,0.2-1.8,3.7-5.1,4c-0.6-0.5-1.2-0.5-1.9-1.4c-4-4.1-8.4-7.7-12.4-11.7c-17.2-17.3-34.4-34.6-51.6-51.9
							c-1.4-1.4-3-2.6-3.5-3c-2.3-5-1.8-9-2.5-12.8c-1.9-2.4-3.7-4.7-5.5-7c-0.2-0.3-0.5-0.7-0.8-0.8c-5.8-3.6-9.9-8.9-14.7-13.6
							c-10.4-10.1-20.5-20.6-30.8-30.9c-5.8-5.7-11.4-11.4-17.1-17c-2.1-2.1-3.9-4.5-5.8-6.6c-0.5-0.6-1.1-1.3-1.7-1.7
							c-4.6-2.8-7.8-7.1-11.7-10.7c-0.4-0.4-1.8-1.3-2.2-1.6c-1.2,1.3-1.5,3.6-3.5,3.6c-0.2,0-0.4,0-0.6-0.1
							c-0.2-0.1-0.4-0.2-0.5-0.3c-14-14-28-27.7-42.3-41.9c-26-100.7-52.1-201.3-78.1-301.8c0.5-1.8,1.9-2.1,3.3-2.4
							c1.2-0.2,2.4,0.1,3.5,0c0.7-0.1,1.4-0.5,2.1-0.8c-0.8-1.8-1.5-3.4-2-5c-0.2-0.5,0-1.2,0-2c1.2-0.5,2.5-1.2,3.7-1.5
							c14-3.1,27.9-6.2,41.9-9.3c15.3-3.4,30.7-6.7,46-10.1c11.3-2.5,22.6-5.1,33.8-7.6c16.7-3.7,33.3-7.4,50-11.1
							c19-4.2,37.9-8.5,56.9-12.7c17.8-3.9,35.6-7.8,53.4-11.7c3.4-0.8,6.6-0.7,9.9,0.1c24.5,5.4,49,10.8,73.5,16.3
							c16.7,3.7,33.3,7.5,50,11.3c19.9,4.5,39.8,8.7,59.8,13.2c24.5,5.4,49,10.9,73.5,16.3c8.1,1.8,16.1,3.5,24.2,5.2
							c1.7,0.4,3.4,1,4.8,1.4c1.5,2.8-0.6,4.8-0.6,7.4c0.7,0.4,1.5,1,2.3,1.2c0.9,0.2,1.9-0.2,2.8-0.1c0.9,0.2,1.8,0.5,2.5,0.8
							c1,1.8,0.4,3.4,0,4.8c-4.1,16.1-8.4,32.2-12.6,48.4c-3.5,13.7-7.1,27.3-10.7,41c-0.4,1.5-0.9,3-1.4,4.4
							c-2.6,2-5.1,3.8-7.8,5.8c-0.7,2.1-1.3,4.4-2.1,6.6c-0.7,2.1-1.3,4.1-2,6.1c-0.2,0.8-0.8,1.5-0.8,2.2c0,4.6-1.7,8.8-2.5,13.3
							c-0.1,0.5,0.2,1.2,0.2,1.7c1.7,0.6,3.3,1.2,4.8,1.8c0.5,2.1-0.2,3.8-0.6,5.4c-3.6,14-7.3,28.1-11,42.1
							c-8.5,32.8-17,65.7-25.5,98.5c-1.7,6.4-3.5,12.9-5.2,19.6c-1.2,1.2-2.5,2.7-3.9,4.1c-7.9,8-15.8,15.9-23.7,23.9
							C484.5,475.9,446.8,514,409,552.3c-21.6,21.8-43.1,43.7-64.7,65.5C342.8,619.3,341.5,621.1,339.5,622z"/>
					</g>
				</g>
				<g>
					<g>
						<defs>
							<path id="SVGID_4_" d="M339.5,621.6c-2.6-0.7-3.8-5.2-5.2-4.1c-1.6,0.9-2.7,2.4-4.1,2.5c-2.9,0-3.8-2.6-6.1-3.5
								c-1.3,1.8-1.8,4.6-5.1,4.8c-0.6-0.5-1.7-0.9-2.5-1.8c-4-4.1-7.9-8.2-11.9-12.3c-17.2-17.3-34.4-34.6-51.6-51.9
								c-1.4-1.4-3-2.6-3.5-3c-2.3-5-1.8-9-2.5-12.8c-1.9-2.4-3.7-4.7-5.5-7c-0.2-0.3-0.5-0.7-0.8-0.8c-5.8-3.6-9.9-8.9-14.7-13.6
								c-10.4-10.1-20.6-20.6-30.9-30.8c-5.8-5.7-11.6-11.2-17.3-17c-2.1-2.1-3.9-4.4-5.8-6.6c-0.5-0.6-0.9-1.4-1.5-1.8
								c-4.6-2.8-7.8-7.1-11.7-10.7c-0.4-0.4-1-0.6-1.5-0.9c-1.2,1.3-1.9,3.1-4.1,3.1c-0.2,0-0.4,0-0.6-0.1
								c-0.2-0.1-0.4-0.2-0.5-0.3c-14-14-26.8-28.7-41.1-42.9C85,309.7,57.7,209.7,31.6,109.3c0.5-1.8,1.9-2.1,3.3-2.4
								c1.2-0.2,2.4,0.1,3.5,0c0.7-0.1,1.4-0.5,2.1-0.8c-0.8-1.8-1.5-3.4-2-5c-0.2-0.5,0-1.2,0-2c1.2-0.5,2.5-1.2,3.7-1.5
								c14-3.1,27.9-6.2,41.9-9.3c15.3-3.4,30.7-6.7,46-10.1c11.3-2.5,22.6-5.1,33.8-7.6c16.7-3.7,33.3-7.4,50-11.1
								c19-4.2,37.9-8.5,56.9-12.7c17.8-3.9,35.6-7.8,53.4-11.7c3.4-0.8,6.6-0.7,9.9,0.1c24.5,5.4,49,10.8,73.5,16.3
								c16.7,3.7,33.3,7.5,50,11.3c19.9,4.5,39.8,8.7,59.8,13.2c24.5,5.4,49,10.9,73.5,16.3c8.1,1.8,16.1,3.5,24.2,5.2
								c1.7,0.4,3.4,1,4.8,1.4c1.5,2.8-0.6,4.8-0.6,7.4c0.7,0.4,1.5,1,2.3,1.2c0.9,0.2,1.9-0.2,2.8-0.1c0.9,0.2,1.8,0.5,2.5,0.8
								c1,1.8,0.4,3.4,0,4.8c-4.1,16.1-8.4,32.2-12.6,48.4c-3.5,13.7-7.1,27.3-10.7,41c-0.4,1.5-0.9,3-1.4,4.4
								c-2.6,2-5.1,3.8-7.8,5.8c-0.7,2.1-1.3,4.4-2.1,6.6c-0.7,2.1-1.3,4.1-2,6.1c-0.2,0.8-0.8,1.5-0.8,2.2c0,4.6-1.8,11.4-2.5,15.9
								c-0.1,0.5,0,0.6,0.1,1.2c1.7,0.6,3.6-0.9,5.1-0.4c0.5,2.1-0.2,3.8-0.6,5.4c-3.6,14-7.3,28.1-11,42.1
								c-8.5,32.8-17,65.7-25.5,98.5c-1.7,6.4-3.5,12.9-5.2,19.6c-1.2,1.2-2.5,2.7-3.9,4.1c-7.9,8-15.8,15.9-23.7,23.9
								c-37.8,38.1-75.5,76.3-113.3,114.5c-21.6,21.8-43.1,43.7-64.7,65.5C342.7,619.5,341.5,620.6,339.5,621.6z"/>
						</defs>
						<clipPath id="SVGID_5_">
							<use xlink:href="#SVGID_4_"  style="overflow:visible;"/>
						</clipPath>
						
							<radialGradient id="SVGID_6_" cx="328.4061" cy="196.6873" r="268.7176" gradientTransform="matrix(1 0 0 1 0 62)" gradientUnits="userSpaceOnUse">
							<stop  offset="0" style="stop-color:#FFD924"/>
							<stop  offset="1" style="stop-color:#FF7D00"/>
						</radialGradient>
						<polygon class="st1" points="322.7,259.4 641.1,95.9 623.3,204.3 559.8,443.4 326.7,642.5 						"/>
					</g>
				</g>
			</g>
			<g id="In_x5F_Green">
				<g>
					<g>
						<defs>
							<polygon id="SVGID_7_" points="31.8,101.9 329.3,256.4 329.3,644.3 -20.2,589 -289.2,168.8 -76.3,14.6 							"/>
						</defs>
						<clipPath id="SVGID_8_">
							<use xlink:href="#SVGID_7_"  style="overflow:visible;"/>
						</clipPath>
						
							<radialGradient id="SVGID_9_" cx="328.8039" cy="195.8379" r="268.5627" gradientTransform="matrix(1 0 0 1 0 62)" gradientUnits="userSpaceOnUse">
							<stop  offset="0" style="stop-color:#00FF00"/>
							<stop  offset="1" style="stop-color:#31BE31"/>
						</radialGradient>
						<path class="st2" d="M339.5,622.3c-2.6-0.7-3.6-3.1-5.2-4.8c-1.6,0.9-3.1,1.8-4.1,2.4c-2.9,0-3.8-2.3-6.1-3.5
							c-0.1,0.1-0.5,0.5-0.8,0.7c-0.6-0.5-4.5-0.2-5.3-0.9c-4-4.1-6.8-7.7-10.8-11.7c-17.2-17.3-35.3-32.7-52.5-50
							c-1.4-1.4-2.7-3.5-3.2-4c-2.3-5-3.6-7.1-4.1-10.9c-1.9-2.4-3.7-4.7-5.5-7c-0.2-0.3-0.5-0.7-0.8-0.8
							c-5.8-3.6-9.9-8.9-14.7-13.6c-10.4-10.1-20.6-20.6-30.9-30.8c-5.8-5.7-11.6-11.2-17.3-17c-2.1-2.1-3.9-4.4-5.8-6.6
							c-0.5-0.6-0.9-1.4-1.5-1.8c-4.6-2.8-7.8-7.1-11.7-10.7c-0.4-0.4-1.5-1.1-1.9-1.4c-1.5,0.9-0.7,0.3-2.8,0.2
							c-0.2,0-1.7,2.8-1.8,2.7s-0.4-0.2-0.5-0.3c-14-14-27.1-28-41.4-42.3C84.3,309.9,57.7,209.7,31.7,109.3
							c0.5-1.8,1.9-2.1,3.3-2.4c1.2-0.2,2.4,0.1,3.5,0c0.7-0.1,1.4-0.5,2.1-0.8c-0.8-1.8-1.5-3.4-2-5c-0.2-0.5,0-1.2,0-2
							c1.2-0.5,2.5-1.2,3.7-1.5c14-3.1,27.9-6.2,41.9-9.3c15.3-3.4,30.7-6.7,46-10.1c11.3-2.5,22.6-5.1,33.8-7.6
							c16.7-3.7,33.3-7.4,50-11.1c19-4.2,37.9-8.4,56.9-12.7c17.8-3.9,35.6-7.8,53.4-11.7c3.4-0.8,6.6-0.7,9.9,0.1
							c24.5,5.4,49,10.8,73.5,16.3c16.7,3.7,33.3,7.5,50,11.3c19.9,4.5,39.8,8.7,59.8,13.2c24.5,5.4,49,10.9,73.5,16.3
							c8.1,1.8,16.1,3.5,24.2,5.2c1.7,0.4,3.4,1,4.8,1.4c1.5,2.8-0.6,4.8-0.6,7.4c0.7,0.4,1.5,1,2.3,1.2c0.9,0.2,1.9-0.2,2.8-0.1
							c0.9,0.2,1.8,0.5,2.5,0.8c1,1.8,0.4,3.4,0,4.8c-4.1,16.1-8.4,32.2-12.6,48.4c-3.5,13.7-7.1,27.3-10.7,41
							c-0.4,1.5-0.9,3-1.4,4.4c-2.6,2-5.1,3.8-7.8,5.8c-0.7,2.1-1.3,4.4-2.1,6.6c-0.7,2.1-1.3,4.1-2,6.1c-0.2,0.8-0.8,1.5-0.8,2.2
							c0,4.6-1.7,8.8-2.5,13.3c-0.1,0.5,0.2,1.2,0.2,1.7c1.7,0.6,3.3,1.2,4.8,1.8c0.5,2.1-0.2,3.8-0.6,5.4c-3.6,14-7.3,28.1-11,42.1
							c-8.5,32.8-17,65.7-25.5,98.5c-1.7,6.4-3.5,12.9-5.2,19.6c-1.2,1.2-2.5,2.7-3.9,4.1c-7.9,8-15.8,15.9-23.7,23.9
							c-37.8,38.1-75.5,76.3-113.3,114.5c-21.6,21.8-43.1,43.7-64.7,65.5C342.8,619.6,341.5,621.3,339.5,622.3z"/>
					</g>
				</g>
			</g>
		</g>
		<g id="Traits_x5F_Jaunes" class="st3">
			<g>
				<g>
					<g>
						<defs>
							<path id="SVGID_10_" d="M339.5,621.6c-2.6-0.7-2.9-3.5-5.3-4.2c-1.6,0.9-2.7,2.4-4.1,2.5c-2.9,0-3.8-2.6-6.1-3.5
								c-1.3,1.8-1.8,4.6-5.1,4.8c-0.6-0.5-1.7-0.9-2.5-1.8c-4-4.1-7.9-8.2-11.9-12.3c-17.2-17.3-34.4-34.6-51.6-51.9
								c-1.4-1.4-3-2.6-3.5-3c-2.3-5-1.8-9-2.5-12.8c-1.9-2.4-3.7-4.7-5.5-7c-0.2-0.3-0.5-0.7-0.8-0.8c-5.8-3.6-9.9-8.9-14.7-13.6
								c-10.4-10.1-20.6-20.6-30.9-30.8c-5.8-5.7-11.6-11.2-17.3-17c-2.1-2.1-3.9-4.4-5.8-6.6c-0.5-0.6-0.9-1.4-1.5-1.8
								c-4.6-2.8-7.8-7.1-11.7-10.7c-0.4-0.4-1-0.6-1.5-0.9c-1.2,1.3-1.9,3.1-4.1,3.1c-0.2,0-0.4,0-0.6-0.1
								c-0.2-0.1-0.4-0.2-0.5-0.3c-14-14-27.5-28.5-41.7-42.7C84.3,309.9,57.7,209.7,31.6,109.3c0.5-1.8,1.9-2.1,3.3-2.4
								c1.2-0.2,2.4,0.1,3.5,0c0.7-0.1,1.4-0.5,2.1-0.8c-0.8-1.8-1.5-3.4-2-5c-0.2-0.5,0-1.2,0-2c1.2-0.5,2.5-1.2,3.7-1.5
								c14-3.1,27.9-6.2,41.9-9.3c15.3-3.4,30.7-6.7,46-10.1c11.3-2.5,22.6-5.1,33.8-7.6c16.7-3.7,33.3-7.4,50-11.1
								c19-4.2,37.9-8.5,56.9-12.7c17.8-3.9,35.6-7.8,53.4-11.7c3.4-0.8,6.6-0.7,9.9,0.1c24.5,5.4,49,10.8,73.5,16.3
								c16.7,3.7,33.3,7.5,50,11.3c19.9,4.5,39.8,8.7,59.8,13.2c24.5,5.4,49,10.9,73.5,16.3c8.1,1.8,16.1,3.5,24.2,5.2
								c1.7,0.4,3.4,1,4.8,1.4c1.5,2.8-0.6,4.8-0.6,7.4c0.7,0.4,1.5,1,2.3,1.2c0.9,0.2,1.9-0.2,2.8-0.1c0.9,0.2,1.8,0.5,2.5,0.8
								c1,1.8,0.4,3.4,0,4.8c-4.1,16.1-8.4,32.2-12.6,48.4c-3.5,13.7-7.1,27.3-10.7,41c-0.4,1.5-0.9,3-1.4,4.4
								c-2.6,2-5.1,3.8-7.8,5.8c-0.7,2.1-1.3,4.4-2.1,6.6c-0.7,2.1-1.3,4.1-2,6.1c-0.2,0.8-0.8,1.5-0.8,2.2c0,4.6-1.7,8.8-2.5,13.3
								c-0.1,0.5,0.2,1.2,0.2,1.7c1.7,0.6,3.3,1.2,4.8,1.8c0.5,2.1-0.2,3.8-0.6,5.4c-3.6,14-7.3,28.1-11,42.1
								c-8.5,32.8-17,65.7-25.5,98.5c-1.7,6.4-3.5,12.9-5.2,19.6c-1.2,1.2-2.5,2.7-3.9,4.1c-7.9,8-15.8,15.9-23.7,23.9
								c-37.8,38.1-75.5,76.3-113.3,114.5c-21.6,21.8-43.1,43.7-64.7,65.5C342.7,619.5,341.5,620.7,339.5,621.6z"/>
						</defs>
						<clipPath id="SVGID_11_">
							<use xlink:href="#SVGID_10_"  style="overflow:visible;"/>
						</clipPath>
						<line class="st4" x1="85.5" y1="148.7" x2="428.8" y2="51"/>
					</g>
				</g>
				<g>
					<g>
						<defs>
							<path id="SVGID_12_" d="M339.5,621.6c-2.6-0.7-2.9-3.5-5.3-4.2c-1.6,0.9-2.7,2.4-4.1,2.5c-2.9,0-3.8-2.6-6.1-3.5
								c-1.3,1.8-1.8,4.6-5.1,4.8c-0.6-0.5-1.7-0.9-2.5-1.8c-4-4.1-7.9-8.2-11.9-12.3c-17.2-17.3-34.4-34.6-51.6-51.9
								c-1.4-1.4-3-2.6-3.5-3c-2.3-5-1.8-9-2.5-12.8c-1.9-2.4-3.7-4.7-5.5-7c-0.2-0.3-0.5-0.7-0.8-0.8c-5.8-3.6-9.9-8.9-14.7-13.6
								c-10.4-10.1-20.6-20.6-30.9-30.8c-5.8-5.7-11.6-11.2-17.3-17c-2.1-2.1-3.9-4.4-5.8-6.6c-0.5-0.6-0.9-1.4-1.5-1.8
								c-4.6-2.8-7.8-7.1-11.7-10.7c-0.4-0.4-1-0.6-1.5-0.9c-1.2,1.3-1.9,3.1-4.1,3.1c-0.2,0-0.4,0-0.6-0.1
								c-0.2-0.1-0.4-0.2-0.5-0.3c-14-14-27.5-28.5-41.7-42.7C84.3,309.9,57.7,209.7,31.6,109.3c0.5-1.8,1.9-2.1,3.3-2.4
								c1.2-0.2,2.4,0.1,3.5,0c0.7-0.1,1.4-0.5,2.1-0.8c-0.8-1.8-1.5-3.4-2-5c-0.2-0.5,0-1.2,0-2c1.2-0.5,2.5-1.2,3.7-1.5
								c14-3.1,27.9-6.2,41.9-9.3c15.3-3.4,30.7-6.7,46-10.1c11.3-2.5,22.6-5.1,33.8-7.6c16.7-3.7,33.3-7.4,50-11.1
								c19-4.2,37.9-8.5,56.9-12.7c17.8-3.9,35.6-7.8,53.4-11.7c3.4-0.8,6.6-0.7,9.9,0.1c24.5,5.4,49,10.8,73.5,16.3
								c16.7,3.7,33.3,7.5,50,11.3c19.9,4.5,39.8,8.7,59.8,13.2c24.5,5.4,49,10.9,73.5,16.3c8.1,1.8,16.1,3.5,24.2,5.2
								c1.7,0.4,3.4,1,4.8,1.4c1.5,2.8-0.6,4.8-0.6,7.4c0.7,0.4,1.5,1,2.3,1.2c0.9,0.2,1.9-0.2,2.8-0.1c0.9,0.2,1.8,0.5,2.5,0.8
								c1,1.8,0.4,3.4,0,4.8c-4.1,16.1-8.4,32.2-12.6,48.4c-3.5,13.7-7.1,27.3-10.7,41c-0.4,1.5-0.9,3-1.4,4.4
								c-2.6,2-5.1,3.8-7.8,5.8c-0.7,2.1-1.3,4.4-2.1,6.6c-0.7,2.1-1.3,4.1-2,6.1c-0.2,0.8-0.8,1.5-0.8,2.2c0,4.6-1.7,8.8-2.5,13.3
								c-0.1,0.5,0.2,1.2,0.2,1.7c1.7,0.6,3.3,1.2,4.8,1.8c0.5,2.1-0.2,3.8-0.6,5.4c-3.6,14-7.3,28.1-11,42.1
								c-8.5,32.8-17,65.7-25.5,98.5c-1.7,6.4-3.5,12.9-5.2,19.6c-1.2,1.2-2.5,2.7-3.9,4.1c-7.9,8-15.8,15.9-23.7,23.9
								c-37.8,38.1-75.5,76.3-113.3,114.5c-21.6,21.8-43.1,43.7-64.7,65.5C342.7,619.5,341.5,620.7,339.5,621.6z"/>
						</defs>
						<clipPath id="SVGID_13_">
							<use xlink:href="#SVGID_12_"  style="overflow:visible;"/>
						</clipPath>
						<line class="st5" x1="183.2" y1="196.9" x2="528.6" y2="70.5"/>
					</g>
				</g>
				<g>
					<g>
						<defs>
							<path id="SVGID_14_" d="M339.5,621.6c-2.6-0.7-2.9-3.5-5.3-4.2c-1.6,0.9-2.7,2.4-4.1,2.5c-2.9,0-3.8-2.6-6.1-3.5
								c-1.3,1.8-1.8,4.6-5.1,4.8c-0.6-0.5-1.7-0.9-2.5-1.8c-4-4.1-7.9-8.2-11.9-12.3c-17.2-17.3-34.4-34.6-51.6-51.9
								c-1.4-1.4-3-2.6-3.5-3c-2.3-5-1.8-9-2.5-12.8c-1.9-2.4-3.7-4.7-5.5-7c-0.2-0.3-0.5-0.7-0.8-0.8c-5.8-3.6-9.9-8.9-14.7-13.6
								c-10.4-10.1-20.6-20.6-30.9-30.8c-5.8-5.7-11.6-11.2-17.3-17c-2.1-2.1-3.9-4.4-5.8-6.6c-0.5-0.6-0.9-1.4-1.5-1.8
								c-4.6-2.8-7.8-7.1-11.7-10.7c-0.4-0.4-1-0.6-1.5-0.9c-1.2,1.3-1.9,3.1-4.1,3.1c-0.2,0-0.4,0-0.6-0.1
								c-0.2-0.1-0.4-0.2-0.5-0.3c-14-14-27.5-28.5-41.7-42.7C84.3,309.9,57.7,209.7,31.6,109.3c0.5-1.8,1.9-2.1,3.3-2.4
								c1.2-0.2,2.4,0.1,3.5,0c0.7-0.1,1.4-0.5,2.1-0.8c-0.8-1.8-1.5-3.4-2-5c-0.2-0.5,0-1.2,0-2c1.2-0.5,2.5-1.2,3.7-1.5
								c14-3.1,27.9-6.2,41.9-9.3c15.3-3.4,30.7-6.7,46-10.1c11.3-2.5,22.6-5.1,33.8-7.6c16.7-3.7,33.3-7.4,50-11.1
								c19-4.2,37.9-8.5,56.9-12.7c17.8-3.9,35.6-7.8,53.4-11.7c3.4-0.8,6.6-0.7,9.9,0.1c24.5,5.4,49,10.8,73.5,16.3
								c16.7,3.7,33.3,7.5,50,11.3c19.9,4.5,39.8,8.7,59.8,13.2c24.5,5.4,49,10.9,73.5,16.3c8.1,1.8,16.1,3.5,24.2,5.2
								c1.7,0.4,3.4,1,4.8,1.4c1.5,2.8-0.6,4.8-0.6,7.4c0.7,0.4,1.5,1,2.3,1.2c0.9,0.2,1.9-0.2,2.8-0.1c0.9,0.2,1.8,0.5,2.5,0.8
								c1,1.8,0.4,3.4,0,4.8c-4.1,16.1-8.4,32.2-12.6,48.4c-3.5,13.7-7.1,27.3-10.7,41c-0.4,1.5-0.9,3-1.4,4.4
								c-2.6,2-5.1,3.8-7.8,5.8c-0.7,2.1-1.3,4.4-2.1,6.6c-0.7,2.1-1.3,4.1-2,6.1c-0.2,0.8-0.8,1.5-0.8,2.2c0,4.6-1.7,8.8-2.5,13.3
								c-0.1,0.5,0.2,1.2,0.2,1.7c1.7,0.6,3.3,1.2,4.8,1.8c0.5,2.1-0.2,3.8-0.6,5.4c-3.6,14-7.3,28.1-11,42.1
								c-8.5,32.8-17,65.7-25.5,98.5c-1.7,6.4-3.5,12.9-5.2,19.6c-1.2,1.2-2.5,2.7-3.9,4.1c-7.9,8-15.8,15.9-23.7,23.9
								c-37.8,38.1-75.5,76.3-113.3,114.5c-21.6,21.8-43.1,43.7-64.7,65.5C342.7,619.5,341.5,620.7,339.5,621.6z"/>
						</defs>
						<clipPath id="SVGID_15_">
							<use xlink:href="#SVGID_14_"  style="overflow:visible;"/>
						</clipPath>
						<line class="st6" x1="480" y1="198.9" x2="96.8" y2="57.2"/>
					</g>
				</g>
				<g>
					<g>
						<defs>
							<path id="SVGID_16_" d="M339.5,621.6c-2.6-0.7-2.9-3.5-5.3-4.2c-1.6,0.9-2.7,2.4-4.1,2.5c-2.9,0-3.8-2.6-6.1-3.5
								c-1.3,1.8-1.8,4.6-5.1,4.8c-0.6-0.5-1.7-0.9-2.5-1.8c-4-4.1-7.9-8.2-11.9-12.3c-17.2-17.3-34.4-34.6-51.6-51.9
								c-1.4-1.4-3-2.6-3.5-3c-2.3-5-1.8-9-2.5-12.8c-1.9-2.4-3.7-4.7-5.5-7c-0.2-0.3-0.5-0.7-0.8-0.8c-5.8-3.6-9.9-8.9-14.7-13.6
								c-10.4-10.1-20.6-20.6-30.9-30.8c-5.8-5.7-11.6-11.2-17.3-17c-2.1-2.1-3.9-4.4-5.8-6.6c-0.5-0.6-0.9-1.4-1.5-1.8
								c-4.6-2.8-7.8-7.1-11.7-10.7c-0.4-0.4-1-0.6-1.5-0.9c-1.2,1.3-1.9,3.1-4.1,3.1c-0.2,0-0.4,0-0.6-0.1
								c-0.2-0.1-0.4-0.2-0.5-0.3c-14-14-27.5-28.5-41.7-42.7C84.3,309.9,57.7,209.7,31.6,109.3c0.5-1.8,1.9-2.1,3.3-2.4
								c1.2-0.2,2.4,0.1,3.5,0c0.7-0.1,1.4-0.5,2.1-0.8c-0.8-1.8-1.5-3.4-2-5c-0.2-0.5,0-1.2,0-2c1.2-0.5,2.5-1.2,3.7-1.5
								c14-3.1,27.9-6.2,41.9-9.3c15.3-3.4,30.7-6.7,46-10.1c11.3-2.5,22.6-5.1,33.8-7.6c16.7-3.7,33.3-7.4,50-11.1
								c19-4.2,37.9-8.5,56.9-12.7c17.8-3.9,35.6-7.8,53.4-11.7c3.4-0.8,6.6-0.7,9.9,0.1c24.5,5.4,49,10.8,73.5,16.3
								c16.7,3.7,33.3,7.5,50,11.3c19.9,4.5,39.8,8.7,59.8,13.2c24.5,5.4,49,10.9,73.5,16.3c8.1,1.8,16.1,3.5,24.2,5.2
								c1.7,0.4,3.4,1,4.8,1.4c1.5,2.8-0.6,4.8-0.6,7.4c0.7,0.4,1.5,1,2.3,1.2c0.9,0.2,1.9-0.2,2.8-0.1c0.9,0.2,1.8,0.5,2.5,0.8
								c1,1.8,0.4,3.4,0,4.8c-4.1,16.1-8.4,32.2-12.6,48.4c-3.5,13.7-7.1,27.3-10.7,41c-0.4,1.5-0.9,3-1.4,4.4
								c-2.6,2-5.1,3.8-7.8,5.8c-0.7,2.1-1.3,4.4-2.1,6.6c-0.7,2.1-1.3,4.1-2,6.1c-0.2,0.8-0.8,1.5-0.8,2.2c0,4.6-1.7,8.8-2.5,13.3
								c-0.1,0.5,0.2,1.2,0.2,1.7c1.7,0.6,3.3,1.2,4.8,1.8c0.5,2.1-0.2,3.8-0.6,5.4c-3.6,14-7.3,28.1-11,42.1
								c-8.5,32.8-17,65.7-25.5,98.5c-1.7,6.4-3.5,12.9-5.2,19.6c-1.2,1.2-2.5,2.7-3.9,4.1c-7.9,8-15.8,15.9-23.7,23.9
								c-37.8,38.1-75.5,76.3-113.3,114.5c-21.6,21.8-43.1,43.7-64.7,65.5C342.7,619.5,341.5,620.7,339.5,621.6z"/>
						</defs>
						<clipPath id="SVGID_17_">
							<use xlink:href="#SVGID_16_"  style="overflow:visible;"/>
						</clipPath>
						<line class="st7" x1="572.1" y1="148.7" x2="187.8" y2="39.3"/>
					</g>
				</g>
			</g>
		</g>
		<g id="Traits_x5F_Verts">
			<g>
				<g>
					<g>
						<defs>
							<path id="SVGID_18_" d="M339.5,621.6c-2.6-0.7-2.8-3.3-5.2-4.1c-1.6,0.9-2.7,2.4-4.1,2.5c-2.9,0-3.8-2.6-6.1-3.5
								c-1.3,1.8-1.8,4.6-5.1,4.8c-0.6-0.5-1.4-1.2-2.1-2c-4-4.1-8.2-8-12.2-12c-17.2-17.3-34.4-34.6-51.6-51.9
								c-1.4-1.4-3-2.6-3.5-3c-2.3-5-1.8-9-2.5-12.8c-1.9-2.4-3.7-4.7-5.5-7c-0.2-0.3-0.5-0.7-0.8-0.8c-5.8-3.6-9.9-8.9-14.7-13.6
								c-10.4-10.1-20.6-20.6-30.9-30.8c-5.8-5.7-11.6-11.2-17.3-17c-2.1-2.1-3.9-4.4-5.8-6.6c-0.5-0.6-0.9-1.4-1.5-1.8
								c-4.6-2.8-7.8-7.1-11.7-10.7c-0.4-0.4-1-0.6-1.5-0.9c-1.2,1.3-1.9,3.1-4.1,3.1c-0.2,0-0.4,0-0.6-0.1
								c-0.2-0.1-0.4-0.2-0.5-0.3c-14-14-27.2-28.7-41.4-43C84.6,309.7,57.7,209.7,31.6,109.3c0.5-1.8,1.9-2.1,3.3-2.4
								c1.2-0.2,2.4,0.1,3.5,0c0.7-0.1,1.4-0.5,2.1-0.8c-0.8-1.8-1.5-3.4-2-5c-0.2-0.5,0-1.2,0-2c1.2-0.5,2.5-1.2,3.7-1.5
								c14-3.1,27.9-6.2,41.9-9.3c15.3-3.4,30.7-6.7,46-10.1c11.3-2.5,22.6-5.1,33.8-7.6c16.7-3.7,33.3-7.4,50-11.1
								c19-4.2,37.9-8.5,56.9-12.7c17.8-3.9,35.6-7.8,53.4-11.7c3.4-0.8,6.6-0.7,9.9,0.1c24.5,5.4,49,10.8,73.5,16.3
								c16.7,3.7,33.3,7.5,50,11.3c19.9,4.5,39.8,8.7,59.8,13.2c24.5,5.4,49,10.9,73.5,16.3c8.1,1.8,16.1,3.5,24.2,5.2
								c1.7,0.4,3.4,1,4.8,1.4c1.5,2.8-0.6,4.8-0.6,7.4c0.7,0.4,1.5,1,2.3,1.2c0.9,0.2,1.9-0.2,2.8-0.1c0.9,0.2,1.8,0.5,2.5,0.8
								c1,1.8,0.4,3.4,0,4.8c-4.1,16.1-8.4,32.2-12.6,48.4c-3.5,13.7-7.1,27.3-10.7,41c-0.4,1.5-0.9,3-1.4,4.4
								c-2.6,2-5.1,3.8-7.8,5.8c-0.7,2.1-1.3,4.4-2.1,6.6c-0.7,2.1-1.3,4.1-2,6.1c-0.2,0.8-0.8,1.5-0.8,2.2c0,4.6-1.7,8.8-2.5,13.3
								c-0.1,0.5,0.2,1.2,0.2,1.7c1.7,0.6,3.3,1.2,4.8,1.8c0.5,2.1-0.2,3.8-0.6,5.4c-3.6,14-7.3,28.1-11,42.1
								c-8.5,32.8-17,65.7-25.5,98.5c-1.7,6.4-3.5,12.9-5.2,19.6c-1.2,1.2-2.5,2.7-3.9,4.1c-7.9,8-15.8,15.9-23.7,23.9
								c-37.8,38.1-75.5,76.3-113.3,114.5c-21.6,21.8-43.1,43.7-64.7,65.5C342.7,619.5,341.5,620.6,339.5,621.6z"/>
						</defs>
						<clipPath id="SVGID_19_">
							<use xlink:href="#SVGID_18_"  style="overflow:visible;"/>
						</clipPath>
						<line class="st8" x1="-62.4" y1="190.9" x2="329.7" y2="531.5"/>
					</g>
				</g>
				<g>
					<g>
						<defs>
							<path id="SVGID_20_" d="M339.5,621.6c-2.6-0.7-2.8-3.3-5.2-4.1c-1.6,0.9-2.7,2.4-4.1,2.5c-2.9,0-3.8-2.6-6.1-3.5
								c-1.3,1.8-1.8,4.6-5.1,4.8c-0.6-0.5-1.4-1.2-2.1-2c-4-4.1-8.2-8-12.2-12c-17.2-17.3-34.4-34.6-51.6-51.9
								c-1.4-1.4-3-2.6-3.5-3c-2.3-5-1.8-9-2.5-12.8c-1.9-2.4-3.7-4.7-5.5-7c-0.2-0.3-0.5-0.7-0.8-0.8c-5.8-3.6-9.9-8.9-14.7-13.6
								c-10.4-10.1-20.6-20.6-30.9-30.8c-5.8-5.7-11.6-11.2-17.3-17c-2.1-2.1-3.9-4.4-5.8-6.6c-0.5-0.6-0.9-1.4-1.5-1.8
								c-4.6-2.8-7.8-7.1-11.7-10.7c-0.4-0.4-1-0.6-1.5-0.9c-1.2,1.3-1.9,3.1-4.1,3.1c-0.2,0-0.4,0-0.6-0.1
								c-0.2-0.1-0.4-0.2-0.5-0.3c-14-14-27.2-28.7-41.4-43C84.6,309.7,57.7,209.7,31.6,109.3c0.5-1.8,1.9-2.1,3.3-2.4
								c1.2-0.2,2.4,0.1,3.5,0c0.7-0.1,1.4-0.5,2.1-0.8c-0.8-1.8-1.5-3.4-2-5c-0.2-0.5,0-1.2,0-2c1.2-0.5,2.5-1.2,3.7-1.5
								c14-3.1,27.9-6.2,41.9-9.3c15.3-3.4,30.7-6.7,46-10.1c11.3-2.5,22.6-5.1,33.8-7.6c16.7-3.7,33.3-7.4,50-11.1
								c19-4.2,37.9-8.5,56.9-12.7c17.8-3.9,35.6-7.8,53.4-11.7c3.4-0.8,6.6-0.7,9.9,0.1c24.5,5.4,49,10.8,73.5,16.3
								c16.7,3.7,33.3,7.5,50,11.3c19.9,4.5,39.8,8.7,59.8,13.2c24.5,5.4,49,10.9,73.5,16.3c8.1,1.8,16.1,3.5,24.2,5.2
								c1.7,0.4,3.4,1,4.8,1.4c1.5,2.8-0.6,4.8-0.6,7.4c0.7,0.4,1.5,1,2.3,1.2c0.9,0.2,1.9-0.2,2.8-0.1c0.9,0.2,1.8,0.5,2.5,0.8
								c1,1.8,0.4,3.4,0,4.8c-4.1,16.1-8.4,32.2-12.6,48.4c-3.5,13.7-7.1,27.3-10.7,41c-0.4,1.5-0.9,3-1.4,4.4
								c-2.6,2-5.1,3.8-7.8,5.8c-0.7,2.1-1.3,4.4-2.1,6.6c-0.7,2.1-1.3,4.1-2,6.1c-0.2,0.8-0.8,1.5-0.8,2.2c0,4.6-1.7,8.8-2.5,13.3
								c-0.1,0.5,0.2,1.2,0.2,1.7c1.7,0.6,3.3,1.2,4.8,1.8c0.5,2.1-0.2,3.8-0.6,5.4c-3.6,14-7.3,28.1-11,42.1
								c-8.5,32.8-17,65.7-25.5,98.5c-1.7,6.4-3.5,12.9-5.2,19.6c-1.2,1.2-2.5,2.7-3.9,4.1c-7.9,8-15.8,15.9-23.7,23.9
								c-37.8,38.1-75.5,76.3-113.3,114.5c-21.6,21.8-43.1,43.7-64.7,65.5C342.7,619.5,341.5,620.6,339.5,621.6z"/>
						</defs>
						<clipPath id="SVGID_21_">
							<use xlink:href="#SVGID_20_"  style="overflow:visible;"/>
						</clipPath>
						<line class="st9" x1="0.1" y1="175.4" x2="329.8" y2="414"/>
					</g>
				</g>
				<g>
					<g>
						<defs>
							<path id="SVGID_22_" d="M339.5,621.6c-2.6-0.7-2.8-3.3-5.2-4.1c-1.6,0.9-2.7,2.4-4.1,2.5c-2.9,0-3.8-2.6-6.1-3.5
								c-1.3,1.8-1.8,4.6-5.1,4.8c-0.6-0.5-1.4-1.2-2.1-2c-4-4.1-8.2-8-12.2-12c-17.2-17.3-34.4-34.6-51.6-51.9
								c-1.4-1.4-3-2.6-3.5-3c-2.3-5-1.8-9-2.5-12.8c-1.9-2.4-3.7-4.7-5.5-7c-0.2-0.3-0.5-0.7-0.8-0.8c-5.8-3.6-9.9-8.9-14.7-13.6
								c-10.4-10.1-20.6-20.6-30.9-30.8c-5.8-5.7-11.6-11.2-17.3-17c-2.1-2.1-3.9-4.4-5.8-6.6c-0.5-0.6-0.9-1.4-1.5-1.8
								c-4.6-2.8-7.8-7.1-11.7-10.7c-0.4-0.4-1-0.6-1.5-0.9c-1.2,1.3-1.9,3.1-4.1,3.1c-0.2,0-0.4,0-0.6-0.1
								c-0.2-0.1-0.4-0.2-0.5-0.3c-14-14-27.2-28.7-41.4-43C84.6,309.7,57.7,209.7,31.6,109.3c0.5-1.8,1.9-2.1,3.3-2.4
								c1.2-0.2,2.4,0.1,3.5,0c0.7-0.1,1.4-0.5,2.1-0.8c-0.8-1.8-1.5-3.4-2-5c-0.2-0.5,0-1.2,0-2c1.2-0.5,2.5-1.2,3.7-1.5
								c14-3.1,27.9-6.2,41.9-9.3c15.3-3.4,30.7-6.7,46-10.1c11.3-2.5,22.6-5.1,33.8-7.6c16.7-3.7,33.3-7.4,50-11.1
								c19-4.2,37.9-8.5,56.9-12.7c17.8-3.9,35.6-7.8,53.4-11.7c3.4-0.8,6.6-0.7,9.9,0.1c24.5,5.4,49,10.8,73.5,16.3
								c16.7,3.7,33.3,7.5,50,11.3c19.9,4.5,39.8,8.7,59.8,13.2c24.5,5.4,49,10.9,73.5,16.3c8.1,1.8,16.1,3.5,24.2,5.2
								c1.7,0.4,3.4,1,4.8,1.4c1.5,2.8-0.6,4.8-0.6,7.4c0.7,0.4,1.5,1,2.3,1.2c0.9,0.2,1.9-0.2,2.8-0.1c0.9,0.2,1.8,0.5,2.5,0.8
								c1,1.8,0.4,3.4,0,4.8c-4.1,16.1-8.4,32.2-12.6,48.4c-3.5,13.7-7.1,27.3-10.7,41c-0.4,1.5-0.9,3-1.4,4.4
								c-2.6,2-5.1,3.8-7.8,5.8c-0.7,2.1-1.3,4.4-2.1,6.6c-0.7,2.1-1.3,4.1-2,6.1c-0.2,0.8-0.8,1.5-0.8,2.2c0,4.6-1.7,8.8-2.5,13.3
								c-0.1,0.5,0.2,1.2,0.2,1.7c1.7,0.6,3.3,1.2,4.8,1.8c0.5,2.1-0.2,3.8-0.6,5.4c-3.6,14-7.3,28.1-11,42.1
								c-8.5,32.8-17,65.7-25.5,98.5c-1.7,6.4-3.5,12.9-5.2,19.6c-1.2,1.2-2.5,2.7-3.9,4.1c-7.9,8-15.8,15.9-23.7,23.9
								c-37.8,38.1-75.5,76.3-113.3,114.5c-21.6,21.8-43.1,43.7-64.7,65.5C342.7,619.5,341.5,620.6,339.5,621.6z"/>
						</defs>
						<clipPath id="SVGID_23_">
							<use xlink:href="#SVGID_22_"  style="overflow:visible;"/>
						</clipPath>
						<line class="st10" x1="207.7" y1="239.2" x2="242.3" y2="540.4"/>
					</g>
				</g>
				<g>
					<g>
						<defs>
							<path id="SVGID_24_" d="M339.5,621.6c-2.6-0.7-2.8-3.3-5.2-4.1c-1.6,0.9-2.7,2.4-4.1,2.5c-2.9,0-3.8-2.6-6.1-3.5
								c-1.3,1.8-1.8,4.6-5.1,4.8c-0.6-0.5-1.4-1.2-2.1-2c-4-4.1-8.2-8-12.2-12c-17.2-17.3-34.4-34.6-51.6-51.9
								c-1.4-1.4-3-2.6-3.5-3c-2.3-5-1.8-9-2.5-12.8c-1.9-2.4-3.7-4.7-5.5-7c-0.2-0.3-0.5-0.7-0.8-0.8c-5.8-3.6-9.9-8.9-14.7-13.6
								c-10.4-10.1-20.6-20.6-30.9-30.8c-5.8-5.7-11.6-11.2-17.3-17c-2.1-2.1-3.9-4.4-5.8-6.6c-0.5-0.6-0.9-1.4-1.5-1.8
								c-4.6-2.8-7.8-7.1-11.7-10.7c-0.4-0.4-1-0.6-1.5-0.9c-1.2,1.3-1.9,3.1-4.1,3.1c-0.2,0-0.4,0-0.6-0.1
								c-0.2-0.1-0.4-0.2-0.5-0.3c-14-14-27.2-28.7-41.4-43C84.6,309.7,57.7,209.7,31.6,109.3c0.5-1.8,1.9-2.1,3.3-2.4
								c1.2-0.2,2.4,0.1,3.5,0c0.7-0.1,1.4-0.5,2.1-0.8c-0.8-1.8-1.5-3.4-2-5c-0.2-0.5,0-1.2,0-2c1.2-0.5,2.5-1.2,3.7-1.5
								c14-3.1,27.9-6.2,41.9-9.3c15.3-3.4,30.7-6.7,46-10.1c11.3-2.5,22.6-5.1,33.8-7.6c16.7-3.7,33.3-7.4,50-11.1
								c19-4.2,37.9-8.5,56.9-12.7c17.8-3.9,35.6-7.8,53.4-11.7c3.4-0.8,6.6-0.7,9.9,0.1c24.5,5.4,49,10.8,73.5,16.3
								c16.7,3.7,33.3,7.5,50,11.3c19.9,4.5,39.8,8.7,59.8,13.2c24.5,5.4,49,10.9,73.5,16.3c8.1,1.8,16.1,3.5,24.2,5.2
								c1.7,0.4,3.4,1,4.8,1.4c1.5,2.8-0.6,4.8-0.6,7.4c0.7,0.4,1.5,1,2.3,1.2c0.9,0.2,1.9-0.2,2.8-0.1c0.9,0.2,1.8,0.5,2.5,0.8
								c1,1.8,0.4,3.4,0,4.8c-4.1,16.1-8.4,32.2-12.6,48.4c-3.5,13.7-7.1,27.3-10.7,41c-0.4,1.5-0.9,3-1.4,4.4
								c-2.6,2-5.1,3.8-7.8,5.8c-0.7,2.1-1.3,4.4-2.1,6.6c-0.7,2.1-1.3,4.1-2,6.1c-0.2,0.8-0.8,1.5-0.8,2.2c0,4.6-1.7,8.8-2.5,13.3
								c-0.1,0.5,0.2,1.2,0.2,1.7c1.7,0.6,3.3,1.2,4.8,1.8c0.5,2.1-0.2,3.8-0.6,5.4c-3.6,14-7.3,28.1-11,42.1
								c-8.5,32.8-17,65.7-25.5,98.5c-1.7,6.4-3.5,12.9-5.2,19.6c-1.2,1.2-2.5,2.7-3.9,4.1c-7.9,8-15.8,15.9-23.7,23.9
								c-37.8,38.1-75.5,76.3-113.3,114.5c-21.6,21.8-43.1,43.7-64.7,65.5C342.7,619.5,341.5,620.6,339.5,621.6z"/>
						</defs>
						<clipPath id="SVGID_25_">
							<use xlink:href="#SVGID_24_"  style="overflow:visible;"/>
						</clipPath>
						<line class="st11" x1="118.5" y1="191.9" x2="173.4" y2="474.3"/>
					</g>
				</g>
			</g>
		</g>
		<g id="Traits_x5F_Orange">
			<g>
				<g>
					<g>
						<defs>
							<path id="SVGID_26_" d="M339.4,621.4c-2.6-0.7-2.9-3.7-5.2-4c-1.6,0.9-2.6,2.4-4.1,2.5c-2.9,0-3.8-2.6-6.1-3.5
								c-1.3,1.8-1.8,4.6-5.1,4.8c-0.6-0.5-1.3-1.3-2.1-2.1c-4-4.1-8.3-7.9-12.3-12c-17.2-17.3-34.4-34.6-51.6-51.9
								c-1.4-1.4-3-2.6-3.5-3c-2.3-5-1.8-9-2.5-12.8c-1.9-2.4-3.7-4.7-5.5-7c-0.2-0.3-0.5-0.7-0.8-0.8c-5.8-3.6-9.9-8.9-14.7-13.6
								c-10.4-10.1-20.6-20.6-30.9-30.8c-5.8-5.7-11.6-11.2-17.3-17c-2.1-2.1-3.9-4.4-5.8-6.6c-0.5-0.6-0.9-1.4-1.5-1.8
								c-4.6-2.8-7.8-7.1-11.7-10.7c-0.4-0.4-1-0.6-1.5-0.9c-1.2,1.3-1.9,3.1-4.1,3.1c-0.2,0-0.4,0-0.6-0.1
								c-0.2-0.1-0.4-0.2-0.5-0.3c-14-14-27.3-28.9-41.5-43.1c-26-100.5-52.9-200.4-79-300.8c0.5-1.8,1.9-2.1,3.3-2.4
								c1.2-0.2,2.4,0.1,3.5,0c0.7-0.1,1.4-0.5,2.1-0.8c-0.8-1.8-1.5-3.4-2-5c-0.2-0.5,0-1.2,0-2c1.2-0.5,2.5-1.2,3.7-1.5
								c14-3.1,27.9-6.2,41.9-9.3c15.3-3.4,30.7-6.7,46-10.1c11.3-2.5,22.6-5.1,33.8-7.6c16.7-3.7,33.3-7.4,50-11.1
								c19-4.2,37.9-8.5,56.9-12.7c17.8-3.9,35.6-7.8,53.4-11.7c3.4-0.8,6.6-0.7,9.9,0.1c24.5,5.4,49,10.8,73.5,16.3
								c16.7,3.7,33.3,7.5,50,11.3c19.9,4.5,39.8,8.7,59.8,13.2c24.5,5.4,49,10.9,73.5,16.3c8.1,1.8,16.1,3.5,24.2,5.2
								c1.7,0.4,3.4,1,4.8,1.4c1.5,2.8-0.6,4.8-0.6,7.4c0.7,0.4,1.5,1,2.3,1.2c0.9,0.2,1.9-0.2,2.8-0.1c0.9,0.2,1.8,0.5,2.5,0.8
								c1,1.8,0.4,3.4,0,4.8c-4.1,16.1-8.4,32.2-12.6,48.4c-3.5,13.7-7.1,27.3-10.7,41c-0.4,1.5-0.9,3-1.4,4.4
								c-2.6,2-5.1,3.8-7.8,5.8c-0.7,2.1-1.3,4.4-2.1,6.6c-0.7,2.1-1.3,4.1-2,6.1c-0.2,0.8-0.8,1.5-0.8,2.2c0,4.6-1.7,8.8-2.5,13.3
								c-0.1,0.5,0.2,1.2,0.2,1.7c1.7,0.6,3.3,1.2,4.8,1.8c0.5,2.1-0.2,3.8-0.6,5.4c-3.6,14-7.3,28.1-11,42.1
								c-8.5,32.8-17,65.7-25.5,98.5c-1.7,6.4-3.5,12.9-5.2,19.6c-1.2,1.2-2.5,2.7-3.9,4.1c-7.9,8-15.8,15.9-23.7,23.9
								c-37.8,38.1-75.5,76.3-113.3,114.5c-21.6,21.8-43.1,43.7-64.7,65.5C342.7,619.5,341.5,620.5,339.4,621.4z"/>
						</defs>
						<clipPath id="SVGID_27_">
							<use xlink:href="#SVGID_26_"  style="overflow:visible;"/>
						</clipPath>
						<line class="st12" x1="721.3" y1="190.9" x2="329.2" y2="531.5"/>
					</g>
				</g>
				<g>
					<g>
						<defs>
							<path id="SVGID_28_" d="M339.4,621.4c-2.6-0.7-2.9-3.7-5.2-4c-1.6,0.9-2.6,2.4-4.1,2.5c-2.9,0-3.8-2.6-6.1-3.5
								c-1.3,1.8-1.8,4.6-5.1,4.8c-0.6-0.5-1.3-1.3-2.1-2.1c-4-4.1-8.3-7.9-12.3-12c-17.2-17.3-34.4-34.6-51.6-51.9
								c-1.4-1.4-3-2.6-3.5-3c-2.3-5-1.8-9-2.5-12.8c-1.9-2.4-3.7-4.7-5.5-7c-0.2-0.3-0.5-0.7-0.8-0.8c-5.8-3.6-9.9-8.9-14.7-13.6
								c-10.4-10.1-20.6-20.6-30.9-30.8c-5.8-5.7-11.6-11.2-17.3-17c-2.1-2.1-3.9-4.4-5.8-6.6c-0.5-0.6-0.9-1.4-1.5-1.8
								c-4.6-2.8-7.8-7.1-11.7-10.7c-0.4-0.4-1-0.6-1.5-0.9c-1.2,1.3-1.9,3.1-4.1,3.1c-0.2,0-0.4,0-0.6-0.1
								c-0.2-0.1-0.4-0.2-0.5-0.3c-14-14-27.3-28.9-41.5-43.1c-26-100.5-52.9-200.4-79-300.8c0.5-1.8,1.9-2.1,3.3-2.4
								c1.2-0.2,2.4,0.1,3.5,0c0.7-0.1,1.4-0.5,2.1-0.8c-0.8-1.8-1.5-3.4-2-5c-0.2-0.5,0-1.2,0-2c1.2-0.5,2.5-1.2,3.7-1.5
								c14-3.1,27.9-6.2,41.9-9.3c15.3-3.4,30.7-6.7,46-10.1c11.3-2.5,22.6-5.1,33.8-7.6c16.7-3.7,33.3-7.4,50-11.1
								c19-4.2,37.9-8.5,56.9-12.7c17.8-3.9,35.6-7.8,53.4-11.7c3.4-0.8,6.6-0.7,9.9,0.1c24.5,5.4,49,10.8,73.5,16.3
								c16.7,3.7,33.3,7.5,50,11.3c19.9,4.5,39.8,8.7,59.8,13.2c24.5,5.4,49,10.9,73.5,16.3c8.1,1.8,16.1,3.5,24.2,5.2
								c1.7,0.4,3.4,1,4.8,1.4c1.5,2.8-0.6,4.8-0.6,7.4c0.7,0.4,1.5,1,2.3,1.2c0.9,0.2,1.9-0.2,2.8-0.1c0.9,0.2,1.8,0.5,2.5,0.8
								c1,1.8,0.4,3.4,0,4.8c-4.1,16.1-8.4,32.2-12.6,48.4c-3.5,13.7-7.1,27.3-10.7,41c-0.4,1.5-0.9,3-1.4,4.4
								c-2.6,2-5.1,3.8-7.8,5.8c-0.7,2.1-1.3,4.4-2.1,6.6c-0.7,2.1-1.3,4.1-2,6.1c-0.2,0.8-0.8,1.5-0.8,2.2c0,4.6-1.7,8.8-2.5,13.3
								c-0.1,0.5,0.2,1.2,0.2,1.7c1.7,0.6,3.3,1.2,4.8,1.8c0.5,2.1-0.2,3.8-0.6,5.4c-3.6,14-7.3,28.1-11,42.1
								c-8.5,32.8-17,65.7-25.5,98.5c-1.7,6.4-3.5,12.9-5.2,19.6c-1.2,1.2-2.5,2.7-3.9,4.1c-7.9,8-15.8,15.9-23.7,23.9
								c-37.8,38.1-75.5,76.3-113.3,114.5c-21.6,21.8-43.1,43.7-64.7,65.5C342.7,619.5,341.5,620.5,339.4,621.4z"/>
						</defs>
						<clipPath id="SVGID_29_">
							<use xlink:href="#SVGID_28_"  style="overflow:visible;"/>
						</clipPath>
						<line class="st13" x1="658.8" y1="175.4" x2="329.1" y2="414"/>
					</g>
				</g>
				<g>
					<g>
						<defs>
							<path id="SVGID_30_" d="M339.4,621.4c-2.6-0.7-2.9-3.7-5.2-4c-1.6,0.9-2.6,2.4-4.1,2.5c-2.9,0-3.8-2.6-6.1-3.5
								c-1.3,1.8-1.8,4.6-5.1,4.8c-0.6-0.5-1.3-1.3-2.1-2.1c-4-4.1-8.3-7.9-12.3-12c-17.2-17.3-34.4-34.6-51.6-51.9
								c-1.4-1.4-3-2.6-3.5-3c-2.3-5-1.8-9-2.5-12.8c-1.9-2.4-3.7-4.7-5.5-7c-0.2-0.3-0.5-0.7-0.8-0.8c-5.8-3.6-9.9-8.9-14.7-13.6
								c-10.4-10.1-20.6-20.6-30.9-30.8c-5.8-5.7-11.6-11.2-17.3-17c-2.1-2.1-3.9-4.4-5.8-6.6c-0.5-0.6-0.9-1.4-1.5-1.8
								c-4.6-2.8-7.8-7.1-11.7-10.7c-0.4-0.4-1-0.6-1.5-0.9c-1.2,1.3-1.9,3.1-4.1,3.1c-0.2,0-0.4,0-0.6-0.1
								c-0.2-0.1-0.4-0.2-0.5-0.3c-14-14-27.3-28.9-41.5-43.1c-26-100.5-52.9-200.4-79-300.8c0.5-1.8,1.9-2.1,3.3-2.4
								c1.2-0.2,2.4,0.1,3.5,0c0.7-0.1,1.4-0.5,2.1-0.8c-0.8-1.8-1.5-3.4-2-5c-0.2-0.5,0-1.2,0-2c1.2-0.5,2.5-1.2,3.7-1.5
								c14-3.1,27.9-6.2,41.9-9.3c15.3-3.4,30.7-6.7,46-10.1c11.3-2.5,22.6-5.1,33.8-7.6c16.7-3.7,33.3-7.4,50-11.1
								c19-4.2,37.9-8.5,56.9-12.7c17.8-3.9,35.6-7.8,53.4-11.7c3.4-0.8,6.6-0.7,9.9,0.1c24.5,5.4,49,10.8,73.5,16.3
								c16.7,3.7,33.3,7.5,50,11.3c19.9,4.5,39.8,8.7,59.8,13.2c24.5,5.4,49,10.9,73.5,16.3c8.1,1.8,16.1,3.5,24.2,5.2
								c1.7,0.4,3.4,1,4.8,1.4c1.5,2.8-0.6,4.8-0.6,7.4c0.7,0.4,1.5,1,2.3,1.2c0.9,0.2,1.9-0.2,2.8-0.1c0.9,0.2,1.8,0.5,2.5,0.8
								c1,1.8,0.4,3.4,0,4.8c-4.1,16.1-8.4,32.2-12.6,48.4c-3.5,13.7-7.1,27.3-10.7,41c-0.4,1.5-0.9,3-1.4,4.4
								c-2.6,2-5.1,3.8-7.8,5.8c-0.7,2.1-1.3,4.4-2.1,6.6c-0.7,2.1-1.3,4.1-2,6.1c-0.2,0.8-0.8,1.5-0.8,2.2c0,4.6-1.7,8.8-2.5,13.3
								c-0.1,0.5,0.2,1.2,0.2,1.7c1.7,0.6,3.3,1.2,4.8,1.8c0.5,2.1-0.2,3.8-0.6,5.4c-3.6,14-7.3,28.1-11,42.1
								c-8.5,32.8-17,65.7-25.5,98.5c-1.7,6.4-3.5,12.9-5.2,19.6c-1.2,1.2-2.5,2.7-3.9,4.1c-7.9,8-15.8,15.9-23.7,23.9
								c-37.8,38.1-75.5,76.3-113.3,114.5c-21.6,21.8-43.1,43.7-64.7,65.5C342.7,619.5,341.5,620.5,339.4,621.4z"/>
						</defs>
						<clipPath id="SVGID_31_">
							<use xlink:href="#SVGID_30_"  style="overflow:visible;"/>
						</clipPath>
						<line class="st14" x1="451.2" y1="239.2" x2="416.6" y2="540.4"/>
					</g>
				</g>
				<g>
					<g>
						<defs>
							<path id="SVGID_32_" d="M339.4,621.4c-2.6-0.7-2.9-3.7-5.2-4c-1.6,0.9-2.6,2.4-4.1,2.5c-2.9,0-3.8-2.6-6.1-3.5
								c-1.3,1.8-1.8,4.6-5.1,4.8c-0.6-0.5-1.3-1.3-2.1-2.1c-4-4.1-8.3-7.9-12.3-12c-17.2-17.3-34.4-34.6-51.6-51.9
								c-1.4-1.4-3-2.6-3.5-3c-2.3-5-1.8-9-2.5-12.8c-1.9-2.4-3.7-4.7-5.5-7c-0.2-0.3-0.5-0.7-0.8-0.8c-5.8-3.6-9.9-8.9-14.7-13.6
								c-10.4-10.1-20.6-20.6-30.9-30.8c-5.8-5.7-11.6-11.2-17.3-17c-2.1-2.1-3.9-4.4-5.8-6.6c-0.5-0.6-0.9-1.4-1.5-1.8
								c-4.6-2.8-7.8-7.1-11.7-10.7c-0.4-0.4-1-0.6-1.5-0.9c-1.2,1.3-1.9,3.1-4.1,3.1c-0.2,0-0.4,0-0.6-0.1
								c-0.2-0.1-0.4-0.2-0.5-0.3c-14-14-27.3-28.9-41.5-43.1c-26-100.5-52.9-200.4-79-300.8c0.5-1.8,1.9-2.1,3.3-2.4
								c1.2-0.2,2.4,0.1,3.5,0c0.7-0.1,1.4-0.5,2.1-0.8c-0.8-1.8-1.5-3.4-2-5c-0.2-0.5,0-1.2,0-2c1.2-0.5,2.5-1.2,3.7-1.5
								c14-3.1,27.9-6.2,41.9-9.3c15.3-3.4,30.7-6.7,46-10.1c11.3-2.5,22.6-5.1,33.8-7.6c16.7-3.7,33.3-7.4,50-11.1
								c19-4.2,37.9-8.5,56.9-12.7c17.8-3.9,35.6-7.8,53.4-11.7c3.4-0.8,6.6-0.7,9.9,0.1c24.5,5.4,49,10.8,73.5,16.3
								c16.7,3.7,33.3,7.5,50,11.3c19.9,4.5,39.8,8.7,59.8,13.2c24.5,5.4,49,10.9,73.5,16.3c8.1,1.8,16.1,3.5,24.2,5.2
								c1.7,0.4,3.4,1,4.8,1.4c1.5,2.8-0.6,4.8-0.6,7.4c0.7,0.4,1.5,1,2.3,1.2c0.9,0.2,1.9-0.2,2.8-0.1c0.9,0.2,1.8,0.5,2.5,0.8
								c1,1.8,0.4,3.4,0,4.8c-4.1,16.1-8.4,32.2-12.6,48.4c-3.5,13.7-7.1,27.3-10.7,41c-0.4,1.5-0.9,3-1.4,4.4
								c-2.6,2-5.1,3.8-7.8,5.8c-0.7,2.1-1.3,4.4-2.1,6.6c-0.7,2.1-1.3,4.1-2,6.1c-0.2,0.8-0.8,1.5-0.8,2.2c0,4.6-1.7,8.8-2.5,13.3
								c-0.1,0.5,0.2,1.2,0.2,1.7c1.7,0.6,3.3,1.2,4.8,1.8c0.5,2.1-0.2,3.8-0.6,5.4c-3.6,14-7.3,28.1-11,42.1
								c-8.5,32.8-17,65.7-25.5,98.5c-1.7,6.4-3.5,12.9-5.2,19.6c-1.2,1.2-2.5,2.7-3.9,4.1c-7.9,8-15.8,15.9-23.7,23.9
								c-37.8,38.1-75.5,76.3-113.3,114.5c-21.6,21.8-43.1,43.7-64.7,65.5C342.7,619.5,341.5,620.5,339.4,621.4z"/>
						</defs>
						<clipPath id="SVGID_33_">
							<use xlink:href="#SVGID_32_"  style="overflow:visible;"/>
						</clipPath>
						<line class="st15" x1="540.4" y1="191.9" x2="485.5" y2="474.3"/>
					</g>
				</g>
			</g>
		</g>
	</g>
	<g id="Reflections">
		<path id="Letter_x5F_F_1_" class="st16" d="M296.6,85c11.4,3.2,22.6,6.4,34,9.6c20.8,5.9,41.7,11.7,62.5,17.7
			c1.5,0.5,3.2,0.6,3.1,2.8c-0.2,2.1,0.2,4.1-2.8,5.1c-26.2,9.4-44.3,15.9-70.5,25.2c-1.5,0.5-3.5,0.4-5.1-0.2
			c-34.6-12.4-69.2-24.9-103.8-37.4c-1.8-0.7-4.3-0.8-6.2-0.3c-39.1,10.4-69.3,18-108.4,28.5c-2.4,0.6-4.3,0.5-6.4-0.7
			c-17.1-8.8-34.4-17.5-51.5-26.3c-1-0.5-2.2-1.2-2.8-2.1c-2.3-3.5-1.3-5.2,2.7-6.1C116.6,84.3,191.9,67.6,267.2,51
			c2.5-0.5,21.8-4.9,59.1-13c1.8-0.4,3.8-0.4,5.5,0C409.3,55,486.7,72.3,564.3,89.5c17.9,4,35.7,7.9,53.6,12
			c1.3,0.3,3.1,0.6,3.5,2.1c1.1,3.9-0.2,4.3-2.7,5.4c-6.4,3.1-12.8,6.4-19.2,9.7c-11,5.6-21.9,11.1-32.8,16.8
			c-2.1,1.2-4.1,1.3-6.4,0.7c-60.6-16.4-121.1-32.8-181.7-49.1c-15.7-4.2-31.2-8.4-46.6-12.6c-1-0.3-2.1-0.6-3.1-0.4
			c-5.1,1.2-27.1,8.7-32.1,10C296.6,84.5,296.6,84.7,296.6,85z"/>
	</g>
	<g id="Contact_x5F_Shadow" class="st17">
		<path id="Letter_x5F_F_x5F_ContactShadow" d="M296.6,81.9c11.4,3.2,22.6,6.4,34,9.6c20.8,5.9,41.7,11.7,62.5,17.7
			c1.5,0.5,3.2,0.6,3.1,2.8c-0.2,2.1,0.2,4.1-2.8,5.1c-26.2,9.4-44.3,15.9-70.5,25.2c-1.5,0.5-3.5,0.4-5.1-0.2
			c-34.6-12.4-69.2-24.9-103.8-37.4c-1.8-0.7-4.3-0.8-6.2-0.3c-39.1,10.4-69.3,18-108.4,28.5c-2.4,0.6-4.3,0.5-6.4-0.7
			c-17.1-8.8-34.4-17.5-51.5-26.3c-1-0.5-4.3-2.1-3.8-3.1c1.9-3.5,5.4,1.8,9.4,1c75.2-16.6,144.7-39.4,220-56
			c2.5-0.5,21.8-4.9,59.1-13c1.8-0.4,3.8-0.4,5.5,0C409.3,52,486.7,69.2,564.3,86.4c17.9,4,35.7,7.9,53.6,12
			c1.3,0.3,2.7,1.6,2.8,2.4c-0.1,2.1,0.5,4.1-1.9,5.2c-6.4,3.1-12.8,6.4-19.2,9.7c-11,5.6-21.9,11.1-32.8,16.8
			c-2.1,1.2-4.1,1.3-6.4,0.7c-60.6-16.4-121.1-32.8-181.7-49.1c-15.7-4.2-31.2-8.4-46.6-12.6c-1-0.3-2.1-0.6-3.1-0.4
			c-5.1,1.2-27.1,8.7-32.1,10C296.6,81.4,296.6,81.7,296.6,81.9z"/>
	</g>
	<g id="Shadow_1_" class="st18">
		<path id="Letter_x5F_A_x5F_Shadow" class="st19" d="M141.1,365.1c2,9.4,3.8,18.2,5.8,26.9c4,18.6,7.6,35.3,11.6,53.9
			c0.5,2.1-0.1,3.3-1.9,4.4c-1.9,1.2-2.5,1.8-3.7,0.6c-13.2-13.4-26.5-26.7-39.6-40.1c-1-1-1.8-2.4-2.1-3.8
			c-25.9-99.2-51.6-198.4-77.2-297.5c-0.3-1.2-0.2-3.5,0.3-3.6c1.8-0.5,3.6,0,5.2,0.7c5.2,2.3,10.2,5.1,15.3,7.7
			c87.7,45.4,175.6,90.5,263.4,135.9c2.7,1.4,4.5,2.3,4.5,5.4c1.1,119.3,2.2,235.6,3.4,354.9c0,2.3-0.1,4.4-2,6.1
			c-1.8,1.7-3,1.5-4.6-0.2c-9.9-10.1-20-17.3-29.9-27.4c-12.4-12.4-24.7-24.9-36.9-37.5c-1.2-1.3-2.2-3.3-2.5-5.1
			c-3.7-31.1-7.2-62.2-10.8-93.2c-0.2-1.3-1.1-2.8-2.1-3.6c-22-19.5-44.1-38.9-66.2-58.4c-9-7.9-18-15.9-27-23.8
			C143.1,366.8,142.3,366.2,141.1,365.1z M115.8,245.7c0,0.7-0.1,1.2,0,1.5c2,9.5,4,19,6.2,28.5c0.4,1.5,1.6,3.1,2.9,4.1
			c33.4,25.2,66.8,50.3,100.2,75.4c0.8,0.6,1.7,1.2,3,2.1c-0.2-1.8-0.2-3-0.3-4.1c-1.1-9.4-2.3-19-3.2-28.5
			c-0.2-2.3-1.1-3.8-2.9-5.1c-34.5-24.1-68.8-48.3-103.2-72.4C117.7,246.8,116.8,246.3,115.8,245.7z"/>
	</g>
	<g id="Bevel_x5F_Whole_x5F_Cube">
		<g>
			<g>
				<g>
					<defs>
						<path id="SVGID_34_" d="M339.5,621.3c-2.6-0.7-2.9-3.4-5.3-3.8c-1.6,0.9-2.8,2.5-4.1,2.5c-2.9-0.1-3.8-2.6-6.1-3.5
							c-2.4,0.1-1.2,3.1-4.5,3.4c-0.6-0.5-1.5-0.5-2.2-1.3c-4-4.1-7.4-7.9-11.4-12c-17.2-17.3-33.3-34.6-50.5-52
							c-1.4-1.4-2.8-2.8-3.3-3.3c-2.3-5-4.2-8-4.8-11.7c-1.9-2.4-3.7-4.7-5.5-7c-0.2-0.3-0.5-0.7-0.8-0.8
							c-5.8-3.6-9.9-8.9-14.7-13.6c-10.4-10.1-20.6-20.6-30.9-30.8c-5.8-5.7-11.6-11.2-17.3-17c-2.1-2.1-3.9-4.4-5.8-6.6
							c-0.5-0.6-0.9-1.4-1.5-1.8c-4.6-2.8-7.8-7.1-11.7-10.7c-0.4-0.4-1.7-1.5-2.2-1.8c-1.2,1.3-1.9,3.1-4.1,3.1
							c-0.2,0-0.4,0-0.6-0.1c-0.2-0.1-0.4-0.2-0.5-0.3c-14-14-26.9-27.8-41.1-42.1C84.1,309.7,57.7,209.7,31.6,109.3
							c0.5-1.8,1.9-2.1,3.3-2.4c1.2-0.2-1.2-1-0.1-1.3c0.8-0.2,2-0.5,2.8-0.4c-0.5-1.2,1.4-2.5,0.8-4.1c-0.2-0.5,0-1.2,0-2
							c1.2-0.5,2.5-1.2,3.7-1.5c14-3.1,27.9-6.2,41.9-9.3c15.3-3.4,30.7-6.7,46-10.1c11.3-2.5,22.6-5.1,33.8-7.6
							c16.7-3.7,33.3-7.4,50-11.1c19-4.2,37.9-8.5,56.9-12.7c17.8-3.9,35.6-7.8,53.4-11.7c3.4-0.8,6.6-0.7,9.9,0.1
							c24.5,5.4,49,10.8,73.5,16.3c16.7,3.7,33.3,7.5,50,11.3c19.9,4.5,39.8,8.7,59.8,13.2c24.5,5.4,49,10.9,73.5,16.3
							c8.1,1.8,16.1,3.5,24.2,5.2c1.7,0.4,3.4,1,4.8,1.4c1.5,2.8-1.2,5.2-1.2,7.8c5.6-2.5,9.3-0.3,8.9,0.6c-0.4,0.8-1.6-0.2-2.3,0.5
							c0.9,0.2,0.9,0.2,1.7,0.4c1,1.8,0.4,3.4,0,4.8c-4.1,16.1-8.4,32.2-12.6,48.4c-3.5,13.7-7.1,27.3-10.7,41
							c-0.4,1.5-0.9,3-1.4,4.4c-2.6,2-5.1,3.8-7.8,5.8c-0.7,2.1-1.3,4.4-2.1,6.6c-0.7,2.1-1.3,4.1-2,6.1c-0.2,0.8-0.8,1.5-0.8,2.2
							c0,4.6-1.7,8.8-2.5,13.3c-0.1,0.5,0.2,1.2,0.2,1.7c1.7,0.6,3.3,1.2,4.8,1.8c0.5,2.1-0.2,3.8-0.6,5.4c-3.6,14-7.3,28.1-11,42.1
							c-8.5,32.8-17,65.7-25.5,98.5c-1.7,6.4-3.5,12.9-5.2,19.6c-1.2,1.2-2.5,2.7-3.9,4.1c-7.9,8-15.8,15.9-23.7,23.9
							c-37.8,38.1-75.5,76.3-113.3,114.5c-21.6,21.8-43.1,43.7-64.7,65.5C342.7,619.5,341.5,620.3,339.5,621.3z"/>
					</defs>
					<clipPath id="SVGID_35_">
						<use xlink:href="#SVGID_34_"  style="overflow:visible;"/>
					</clipPath>
					<polyline class="st20" points="330,619.8 329.6,256.1 624.7,104.8 					"/>
				</g>
			</g>
			<g>
				<g>
					<defs>
						<path id="SVGID_36_" d="M339.5,621.3c-2.6-0.7-2.9-3.4-5.3-3.8c-1.6,0.9-2.8,2.5-4.1,2.5c-2.9-0.1-3.8-2.6-6.1-3.5
							c-2.4,0.1-1.2,3.1-4.5,3.4c-0.6-0.5-1.5-0.5-2.2-1.3c-4-4.1-7.4-7.9-11.4-12c-17.2-17.3-33.3-34.6-50.5-52
							c-1.4-1.4-2.8-2.8-3.3-3.3c-2.3-5-4.2-8-4.8-11.7c-1.9-2.4-3.7-4.7-5.5-7c-0.2-0.3-0.5-0.7-0.8-0.8
							c-5.8-3.6-9.9-8.9-14.7-13.6c-10.4-10.1-20.6-20.6-30.9-30.8c-5.8-5.7-11.6-11.2-17.3-17c-2.1-2.1-3.9-4.4-5.8-6.6
							c-0.5-0.6-0.9-1.4-1.5-1.8c-4.6-2.8-7.8-7.1-11.7-10.7c-0.4-0.4-1.7-1.5-2.2-1.8c-1.2,1.3-1.9,3.1-4.1,3.1
							c-0.2,0-0.4,0-0.6-0.1c-0.2-0.1-0.4-0.2-0.5-0.3c-14-14-26.9-27.8-41.1-42.1C84.1,309.7,57.7,209.7,31.6,109.3
							c0.5-1.8,1.9-2.1,3.3-2.4c1.2-0.2-1.2-1-0.1-1.3c0.8-0.2,2-0.5,2.8-0.4c-0.5-1.2,1.4-2.5,0.8-4.1c-0.2-0.5,0-1.2,0-2
							c1.2-0.5,2.5-1.2,3.7-1.5c14-3.1,27.9-6.2,41.9-9.3c15.3-3.4,30.7-6.7,46-10.1c11.3-2.5,22.6-5.1,33.8-7.6
							c16.7-3.7,33.3-7.4,50-11.1c19-4.2,37.9-8.5,56.9-12.7c17.8-3.9,35.6-7.8,53.4-11.7c3.4-0.8,6.6-0.7,9.9,0.1
							c24.5,5.4,49,10.8,73.5,16.3c16.7,3.7,33.3,7.5,50,11.3c19.9,4.5,39.8,8.7,59.8,13.2c24.5,5.4,49,10.9,73.5,16.3
							c8.1,1.8,16.1,3.5,24.2,5.2c1.7,0.4,3.4,1,4.8,1.4c1.5,2.8-1.2,5.2-1.2,7.8c5.6-2.5,9.3-0.3,8.9,0.6c-0.4,0.8-1.6-0.2-2.3,0.5
							c0.9,0.2,0.9,0.2,1.7,0.4c1,1.8,0.4,3.4,0,4.8c-4.1,16.1-8.4,32.2-12.6,48.4c-3.5,13.7-7.1,27.3-10.7,41
							c-0.4,1.5-0.9,3-1.4,4.4c-2.6,2-5.1,3.8-7.8,5.8c-0.7,2.1-1.3,4.4-2.1,6.6c-0.7,2.1-1.3,4.1-2,6.1c-0.2,0.8-0.8,1.5-0.8,2.2
							c0,4.6-1.7,8.8-2.5,13.3c-0.1,0.5,0.2,1.2,0.2,1.7c1.7,0.6,3.3,1.2,4.8,1.8c0.5,2.1-0.2,3.8-0.6,5.4c-3.6,14-7.3,28.1-11,42.1
							c-8.5,32.8-17,65.7-25.5,98.5c-1.7,6.4-3.5,12.9-5.2,19.6c-1.2,1.2-2.5,2.7-3.9,4.1c-7.9,8-15.8,15.9-23.7,23.9
							c-37.8,38.1-75.5,76.3-113.3,114.5c-21.6,21.8-43.1,43.7-64.7,65.5C342.7,619.5,341.5,620.3,339.5,621.3z"/>
					</defs>
					<clipPath id="SVGID_37_">
						<use xlink:href="#SVGID_36_"  style="overflow:visible;"/>
					</clipPath>
					<line class="st21" x1="34.1" y1="104.7" x2="328.9" y2="256.2"/>
				</g>
			</g>
		</g>
	</g>
	<g id="Leters">
		<g id="Letters_x5F_Base">
			<path id="Letter_x5F_S_x5F_Shadow" class="st22" d="M437.4,354.9c8.5-6.4,16.6-12.4,24.6-18.4c40.8-30.7,81.7-61.5,122.6-92.1
				c1.1-0.8,2.8-1.4,4.1-1.2c2.5,0.2,3.3,1.5,2.5,4.3c-14,53.6-27.9,107.1-41.8,160.7c-0.4,1.5-1.4,3.1-2.5,4.1
				c-56.6,57.3-113.3,114.5-169.9,171.8c-12.1,12.3-24.3,24.5-36.4,36.7c-0.9,0.9-2.5-0.7-2.9-1c-3.5-2.1-3.7-2.5-4-4.5
				c-0.2-1.4-0.2-3.9-0.2-4.9c0.2-19.5,0.3-36.9,0.6-56.4c0-1.5,0.8-3.5,2-4.5c58.3-53.3,116.7-105.2,175.1-158.5
				c1.8-1.6,2.8-2.2,3.3-4.6c1.2-6.2,2.6-12.4,4.1-19.6c-4,3.5-7.4,6.4-10.7,9.3c-54.8,48.2-109.5,96.5-164.3,144.6
				c-1.3,1.2-2.5,2.1-4.7,0.8c-2.3-1.3-3.9-3.1-3.9-6.3c0.7-59.1,1.2-116.8,1.8-175.9c0.2-27.5,0.5-54.9,0.7-82.4c0-3,1-4.6,3.7-6
				c74.6-38.4,149.1-77,223.7-115.5c18-9.3,36.1-18.6,54.1-27.8c0.8-0.4,1.5-0.9,2.4-1.1c3.9-0.8,5.8,1.2,4.8,4.9
				c-8,30.9-16,61.7-24,92.5c-0.5,1.6-1.7,3.4-3,4.4c-51.5,36.3-103.1,72.4-154.6,108.6c-2.3,1.6-3.4,3.4-3.6,6.2
				c-1,9.9-2.3,19.7-3.5,29.6C437.4,353.3,437.4,353.8,437.4,354.9z"/>
			<path id="Letter_x5F_S_3_" class="st23" d="M438.9,354.2c8.5-6.4,16.6-12.4,24.6-18.4c40.8-30.7,81.7-61.5,122.6-92.1
				c1.1-0.8,2.8-1.4,4.1-1.2c2.5,0.2,3.3,1.5,2.5,4.3c-14,53.6-27.9,107.1-41.8,160.7c-0.4,1.5-1.4,3.1-2.5,4.1
				c-56.6,57.3-113.3,114.5-169.9,171.8c-12.1,12.3-24.3,24.9-36.5,37.1c-2.5,2.2-3.2,1.5-4.1,1.1c-1.4-0.8-1.9-1.5-2.7-2.7
				c-0.4-0.8-0.2-3.7-0.2-4.6c0.2-19.5,0.3-39,0.6-58.5c0-1.5,0.8-3.5,2-4.5c58.3-53.3,116.7-106.7,175.2-159.9
				c1.8-1.6,2.8-3.3,3.3-5.7c1.2-6.2,2.6-12.4,4.1-19.6c-4,3.5-7.4,6.4-10.7,9.3c-54.8,48.2-109.5,96.5-164.3,144.6
				c-1.3,1.2-2.5,3.4-4.7,2.1c-2.3-1.3-3.9-3.1-3.9-6.3c0.7-59.1,1.2-118.2,1.8-177.2c0.2-27.5,0.5-54.9,0.7-82.4c0-3,1-4.6,3.7-6
				c74.6-38.4,149.1-77,223.7-115.5c18-9.3,36.1-18.6,54.1-27.8c0.8-0.4,1.5-0.9,2.4-1.1c3.9-0.8,5.8,1.2,4.8,4.9
				c-8,30.9-16,61.7-24,92.5c-0.5,1.6-1.7,3.4-3,4.4c-51.5,36.3-103.1,72.4-154.6,108.6c-2.3,1.6-3.4,3.4-3.6,6.2
				c-1,9.9-2.3,19.7-3.5,29.6C438.9,352.6,438.9,353,438.9,354.2z"/>
			
				<radialGradient id="Letter_x5F_A_1_" cx="316.2498" cy="189.9817" r="257.5648" gradientTransform="matrix(1 0 0 1 0 62)" gradientUnits="userSpaceOnUse">
				<stop  offset="0" style="stop-color:#3C3FF0"/>
				<stop  offset="1" style="stop-color:#0A0CD9"/>
			</radialGradient>
			<path id="Letter_x5F_A_3_" class="st24" d="M138.8,365.8c2,9.4,3.8,18.2,5.8,26.9c4,18.6,7.9,37.1,12,55.6
				c0.5,2.1-0.1,3.3-1.9,4.4c-1.9,1.2-2.9,0-4-1.2c-13.2-13.4-26.5-26.7-39.6-40.1c-1-1-1.8-2.4-2.1-3.8
				C83,308.6,57.3,209.4,31.6,110.2c-0.3-1.2-0.8-2.9,0.3-3.6c1.5-1.2,4.2-1.2,5.8-0.5c5.2,2.3,10.2,5.1,15.3,7.8
				c87.8,45.4,175.6,90.9,263.5,136.4c2.7,1.4,3.8,3,3.8,6.1c1.1,119.3,2.2,238.4,3.4,357.7c0,2.3-0.1,4.4-2,6.1
				c-1.8,1.7-3,1.5-4.6-0.2c-9.9-10.1-20-20.2-29.9-30.2c-12.4-12.4-24.7-24.9-36.9-37.5c-1.2-1.3-2.2-3.3-2.5-5.1
				c-3.7-31.1-7.2-62.2-10.8-93.2c-0.2-1.3-1.1-2.8-2.1-3.6c-22-19.5-44.1-38.9-66.2-58.4c-9-7.9-18-15.9-27-23.8
				C140.8,367.5,140,366.9,138.8,365.8z M113.5,246.4c0,0.7-0.1,1.2,0,1.5c2,9.5,4,19,6.2,28.5c0.4,1.5,1.6,3.1,2.9,4.1
				c33.4,25.2,66.8,50.3,100.2,75.4c0.8,0.6,1.7,1.2,3,2.1c-0.2-1.8-0.2-3-0.3-4.1c-1.1-9.4-2.3-19-3.2-28.5
				c-0.2-2.3-1.1-3.8-2.9-5.1c-34.5-24.1-68.8-48.3-103.2-72.4C115.4,247.6,114.5,247,113.5,246.4z"/>
			
				<radialGradient id="Letter_x5F_F_2_" cx="244.9167" cy="6.1217" r="384.1321" gradientTransform="matrix(1 0 0 1 0 62)" gradientUnits="userSpaceOnUse">
				<stop  offset="0" style="stop-color:#D5D5D5"/>
				<stop  offset="1" style="stop-color:#FFFFFF"/>
			</radialGradient>
			<path id="Letter_x5F_F" class="st25" d="M295.8,80c11.4,3.2,23.5,6.8,34.8,9.9c20.8,5.9,41.7,11.7,62.5,17.7
				c1.5,0.5,3.2,0.6,3.1,2.8c-0.2,2.1,0.2,4.1-2.8,5.1c-26.2,9.4-44.3,15.9-70.5,25.2c-1.5,0.5-3.5,0.4-5.1-0.2
				c-34.6-12.4-69.2-24.9-103.8-37.4c-1.8-0.7-4.3-0.8-6.2-0.3c-39.1,10.4-69.3,18-108.4,28.5c-2.4,0.6-4.3,0.5-6.4-0.7
				c-17.1-8.8-34.4-17.5-51.5-26.3c-1-0.5-2.2-1.2-2.8-2.1c-2.2-3.4-1.3-5.2,2.7-6.1C116.6,79.7,191.9,63,267.2,46.4
				c2.5-0.5,21.8-4.9,59.1-13c1.8-0.4,3.8-0.4,5.5,0c77.5,17.1,154.9,34.4,232.5,51.6c17.9,4,35.7,7.9,53.6,12
				c1.3,0.3,3.5,0.8,3.5,2.1c0,2-0.2,4.3-2.7,5.4c-6.4,3.1-12.8,6.4-19.2,9.7c-11,5.6-21.9,11.1-32.8,16.8c-2.1,1.2-4.1,1.3-6.4,0.7
				c-60.6-16.4-121.1-32.8-181.7-49.1c-15.7-4.2-31.2-8.4-46.6-12.6c-1-0.3-2.1-0.6-3.1-0.4c-5.1,1.2-27.1,8.7-32.1,10
				C296.6,79.9,295.8,79.8,295.8,80z"/>
			<g id="Letter_x5F_F_x5F_OverShadow">
				<g>
					<g>
						<defs>
							<path id="SVGID_38_" d="M295.9,80c8.1,8.2,8.9,18.2,20.4,21.2c20.8,5.9,56,0.5,76.8,6.4c1.5,0.5,3.2,0.6,3.1,2.8
								c-0.2,2.1,0.2,4.1-2.8,5.1c-26.2,9.4-44.3,15.9-70.5,25.2c-1.5,0.5-3.5,0.4-5.1-0.2c-34.6-12.4-69.2-24.9-103.8-37.4
								c-1.8-0.7-4.3-0.8-6.2-0.3c-39.1,10.4-69.3,18-108.4,28.5c-2.4,0.6-4.3,0.5-6.4-0.7c-17.1-8.8-34.4-17.5-51.5-26.3
								c-1-0.5-2.2-1.2-2.8-2.1c-2.2-3.4-1.3-5.2,2.7-6.1C116.6,79.7,191.9,63,267.2,46.4c2.5-0.5,21.8-4.9,59.1-13
								c1.8-0.4,3.8-0.4,5.5,0c77.5,17.1,154.9,34.4,232.5,51.6c17.9,4,35.7,7.9,53.6,12c1.3,0.3,3.5,1.1,3.5,1.8c0,2,0,4.5-2.7,5.8
								c-6.4,3.1-12.8,6.4-19.2,9.7c-11,5.6-21.9,11.1-32.8,16.8c-2.1,1.2-4.1,1.3-6.4,0.7C499.6,115.4,439.1,99,378.5,82.7
								c-15.7-4.3-31.2-8.5-46.6-12.7c-1-0.3-2.1-0.6-3.1-0.4c-5.1,1.2-26.9,8.6-31.9,10C296.9,79.8,296.6,80.2,295.9,80z"/>
						</defs>
						<clipPath id="SVGID_39_">
							<use xlink:href="#SVGID_38_"  style="overflow:visible;"/>
						</clipPath>
						<path id="Shadow" class="st26" d="M35.1,97.3c0,0,58.6,28.5,59.3,29c0.8,0.5,1.7-0.2,5.4-0.9s107.5-26.9,108.3-27
							c0.8-0.2,2.1-0.8,4.1,0c2,0.8,104.4,36.8,105.8,37.5c1.4,0.6,3.5,0.8,5.9,0c2.5-0.8,74.4-25.9,74.4-25.9l17,34.5l-228.5,6.9
							l-238.7-22.3L35.1,97.3z"/>
					</g>
				</g>
				<g>
					<g>
						<defs>
							<path id="SVGID_40_" d="M295.9,80c8.1,8.2,8.9,18.2,20.4,21.2c20.8,5.9,56,0.5,76.8,6.4c1.5,0.5,3.2,0.6,3.1,2.8
								c-0.2,2.1,0.2,4.1-2.8,5.1c-26.2,9.4-44.3,15.9-70.5,25.2c-1.5,0.5-3.5,0.4-5.1-0.2c-34.6-12.4-69.2-24.9-103.8-37.4
								c-1.8-0.7-4.3-0.8-6.2-0.3c-39.1,10.4-69.3,18-108.4,28.5c-2.4,0.6-4.3,0.5-6.4-0.7c-17.1-8.8-34.4-17.5-51.5-26.3
								c-1-0.5-2.2-1.2-2.8-2.1c-2.2-3.4-1.3-5.2,2.7-6.1C116.6,79.7,191.9,63,267.2,46.4c2.5-0.5,21.8-4.9,59.1-13
								c1.8-0.4,3.8-0.4,5.5,0c77.5,17.1,154.9,34.4,232.5,51.6c17.9,4,35.7,7.9,53.6,12c1.3,0.3,3.5,1.1,3.5,1.8c0,2,0,4.5-2.7,5.8
								c-6.4,3.1-12.8,6.4-19.2,9.7c-11,5.6-21.9,11.1-32.8,16.8c-2.1,1.2-4.1,1.3-6.4,0.7C499.6,115.4,439.1,99,378.5,82.7
								c-15.7-4.3-31.2-8.5-46.6-12.7c-1-0.3-2.1-0.6-3.1-0.4c-5.1,1.2-26.9,8.6-31.9,10C296.9,79.8,296.6,80.2,295.9,80z"/>
						</defs>
						<clipPath id="SVGID_41_">
							<use xlink:href="#SVGID_40_"  style="overflow:visible;"/>
						</clipPath>
						<path class="st27" d="M297.1,80.1l-5.6-2c-0.3-0.1-0.3-0.5,0-0.6l37.8-11.4c0.1,0,0.2,0,0.2,0l230.8,60.6
							c1.6,0.5,3.4,0.2,4.9-0.5L624,98.2c0.2-0.1,0.2-1.4,0.3-1.2l16.4,19.1c0.2,0.2,0.1,0.5-0.2,0.5l-68,21.4c-0.1,0-0.1,0-0.2,0
							l-148.1-29.3l0,0L321.4,77.6c-0.1,0-0.1,0-0.2,0L297.1,80.1L297.1,80.1z"/>
					</g>
				</g>
				<g>
					<g>
						<defs>
							<path id="SVGID_42_" d="M295.9,80c8.1,8.2,8.9,18.2,20.4,21.2c20.8,5.9,56,0.5,76.8,6.4c1.5,0.5,3.2,0.6,3.1,2.8
								c-0.2,2.1,0.2,4.1-2.8,5.1c-26.2,9.4-44.3,15.9-70.5,25.2c-1.5,0.5-3.5,0.4-5.1-0.2c-34.6-12.4-69.2-24.9-103.8-37.4
								c-1.8-0.7-4.3-0.8-6.2-0.3c-39.1,10.4-69.3,18-108.4,28.5c-2.4,0.6-4.3,0.5-6.4-0.7c-17.1-8.8-34.4-17.5-51.5-26.3
								c-1-0.5-2.2-1.2-2.8-2.1c-2.2-3.4-1.3-5.2,2.7-6.1C116.6,79.7,191.9,63,267.2,46.4c2.5-0.5,21.8-4.9,59.1-13
								c1.8-0.4,3.8-0.4,5.5,0c77.5,17.1,154.9,34.4,232.5,51.6c17.9,4,35.7,7.9,53.6,12c1.3,0.3,3.5,1.1,3.5,1.8c0,2,0,4.5-2.7,5.8
								c-6.4,3.1-12.8,6.4-19.2,9.7c-11,5.6-21.9,11.1-32.8,16.8c-2.1,1.2-4.1,1.3-6.4,0.7C499.6,115.4,439.1,99,378.5,82.7
								c-15.7-4.3-31.2-8.5-46.6-12.7c-1-0.3-2.1-0.6-3.1-0.4c-5.1,1.2-26.9,8.6-31.9,10C296.9,79.8,296.6,80.2,295.9,80z"/>
						</defs>
						<clipPath id="SVGID_43_">
							<use xlink:href="#SVGID_42_"  style="overflow:visible;"/>
						</clipPath>
						<line class="st28" x1="94.8" y1="131.9" x2="94.8" y2="126.6"/>
					</g>
				</g>
				<g>
					<g>
						<defs>
							<path id="SVGID_44_" d="M295.9,80c8.1,8.2,8.9,18.2,20.4,21.2c20.8,5.9,56,0.5,76.8,6.4c1.5,0.5,3.2,0.6,3.1,2.8
								c-0.2,2.1,0.2,4.1-2.8,5.1c-26.2,9.4-44.3,15.9-70.5,25.2c-1.5,0.5-3.5,0.4-5.1-0.2c-34.6-12.4-69.2-24.9-103.8-37.4
								c-1.8-0.7-4.3-0.8-6.2-0.3c-39.1,10.4-69.3,18-108.4,28.5c-2.4,0.6-4.3,0.5-6.4-0.7c-17.1-8.8-34.4-17.5-51.5-26.3
								c-1-0.5-2.2-1.2-2.8-2.1c-2.2-3.4-1.3-5.2,2.7-6.1C116.6,79.7,191.9,63,267.2,46.4c2.5-0.5,21.8-4.9,59.1-13
								c1.8-0.4,3.8-0.4,5.5,0c77.5,17.1,154.9,34.4,232.5,51.6c17.9,4,35.7,7.9,53.6,12c1.3,0.3,3.5,1.1,3.5,1.8c0,2,0,4.5-2.7,5.8
								c-6.4,3.1-12.8,6.4-19.2,9.7c-11,5.6-21.9,11.1-32.8,16.8c-2.1,1.2-4.1,1.3-6.4,0.7C499.6,115.4,439.1,99,378.5,82.7
								c-15.7-4.3-31.2-8.5-46.6-12.7c-1-0.3-2.1-0.6-3.1-0.4c-5.1,1.2-26.9,8.6-31.9,10C296.9,79.8,296.6,80.2,295.9,80z"/>
						</defs>
						<clipPath id="SVGID_45_">
							<use xlink:href="#SVGID_44_"  style="overflow:visible;"/>
						</clipPath>
						<path class="st29" d="M210.4,103.2c0-1.2,0-5.1,0-5.1"/>
					</g>
				</g>
			</g>
			<g class="st30">
				<g>
					<g>
						<defs>
							<path id="SVGID_46_" d="M138.8,365.8c2,9.4,3.8,18.2,5.8,26.9c4,18.6,7.9,37.1,12,55.6c0.5,2.1-0.1,3.3-1.9,4.4
								c-1.9,1.2-2.9,0-4-1.2c-13.2-13.4-26.5-26.7-39.6-40.1c-1-1-1.8-2.4-2.1-3.8C83,308.6,57.3,209.4,31.6,110.2
								c-0.3-1.2-0.2-3.5,0.3-3.6c1.8-0.5,4.2-1.2,5.8-0.5c5.2,2.3,10.2,5.1,15.3,7.8c87.8,45.4,175.6,90.9,263.5,136.4
								c2.7,1.4,3.8,3,3.8,6.1c1.1,119.3,2.2,238.4,3.4,357.7c0,2.3-0.1,4.4-2,6.1c-1.8,1.7-3,1.5-4.6-0.2
								c-9.9-10.1-20-20.2-29.9-30.2c-12.4-12.4-24.7-24.9-36.9-37.5c-1.2-1.3-2.2-3.3-2.5-5.1c-3.7-31.1-7.2-62.2-10.8-93.2
								c-0.2-1.3-1.1-2.8-2.1-3.6c-22-19.5-44.1-38.9-66.2-58.4c-9-7.9-18-15.9-27-23.8C140.8,367.5,140,366.9,138.8,365.8z
								 M113.5,246.4c0,0.7-0.1,1.2,0,1.5c2,9.5,4,19,6.2,28.5c0.4,1.5,1.6,3.1,2.9,4.1c33.4,25.2,66.8,50.3,100.2,75.4
								c0.8,0.6,1.7,1.2,3,2.1c-0.2-1.8-0.2-3-0.3-4.1c-1.1-9.4-2.3-19-3.2-28.5c-0.2-2.3-1.1-3.8-2.9-5.1
								c-34.5-24.1-68.8-48.3-103.2-72.4C115.4,247.6,114.5,247,113.5,246.4z"/>
						</defs>
						<clipPath id="SVGID_47_">
							<use xlink:href="#SVGID_46_"  style="overflow:visible;"/>
						</clipPath>
						<path class="st31" d="M108.3,243.7l5.2,2.8l6.2,30c0,0,0.2,2.1,3.4,4.5c3.2,2.5,102.7,77.1,102.7,77.1l0.4,6.1l-107.3-81
							c0,0-3.3-2.3-4.1-6.5S108.3,243.7,108.3,243.7z"/>
					</g>
				</g>
				<g>
					<g>
						<defs>
							<path id="SVGID_48_" d="M138.8,365.8c2,9.4,3.8,18.2,5.8,26.9c4,18.6,7.9,37.1,12,55.6c0.5,2.1-0.1,3.3-1.9,4.4
								c-1.9,1.2-2.9,0-4-1.2c-13.2-13.4-26.5-26.7-39.6-40.1c-1-1-1.8-2.4-2.1-3.8C83,308.6,57.3,209.4,31.6,110.2
								c-0.3-1.2-0.2-3.5,0.3-3.6c1.8-0.5,4.2-1.2,5.8-0.5c5.2,2.3,10.2,5.1,15.3,7.8c87.8,45.4,175.6,90.9,263.5,136.4
								c2.7,1.4,3.8,3,3.8,6.1c1.1,119.3,2.2,238.4,3.4,357.7c0,2.3-0.1,4.4-2,6.1c-1.8,1.7-3,1.5-4.6-0.2
								c-9.9-10.1-20-20.2-29.9-30.2c-12.4-12.4-24.7-24.9-36.9-37.5c-1.2-1.3-2.2-3.3-2.5-5.1c-3.7-31.1-7.2-62.2-10.8-93.2
								c-0.2-1.3-1.1-2.8-2.1-3.6c-22-19.5-44.1-38.9-66.2-58.4c-9-7.9-18-15.9-27-23.8C140.8,367.5,140,366.9,138.8,365.8z
								 M113.5,246.4c0,0.7-0.1,1.2,0,1.5c2,9.5,4,19,6.2,28.5c0.4,1.5,1.6,3.1,2.9,4.1c33.4,25.2,66.8,50.3,100.2,75.4
								c0.8,0.6,1.7,1.2,3,2.1c-0.2-1.8-0.2-3-0.3-4.1c-1.1-9.4-2.3-19-3.2-28.5c-0.2-2.3-1.1-3.8-2.9-5.1
								c-34.5-24.1-68.8-48.3-103.2-72.4C115.4,247.6,114.5,247,113.5,246.4z"/>
						</defs>
						<clipPath id="SVGID_49_">
							<use xlink:href="#SVGID_48_"  style="overflow:visible;"/>
						</clipPath>
						<polyline class="st32" points="138.8,365.8 133.7,362.1 153.1,455.2 161,451.2 138.8,365.8 						"/>
					</g>
				</g>
			</g>
		</g>
		<g id="Calque_14">
			<path class="st33" d="M295.9,79.7c20,6.9,96.7,27.9,96.7,27.9c0.5,0.2,1.2,0.3,1.8,0.6c1.2,0.5,1.7,1.2,1.5,2.7"/>
		</g>
	</g>
	<g id="Relief_x5F_A">
		<g id="Letter_x5F_A_x5F_Edges">
			<g>
				<g>
					<defs>
						<path id="SVGID_50_" d="M138.8,365.8c2,9.4,3.8,18.2,5.8,26.9c4,18.6,7.9,37.1,12,55.6c0.5,2.1-0.1,3.3-1.9,4.4
							c-1.9,1.2-2.9,0-4-1.2c-13.2-13.4-26.5-26.7-39.6-40.1c-1-1-1.8-2.4-2.1-3.8C83,308.6,57.3,209.4,31.6,110.2
							c-0.3-1.2-0.8-2.9,0.3-3.6c1.6-1.1,4.2-1.2,5.8-0.5c5.2,2.3,10.2,5.1,15.3,7.8c87.8,45.4,175.6,90.9,263.5,136.4
							c2.7,1.4,3.8,3,3.8,6.1c1.1,119.3,2.2,238.4,3.4,357.7c0,2.3-0.1,4.4-2,6.1c-1.8,1.7-3,1.5-4.6-0.2
							c-9.9-10.1-20-20.2-29.9-30.2c-12.4-12.4-24.7-24.9-36.9-37.5c-1.2-1.3-2.2-3.3-2.5-5.1c-3.7-31.1-7.2-62.2-10.8-93.2
							c-0.2-1.3-1.1-2.8-2.1-3.6c-22-19.5-44.1-38.9-66.2-58.4c-9-7.9-18-15.9-27-23.8C140.8,367.5,140,366.9,138.8,365.8z
							 M113.5,246.4c0,0.7-0.1,1.2,0,1.5c2,9.5,4,19,6.2,28.5c0.4,1.5,1.6,3.1,2.9,4.1c33.4,25.2,66.8,50.3,100.2,75.4
							c0.8,0.6,1.7,1.2,3,2.1c-0.2-1.8-0.2-3-0.3-4.1c-1.1-9.4-2.3-19-3.2-28.5c-0.2-2.3-1.1-3.8-2.9-5.1
							c-34.5-24.1-68.8-48.3-103.2-72.4C115.4,247.6,114.5,247,113.5,246.4z"/>
					</defs>
					<clipPath id="SVGID_51_">
						<use xlink:href="#SVGID_50_"  style="overflow:visible;"/>
					</clipPath>
					<path id="Epaisseur_x5F_Clair_x5F_A" class="st34" d="M31.2,109.4l-3-18.3l299.3,155.4L326,643.4l-7.3-22.7l-5.8-361.7
						c0-1.6-0.9-2.7-2.4-3.5L31.2,109.4z"/>
				</g>
			</g>
			<g>
				<g>
					<defs>
						<path id="SVGID_52_" d="M138.8,365.8c2,9.4,3.8,18.2,5.8,26.9c4,18.6,7.9,37.1,12,55.6c0.5,2.1-0.1,3.3-1.9,4.4
							c-1.9,1.2-2.9,0-4-1.2c-13.2-13.4-26.5-26.7-39.6-40.1c-1-1-1.8-2.4-2.1-3.8C83,308.6,57.3,209.4,31.6,110.2
							c-0.3-1.2-0.8-2.9,0.3-3.6c1.6-1.1,4.2-1.2,5.8-0.5c5.2,2.3,10.2,5.1,15.3,7.8c87.8,45.4,175.6,90.9,263.5,136.4
							c2.7,1.4,3.8,3,3.8,6.1c1.1,119.3,2.2,238.4,3.4,357.7c0,2.3-0.1,4.4-2,6.1c-1.8,1.7-3,1.5-4.6-0.2
							c-9.9-10.1-20-20.2-29.9-30.2c-12.4-12.4-24.7-24.9-36.9-37.5c-1.2-1.3-2.2-3.3-2.5-5.1c-3.7-31.1-7.2-62.2-10.8-93.2
							c-0.2-1.3-1.1-2.8-2.1-3.6c-22-19.5-44.1-38.9-66.2-58.4c-9-7.9-18-15.9-27-23.8C140.8,367.5,140,366.9,138.8,365.8z
							 M113.5,246.4c0,0.7-0.1,1.2,0,1.5c2,9.5,4,19,6.2,28.5c0.4,1.5,1.6,3.1,2.9,4.1c33.4,25.2,66.8,50.3,100.2,75.4
							c0.8,0.6,1.7,1.2,3,2.1c-0.2-1.8-0.2-3-0.3-4.1c-1.1-9.4-2.3-19-3.2-28.5c-0.2-2.3-1.1-3.8-2.9-5.1
							c-34.5-24.1-68.8-48.3-103.2-72.4C115.4,247.6,114.5,247,113.5,246.4z"/>
					</defs>
					<clipPath id="SVGID_53_">
						<use xlink:href="#SVGID_52_"  style="overflow:visible;"/>
					</clipPath>
					<line class="st35" x1="30.7" y1="108.8" x2="311.4" y2="256.1"/>
				</g>
			</g>
			<g>
				<g>
					<defs>
						<path id="SVGID_54_" d="M138.8,365.8c2,9.4,3.8,18.2,5.8,26.9c4,18.6,7.9,37.1,12,55.6c0.5,2.1-0.1,3.3-1.9,4.4
							c-1.9,1.2-2.9,0-4-1.2c-13.2-13.4-26.5-26.7-39.6-40.1c-1-1-1.8-2.4-2.1-3.8C83,308.6,57.3,209.4,31.6,110.2
							c-0.3-1.2-0.8-2.9,0.3-3.6c1.6-1.1,4.2-1.2,5.8-0.5c5.2,2.3,10.2,5.1,15.3,7.8c87.8,45.4,175.6,90.9,263.5,136.4
							c2.7,1.4,3.8,3,3.8,6.1c1.1,119.3,2.2,238.4,3.4,357.7c0,2.3-0.1,4.4-2,6.1c-1.8,1.7-3,1.5-4.6-0.2
							c-9.9-10.1-20-20.2-29.9-30.2c-12.4-12.4-24.7-24.9-36.9-37.5c-1.2-1.3-2.2-3.3-2.5-5.1c-3.7-31.1-7.2-62.2-10.8-93.2
							c-0.2-1.3-1.1-2.8-2.1-3.6c-22-19.5-44.1-38.9-66.2-58.4c-9-7.9-18-15.9-27-23.8C140.8,367.5,140,366.9,138.8,365.8z
							 M113.5,246.4c0,0.7-0.1,1.2,0,1.5c2,9.5,4,19,6.2,28.5c0.4,1.5,1.6,3.1,2.9,4.1c33.4,25.2,66.8,50.3,100.2,75.4
							c0.8,0.6,1.7,1.2,3,2.1c-0.2-1.8-0.2-3-0.3-4.1c-1.1-9.4-2.3-19-3.2-28.5c-0.2-2.3-1.1-3.8-2.9-5.1
							c-34.5-24.1-68.8-48.3-103.2-72.4C115.4,247.6,114.5,247,113.5,246.4z"/>
					</defs>
					<clipPath id="SVGID_55_">
						<use xlink:href="#SVGID_54_"  style="overflow:visible;"/>
					</clipPath>
					<path class="st36" d="M311.4,256.1c0,0,1.5,0.9,1.6,2.1c0.1,1.2,5.9,363.1,5.9,363.1"/>
				</g>
			</g>
		</g>
	</g>
	<g id="Relief_x5F_S">
		<g>
			<g>
				<g>
					<defs>
						<path id="SVGID_56_" d="M438.9,354.2c8.5-6.4,16.6-12.4,24.6-18.4c40.8-30.7,81.7-61.5,122.6-92.1c1.1-0.8,2.8-1.4,4.1-1.2
							c2.5,0.2,3.3,1.5,2.5,4.3c-14,53.6-27.9,107.1-41.8,160.7c-0.4,1.5-1.4,3.1-2.5,4.1c-56.6,57.3-113.3,114.5-169.9,171.8
							c-12.1,12.3-24.3,24.5-36.4,36.7c-0.9,0.9-3.1,2.1-3.5,1.8c-0.8-0.3-2.4-1.2-3.5-2.9c-0.4-0.8-0.2-3.8-0.2-4.8
							c0.2-19.5,0.3-39,0.6-58.5c0-1.5,0.8-3.5,2-4.5c58.3-53.3,116.7-106.7,175.2-159.9c1.8-1.6,2.8-3.3,3.3-5.7
							c1.2-6.2,2.6-12.4,4.1-19.6c-4,3.5-7.4,6.4-10.7,9.3c-54.8,48.2-109.5,96.5-164.3,144.6c-1.3,1.2-2.5,3.4-4.7,2.1
							c-2.3-1.3-3.9-3.1-3.9-6.3c0.7-59.1,1.2-118.2,1.8-177.2c0.2-27.5,0.5-54.9,0.7-82.4c0-3,1-4.6,3.7-6
							c74.6-38.4,149.1-77,223.7-115.5c18-9.3,36-18.6,54-27.9c0.8-0.4,1.6-0.8,2.5-1c3.9-0.9,5.8,1.2,4.8,4.9
							c-8,30.9-16,61.7-24,92.5c-0.5,1.6-1.7,3.4-3,4.4c-51.5,36.3-103.1,72.4-154.6,108.6c-2.3,1.6-3.4,3.4-3.6,6.2
							c-1,9.9-2.3,19.7-3.5,29.6C438.9,352.6,438.9,353,438.9,354.2z"/>
					</defs>
					<clipPath id="SVGID_57_">
						<use xlink:href="#SVGID_56_"  style="overflow:visible;"/>
					</clipPath>
					<path class="st37" d="M338.7,625.1l1.8-65.5c0-1.7,0.8-3.3,2-4.4l175.3-162.1c0.6-0.6,1.1-1.4,1.2-2.2l5.6-28.2l-4.6,3.8
						l-6.1,21.2L341.5,545.8l4.1-285.6c0-2.1,1.2-4.1,3.1-5.1L635,104.8L622.5,90L334.7,250.4l-1.9,374.7H338.7z"/>
				</g>
			</g>
			<g>
				<g>
					<defs>
						<path id="SVGID_58_" d="M438.9,354.2c8.5-6.4,16.6-12.4,24.6-18.4c40.8-30.7,81.7-61.5,122.6-92.1c1.1-0.8,2.8-1.4,4.1-1.2
							c2.5,0.2,3.3,1.5,2.5,4.3c-14,53.6-27.9,107.1-41.8,160.7c-0.4,1.5-1.4,3.1-2.5,4.1c-56.6,57.3-113.3,114.5-169.9,171.8
							c-12.1,12.3-24.3,24.5-36.4,36.7c-0.9,0.9-3.1,2.1-3.5,1.8c-0.8-0.3-2.4-1.2-3.5-2.9c-0.4-0.8-0.2-3.8-0.2-4.8
							c0.2-19.5,0.3-39,0.6-58.5c0-1.5,0.8-3.5,2-4.5c58.3-53.3,116.7-106.7,175.2-159.9c1.8-1.6,2.8-3.3,3.3-5.7
							c1.2-6.2,2.6-12.4,4.1-19.6c-4,3.5-7.4,6.4-10.7,9.3c-54.8,48.2-109.5,96.5-164.3,144.6c-1.3,1.2-2.5,3.4-4.7,2.1
							c-2.3-1.3-3.9-3.1-3.9-6.3c0.7-59.1,1.2-118.2,1.8-177.2c0.2-27.5,0.5-54.9,0.7-82.4c0-3,1-4.6,3.7-6
							c74.6-38.4,149.1-77,223.7-115.5c18-9.3,36-18.6,54-27.9c0.8-0.4,1.6-0.8,2.5-1c3.9-0.9,5.8,1.2,4.8,4.9
							c-8,30.9-16,61.7-24,92.5c-0.5,1.6-1.7,3.4-3,4.4c-51.5,36.3-103.1,72.4-154.6,108.6c-2.3,1.6-3.4,3.4-3.6,6.2
							c-1,9.9-2.3,19.7-3.5,29.6C438.9,352.6,438.9,353,438.9,354.2z"/>
					</defs>
					<clipPath id="SVGID_59_">
						<use xlink:href="#SVGID_58_"  style="overflow:visible;"/>
					</clipPath>
					<path class="st38" d="M438,361.6l1.2-9L593,235.4c0,0,6.4,0.6,6.9,2.9c0.5,2.3-8.3,7.7-8.3,7.7L438,361.6z"/>
				</g>
			</g>
		</g>
	</g>
	<g id="Edges_x5F_S">
		<g>
			<g>
				<g>
					<defs>
						<path id="SVGID_60_" d="M438.9,354.2c8.5-6.4,16.6-12.4,24.6-18.4c40.8-30.7,81.7-61.5,122.6-92.1c1.1-0.8,2.8-1.4,4.1-1.2
							c2.5,0.2,3.3,1.5,2.5,4.3c-14,53.6-27.9,107.1-41.8,160.7c-0.4,1.5-1.4,3.1-2.5,4.1c-56.6,57.3-113.3,114.5-169.9,171.8
							c-12.1,12.3-24.3,24.5-36.4,36.7c-0.9,0.9-2.1,2.4-3.5,1.8c-1.5-0.5-2.6-3.1-3.5-4.8c-0.4-0.8-0.1-1.9-0.1-2.9
							c0.2-19.5,0.3-39,0.6-58.5c0-1.5,0.8-3.5,2-4.5c58.3-53.3,116.7-106.7,175.2-159.9c1.8-1.6,2.8-3.3,3.3-5.7
							c1.2-6.2,2.6-12.4,4.1-19.6c-4,3.5-7.4,6.4-10.7,9.3c-54.8,48.2-109.5,96.5-164.3,144.6c-1.3,1.2-2.5,3.4-4.7,2.1
							c-2.3-1.3-3.9-3.1-3.9-6.3c0.7-59.1,1.2-118.2,1.8-177.2c0.2-27.5,0.5-54.9,0.7-82.4c0-3,1-4.6,3.7-6
							c74.6-38.4,149.1-77,223.7-115.5c18-9.3,36.1-18.6,54.1-27.8c0.8-0.4,1.5-0.9,2.4-1.1c3.9-0.8,5.8,1.2,4.8,4.9
							c-8,30.9-16,61.7-24,92.5c-0.5,1.6-1.7,3.4-3,4.4c-51.5,36.3-103.1,72.4-154.6,108.6c-2.3,1.6-3.4,3.4-3.6,6.2
							c-1,9.9-2.3,19.7-3.5,29.6C438.9,352.6,438.9,353,438.9,354.2z"/>
					</defs>
					<clipPath id="SVGID_61_">
						<use xlink:href="#SVGID_60_"  style="overflow:visible;"/>
					</clipPath>
					<path class="st39" d="M342,523.4l4.1-263.8c0-1.8,1.1-3.5,2.6-4.3L636.7,104"/>
				</g>
			</g>
			<g>
				<g>
					<defs>
						<path id="SVGID_62_" d="M438.9,354.2c8.5-6.4,16.6-12.4,24.6-18.4c40.8-30.7,81.7-61.5,122.6-92.1c1.1-0.8,2.8-1.4,4.1-1.2
							c2.5,0.2,3.3,1.5,2.5,4.3c-14,53.6-27.9,107.1-41.8,160.7c-0.4,1.5-1.4,3.1-2.5,4.1c-56.6,57.3-113.3,114.5-169.9,171.8
							c-12.1,12.3-24.3,24.5-36.4,36.7c-0.9,0.9-2.1,2.4-3.5,1.8c-1.5-0.5-2.6-3.1-3.5-4.8c-0.4-0.8-0.1-1.9-0.1-2.9
							c0.2-19.5,0.3-39,0.6-58.5c0-1.5,0.8-3.5,2-4.5c58.3-53.3,116.7-106.7,175.2-159.9c1.8-1.6,2.8-3.3,3.3-5.7
							c1.2-6.2,2.6-12.4,4.1-19.6c-4,3.5-7.4,6.4-10.7,9.3c-54.8,48.2-109.5,96.5-164.3,144.6c-1.3,1.2-2.5,3.4-4.7,2.1
							c-2.3-1.3-3.9-3.1-3.9-6.3c0.7-59.1,1.2-118.2,1.8-177.2c0.2-27.5,0.5-54.9,0.7-82.4c0-3,1-4.6,3.7-6
							c74.6-38.4,149.1-77,223.7-115.5c18-9.3,36.1-18.6,54.1-27.8c0.8-0.4,1.5-0.9,2.4-1.1c3.9-0.8,5.8,1.2,4.8,4.9
							c-8,30.9-16,61.7-24,92.5c-0.5,1.6-1.7,3.4-3,4.4c-51.5,36.3-103.1,72.4-154.6,108.6c-2.3,1.6-3.4,3.4-3.6,6.2
							c-1,9.9-2.3,19.7-3.5,29.6C438.9,352.6,438.9,353,438.9,354.2z"/>
					</defs>
					<clipPath id="SVGID_63_">
						<use xlink:href="#SVGID_62_"  style="overflow:visible;"/>
					</clipPath>
					<path class="st40" d="M338.9,623.5c0,0,1.5-61.2,1.7-63.9c0.2-2.8,0.4-2.9,2.2-4.6c1.8-1.7,162.5-150.5,174.9-161.9
						c0.5-0.5,0.8-1.1,1-1.7l6.1-28.7"/>
				</g>
			</g>
			<g>
				<g>
					<defs>
						<path id="SVGID_64_" d="M438.9,354.2c8.5-6.4,16.6-12.4,24.6-18.4c40.8-30.7,81.7-61.5,122.6-92.1c1.1-0.8,2.8-1.4,4.1-1.2
							c2.5,0.2,3.3,1.5,2.5,4.3c-14,53.6-27.9,107.1-41.8,160.7c-0.4,1.5-1.4,3.1-2.5,4.1c-56.6,57.3-113.3,114.5-169.9,171.8
							c-12.1,12.3-24.3,24.5-36.4,36.7c-0.9,0.9-2.1,2.4-3.5,1.8c-1.5-0.5-2.6-3.1-3.5-4.8c-0.4-0.8-0.1-1.9-0.1-2.9
							c0.2-19.5,0.3-39,0.6-58.5c0-1.5,0.8-3.5,2-4.5c58.3-53.3,116.7-106.7,175.2-159.9c1.8-1.6,2.8-3.3,3.3-5.7
							c1.2-6.2,2.6-12.4,4.1-19.6c-4,3.5-7.4,6.4-10.7,9.3c-54.8,48.2-109.5,96.5-164.3,144.6c-1.3,1.2-2.5,3.4-4.7,2.1
							c-2.3-1.3-3.9-3.1-3.9-6.3c0.7-59.1,1.2-118.2,1.8-177.2c0.2-27.5,0.5-54.9,0.7-82.4c0-3,1-4.6,3.7-6
							c74.6-38.4,149.1-77,223.7-115.5c18-9.3,36.1-18.6,54.1-27.8c0.8-0.4,1.5-0.9,2.4-1.1c3.9-0.8,5.8,1.2,4.8,4.9
							c-8,30.9-16,61.7-24,92.5c-0.5,1.6-1.7,3.4-3,4.4c-51.5,36.3-103.1,72.4-154.6,108.6c-2.3,1.6-3.4,3.4-3.6,6.2
							c-1,9.9-2.3,19.7-3.5,29.6C438.9,352.6,438.9,353,438.9,354.2z"/>
					</defs>
					<clipPath id="SVGID_65_">
						<use xlink:href="#SVGID_64_"  style="overflow:visible;"/>
					</clipPath>
					<line class="st41" x1="438" y1="361.6" x2="597.4" y2="241.8"/>
				</g>
			</g>
		</g>
	</g>
</g>
<g id="Texte">
	<path d="M692.5,264.7h-27.7l-6.2,16.9h-5.2l23-60.5h4.7l22.8,60.5h-5.2L692.5,264.7z M666.4,260.3h24.4l-12.1-32.7h-0.2
		L666.4,260.3z"/>
	<path d="M747.7,266.7c0-3.3-1.2-6-3.7-8.1c-2.5-2.1-6.8-3.9-12.9-5.5c-6.6-1.7-11.6-3.8-15-6.5c-3.4-2.7-5.1-6.2-5.1-10.8
		c0-4.6,1.9-8.4,5.7-11.3c3.8-2.9,8.7-4.4,14.7-4.4c6.2,0,11.3,1.7,15.1,5.2c3.8,3.5,5.7,7.7,5.6,12.7l-0.1,0.2h-4.6
		c0-4-1.4-7.4-4.3-10c-2.9-2.6-6.8-3.9-11.7-3.9c-4.8,0-8.6,1.1-11.4,3.2c-2.7,2.2-4.1,4.8-4.1,8.1c0,3,1.3,5.6,3.8,7.6
		c2.5,2,6.9,3.8,13,5.4c6.5,1.7,11.5,3.9,14.9,6.7c3.4,2.8,5.1,6.6,5.1,11.2c0,4.8-2,8.7-5.9,11.5c-3.9,2.9-9,4.3-15.1,4.3
		c-6,0-11.3-1.5-15.8-4.6c-4.5-3-6.7-7.5-6.5-13.3l0.1-0.3h4.6c0,4.7,1.8,8.2,5.3,10.4c3.5,2.3,7.7,3.4,12.4,3.4
		c4.8,0,8.7-1,11.6-3.2C746.2,273,747.7,270.2,747.7,266.7z"/>
	<path d="M798.9,266.7c0-3.3-1.2-6-3.7-8.1c-2.5-2.1-6.8-3.9-12.9-5.5c-6.6-1.7-11.6-3.8-15-6.5c-3.4-2.7-5.1-6.2-5.1-10.8
		c0-4.6,1.9-8.4,5.7-11.3c3.8-2.9,8.7-4.4,14.7-4.4c6.2,0,11.3,1.7,15.1,5.2c3.8,3.5,5.7,7.7,5.6,12.7l-0.1,0.2h-4.6
		c0-4-1.4-7.4-4.3-10c-2.9-2.6-6.8-3.9-11.7-3.9c-4.8,0-8.6,1.1-11.4,3.2c-2.7,2.2-4.1,4.8-4.1,8.1c0,3,1.3,5.6,3.8,7.6
		c2.5,2,6.9,3.8,13,5.4c6.5,1.7,11.5,3.9,14.9,6.7c3.4,2.8,5.1,6.6,5.1,11.2c0,4.8-2,8.7-5.9,11.5c-3.9,2.9-9,4.3-15.1,4.3
		c-6,0-11.3-1.5-15.8-4.6c-4.5-3-6.7-7.5-6.5-13.3l0.1-0.3h4.6c0,4.7,1.8,8.2,5.3,10.4c3.5,2.3,7.7,3.4,12.4,3.4
		c4.8,0,8.7-1,11.6-3.2C797.4,273,798.9,270.2,798.9,266.7z"/>
	<path d="M859.6,256.3c0,7.8-2.1,14.1-6.4,18.9c-4.3,4.8-10,7.2-17.2,7.2c-7.1,0-12.8-2.4-17-7.2c-4.2-4.8-6.3-11.1-6.3-18.9v-9.8
		c0-7.8,2.1-14.1,6.3-18.9c4.2-4.8,9.9-7.3,17-7.3c7.2,0,13,2.4,17.2,7.3c4.3,4.8,6.4,11.2,6.4,18.9V256.3z M854.6,246.4
		c0-6.5-1.7-11.8-5-15.8c-3.3-4-7.9-6-13.8-6c-5.8,0-10.3,2-13.5,6c-3.2,4-4.8,9.3-4.8,15.8v9.9c0,6.6,1.6,11.9,4.8,15.9
		c3.2,4,7.7,6,13.5,6c5.9,0,10.5-2,13.8-6c3.3-4,4.9-9.3,4.9-15.9V246.4z"/>
	<path d="M914.4,262.7l0.1,0.2c-0.5,6.1-2.7,10.8-6.5,14.3c-3.8,3.5-8.9,5.2-15.3,5.2c-6.7,0-12.2-2.4-16.3-7.3
		c-4.1-4.9-6.2-11.2-6.2-18.9v-9.8c0-7.7,2.1-14,6.2-18.9c4.1-4.9,9.6-7.3,16.3-7.3c6.4,0,11.5,1.7,15.3,5.1
		c3.8,3.4,5.9,8.2,6.4,14.4l-0.1,0.2h-4.7c-0.7-5-2.4-8.9-5.2-11.5c-2.8-2.7-6.7-4-11.8-4c-5.3,0-9.5,2-12.7,6.1
		c-3.2,4.1-4.8,9.3-4.8,15.7v9.9c0,6.5,1.6,11.8,4.8,15.8c3.2,4.1,7.4,6.1,12.7,6.1c5.1,0,9-1.3,11.8-3.9c2.8-2.6,4.5-6.5,5.2-11.6
		H914.4z"/>
	<path d="M933.3,281.6h-5v-60.5h5V281.6z"/>
	<path d="M983.5,264.7h-27.7l-6.2,16.9h-5.2l23-60.5h4.7l22.8,60.5h-5.2L983.5,264.7z M957.4,260.3h24.4l-12.1-32.7h-0.2
		L957.4,260.3z"/>
	<path d="M1039.3,225.3h-20.8v56.3h-5v-56.3h-20.8v-4.2h46.6V225.3z"/>
	<path d="M1055.3,281.6h-5v-60.5h5V281.6z"/>
	<path d="M1116.4,256.3c0,7.8-2.1,14.1-6.4,18.9c-4.3,4.8-10,7.2-17.2,7.2c-7.1,0-12.8-2.4-17-7.2c-4.2-4.8-6.3-11.1-6.3-18.9v-9.8
		c0-7.8,2.1-14.1,6.3-18.9c4.2-4.8,9.9-7.3,17-7.3c7.2,0,13,2.4,17.2,7.3c4.3,4.8,6.4,11.2,6.4,18.9V256.3z M1111.4,246.4
		c0-6.5-1.7-11.8-5-15.8c-3.3-4-7.9-6-13.8-6c-5.8,0-10.3,2-13.5,6c-3.2,4-4.8,9.3-4.8,15.8v9.9c0,6.6,1.6,11.9,4.8,15.9
		c3.2,4,7.7,6,13.5,6c5.9,0,10.5-2,13.8-6c3.3-4,4.9-9.3,4.9-15.9V246.4z"/>
	<path d="M1174,281.6h-4.9l-34.4-52l-0.2,0v52h-5v-60.5h5l34.4,51.9l0.2,0v-51.9h4.9V281.6z"/>
	<path d="M1245,253.2h-29.4v28.4h-4.9v-60.5h38.6v4.2h-33.7V249h29.4V253.2z"/>
	<path d="M1264.5,254.2v27.3h-4.9v-60.5h20.5c6.5,0,11.5,1.4,14.9,4.3c3.5,2.8,5.2,7,5.2,12.4c0,3.2-0.9,6.1-2.8,8.6
		c-1.9,2.5-4.5,4.4-7.9,5.5c3.7,0.9,6.4,2.6,8.1,5c1.6,2.4,2.5,5.5,2.5,9.1v5.7c0,1.9,0.2,3.6,0.7,5.1c0.4,1.5,1.2,2.7,2.2,3.7v1
		h-5.1c-1-1-1.7-2.4-2.2-4.2c-0.4-1.8-0.6-3.7-0.6-5.6v-5.5c0-3.7-1.2-6.6-3.6-8.8c-2.4-2.1-5.7-3.2-10-3.2H1264.5z M1264.5,250
		h14.9c5.5,0,9.4-1.1,12-3.3c2.5-2.2,3.8-5.2,3.8-8.9c0-4-1.3-7.1-3.8-9.2c-2.5-2.1-6.3-3.2-11.4-3.2h-15.5V250z"/>
	<path d="M1348.2,264.7h-27.7l-6.2,16.9h-5.2l23-60.5h4.7l22.8,60.5h-5.2L1348.2,264.7z M1322.1,260.3h24.4l-12.1-32.7h-0.2
		L1322.1,260.3z"/>
	<path d="M1413.4,281.6h-4.9l-34.4-52l-0.2,0v52h-5v-60.5h5l34.4,51.9l0.2,0v-51.9h4.9V281.6z"/>
	<path d="M1470.9,262.7l0.1,0.2c-0.5,6.1-2.7,10.8-6.5,14.3c-3.8,3.5-8.9,5.2-15.3,5.2c-6.7,0-12.2-2.4-16.3-7.3
		c-4.1-4.9-6.2-11.2-6.2-18.9v-9.8c0-7.7,2.1-14,6.2-18.9c4.1-4.9,9.6-7.3,16.3-7.3c6.4,0,11.5,1.7,15.3,5.1
		c3.8,3.4,5.9,8.2,6.4,14.4l-0.1,0.2h-4.7c-0.7-5-2.4-8.9-5.2-11.5s-6.7-4-11.8-4c-5.3,0-9.5,2-12.7,6.1c-3.2,4.1-4.8,9.3-4.8,15.7
		v9.9c0,6.5,1.6,11.8,4.8,15.8c3.2,4.1,7.4,6.1,12.7,6.1c5.1,0,9-1.3,11.8-3.9s4.5-6.5,5.2-11.6H1470.9z"/>
	<path d="M1516.3,264.7h-27.7l-6.2,16.9h-5.2l23-60.5h4.7l22.8,60.5h-5.2L1516.3,264.7z M1490.2,260.3h24.4l-12.1-32.7h-0.2
		L1490.2,260.3z"/>
	<path d="M1543,281.6h-5v-60.5h5V281.6z"/>
	<path d="M1594.6,266.7c0-3.3-1.2-6-3.7-8.1c-2.5-2.1-6.8-3.9-12.9-5.5c-6.6-1.7-11.6-3.8-15-6.5c-3.4-2.7-5.1-6.2-5.1-10.8
		c0-4.6,1.9-8.4,5.7-11.3c3.8-2.9,8.7-4.4,14.7-4.4c6.2,0,11.3,1.7,15.1,5.2c3.8,3.5,5.7,7.7,5.6,12.7l-0.1,0.2h-4.6
		c0-4-1.4-7.4-4.3-10c-2.9-2.6-6.8-3.9-11.7-3.9c-4.8,0-8.6,1.1-11.4,3.2c-2.7,2.2-4.1,4.8-4.1,8.1c0,3,1.3,5.6,3.8,7.6
		s6.9,3.8,13,5.4c6.5,1.7,11.5,3.9,14.9,6.7c3.4,2.8,5.1,6.6,5.1,11.2c0,4.8-2,8.7-5.9,11.5c-3.9,2.9-9,4.3-15.1,4.3
		c-6,0-11.3-1.5-15.8-4.6s-6.7-7.5-6.5-13.3l0.1-0.3h4.6c0,4.7,1.8,8.2,5.3,10.4c3.5,2.3,7.7,3.4,12.4,3.4c4.8,0,8.7-1,11.6-3.2
		C1593.1,273,1594.6,270.2,1594.6,266.7z"/>
	<path d="M1645.2,252.3h-29.1v25.1h33.4v4.2h-38.3v-60.5h38.1v4.2h-33.2v22.7h29.1V252.3z"/>
	<path d="M1680.8,281.6v-60.5h17.6c7.4,0,13.5,2.5,18.3,7.4c4.8,4.9,7.2,11.3,7.2,19v7.8c0,7.8-2.4,14.1-7.2,19
		c-4.8,4.9-10.9,7.4-18.3,7.4H1680.8z M1685.8,225.3v52h12.6c6,0,10.9-2.1,14.8-6.3c3.9-4.2,5.8-9.5,5.8-15.9v-7.9
		c0-6.3-1.9-11.6-5.8-15.7c-3.9-4.2-8.8-6.3-14.8-6.3H1685.8z"/>
	<path d="M1770.8,252.3h-29.1v25.1h33.4v4.2h-38.3v-60.5h38.1v4.2h-33.2v22.7h29.1V252.3z"/>
	<path d="M727.4,398.4c0-6.7-2.5-12.2-7.5-16.4c-5-4.3-13.8-8-26.2-11.3c-13.5-3.4-23.7-7.8-30.6-13.2c-6.9-5.4-10.4-12.7-10.4-21.9
		c0-9.4,3.9-17.1,11.6-23c7.8-5.9,17.7-8.9,29.9-8.9c12.7,0,22.9,3.5,30.7,10.6c7.8,7.1,11.6,15.7,11.3,25.8l-0.3,0.5h-9.3
		c0-8.2-2.9-15-8.8-20.3c-5.8-5.3-13.8-8-23.7-8c-9.9,0-17.6,2.2-23.2,6.6c-5.6,4.4-8.3,9.9-8.3,16.4c0,6.2,2.6,11.4,7.7,15.5
		c5.1,4.1,14,7.8,26.6,11c13.3,3.4,23.3,8,30.3,13.7c6.9,5.8,10.4,13.3,10.4,22.8c0,9.8-4,17.6-12.1,23.4c-8,5.8-18.3,8.7-30.8,8.7
		c-12.3,0-23-3.1-32.2-9.3c-9.2-6.2-13.6-15.2-13.3-27l0.2-0.5h9.3c0,9.6,3.6,16.7,10.8,21.3c7.2,4.6,15.6,6.9,25.3,6.9
		c9.8,0,17.6-2.1,23.7-6.4C724.4,411.1,727.4,405.5,727.4,398.4z"/>
	<path d="M771.1,377.5v51.2h-10.1V305.4h42.4c12.9,0,22.9,3.3,30,9.9c7.1,6.6,10.6,15.3,10.6,26.1c0,10.9-3.5,19.7-10.6,26.2
		c-7.1,6.5-17.1,9.8-30,9.8H771.1z M771.1,368.8h32.3c10.2,0,17.8-2.6,22.9-7.7c5.1-5.2,7.7-11.7,7.7-19.5c0-7.9-2.5-14.5-7.6-19.7
		c-5.1-5.2-12.7-7.8-22.9-7.8h-32.3V368.8z"/>
	<path d="M937.7,369h-59.3v51h68v8.6h-78V305.4h77.6v8.6h-67.5v46.3h59.3V369z"/>
	<path d="M1037.6,369h-59.3v51h68v8.6h-78V305.4h77.6v8.6h-67.5v46.3h59.3V369z"/>
	<path d="M1068.1,428.7V305.4h35.8c15.1,0,27.5,5,37.3,15.1c9.8,10,14.7,22.9,14.7,38.7V375c0,15.8-4.9,28.7-14.7,38.7
		c-9.8,10-22.3,15-37.3,15H1068.1z M1078.2,314.1v106h25.7c12.2,0,22.2-4.3,30.1-12.8c7.9-8.5,11.8-19.3,11.8-32.3v-16.1
		c0-12.9-4-23.5-11.9-32.1c-7.9-8.5-17.9-12.8-30.1-12.8H1078.2z"/>
	<path d="M1266.8,390.2l0.2,0.5c-1.1,12.4-5.5,22.1-13.2,29.2c-7.7,7.1-18.1,10.6-31.1,10.6c-13.7,0-24.8-5-33.2-14.9
		c-8.4-9.9-12.6-22.7-12.6-38.5v-20.1c0-15.7,4.2-28.5,12.6-38.5c8.4-10,19.5-14.9,33.2-14.9c13.1,0,23.5,3.5,31.2,10.4
		c7.7,6.9,12,16.7,13.1,29.3l-0.2,0.5h-9.5c-1.4-10.2-4.9-18-10.5-23.4c-5.7-5.4-13.7-8.1-24.1-8.1c-10.8,0-19.4,4.2-25.9,12.5
		c-6.5,8.3-9.8,19-9.8,32.1v20.2c0,13.2,3.3,24,9.8,32.3c6.5,8.3,15.2,12.5,25.9,12.5c10.4,0,18.4-2.6,24.1-7.9
		c5.7-5.3,9.2-13.2,10.5-23.7H1266.8z"/>
	<path d="M1379.2,305.4V389c0,13.4-4.1,23.7-12.3,30.8c-8.2,7.1-18.9,10.7-32.1,10.7c-13,0-23.6-3.6-31.7-10.7
		c-8.1-7.1-12.1-17.4-12.1-30.8v-83.5h10.2v83.5c0,10.5,3.1,18.6,9.3,24.3c6.2,5.7,14.3,8.6,24.3,8.6c10.2,0,18.4-2.8,24.8-8.5
		c6.4-5.7,9.6-13.8,9.6-24.4v-83.5H1379.2z"/>
	<path d="M1409.3,428.7V305.4h36c12.8,0,22.8,2.7,29.9,8.1c7.1,5.4,10.7,13.5,10.7,24.3c0,6.3-1.8,11.8-5.4,16.5
		c-3.6,4.7-8.5,7.9-14.6,9.7c7.5,1.4,13.6,4.9,18.3,10.6c4.7,5.7,7,12.3,7,19.7c0,11-3.6,19.5-10.7,25.4c-7.1,5.9-16.7,8.9-28.7,8.9
		H1409.3z M1419.4,360.7h28.4c8.9,0,15.8-2,20.7-5.9c4.9-3.9,7.3-9.7,7.3-17.3c0-7.8-2.6-13.6-7.8-17.6c-5.2-3.9-12.8-5.9-22.7-5.9
		h-25.9V360.7z M1419.4,369.3v50.7h32.5c9.1,0,16.2-2.2,21.4-6.7c5.2-4.5,7.8-10.7,7.8-18.8c0-7.4-2.4-13.4-7.1-18.1
		c-4.7-4.7-11.6-7.1-20.5-7.1H1419.4z"/>
	<path d="M1529.1,428.7h-10.2V305.4h10.2V428.7z"/>
	<path d="M1654.4,428.7h-10.1l-70-106l-0.5,0.1v105.9h-10.2V305.4h10.2l70,105.8l0.5-0.1V305.4h10.1V428.7z"/>
	<path d="M1774.6,414c-2.8,4-7.8,7.7-15.1,11.2c-7.3,3.5-16.5,5.2-27.6,5.2c-14.3,0-26.1-4.9-35.3-14.6
		c-9.2-9.8-13.8-22.4-13.8-37.9v-22.6c0-15.2,4.4-27.7,13.1-37.2c8.7-9.6,20-14.4,33.9-14.4c13.3,0,23.6,3.3,31.1,9.9
		c7.5,6.6,11.8,15.3,13,25.9l-0.2,0.5h-9.4c-1.5-8.2-4.9-14.9-10.4-20c-5.5-5.1-13.5-7.7-24.1-7.7c-11.1,0-20,4-26.7,12
		c-6.7,8-10.1,18.3-10.1,30.8v22.8c0,12.9,3.6,23.4,10.8,31.6c7.2,8.2,16.5,12.3,28.1,12.3c8.2,0,15.1-1.1,20.9-3.4
		c5.7-2.3,9.6-4.8,11.7-7.5v-32.1h-32.8v-8.6h42.9V414z"/>
</g>
</svg>
