<?xml version="1.0" encoding="utf-8"?>
<!-- Generator: Adobe Illustrator 21.1.0, SVG Export Plug-In . SVG Version: 6.00 Build 0)  -->
<svg version="1.1" xmlns="http://www.w3.org/2000/svg" xmlns:xlink="http://www.w3.org/1999/xlink" x="0px" y="0px"
	 viewBox="0 0 1920.5 1080.5" style="enable-background:new 0 0 1920.5 1080.5;" xml:space="preserve">
<style type="text/css">
	.st0{fill:url(#SVGID_1_);}
	.st1{fill:url(#SVGID_2_);}
	.st2{fill:url(#SVGID_3_);}
	.st3{clip-path:url(#SVGID_5_);fill:url(#SVGID_6_);}
	.st4{clip-path:url(#SVGID_8_);fill:url(#SVGID_9_);}
	.st5{clip-path:url(#SVGID_11_);fill:url(#SVGID_12_);}
	.st6{opacity:0.5;}
	.st7{clip-path:url(#SVGID_14_);fill:none;stroke:#F2631C;stroke-width:1.5;stroke-miterlimit:10;}
	.st8{clip-path:url(#SVGID_16_);fill:none;stroke:#F2631C;stroke-width:1.5;stroke-miterlimit:10;}
	.st9{clip-path:url(#SVGID_18_);fill:none;stroke:#F2631C;stroke-width:1.5;stroke-miterlimit:10;}
	.st10{clip-path:url(#SVGID_20_);fill:none;stroke:#F2631C;stroke-width:1.5;stroke-miterlimit:10;}
	.st11{clip-path:url(#SVGID_22_);fill:none;stroke:#019F01;stroke-width:1.5;stroke-miterlimit:10;}
	.st12{clip-path:url(#SVGID_24_);fill:none;stroke:#019F01;stroke-width:1.5;stroke-miterlimit:10;}
	.st13{clip-path:url(#SVGID_26_);fill:none;stroke:#019F01;stroke-width:1.5;stroke-miterlimit:10;}
	.st14{clip-path:url(#SVGID_28_);fill:none;stroke:#019F01;stroke-width:1.5;stroke-miterlimit:10;}
	.st15{clip-path:url(#SVGID_30_);fill:none;stroke:#F2631C;stroke-width:1.5;stroke-miterlimit:10;}
	.st16{clip-path:url(#SVGID_32_);fill:none;stroke:#F2631C;stroke-width:1.5;stroke-miterlimit:10;}
	.st17{clip-path:url(#SVGID_34_);fill:none;stroke:#F2631C;stroke-width:1.5;stroke-miterlimit:10;}
	.st18{clip-path:url(#SVGID_36_);fill:none;stroke:#F2631C;stroke-width:1.5;stroke-miterlimit:10;}
	.st19{opacity:0.85;fill:#E57917;enable-background:new    ;}
	.st20{opacity:0.6;}
	.st21{opacity:0.85;}
	.st22{opacity:0.7;fill:#03050F;enable-background:new    ;}
	
		.st23{clip-path:url(#SVGID_38_);fill:none;stroke:#FFFFFF;stroke-width:3;stroke-linecap:round;stroke-linejoin:round;stroke-miterlimit:10;}
	
		.st24{clip-path:url(#SVGID_40_);fill:none;stroke:#FFFFFF;stroke-width:3;stroke-linecap:round;stroke-linejoin:round;stroke-miterlimit:10;}
	.st25{fill:#A84108;}
	.st26{fill:#EF1F1C;}
	.st27{fill:url(#Letter_x5F_A_1_);}
	.st28{fill:url(#Letter_x5F_F_2_);}
	.st29{clip-path:url(#SVGID_42_);fill:#9FA083;stroke:#FFFFFF;stroke-miterlimit:10;}
	.st30{clip-path:url(#SVGID_44_);fill:#9FA083;stroke:#FFFFFF;stroke-miterlimit:10;}
	.st31{clip-path:url(#SVGID_46_);fill:none;stroke:#FFFFFF;stroke-miterlimit:10;}
	.st32{display:none;clip-path:url(#SVGID_48_);fill:#9FA083;stroke:#FFFFFF;stroke-miterlimit:10;}
	.st33{opacity:0.75;enable-background:new    ;}
	.st34{clip-path:url(#SVGID_50_);fill:#100E56;}
	.st35{clip-path:url(#SVGID_52_);fill:#100E56;}
	.st36{fill:none;stroke:#FFFFFF;stroke-miterlimit:10;}
	.st37{clip-path:url(#SVGID_54_);fill:#2273C4;}
	.st38{clip-path:url(#SVGID_56_);fill:none;stroke:#CBD6EF;stroke-linecap:round;stroke-miterlimit:10;}
	.st39{clip-path:url(#SVGID_58_);fill:none;stroke:#CBD6EF;stroke-linecap:round;stroke-miterlimit:10;}
	.st40{clip-path:url(#SVGID_60_);fill:#A10201;}
	.st41{clip-path:url(#SVGID_62_);fill:#912323;}
	.st42{clip-path:url(#SVGID_64_);fill:none;stroke:#FFFFFF;stroke-linecap:round;stroke-miterlimit:10;}
	.st43{clip-path:url(#SVGID_66_);fill:none;stroke:#FFFFFF;stroke-linecap:round;stroke-miterlimit:10;}
	.st44{clip-path:url(#SVGID_68_);fill:none;stroke:#FFFFFF;stroke-linecap:round;stroke-miterlimit:10;}
	.st45{fill:#FFFFFF;stroke:#FFFFFF;stroke-width:3;stroke-miterlimit:10;}
</style>
<g id="Fond">
	<radialGradient id="SVGID_1_" cx="953.0173" cy="225.3474" r="1274.3185" gradientUnits="userSpaceOnUse">
		<stop  offset="0" style="stop-color:#EDEDED"/>
		<stop  offset="0.5615" style="stop-color:#DCDCDC"/>
		<stop  offset="1" style="stop-color:#949494"/>
	</radialGradient>
	<rect x="1.4" y="-0.3" class="st0" width="1920" height="1080"/>
	<radialGradient id="SVGID_2_" cx="950.6644" cy="225.4572" r="1274.3185" gradientUnits="userSpaceOnUse">
		<stop  offset="0" style="stop-color:#EDEDED"/>
		<stop  offset="0.5615" style="stop-color:#DCDCDC"/>
		<stop  offset="1" style="stop-color:#949494"/>
	</radialGradient>
	<rect x="-0.9" y="-0.1" class="st1" width="1920" height="1080"/>
	<radialGradient id="SVGID_3_" cx="951.8229" cy="226.3648" r="1274.3185" gradientUnits="userSpaceOnUse">
		<stop  offset="0" style="stop-color:#EDEDED"/>
		<stop  offset="0.5615" style="stop-color:#DCDCDC"/>
		<stop  offset="1" style="stop-color:#949494"/>
	</radialGradient>
	<rect x="0.2" y="0.8" class="st2" width="1920" height="1080"/>
</g>
<g id="Logo">
	<g id="Logo_x5F_All_x5F_Elements">
		<g id="InColor">
			<g>
				<g>
					<g>
						<defs>
							<path id="SVGID_4_" d="M972.8,804.3c-3.4-0.9-4.9-6.8-6.8-5.4c-2.1,1.2-3.5,3.1-5.4,3.2c-3.8,0-4.9-3.4-8-4.5
								c-1.7,2.4-2.3,6-6.6,6.3c-0.8-0.6-2.2-1.2-3.2-2.3c-5.2-5.3-10.3-10.7-15.5-16c-22.4-22.6-44.8-45.1-67.2-67.6
								c-1.8-1.8-3.9-3.4-4.5-3.9c-3-6.5-2.4-11.7-3.2-16.7c-2.5-3.1-4.8-6.1-7.2-9.1c-0.3-0.4-0.6-0.9-1-1.1
								c-7.5-4.7-12.9-11.6-19.1-17.7c-13.6-13.2-26.9-26.8-40.3-40.1c-7.5-7.4-15.1-14.6-22.5-22.1c-2.7-2.7-5.1-5.7-7.6-8.6
								c-0.7-0.8-1.2-1.8-2-2.3c-6-3.7-10.2-9.3-15.3-13.9c-0.5-0.5-1.3-0.8-1.9-1.2c-1.6,1.7-2.5,4-5.3,4c-0.3,0-0.5,0-0.8-0.1
								c-0.2-0.1-0.5-0.2-0.7-0.4c-18.3-18.3-34.9-37.4-53.5-55.9c-34-130.9-69.6-261.3-103.6-392.1c0.7-2.4,2.5-2.8,4.3-3.1
								c1.5-0.2,3.1,0.1,4.6,0c0.9-0.1,1.8-0.7,2.7-1.1c-1-2.4-1.9-4.4-2.6-6.5c-0.2-0.7,0-1.5,0-2.6c1.6-0.7,3.2-1.6,4.8-2
								c18.2-4.1,36.4-8.1,54.6-12.1c20-4.4,40-8.7,59.9-13.1c14.7-3.2,29.4-6.7,44.1-9.9c21.7-4.8,43.4-9.6,65.1-14.4
								c24.7-5.5,49.4-11.1,74.1-16.5c23.2-5.1,46.4-10.2,69.6-15.3c4.4-1,8.6-0.9,12.9,0.1c31.9,7.1,63.9,14.1,95.8,21.3
								c21.7,4.8,43.4,9.8,65.1,14.7c25.9,5.8,51.9,11.4,77.9,17.2c31.9,7.1,63.9,14.2,95.8,21.3c10.5,2.3,21,4.5,31.5,6.8
								c2.2,0.5,4.4,1.3,6.2,1.8c2,3.6-0.8,6.3-0.8,9.6c0.9,0.5,1.9,1.3,3,1.6c1.2,0.2,2.5-0.3,3.7-0.1c1.2,0.2,2.4,0.7,3.3,1
								c1.3,2.4,0.5,4.4,0,6.3c-5.4,21-11,42-16.4,63.1c-4.6,17.8-9.2,35.6-13.9,53.4c-0.5,2-1.2,3.9-1.8,5.7
								c-3.4,2.6-6.7,5-10.2,7.6c-0.9,2.8-1.7,5.7-2.7,8.6c-0.9,2.7-1.7,5.3-2.6,8c-0.3,1-1,1.9-1.1,2.9c0,6-2.4,14.9-3.3,20.7
								c-0.1,0.7,0,0.8,0.1,1.6c2.2,0.8,4.7-1.2,6.7-0.5c0.7,2.7-0.3,4.9-0.8,7c-4.7,18.3-9.5,36.6-14.3,54.9
								c-11.1,42.8-22.1,85.6-33.2,128.4c-2.2,8.4-4.5,16.8-6.8,25.5c-1.6,1.6-3.3,3.5-5.1,5.3c-10.3,10.4-20.6,20.7-30.9,31.1
								c-49.2,49.7-98.4,99.4-147.6,149.2c-28.1,28.4-56.2,56.9-84.3,85.3C977,801.6,975.4,803.1,972.8,804.3z"/>
						</defs>
						<clipPath id="SVGID_5_">
							<use xlink:href="#SVGID_4_"  style="overflow:visible;"/>
						</clipPath>
						
							<radialGradient id="SVGID_6_" cx="957.9154" cy="268.046" r="288.4555" gradientTransform="matrix(1 0 0 1 0 62)" gradientUnits="userSpaceOnUse">
							<stop  offset="0" style="stop-color:#FFE800"/>
							<stop  offset="1" style="stop-color:#FFDA00"/>
						</radialGradient>
						<path class="st3" d="M972.9,804.9c-3.4-0.9-4.7-4-6.8-6.3c-2.1,1.2-4,2.3-5.4,3.2c-3.8,0-4.9-3.4-8-4.5
							c-2.5,0.3-2.3,4.8-6.6,5.2c-0.8-0.6-1.5-0.7-2.5-1.8c-5.2-5.3-11-10-16.2-15.3c-22.4-22.6-44.8-45.1-67.2-67.6
							c-1.8-1.8-3.9-3.4-4.5-3.9c-3-6.5-2.4-11.7-3.2-16.7c-2.5-3.1-4.8-6.1-7.2-9.1c-0.3-0.4-0.6-0.9-1-1.1
							c-7.5-4.7-12.9-11.6-19.1-17.7c-13.6-13.2-26.7-26.9-40.1-40.2c-7.5-7.4-14.9-14.8-22.3-22.2c-2.7-2.7-5.1-5.8-7.6-8.6
							c-0.7-0.8-1.4-1.7-2.2-2.2c-6-3.7-10.2-9.3-15.3-13.9c-0.5-0.5-2.3-1.7-2.9-2.1c-1.6,1.7-1.9,4.7-4.6,4.7
							c-0.3,0-0.5,0-0.8-0.1c-0.2-0.1-0.5-0.2-0.7-0.4c-18.3-18.3-36.5-36.1-55.1-54.6c-33.9-131.2-67.9-262.3-101.8-393.2
							c0.7-2.4,2.5-2.8,4.3-3.1c1.5-0.2,3.1,0.1,4.6,0c0.9-0.1,1.8-0.7,2.7-1.1c-1-2.4-1.9-4.4-2.6-6.5c-0.2-0.7,0-1.5,0-2.6
							c1.6-0.7,3.2-1.6,4.8-2c18.2-4.1,36.4-8.1,54.6-12.1c20-4.4,40-8.7,59.9-13.1c14.7-3.2,29.4-6.7,44.1-9.9
							c21.7-4.8,43.4-9.6,65.1-14.4c24.7-5.5,49.4-11.1,74.1-16.5c23.2-5.1,46.4-10.2,69.6-15.3c4.4-1,8.6-0.9,12.9,0.1
							c31.9,7.1,63.9,14.1,95.8,21.3c21.7,4.8,43.4,9.8,65.1,14.7c25.9,5.8,51.9,11.4,77.9,17.2c31.9,7.1,63.9,14.2,95.8,21.3
							c10.5,2.3,21,4.5,31.5,6.8c2.2,0.5,4.4,1.3,6.2,1.8c2,3.6-0.8,6.3-0.8,9.6c0.9,0.5,1.9,1.3,3,1.6c1.2,0.2,2.5-0.3,3.7-0.1
							c1.2,0.2,2.4,0.7,3.3,1c1.3,2.4,0.5,4.4,0,6.3c-5.4,21-11,42-16.4,63.1c-4.6,17.8-9.2,35.6-13.9,53.4c-0.5,2-1.2,3.9-1.8,5.7
							c-3.4,2.6-6.7,5-10.2,7.6c-0.9,2.8-1.7,5.7-2.7,8.6c-0.9,2.7-1.7,5.3-2.6,8c-0.3,1-1,1.9-1.1,2.9c0,6-2.2,11.5-3.2,17.3
							c-0.1,0.7,0.2,1.5,0.3,2.2c2.2,0.8,4.3,1.6,6.3,2.3c0.7,2.7-0.3,4.9-0.8,7c-4.7,18.3-9.5,36.6-14.3,54.9
							c-11.1,42.8-22.1,85.6-33.2,128.4c-2.2,8.4-4.5,16.8-6.8,25.5c-1.6,1.6-3.3,3.5-5.1,5.3c-10.3,10.4-20.6,20.7-30.9,31.1
							c-49.2,49.7-98.4,99.4-147.6,149.2c-28.1,28.4-56.2,56.9-84.3,85.3C977.1,801.4,975.5,803.7,972.9,804.9z"/>
					</g>
				</g>
				<g>
					<g>
						<defs>
							<path id="SVGID_7_" d="M972.8,804.3c-3.4-0.9-4.9-6.8-6.8-5.4c-2.1,1.2-3.5,3.1-5.4,3.2c-3.8,0-4.9-3.4-8-4.5
								c-1.7,2.4-2.3,6-6.6,6.3c-0.8-0.6-2.2-1.2-3.2-2.3c-5.2-5.3-10.3-10.7-15.5-16c-22.4-22.6-44.8-45.1-67.2-67.6
								c-1.8-1.8-3.9-3.4-4.5-3.9c-3-6.5-2.4-11.7-3.2-16.7c-2.5-3.1-4.8-6.1-7.2-9.1c-0.3-0.4-0.6-0.9-1-1.1
								c-7.5-4.7-12.9-11.6-19.1-17.7c-13.6-13.2-26.9-26.8-40.3-40.1c-7.5-7.4-15.1-14.6-22.5-22.1c-2.7-2.7-5.1-5.7-7.6-8.6
								c-0.7-0.8-1.2-1.8-2-2.3c-6-3.7-10.2-9.3-15.3-13.9c-0.5-0.5-1.3-0.8-1.9-1.2c-1.6,1.7-2.5,4-5.3,4c-0.3,0-0.5,0-0.8-0.1
								c-0.2-0.1-0.5-0.2-0.7-0.4c-18.3-18.3-34.9-37.4-53.5-55.9c-34-130.9-69.6-261.3-103.6-392.1c0.7-2.4,2.5-2.8,4.3-3.1
								c1.5-0.2,3.1,0.1,4.6,0c0.9-0.1,1.8-0.7,2.7-1.1c-1-2.4-1.9-4.4-2.6-6.5c-0.2-0.7,0-1.5,0-2.6c1.6-0.7,3.2-1.6,4.8-2
								c18.2-4.1,36.4-8.1,54.6-12.1c20-4.4,40-8.7,59.9-13.1c14.7-3.2,29.4-6.7,44.1-9.9c21.7-4.8,43.4-9.6,65.1-14.4
								c24.7-5.5,49.4-11.1,74.1-16.5c23.2-5.1,46.4-10.2,69.6-15.3c4.4-1,8.6-0.9,12.9,0.1c31.9,7.1,63.9,14.1,95.8,21.3
								c21.7,4.8,43.4,9.8,65.1,14.7c25.9,5.8,51.9,11.4,77.9,17.2c31.9,7.1,63.9,14.2,95.8,21.3c10.5,2.3,21,4.5,31.5,6.8
								c2.2,0.5,4.4,1.3,6.2,1.8c2,3.6-0.8,6.3-0.8,9.6c0.9,0.5,1.9,1.3,3,1.6c1.2,0.2,2.5-0.3,3.7-0.1c1.2,0.2,2.4,0.7,3.3,1
								c1.3,2.4,0.5,4.4,0,6.3c-5.4,21-11,42-16.4,63.1c-4.6,17.8-9.2,35.6-13.9,53.4c-0.5,2-1.2,3.9-1.8,5.7
								c-3.4,2.6-6.7,5-10.2,7.6c-0.9,2.8-1.7,5.7-2.7,8.6c-0.9,2.7-1.7,5.3-2.6,8c-0.3,1-1,1.9-1.1,2.9c0,6-2.4,14.9-3.3,20.7
								c-0.1,0.7,0,0.8,0.1,1.6c2.2,0.8,4.7-1.2,6.7-0.5c0.7,2.7-0.3,4.9-0.8,7c-4.7,18.3-9.5,36.6-14.3,54.9
								c-11.1,42.8-22.1,85.6-33.2,128.4c-2.2,8.4-4.5,16.8-6.8,25.5c-1.6,1.6-3.3,3.5-5.1,5.3c-10.3,10.4-20.6,20.7-30.9,31.1
								c-49.2,49.7-98.4,99.4-147.6,149.2c-28.1,28.4-56.2,56.9-84.3,85.3C977,801.6,975.4,803.1,972.8,804.3z"/>
						</defs>
						<clipPath id="SVGID_8_">
							<use xlink:href="#SVGID_7_"  style="overflow:visible;"/>
						</clipPath>
						
							<radialGradient id="SVGID_9_" cx="958.3895" cy="269.4684" r="350.1449" gradientTransform="matrix(1 0 0 1 0 62)" gradientUnits="userSpaceOnUse">
							<stop  offset="0" style="stop-color:#FFD924"/>
							<stop  offset="1" style="stop-color:#FF7D00"/>
						</radialGradient>
						<polygon class="st4" points="950.9,332.4 1365.9,119.4 1342.6,260.6 1259.9,572.2 956.2,831.6 						"/>
					</g>
				</g>
			</g>
			<g id="In_x5F_Green">
				<g>
					<g>
						<defs>
							<polygon id="SVGID_10_" points="571.9,127.2 959.6,328.5 959.6,833.9 504.1,761.9 153.6,214.4 431.1,13.4 							"/>
						</defs>
						<clipPath id="SVGID_11_">
							<use xlink:href="#SVGID_10_"  style="overflow:visible;"/>
						</clipPath>
						
							<radialGradient id="SVGID_12_" cx="958.9079" cy="268.3616" r="349.943" gradientTransform="matrix(1 0 0 1 0 62)" gradientUnits="userSpaceOnUse">
							<stop  offset="0" style="stop-color:#00FF00"/>
							<stop  offset="1" style="stop-color:#31BE31"/>
						</radialGradient>
						<path class="st5" d="M972.9,805.2c-3.4-0.9-4.7-4-6.8-6.3c-2.1,1.2-4,2.3-5.4,3.1c-3.8,0-5-3-8-4.5c-0.1,0.1-0.7,0.7-1.1,0.9
							c-0.8-0.6-5.9-0.2-6.9-1.2c-5.2-5.3-8.9-10-14.1-15.3c-22.4-22.6-46-42.6-68.4-65.2c-1.8-1.8-3.5-4.6-4.2-5.2
							c-3-6.5-4.7-9.3-5.4-14.2c-2.5-3.1-4.8-6.1-7.2-9.1c-0.3-0.4-0.6-0.9-1-1.1c-7.5-4.7-12.9-11.6-19.1-17.7
							c-13.6-13.2-26.9-26.8-40.3-40.1c-7.5-7.4-15.1-14.6-22.5-22.1c-2.7-2.7-5.1-5.7-7.6-8.6c-0.7-0.8-1.2-1.8-2-2.3
							c-6-3.7-10.2-9.3-15.3-13.9c-0.5-0.5-1.9-1.4-2.5-1.8c-1.9,1.2-0.9,0.4-3.7,0.3c-0.3,0-2.2,3.6-2.4,3.5
							c-0.2-0.1-0.5-0.2-0.7-0.4c-18.3-18.3-35.3-36.5-53.9-55.1c-34.1-130.7-68.7-261.2-102.6-392.1c0.7-2.4,2.5-2.8,4.3-3.1
							c1.5-0.2,3.1,0.1,4.6,0c0.9-0.1,1.8-0.7,2.7-1.1c-1-2.4-1.9-4.4-2.6-6.5c-0.2-0.7,0-1.5,0-2.6c1.6-0.7,3.2-1.6,4.8-2
							c18.2-4.1,36.4-8.1,54.6-12.1c20-4.4,40-8.7,59.9-13.1c14.7-3.2,29.4-6.7,44.1-9.9c21.7-4.8,43.4-9.6,65.1-14.4
							c24.7-5.5,49.4-11,74.1-16.5c23.2-5.1,46.4-10.2,69.6-15.3c4.4-1,8.6-0.9,12.9,0.1c31.9,7.1,63.9,14.1,95.8,21.3
							c21.7,4.8,43.4,9.8,65.1,14.7c25.9,5.8,51.9,11.4,77.9,17.2c31.9,7.1,63.9,14.2,95.8,21.3c10.5,2.3,21,4.5,31.5,6.8
							c2.2,0.5,4.4,1.3,6.2,1.8c2,3.6-0.8,6.3-0.8,9.6c0.9,0.5,1.9,1.3,3,1.6c1.2,0.2,2.5-0.3,3.7-0.1c1.2,0.2,2.4,0.7,3.3,1
							c1.3,2.4,0.5,4.4,0,6.3c-5.4,21-11,42-16.4,63.1c-4.6,17.8-9.2,35.6-13.9,53.4c-0.5,2-1.2,3.9-1.8,5.7
							c-3.4,2.6-6.7,5-10.2,7.6c-0.9,2.8-1.7,5.7-2.7,8.6c-0.9,2.7-1.7,5.3-2.6,8c-0.3,1-1,1.9-1.1,2.9c0,6-2.2,11.5-3.2,17.3
							c-0.1,0.7,0.2,1.5,0.3,2.2c2.2,0.8,4.3,1.6,6.3,2.3c0.7,2.7-0.3,4.9-0.8,7c-4.7,18.3-9.5,36.6-14.3,54.9
							c-11.1,42.8-22.1,85.6-33.2,128.4c-2.2,8.4-4.5,16.8-6.8,25.5c-1.6,1.6-3.3,3.5-5.1,5.3c-10.3,10.4-20.6,20.7-30.9,31.1
							c-49.2,49.7-98.4,99.4-147.6,149.2c-28.1,28.4-56.2,56.9-84.3,85.3C977.1,801.7,975.5,804,972.9,805.2z"/>
					</g>
				</g>
			</g>
		</g>
		<g id="Traits_x5F_Jaunes" class="st6">
			<g>
				<g>
					<g>
						<defs>
							<path id="SVGID_13_" d="M972.8,804.4c-3.4-0.9-3.8-4.6-6.9-5.5c-2.1,1.2-3.5,3.1-5.4,3.2c-3.8,0-4.9-3.4-8-4.5
								c-1.7,2.4-2.3,6-6.6,6.3c-0.8-0.6-2.2-1.2-3.2-2.3c-5.2-5.3-10.3-10.7-15.5-16C904.8,763,882.4,740.5,860,718
								c-1.8-1.8-3.9-3.4-4.5-3.9c-3-6.5-2.4-11.7-3.2-16.7c-2.5-3.1-4.8-6.1-7.2-9.1c-0.3-0.4-0.6-0.9-1-1.1
								c-7.5-4.7-12.9-11.6-19.1-17.7c-13.6-13.2-26.9-26.8-40.3-40.1c-7.5-7.4-15.1-14.6-22.5-22.1c-2.7-2.7-5.1-5.7-7.6-8.6
								c-0.7-0.8-1.2-1.8-2-2.3c-6-3.7-10.2-9.3-15.3-13.9c-0.5-0.5-1.3-0.8-1.9-1.2c-1.6,1.7-2.5,4-5.3,4c-0.3,0-0.5,0-0.8-0.1
								c-0.2-0.1-0.5-0.2-0.7-0.4c-18.3-18.3-35.8-37.1-54.3-55.7c-34-130.9-68.7-261.5-102.7-392.3c0.7-2.4,2.5-2.8,4.3-3.1
								c1.5-0.2,3.1,0.1,4.6,0c0.9-0.1,1.8-0.7,2.7-1.1c-1-2.4-1.9-4.4-2.6-6.5c-0.2-0.7,0-1.5,0-2.6c1.6-0.7,3.2-1.6,4.8-2
								c18.2-4.1,36.4-8.1,54.6-12.1c20-4.4,40-8.7,59.9-13.1c14.7-3.2,29.4-6.7,44.1-9.9c21.7-4.8,43.4-9.6,65.1-14.4
								c24.7-5.5,49.4-11.1,74.1-16.5c23.2-5.1,46.4-10.2,69.6-15.3c4.4-1,8.6-0.9,12.9,0.1c31.9,7.1,63.9,14.1,95.8,21.3
								c21.7,4.8,43.4,9.8,65.1,14.7c25.9,5.8,51.9,11.4,77.9,17.2c31.9,7.1,63.9,14.2,95.8,21.3c10.5,2.3,21,4.5,31.5,6.8
								c2.2,0.5,4.4,1.3,6.2,1.8c2,3.6-0.8,6.3-0.8,9.6c0.9,0.5,1.9,1.3,3,1.6c1.2,0.2,2.5-0.3,3.7-0.1c1.2,0.2,2.4,0.7,3.3,1
								c1.3,2.4,0.5,4.4,0,6.3c-5.4,21-11,42-16.4,63.1c-4.6,17.8-9.2,35.6-13.9,53.4c-0.5,2-1.2,3.9-1.8,5.7
								c-3.4,2.6-6.7,5-10.2,7.6c-0.9,2.8-1.7,5.7-2.7,8.6c-0.9,2.7-1.7,5.3-2.6,8c-0.3,1-1,1.9-1.1,2.9c0,6-2.2,11.5-3.2,17.3
								c-0.1,0.7,0.2,1.5,0.3,2.2c2.2,0.8,4.3,1.6,6.3,2.3c0.7,2.7-0.3,4.9-0.8,7c-4.7,18.3-9.5,36.6-14.3,54.9
								c-11.1,42.8-22.1,85.6-33.2,128.4c-2.2,8.4-4.5,16.8-6.8,25.5c-1.6,1.6-3.3,3.5-5.1,5.3c-10.3,10.4-20.6,20.7-30.9,31.1
								c-49.2,49.7-98.4,99.4-147.6,149.2c-28.1,28.4-56.2,56.9-84.3,85.3C977,801.6,975.4,803.2,972.8,804.4z"/>
						</defs>
						<clipPath id="SVGID_14_">
							<use xlink:href="#SVGID_13_"  style="overflow:visible;"/>
						</clipPath>
						<line class="st7" x1="641.9" y1="188.2" x2="1089.2" y2="60.9"/>
					</g>
				</g>
				<g>
					<g>
						<defs>
							<path id="SVGID_15_" d="M972.8,804.4c-3.4-0.9-3.8-4.6-6.9-5.5c-2.1,1.2-3.5,3.1-5.4,3.2c-3.8,0-4.9-3.4-8-4.5
								c-1.7,2.4-2.3,6-6.6,6.3c-0.8-0.6-2.2-1.2-3.2-2.3c-5.2-5.3-10.3-10.7-15.5-16C904.8,763,882.4,740.5,860,718
								c-1.8-1.8-3.9-3.4-4.5-3.9c-3-6.5-2.4-11.7-3.2-16.7c-2.5-3.1-4.8-6.1-7.2-9.1c-0.3-0.4-0.6-0.9-1-1.1
								c-7.5-4.7-12.9-11.6-19.1-17.7c-13.6-13.2-26.9-26.8-40.3-40.1c-7.5-7.4-15.1-14.6-22.5-22.1c-2.7-2.7-5.1-5.7-7.6-8.6
								c-0.7-0.8-1.2-1.8-2-2.3c-6-3.7-10.2-9.3-15.3-13.9c-0.5-0.5-1.3-0.8-1.9-1.2c-1.6,1.7-2.5,4-5.3,4c-0.3,0-0.5,0-0.8-0.1
								c-0.2-0.1-0.5-0.2-0.7-0.4c-18.3-18.3-35.8-37.1-54.3-55.7c-34-130.9-68.7-261.5-102.7-392.3c0.7-2.4,2.5-2.8,4.3-3.1
								c1.5-0.2,3.1,0.1,4.6,0c0.9-0.1,1.8-0.7,2.7-1.1c-1-2.4-1.9-4.4-2.6-6.5c-0.2-0.7,0-1.5,0-2.6c1.6-0.7,3.2-1.6,4.8-2
								c18.2-4.1,36.4-8.1,54.6-12.1c20-4.4,40-8.7,59.9-13.1c14.7-3.2,29.4-6.7,44.1-9.9c21.7-4.8,43.4-9.6,65.1-14.4
								c24.7-5.5,49.4-11.1,74.1-16.5c23.2-5.1,46.4-10.2,69.6-15.3c4.4-1,8.6-0.9,12.9,0.1c31.9,7.1,63.9,14.1,95.8,21.3
								c21.7,4.8,43.4,9.8,65.1,14.7c25.9,5.8,51.9,11.4,77.9,17.2c31.9,7.1,63.9,14.2,95.8,21.3c10.5,2.3,21,4.5,31.5,6.8
								c2.2,0.5,4.4,1.3,6.2,1.8c2,3.6-0.8,6.3-0.8,9.6c0.9,0.5,1.9,1.3,3,1.6c1.2,0.2,2.5-0.3,3.7-0.1c1.2,0.2,2.4,0.7,3.3,1
								c1.3,2.4,0.5,4.4,0,6.3c-5.4,21-11,42-16.4,63.1c-4.6,17.8-9.2,35.6-13.9,53.4c-0.5,2-1.2,3.9-1.8,5.7
								c-3.4,2.6-6.7,5-10.2,7.6c-0.9,2.8-1.7,5.7-2.7,8.6c-0.9,2.7-1.7,5.3-2.6,8c-0.3,1-1,1.9-1.1,2.9c0,6-2.2,11.5-3.2,17.3
								c-0.1,0.7,0.2,1.5,0.3,2.2c2.2,0.8,4.3,1.6,6.3,2.3c0.7,2.7-0.3,4.9-0.8,7c-4.7,18.3-9.5,36.6-14.3,54.9
								c-11.1,42.8-22.1,85.6-33.2,128.4c-2.2,8.4-4.5,16.8-6.8,25.5c-1.6,1.6-3.3,3.5-5.1,5.3c-10.3,10.4-20.6,20.7-30.9,31.1
								c-49.2,49.7-98.4,99.4-147.6,149.2c-28.1,28.4-56.2,56.9-84.3,85.3C977,801.6,975.4,803.2,972.8,804.4z"/>
						</defs>
						<clipPath id="SVGID_16_">
							<use xlink:href="#SVGID_15_"  style="overflow:visible;"/>
						</clipPath>
						<line class="st8" x1="769.2" y1="250.9" x2="1219.2" y2="86.2"/>
					</g>
				</g>
				<g>
					<g>
						<defs>
							<path id="SVGID_17_" d="M972.8,804.4c-3.4-0.9-3.8-4.6-6.9-5.5c-2.1,1.2-3.5,3.1-5.4,3.2c-3.8,0-4.9-3.4-8-4.5
								c-1.7,2.4-2.3,6-6.6,6.3c-0.8-0.6-2.2-1.2-3.2-2.3c-5.2-5.3-10.3-10.7-15.5-16C904.8,763,882.4,740.5,860,718
								c-1.8-1.8-3.9-3.4-4.5-3.9c-3-6.5-2.4-11.7-3.2-16.7c-2.5-3.1-4.8-6.1-7.2-9.1c-0.3-0.4-0.6-0.9-1-1.1
								c-7.5-4.7-12.9-11.6-19.1-17.7c-13.6-13.2-26.9-26.8-40.3-40.1c-7.5-7.4-15.1-14.6-22.5-22.1c-2.7-2.7-5.1-5.7-7.6-8.6
								c-0.7-0.8-1.2-1.8-2-2.3c-6-3.7-10.2-9.3-15.3-13.9c-0.5-0.5-1.3-0.8-1.9-1.2c-1.6,1.7-2.5,4-5.3,4c-0.3,0-0.5,0-0.8-0.1
								c-0.2-0.1-0.5-0.2-0.7-0.4c-18.3-18.3-35.8-37.1-54.3-55.7c-34-130.9-68.7-261.5-102.7-392.3c0.7-2.4,2.5-2.8,4.3-3.1
								c1.5-0.2,3.1,0.1,4.6,0c0.9-0.1,1.8-0.7,2.7-1.1c-1-2.4-1.9-4.4-2.6-6.5c-0.2-0.7,0-1.5,0-2.6c1.6-0.7,3.2-1.6,4.8-2
								c18.2-4.1,36.4-8.1,54.6-12.1c20-4.4,40-8.7,59.9-13.1c14.7-3.2,29.4-6.7,44.1-9.9c21.7-4.8,43.4-9.6,65.1-14.4
								c24.7-5.5,49.4-11.1,74.1-16.5c23.2-5.1,46.4-10.2,69.6-15.3c4.4-1,8.6-0.9,12.9,0.1c31.9,7.1,63.9,14.1,95.8,21.3
								c21.7,4.8,43.4,9.8,65.1,14.7c25.9,5.8,51.9,11.4,77.9,17.2c31.9,7.1,63.9,14.2,95.8,21.3c10.5,2.3,21,4.5,31.5,6.8
								c2.2,0.5,4.4,1.3,6.2,1.8c2,3.6-0.8,6.3-0.8,9.6c0.9,0.5,1.9,1.3,3,1.6c1.2,0.2,2.5-0.3,3.7-0.1c1.2,0.2,2.4,0.7,3.3,1
								c1.3,2.4,0.5,4.4,0,6.3c-5.4,21-11,42-16.4,63.1c-4.6,17.8-9.2,35.6-13.9,53.4c-0.5,2-1.2,3.9-1.8,5.7
								c-3.4,2.6-6.7,5-10.2,7.6c-0.9,2.8-1.7,5.7-2.7,8.6c-0.9,2.7-1.7,5.3-2.6,8c-0.3,1-1,1.9-1.1,2.9c0,6-2.2,11.5-3.2,17.3
								c-0.1,0.7,0.2,1.5,0.3,2.2c2.2,0.8,4.3,1.6,6.3,2.3c0.7,2.7-0.3,4.9-0.8,7c-4.7,18.3-9.5,36.6-14.3,54.9
								c-11.1,42.8-22.1,85.6-33.2,128.4c-2.2,8.4-4.5,16.8-6.8,25.5c-1.6,1.6-3.3,3.5-5.1,5.3c-10.3,10.4-20.6,20.7-30.9,31.1
								c-49.2,49.7-98.4,99.4-147.6,149.2c-28.1,28.4-56.2,56.9-84.3,85.3C977,801.6,975.4,803.2,972.8,804.4z"/>
						</defs>
						<clipPath id="SVGID_18_">
							<use xlink:href="#SVGID_17_"  style="overflow:visible;"/>
						</clipPath>
						<line class="st9" x1="1155.9" y1="253.6" x2="656.6" y2="68.9"/>
					</g>
				</g>
				<g>
					<g>
						<defs>
							<path id="SVGID_19_" d="M972.8,804.4c-3.4-0.9-3.8-4.6-6.9-5.5c-2.1,1.2-3.5,3.1-5.4,3.2c-3.8,0-4.9-3.4-8-4.5
								c-1.7,2.4-2.3,6-6.6,6.3c-0.8-0.6-2.2-1.2-3.2-2.3c-5.2-5.3-10.3-10.7-15.5-16C904.8,763,882.4,740.5,860,718
								c-1.8-1.8-3.9-3.4-4.5-3.9c-3-6.5-2.4-11.7-3.2-16.7c-2.5-3.1-4.8-6.1-7.2-9.1c-0.3-0.4-0.6-0.9-1-1.1
								c-7.5-4.7-12.9-11.6-19.1-17.7c-13.6-13.2-26.9-26.8-40.3-40.1c-7.5-7.4-15.1-14.6-22.5-22.1c-2.7-2.7-5.1-5.7-7.6-8.6
								c-0.7-0.8-1.2-1.8-2-2.3c-6-3.7-10.2-9.3-15.3-13.9c-0.5-0.5-1.3-0.8-1.9-1.2c-1.6,1.7-2.5,4-5.3,4c-0.3,0-0.5,0-0.8-0.1
								c-0.2-0.1-0.5-0.2-0.7-0.4c-18.3-18.3-35.8-37.1-54.3-55.7c-34-130.9-68.7-261.5-102.7-392.3c0.7-2.4,2.5-2.8,4.3-3.1
								c1.5-0.2,3.1,0.1,4.6,0c0.9-0.1,1.8-0.7,2.7-1.1c-1-2.4-1.9-4.4-2.6-6.5c-0.2-0.7,0-1.5,0-2.6c1.6-0.7,3.2-1.6,4.8-2
								c18.2-4.1,36.4-8.1,54.6-12.1c20-4.4,40-8.7,59.9-13.1c14.7-3.2,29.4-6.7,44.1-9.9c21.7-4.8,43.4-9.6,65.1-14.4
								c24.7-5.5,49.4-11.1,74.1-16.5c23.2-5.1,46.4-10.2,69.6-15.3c4.4-1,8.6-0.9,12.9,0.1c31.9,7.1,63.9,14.1,95.8,21.3
								c21.7,4.8,43.4,9.8,65.1,14.7c25.9,5.8,51.9,11.4,77.9,17.2c31.9,7.1,63.9,14.2,95.8,21.3c10.5,2.3,21,4.5,31.5,6.8
								c2.2,0.5,4.4,1.3,6.2,1.8c2,3.6-0.8,6.3-0.8,9.6c0.9,0.5,1.9,1.3,3,1.6c1.2,0.2,2.5-0.3,3.7-0.1c1.2,0.2,2.4,0.7,3.3,1
								c1.3,2.4,0.5,4.4,0,6.3c-5.4,21-11,42-16.4,63.1c-4.6,17.8-9.2,35.6-13.9,53.4c-0.5,2-1.2,3.9-1.8,5.7
								c-3.4,2.6-6.7,5-10.2,7.6c-0.9,2.8-1.7,5.7-2.7,8.6c-0.9,2.7-1.7,5.3-2.6,8c-0.3,1-1,1.9-1.1,2.9c0,6-2.2,11.5-3.2,17.3
								c-0.1,0.7,0.2,1.5,0.3,2.2c2.2,0.8,4.3,1.6,6.3,2.3c0.7,2.7-0.3,4.9-0.8,7c-4.7,18.3-9.5,36.6-14.3,54.9
								c-11.1,42.8-22.1,85.6-33.2,128.4c-2.2,8.4-4.5,16.8-6.8,25.5c-1.6,1.6-3.3,3.5-5.1,5.3c-10.3,10.4-20.6,20.7-30.9,31.1
								c-49.2,49.7-98.4,99.4-147.6,149.2c-28.1,28.4-56.2,56.9-84.3,85.3C977,801.6,975.4,803.2,972.8,804.4z"/>
						</defs>
						<clipPath id="SVGID_20_">
							<use xlink:href="#SVGID_19_"  style="overflow:visible;"/>
						</clipPath>
						<line class="st10" x1="1275.9" y1="188.2" x2="775.2" y2="45.6"/>
					</g>
				</g>
			</g>
		</g>
		<g id="Traits_x5F_Verts">
			<g>
				<g>
					<g>
						<defs>
							<path id="SVGID_21_" d="M972.8,804.3c-3.4-0.9-3.7-4.3-6.8-5.4c-2.1,1.2-3.5,3.1-5.4,3.2c-3.8,0-4.9-3.4-8-4.5
								c-1.7,2.4-2.3,6-6.6,6.3c-0.8-0.6-1.8-1.5-2.8-2.6c-5.2-5.3-10.7-10.4-15.9-15.7c-22.4-22.6-44.8-45.1-67.2-67.6
								c-1.8-1.8-3.9-3.4-4.5-3.9c-3-6.5-2.4-11.7-3.2-16.7c-2.5-3.1-4.8-6.1-7.2-9.1c-0.3-0.4-0.6-0.9-1-1.1
								c-7.5-4.7-12.9-11.6-19.1-17.7c-13.6-13.2-26.9-26.8-40.3-40.1c-7.5-7.4-15.1-14.6-22.5-22.1c-2.7-2.7-5.1-5.7-7.6-8.6
								c-0.7-0.8-1.2-1.8-2-2.3c-6-3.7-10.2-9.3-15.3-13.9c-0.5-0.5-1.3-0.8-1.9-1.2c-1.6,1.7-2.5,4-5.3,4c-0.3,0-0.5,0-0.8-0.1
								c-0.2-0.1-0.5-0.2-0.7-0.4c-18.3-18.3-35.4-37.4-53.9-56c-34.1-130.9-69.2-261.2-103.2-392c0.7-2.4,2.5-2.8,4.3-3.1
								c1.5-0.2,3.1,0.1,4.6,0c0.9-0.1,1.8-0.7,2.7-1.1c-1-2.4-1.9-4.4-2.6-6.5c-0.2-0.7,0-1.5,0-2.6c1.6-0.7,3.2-1.6,4.8-2
								c18.2-4.1,36.4-8.1,54.6-12.1c20-4.4,40-8.7,59.9-13.1c14.7-3.2,29.4-6.7,44.1-9.9c21.7-4.8,43.4-9.6,65.1-14.4
								c24.7-5.5,49.4-11.1,74.1-16.5c23.2-5.1,46.4-10.2,69.6-15.3c4.4-1,8.6-0.9,12.9,0.1c31.9,7.1,63.9,14.1,95.8,21.3
								c21.7,4.8,43.4,9.8,65.1,14.7c25.9,5.8,51.9,11.4,77.9,17.2c31.9,7.1,63.9,14.2,95.8,21.3c10.5,2.3,21,4.5,31.5,6.8
								c2.2,0.5,4.4,1.3,6.2,1.8c2,3.6-0.8,6.3-0.8,9.6c0.9,0.5,1.9,1.3,3,1.6c1.2,0.2,2.5-0.3,3.7-0.1c1.2,0.2,2.4,0.7,3.3,1
								c1.3,2.4,0.5,4.4,0,6.3c-5.4,21-11,42-16.4,63.1c-4.6,17.8-9.2,35.6-13.9,53.4c-0.5,2-1.2,3.9-1.8,5.7
								c-3.4,2.6-6.7,5-10.2,7.6c-0.9,2.8-1.7,5.7-2.7,8.6c-0.9,2.7-1.7,5.3-2.6,8c-0.3,1-1,1.9-1.1,2.9c0,6-2.2,11.5-3.2,17.3
								c-0.1,0.7,0.2,1.5,0.3,2.2c2.2,0.8,4.3,1.6,6.3,2.3c0.7,2.7-0.3,4.9-0.8,7c-4.7,18.3-9.5,36.6-14.3,54.9
								c-11.1,42.8-22.1,85.6-33.2,128.4c-2.2,8.4-4.5,16.8-6.8,25.5c-1.6,1.6-3.3,3.5-5.1,5.3c-10.3,10.4-20.6,20.7-30.9,31.1
								c-49.2,49.7-98.4,99.4-147.6,149.2c-28.1,28.4-56.2,56.9-84.3,85.3C977,801.6,975.4,803.1,972.8,804.3z"/>
						</defs>
						<clipPath id="SVGID_22_">
							<use xlink:href="#SVGID_21_"  style="overflow:visible;"/>
						</clipPath>
						<line class="st11" x1="449.2" y1="243.2" x2="960.1" y2="686.9"/>
					</g>
				</g>
				<g>
					<g>
						<defs>
							<path id="SVGID_23_" d="M972.8,804.3c-3.4-0.9-3.7-4.3-6.8-5.4c-2.1,1.2-3.5,3.1-5.4,3.2c-3.8,0-4.9-3.4-8-4.5
								c-1.7,2.4-2.3,6-6.6,6.3c-0.8-0.6-1.8-1.5-2.8-2.6c-5.2-5.3-10.7-10.4-15.9-15.7c-22.4-22.6-44.8-45.1-67.2-67.6
								c-1.8-1.8-3.9-3.4-4.5-3.9c-3-6.5-2.4-11.7-3.2-16.7c-2.5-3.1-4.8-6.1-7.2-9.1c-0.3-0.4-0.6-0.9-1-1.1
								c-7.5-4.7-12.9-11.6-19.1-17.7c-13.6-13.2-26.9-26.8-40.3-40.1c-7.5-7.4-15.1-14.6-22.5-22.1c-2.7-2.7-5.1-5.7-7.6-8.6
								c-0.7-0.8-1.2-1.8-2-2.3c-6-3.7-10.2-9.3-15.3-13.9c-0.5-0.5-1.3-0.8-1.9-1.2c-1.6,1.7-2.5,4-5.3,4c-0.3,0-0.5,0-0.8-0.1
								c-0.2-0.1-0.5-0.2-0.7-0.4c-18.3-18.3-35.4-37.4-53.9-56c-34.1-130.9-69.2-261.2-103.2-392c0.7-2.4,2.5-2.8,4.3-3.1
								c1.5-0.2,3.1,0.1,4.6,0c0.9-0.1,1.8-0.7,2.7-1.1c-1-2.4-1.9-4.4-2.6-6.5c-0.2-0.7,0-1.5,0-2.6c1.6-0.7,3.2-1.6,4.8-2
								c18.2-4.1,36.4-8.1,54.6-12.1c20-4.4,40-8.7,59.9-13.1c14.7-3.2,29.4-6.7,44.1-9.9c21.7-4.8,43.4-9.6,65.1-14.4
								c24.7-5.5,49.4-11.1,74.1-16.5c23.2-5.1,46.4-10.2,69.6-15.3c4.4-1,8.6-0.9,12.9,0.1c31.9,7.1,63.9,14.1,95.8,21.3
								c21.7,4.8,43.4,9.8,65.1,14.7c25.9,5.8,51.9,11.4,77.9,17.2c31.9,7.1,63.9,14.2,95.8,21.3c10.5,2.3,21,4.5,31.5,6.8
								c2.2,0.5,4.4,1.3,6.2,1.8c2,3.6-0.8,6.3-0.8,9.6c0.9,0.5,1.9,1.3,3,1.6c1.2,0.2,2.5-0.3,3.7-0.1c1.2,0.2,2.4,0.7,3.3,1
								c1.3,2.4,0.5,4.4,0,6.3c-5.4,21-11,42-16.4,63.1c-4.6,17.8-9.2,35.6-13.9,53.4c-0.5,2-1.2,3.9-1.8,5.7
								c-3.4,2.6-6.7,5-10.2,7.6c-0.9,2.8-1.7,5.7-2.7,8.6c-0.9,2.7-1.7,5.3-2.6,8c-0.3,1-1,1.9-1.1,2.9c0,6-2.2,11.5-3.2,17.3
								c-0.1,0.7,0.2,1.5,0.3,2.2c2.2,0.8,4.3,1.6,6.3,2.3c0.7,2.7-0.3,4.9-0.8,7c-4.7,18.3-9.5,36.6-14.3,54.9
								c-11.1,42.8-22.1,85.6-33.2,128.4c-2.2,8.4-4.5,16.8-6.8,25.5c-1.6,1.6-3.3,3.5-5.1,5.3c-10.3,10.4-20.6,20.7-30.9,31.1
								c-49.2,49.7-98.4,99.4-147.6,149.2c-28.1,28.4-56.2,56.9-84.3,85.3C977,801.6,975.4,803.1,972.8,804.3z"/>
						</defs>
						<clipPath id="SVGID_24_">
							<use xlink:href="#SVGID_23_"  style="overflow:visible;"/>
						</clipPath>
						<line class="st12" x1="530.6" y1="222.9" x2="960.2" y2="533.9"/>
					</g>
				</g>
				<g>
					<g>
						<defs>
							<path id="SVGID_25_" d="M972.8,804.3c-3.4-0.9-3.7-4.3-6.8-5.4c-2.1,1.2-3.5,3.1-5.4,3.2c-3.8,0-4.9-3.4-8-4.5
								c-1.7,2.4-2.3,6-6.6,6.3c-0.8-0.6-1.8-1.5-2.8-2.6c-5.2-5.3-10.7-10.4-15.9-15.7c-22.4-22.6-44.8-45.1-67.2-67.6
								c-1.8-1.8-3.9-3.4-4.5-3.9c-3-6.5-2.4-11.7-3.2-16.7c-2.5-3.1-4.8-6.1-7.2-9.1c-0.3-0.4-0.6-0.9-1-1.1
								c-7.5-4.7-12.9-11.6-19.1-17.7c-13.6-13.2-26.9-26.8-40.3-40.1c-7.5-7.4-15.1-14.6-22.5-22.1c-2.7-2.7-5.1-5.7-7.6-8.6
								c-0.7-0.8-1.2-1.8-2-2.3c-6-3.7-10.2-9.3-15.3-13.9c-0.5-0.5-1.3-0.8-1.9-1.2c-1.6,1.7-2.5,4-5.3,4c-0.3,0-0.5,0-0.8-0.1
								c-0.2-0.1-0.5-0.2-0.7-0.4c-18.3-18.3-35.4-37.4-53.9-56c-34.1-130.9-69.2-261.2-103.2-392c0.7-2.4,2.5-2.8,4.3-3.1
								c1.5-0.2,3.1,0.1,4.6,0c0.9-0.1,1.8-0.7,2.7-1.1c-1-2.4-1.9-4.4-2.6-6.5c-0.2-0.7,0-1.5,0-2.6c1.6-0.7,3.2-1.6,4.8-2
								c18.2-4.1,36.4-8.1,54.6-12.1c20-4.4,40-8.7,59.9-13.1c14.7-3.2,29.4-6.7,44.1-9.9c21.7-4.8,43.4-9.6,65.1-14.4
								c24.7-5.5,49.4-11.1,74.1-16.5c23.2-5.1,46.4-10.2,69.6-15.3c4.4-1,8.6-0.9,12.9,0.1c31.9,7.1,63.9,14.1,95.8,21.3
								c21.7,4.8,43.4,9.8,65.1,14.7c25.9,5.8,51.9,11.4,77.9,17.2c31.9,7.1,63.9,14.2,95.8,21.3c10.5,2.3,21,4.5,31.5,6.8
								c2.2,0.5,4.4,1.3,6.2,1.8c2,3.6-0.8,6.3-0.8,9.6c0.9,0.5,1.9,1.3,3,1.6c1.2,0.2,2.5-0.3,3.7-0.1c1.2,0.2,2.4,0.7,3.3,1
								c1.3,2.4,0.5,4.4,0,6.3c-5.4,21-11,42-16.4,63.1c-4.6,17.8-9.2,35.6-13.9,53.4c-0.5,2-1.2,3.9-1.8,5.7
								c-3.4,2.6-6.7,5-10.2,7.6c-0.9,2.8-1.7,5.7-2.7,8.6c-0.9,2.7-1.7,5.3-2.6,8c-0.3,1-1,1.9-1.1,2.9c0,6-2.2,11.5-3.2,17.3
								c-0.1,0.7,0.2,1.5,0.3,2.2c2.2,0.8,4.3,1.6,6.3,2.3c0.7,2.7-0.3,4.9-0.8,7c-4.7,18.3-9.5,36.6-14.3,54.9
								c-11.1,42.8-22.1,85.6-33.2,128.4c-2.2,8.4-4.5,16.8-6.8,25.5c-1.6,1.6-3.3,3.5-5.1,5.3c-10.3,10.4-20.6,20.7-30.9,31.1
								c-49.2,49.7-98.4,99.4-147.6,149.2c-28.1,28.4-56.2,56.9-84.3,85.3C977,801.6,975.4,803.1,972.8,804.3z"/>
						</defs>
						<clipPath id="SVGID_26_">
							<use xlink:href="#SVGID_25_"  style="overflow:visible;"/>
						</clipPath>
						<line class="st13" x1="801.1" y1="306.1" x2="846.2" y2="698.6"/>
					</g>
				</g>
				<g>
					<g>
						<defs>
							<path id="SVGID_27_" d="M972.8,804.3c-3.4-0.9-3.7-4.3-6.8-5.4c-2.1,1.2-3.5,3.1-5.4,3.2c-3.8,0-4.9-3.4-8-4.5
								c-1.7,2.4-2.3,6-6.6,6.3c-0.8-0.6-1.8-1.5-2.8-2.6c-5.2-5.3-10.7-10.4-15.9-15.7c-22.4-22.6-44.8-45.1-67.2-67.6
								c-1.8-1.8-3.9-3.4-4.5-3.9c-3-6.5-2.4-11.7-3.2-16.7c-2.5-3.1-4.8-6.1-7.2-9.1c-0.3-0.4-0.6-0.9-1-1.1
								c-7.5-4.7-12.9-11.6-19.1-17.7c-13.6-13.2-26.9-26.8-40.3-40.1c-7.5-7.4-15.1-14.6-22.5-22.1c-2.7-2.7-5.1-5.7-7.6-8.6
								c-0.7-0.8-1.2-1.8-2-2.3c-6-3.7-10.2-9.3-15.3-13.9c-0.5-0.5-1.3-0.8-1.9-1.2c-1.6,1.7-2.5,4-5.3,4c-0.3,0-0.5,0-0.8-0.1
								c-0.2-0.1-0.5-0.2-0.7-0.4c-18.3-18.3-35.4-37.4-53.9-56c-34.1-130.9-69.2-261.2-103.2-392c0.7-2.4,2.5-2.8,4.3-3.1
								c1.5-0.2,3.1,0.1,4.6,0c0.9-0.1,1.8-0.7,2.7-1.1c-1-2.4-1.9-4.4-2.6-6.5c-0.2-0.7,0-1.5,0-2.6c1.6-0.7,3.2-1.6,4.8-2
								c18.2-4.1,36.4-8.1,54.6-12.1c20-4.4,40-8.7,59.9-13.1c14.7-3.2,29.4-6.7,44.1-9.9c21.7-4.8,43.4-9.6,65.1-14.4
								c24.7-5.5,49.4-11.1,74.1-16.5c23.2-5.1,46.4-10.2,69.6-15.3c4.4-1,8.6-0.9,12.9,0.1c31.9,7.1,63.9,14.1,95.8,21.3
								c21.7,4.8,43.4,9.8,65.1,14.7c25.9,5.8,51.9,11.4,77.9,17.2c31.9,7.1,63.9,14.2,95.8,21.3c10.5,2.3,21,4.5,31.5,6.8
								c2.2,0.5,4.4,1.3,6.2,1.8c2,3.6-0.8,6.3-0.8,9.6c0.9,0.5,1.9,1.3,3,1.6c1.2,0.2,2.5-0.3,3.7-0.1c1.2,0.2,2.4,0.7,3.3,1
								c1.3,2.4,0.5,4.4,0,6.3c-5.4,21-11,42-16.4,63.1c-4.6,17.8-9.2,35.6-13.9,53.4c-0.5,2-1.2,3.9-1.8,5.7
								c-3.4,2.6-6.7,5-10.2,7.6c-0.9,2.8-1.7,5.7-2.7,8.6c-0.9,2.7-1.7,5.3-2.6,8c-0.3,1-1,1.9-1.1,2.9c0,6-2.2,11.5-3.2,17.3
								c-0.1,0.7,0.2,1.5,0.3,2.2c2.2,0.8,4.3,1.6,6.3,2.3c0.7,2.7-0.3,4.9-0.8,7c-4.7,18.3-9.5,36.6-14.3,54.9
								c-11.1,42.8-22.1,85.6-33.2,128.4c-2.2,8.4-4.5,16.8-6.8,25.5c-1.6,1.6-3.3,3.5-5.1,5.3c-10.3,10.4-20.6,20.7-30.9,31.1
								c-49.2,49.7-98.4,99.4-147.6,149.2c-28.1,28.4-56.2,56.9-84.3,85.3C977,801.6,975.4,803.1,972.8,804.3z"/>
						</defs>
						<clipPath id="SVGID_28_">
							<use xlink:href="#SVGID_27_"  style="overflow:visible;"/>
						</clipPath>
						<line class="st14" x1="684.9" y1="244.5" x2="756.4" y2="612.4"/>
					</g>
				</g>
			</g>
		</g>
		<g id="Traits_x5F_Orange">
			<g>
				<g>
					<g>
						<defs>
							<path id="SVGID_29_" d="M972.7,804.1c-3.4-0.9-3.8-4.8-6.8-5.2c-2.1,1.2-3.4,3.1-5.4,3.2c-3.8,0-4.9-3.4-8-4.5
								c-1.7,2.4-2.3,6-6.6,6.3c-0.8-0.6-1.7-1.7-2.7-2.7c-5.2-5.3-10.8-10.3-16-15.6C904.8,763,882.4,740.5,860,718
								c-1.8-1.8-3.9-3.4-4.5-3.9c-3-6.5-2.4-11.7-3.2-16.7c-2.5-3.1-4.8-6.1-7.2-9.1c-0.3-0.4-0.6-0.9-1-1.1
								c-7.5-4.7-12.9-11.6-19.1-17.7c-13.6-13.2-26.9-26.8-40.3-40.1c-7.5-7.4-15.1-14.6-22.5-22.1c-2.7-2.7-5.1-5.7-7.6-8.6
								c-0.7-0.8-1.2-1.8-2-2.3c-6-3.7-10.2-9.3-15.3-13.9c-0.5-0.5-1.3-0.8-1.9-1.2c-1.6,1.7-2.5,4-5.3,4c-0.3,0-0.5,0-0.8-0.1
								c-0.2-0.1-0.5-0.2-0.7-0.4c-18.3-18.3-35.6-37.6-54.1-56.1c-33.9-130.9-68.9-261.1-102.9-391.9c0.7-2.4,2.5-2.8,4.3-3.1
								c1.5-0.2,3.1,0.1,4.6,0c0.9-0.1,1.8-0.7,2.7-1.1c-1-2.4-1.9-4.4-2.6-6.5c-0.2-0.7,0-1.5,0-2.6c1.6-0.7,3.2-1.6,4.8-2
								c18.2-4.1,36.4-8.1,54.6-12.1c20-4.4,40-8.7,59.9-13.1c14.7-3.2,29.4-6.7,44.1-9.9c21.7-4.8,43.4-9.6,65.1-14.4
								c24.7-5.5,49.4-11.1,74.1-16.5c23.2-5.1,46.4-10.2,69.6-15.3c4.4-1,8.6-0.9,12.9,0.1c31.9,7.1,63.9,14.1,95.8,21.3
								c21.7,4.8,43.4,9.8,65.1,14.7c25.9,5.8,51.9,11.4,77.9,17.2c31.9,7.1,63.9,14.2,95.8,21.3c10.5,2.3,21,4.5,31.5,6.8
								c2.2,0.5,4.4,1.3,6.2,1.8c2,3.6-0.8,6.3-0.8,9.6c0.9,0.5,1.9,1.3,3,1.6c1.2,0.2,2.5-0.3,3.7-0.1c1.2,0.2,2.4,0.7,3.3,1
								c1.3,2.4,0.5,4.4,0,6.3c-5.4,21-11,42-16.4,63.1c-4.6,17.8-9.2,35.6-13.9,53.4c-0.5,2-1.2,3.9-1.8,5.7
								c-3.4,2.6-6.7,5-10.2,7.6c-0.9,2.8-1.7,5.7-2.7,8.6c-0.9,2.7-1.7,5.3-2.6,8c-0.3,1-1,1.9-1.1,2.9c0,6-2.2,11.5-3.2,17.3
								c-0.1,0.7,0.2,1.5,0.3,2.2c2.2,0.8,4.3,1.6,6.3,2.3c0.7,2.7-0.3,4.9-0.8,7c-4.7,18.3-9.5,36.6-14.3,54.9
								c-11.1,42.8-22.1,85.6-33.2,128.4c-2.2,8.4-4.5,16.8-6.8,25.5c-1.6,1.6-3.3,3.5-5.1,5.3c-10.3,10.4-20.6,20.7-30.9,31.1
								c-49.2,49.7-98.4,99.4-147.6,149.2c-28.1,28.4-56.2,56.9-84.3,85.3C977,801.6,975.4,802.9,972.7,804.1z"/>
						</defs>
						<clipPath id="SVGID_30_">
							<use xlink:href="#SVGID_29_"  style="overflow:visible;"/>
						</clipPath>
						<line class="st15" x1="1470.3" y1="243.2" x2="959.4" y2="686.9"/>
					</g>
				</g>
				<g>
					<g>
						<defs>
							<path id="SVGID_31_" d="M972.7,804.1c-3.4-0.9-3.8-4.8-6.8-5.2c-2.1,1.2-3.4,3.1-5.4,3.2c-3.8,0-4.9-3.4-8-4.5
								c-1.7,2.4-2.3,6-6.6,6.3c-0.8-0.6-1.7-1.7-2.7-2.7c-5.2-5.3-10.8-10.3-16-15.6C904.8,763,882.4,740.5,860,718
								c-1.8-1.8-3.9-3.4-4.5-3.9c-3-6.5-2.4-11.7-3.2-16.7c-2.5-3.1-4.8-6.1-7.2-9.1c-0.3-0.4-0.6-0.9-1-1.1
								c-7.5-4.7-12.9-11.6-19.1-17.7c-13.6-13.2-26.9-26.8-40.3-40.1c-7.5-7.4-15.1-14.6-22.5-22.1c-2.7-2.7-5.1-5.7-7.6-8.6
								c-0.7-0.8-1.2-1.8-2-2.3c-6-3.7-10.2-9.3-15.3-13.9c-0.5-0.5-1.3-0.8-1.9-1.2c-1.6,1.7-2.5,4-5.3,4c-0.3,0-0.5,0-0.8-0.1
								c-0.2-0.1-0.5-0.2-0.7-0.4c-18.3-18.3-35.6-37.6-54.1-56.1c-33.9-130.9-68.9-261.1-102.9-391.9c0.7-2.4,2.5-2.8,4.3-3.1
								c1.5-0.2,3.1,0.1,4.6,0c0.9-0.1,1.8-0.7,2.7-1.1c-1-2.4-1.9-4.4-2.6-6.5c-0.2-0.7,0-1.5,0-2.6c1.6-0.7,3.2-1.6,4.8-2
								c18.2-4.1,36.4-8.1,54.6-12.1c20-4.4,40-8.7,59.9-13.1c14.7-3.2,29.4-6.7,44.1-9.9c21.7-4.8,43.4-9.6,65.1-14.4
								c24.7-5.5,49.4-11.1,74.1-16.5c23.2-5.1,46.4-10.2,69.6-15.3c4.4-1,8.6-0.9,12.9,0.1c31.9,7.1,63.9,14.1,95.8,21.3
								c21.7,4.8,43.4,9.8,65.1,14.7c25.9,5.8,51.9,11.4,77.9,17.2c31.9,7.1,63.9,14.2,95.8,21.3c10.5,2.3,21,4.5,31.5,6.8
								c2.2,0.5,4.4,1.3,6.2,1.8c2,3.6-0.8,6.3-0.8,9.6c0.9,0.5,1.9,1.3,3,1.6c1.2,0.2,2.5-0.3,3.7-0.1c1.2,0.2,2.4,0.7,3.3,1
								c1.3,2.4,0.5,4.4,0,6.3c-5.4,21-11,42-16.4,63.1c-4.6,17.8-9.2,35.6-13.9,53.4c-0.5,2-1.2,3.9-1.8,5.7
								c-3.4,2.6-6.7,5-10.2,7.6c-0.9,2.8-1.7,5.7-2.7,8.6c-0.9,2.7-1.7,5.3-2.6,8c-0.3,1-1,1.9-1.1,2.9c0,6-2.2,11.5-3.2,17.3
								c-0.1,0.7,0.2,1.5,0.3,2.2c2.2,0.8,4.3,1.6,6.3,2.3c0.7,2.7-0.3,4.9-0.8,7c-4.7,18.3-9.5,36.6-14.3,54.9
								c-11.1,42.8-22.1,85.6-33.2,128.4c-2.2,8.4-4.5,16.8-6.8,25.5c-1.6,1.6-3.3,3.5-5.1,5.3c-10.3,10.4-20.6,20.7-30.9,31.1
								c-49.2,49.7-98.4,99.4-147.6,149.2c-28.1,28.4-56.2,56.9-84.3,85.3C977,801.6,975.4,802.9,972.7,804.1z"/>
						</defs>
						<clipPath id="SVGID_32_">
							<use xlink:href="#SVGID_31_"  style="overflow:visible;"/>
						</clipPath>
						<line class="st16" x1="1388.9" y1="222.9" x2="959.3" y2="533.9"/>
					</g>
				</g>
				<g>
					<g>
						<defs>
							<path id="SVGID_33_" d="M972.7,804.1c-3.4-0.9-3.8-4.8-6.8-5.2c-2.1,1.2-3.4,3.1-5.4,3.2c-3.8,0-4.9-3.4-8-4.5
								c-1.7,2.4-2.3,6-6.6,6.3c-0.8-0.6-1.7-1.7-2.7-2.7c-5.2-5.3-10.8-10.3-16-15.6C904.8,763,882.4,740.5,860,718
								c-1.8-1.8-3.9-3.4-4.5-3.9c-3-6.5-2.4-11.7-3.2-16.7c-2.5-3.1-4.8-6.1-7.2-9.1c-0.3-0.4-0.6-0.9-1-1.1
								c-7.5-4.7-12.9-11.6-19.1-17.7c-13.6-13.2-26.9-26.8-40.3-40.1c-7.5-7.4-15.1-14.6-22.5-22.1c-2.7-2.7-5.1-5.7-7.6-8.6
								c-0.7-0.8-1.2-1.8-2-2.3c-6-3.7-10.2-9.3-15.3-13.9c-0.5-0.5-1.3-0.8-1.9-1.2c-1.6,1.7-2.5,4-5.3,4c-0.3,0-0.5,0-0.8-0.1
								c-0.2-0.1-0.5-0.2-0.7-0.4c-18.3-18.3-35.6-37.6-54.1-56.1c-33.9-130.9-68.9-261.1-102.9-391.9c0.7-2.4,2.5-2.8,4.3-3.1
								c1.5-0.2,3.1,0.1,4.6,0c0.9-0.1,1.8-0.7,2.7-1.1c-1-2.4-1.9-4.4-2.6-6.5c-0.2-0.7,0-1.5,0-2.6c1.6-0.7,3.2-1.6,4.8-2
								c18.2-4.1,36.4-8.1,54.6-12.1c20-4.4,40-8.7,59.9-13.1c14.7-3.2,29.4-6.7,44.1-9.9c21.7-4.8,43.4-9.6,65.1-14.4
								c24.7-5.5,49.4-11.1,74.1-16.5c23.2-5.1,46.4-10.2,69.6-15.3c4.4-1,8.6-0.9,12.9,0.1c31.9,7.1,63.9,14.1,95.8,21.3
								c21.7,4.8,43.4,9.8,65.1,14.7c25.9,5.8,51.9,11.4,77.9,17.2c31.9,7.1,63.9,14.2,95.8,21.3c10.5,2.3,21,4.5,31.5,6.8
								c2.2,0.5,4.4,1.3,6.2,1.8c2,3.6-0.8,6.3-0.8,9.6c0.9,0.5,1.9,1.3,3,1.6c1.2,0.2,2.5-0.3,3.7-0.1c1.2,0.2,2.4,0.7,3.3,1
								c1.3,2.4,0.5,4.4,0,6.3c-5.4,21-11,42-16.4,63.1c-4.6,17.8-9.2,35.6-13.9,53.4c-0.5,2-1.2,3.9-1.8,5.7
								c-3.4,2.6-6.7,5-10.2,7.6c-0.9,2.8-1.7,5.7-2.7,8.6c-0.9,2.7-1.7,5.3-2.6,8c-0.3,1-1,1.9-1.1,2.9c0,6-2.2,11.5-3.2,17.3
								c-0.1,0.7,0.2,1.5,0.3,2.2c2.2,0.8,4.3,1.6,6.3,2.3c0.7,2.7-0.3,4.9-0.8,7c-4.7,18.3-9.5,36.6-14.3,54.9
								c-11.1,42.8-22.1,85.6-33.2,128.4c-2.2,8.4-4.5,16.8-6.8,25.5c-1.6,1.6-3.3,3.5-5.1,5.3c-10.3,10.4-20.6,20.7-30.9,31.1
								c-49.2,49.7-98.4,99.4-147.6,149.2c-28.1,28.4-56.2,56.9-84.3,85.3C977,801.6,975.4,802.9,972.7,804.1z"/>
						</defs>
						<clipPath id="SVGID_34_">
							<use xlink:href="#SVGID_33_"  style="overflow:visible;"/>
						</clipPath>
						<line class="st17" x1="1118.4" y1="306.1" x2="1073.3" y2="698.6"/>
					</g>
				</g>
				<g>
					<g>
						<defs>
							<path id="SVGID_35_" d="M972.7,804.1c-3.4-0.9-3.8-4.8-6.8-5.2c-2.1,1.2-3.4,3.1-5.4,3.2c-3.8,0-4.9-3.4-8-4.5
								c-1.7,2.4-2.3,6-6.6,6.3c-0.8-0.6-1.7-1.7-2.7-2.7c-5.2-5.3-10.8-10.3-16-15.6C904.8,763,882.4,740.5,860,718
								c-1.8-1.8-3.9-3.4-4.5-3.9c-3-6.5-2.4-11.7-3.2-16.7c-2.5-3.1-4.8-6.1-7.2-9.1c-0.3-0.4-0.6-0.9-1-1.1
								c-7.5-4.7-12.9-11.6-19.1-17.7c-13.6-13.2-26.9-26.8-40.3-40.1c-7.5-7.4-15.1-14.6-22.5-22.1c-2.7-2.7-5.1-5.7-7.6-8.6
								c-0.7-0.8-1.2-1.8-2-2.3c-6-3.7-10.2-9.3-15.3-13.9c-0.5-0.5-1.3-0.8-1.9-1.2c-1.6,1.7-2.5,4-5.3,4c-0.3,0-0.5,0-0.8-0.1
								c-0.2-0.1-0.5-0.2-0.7-0.4c-18.3-18.3-35.6-37.6-54.1-56.1c-33.9-130.9-68.9-261.1-102.9-391.9c0.7-2.4,2.5-2.8,4.3-3.1
								c1.5-0.2,3.1,0.1,4.6,0c0.9-0.1,1.8-0.7,2.7-1.1c-1-2.4-1.9-4.4-2.6-6.5c-0.2-0.7,0-1.5,0-2.6c1.6-0.7,3.2-1.6,4.8-2
								c18.2-4.1,36.4-8.1,54.6-12.1c20-4.4,40-8.7,59.9-13.1c14.7-3.2,29.4-6.7,44.1-9.9c21.7-4.8,43.4-9.6,65.1-14.4
								c24.7-5.5,49.4-11.1,74.1-16.5c23.2-5.1,46.4-10.2,69.6-15.3c4.4-1,8.6-0.9,12.9,0.1c31.9,7.1,63.9,14.1,95.8,21.3
								c21.7,4.8,43.4,9.8,65.1,14.7c25.9,5.8,51.9,11.4,77.9,17.2c31.9,7.1,63.9,14.2,95.8,21.3c10.5,2.3,21,4.5,31.5,6.8
								c2.2,0.5,4.4,1.3,6.2,1.8c2,3.6-0.8,6.3-0.8,9.6c0.9,0.5,1.9,1.3,3,1.6c1.2,0.2,2.5-0.3,3.7-0.1c1.2,0.2,2.4,0.7,3.3,1
								c1.3,2.4,0.5,4.4,0,6.3c-5.4,21-11,42-16.4,63.1c-4.6,17.8-9.2,35.6-13.9,53.4c-0.5,2-1.2,3.9-1.8,5.7
								c-3.4,2.6-6.7,5-10.2,7.6c-0.9,2.8-1.7,5.7-2.7,8.6c-0.9,2.7-1.7,5.3-2.6,8c-0.3,1-1,1.9-1.1,2.9c0,6-2.2,11.5-3.2,17.3
								c-0.1,0.7,0.2,1.5,0.3,2.2c2.2,0.8,4.3,1.6,6.3,2.3c0.7,2.7-0.3,4.9-0.8,7c-4.7,18.3-9.5,36.6-14.3,54.9
								c-11.1,42.8-22.1,85.6-33.2,128.4c-2.2,8.4-4.5,16.8-6.8,25.5c-1.6,1.6-3.3,3.5-5.1,5.3c-10.3,10.4-20.6,20.7-30.9,31.1
								c-49.2,49.7-98.4,99.4-147.6,149.2c-28.1,28.4-56.2,56.9-84.3,85.3C977,801.6,975.4,802.9,972.7,804.1z"/>
						</defs>
						<clipPath id="SVGID_36_">
							<use xlink:href="#SVGID_35_"  style="overflow:visible;"/>
						</clipPath>
						<line class="st18" x1="1234.6" y1="244.5" x2="1163.1" y2="612.4"/>
					</g>
				</g>
			</g>
		</g>
	</g>
	<g id="Reflections">
		<path id="Letter_x5F_F_1_" class="st19" d="M916.9,105.1c14.8,4.2,29.5,8.4,44.3,12.5c27.1,7.7,54.3,15.3,81.4,23
			c2,0.6,4.2,0.8,4,3.7c-0.2,2.8,0.2,5.3-3.6,6.7c-34.2,12.2-57.7,20.7-91.9,32.9c-1.9,0.7-4.6,0.5-6.6-0.3
			c-45.1-16.2-90.2-32.5-135.3-48.7c-2.4-0.9-5.6-1-8.1-0.4c-51,13.6-90.3,23.4-141.2,37.2c-3.1,0.8-5.6,0.6-8.4-0.9
			c-22.3-11.5-44.8-22.8-67.1-34.3c-1.3-0.7-2.9-1.5-3.6-2.7c-3-4.5-1.7-6.8,3.5-8c98.1-21.6,196.2-43.3,294.3-65
			c3.2-0.7,28.4-6.4,77-17c2.3-0.5,4.9-0.5,7.2,0c101,22.3,201.9,44.8,302.9,67.2c23.3,5.2,46.5,10.3,69.8,15.6
			c1.7,0.4,4,0.8,4.6,2.8c1.4,5.1-0.3,5.6-3.5,7.1c-8.4,4.1-16.7,8.4-25,12.7c-14.3,7.3-28.6,14.5-42.8,21.9
			c-2.8,1.5-5.3,1.7-8.4,0.9c-78.9-21.4-157.8-42.7-236.7-64c-20.4-5.5-40.6-11-60.7-16.4c-1.3-0.4-2.8-0.8-4.1-0.5
			c-6.6,1.6-35.3,11.3-41.8,13C917,104.5,917,104.8,916.9,105.1z"/>
	</g>
	<g id="Contact_x5F_Shadow" class="st20">
		<path id="Letter_x5F_F_x5F_ContactShadow" d="M917,101.1c14.8,4.2,29.5,8.4,44.3,12.5c27.1,7.7,54.3,15.3,81.4,23
			c2,0.6,4.2,0.8,4,3.7c-0.2,2.8,0.2,5.3-3.6,6.7c-34.2,12.2-57.7,20.7-91.9,32.9c-1.9,0.7-4.6,0.5-6.6-0.3
			c-45.1-16.2-90.2-32.5-135.3-48.7c-2.4-0.9-5.6-1-8.1-0.4c-51,13.6-90.3,23.4-141.2,37.2c-3.1,0.8-5.6,0.6-8.4-0.9
			c-22.3-11.5-44.8-22.8-67.1-34.3c-1.3-0.7-5.6-2.8-4.9-4c2.5-4.6,7.1,2.4,12.3,1.3c98-21.6,188.6-51.3,286.7-73
			c3.2-0.7,28.4-6.4,77-17c2.3-0.5,4.9-0.5,7.2,0c101,22.3,201.9,44.8,302.9,67.2c23.3,5.2,46.5,10.3,69.8,15.6
			c1.7,0.4,3.5,2.1,3.6,3.1c-0.1,2.7,0.7,5.3-2.5,6.8c-8.4,4.1-16.7,8.4-25,12.7c-14.3,7.3-28.6,14.5-42.8,21.9
			c-2.8,1.5-5.3,1.7-8.4,0.9c-78.9-21.4-157.8-42.7-236.7-64c-20.4-5.5-40.6-11-60.7-16.4c-1.3-0.4-2.8-0.8-4.1-0.5
			c-6.6,1.6-35.3,11.3-41.8,13C917,100.5,917,100.8,917,101.1z"/>
	</g>
	<g id="Shadow_1_" class="st21">
		<path id="Letter_x5F_A_x5F_Shadow" class="st22" d="M714.3,470.1c2.6,12.3,5,23.7,7.5,35.1c5.2,24.2,9.9,46,15.1,70.2
			c0.6,2.7-0.1,4.3-2.5,5.7c-2.5,1.5-3.3,2.3-4.8,0.8c-17.2-17.4-34.5-34.8-51.6-52.3c-1.3-1.3-2.3-3.1-2.7-4.9
			C641.6,395.5,608.1,266.2,574.7,137c-0.4-1.5-0.2-4.6,0.4-4.7c2.4-0.7,4.7,0,6.8,0.9c6.8,3,13.3,6.6,19.9,10
			C716.1,202.4,830.6,261.1,945,320.3c3.5,1.8,5.8,3,5.8,7.1c1.4,155.4,2.9,307,4.4,462.4c0,3-0.1,5.7-2.6,8c-2.4,2.2-3.9,2-6-0.2
			c-12.9-13.2-26-22.6-39-35.7c-16.1-16.2-32.2-32.4-48.1-48.8c-1.6-1.7-2.9-4.3-3.2-6.6c-4.8-40.5-9.4-81-14.1-121.5
			c-0.2-1.7-1.4-3.6-2.7-4.7c-28.7-25.4-57.5-50.7-86.3-76.1c-11.7-10.3-23.5-20.7-35.2-31C716.9,472.3,715.9,471.5,714.3,470.1z
			 M681.4,314.5c0,0.9-0.1,1.5,0,2c2.6,12.4,5.2,24.8,8.1,37.2c0.5,2,2.1,4.1,3.8,5.4c43.5,32.8,87.1,65.6,130.6,98.3
			c1.1,0.8,2.2,1.5,3.9,2.7c-0.2-2.4-0.3-3.9-0.4-5.4c-1.4-12.3-3-24.7-4.2-37.1c-0.3-3-1.4-4.9-3.8-6.6
			c-44.9-31.4-89.7-62.9-134.5-94.3C683.8,316,682.7,315.3,681.4,314.5z"/>
	</g>
	<g id="Bevel_x5F_Whole_x5F_Cube">
		<g>
			<g>
				<g>
					<defs>
						<path id="SVGID_37_" d="M972.9,803.9c-3.4-0.9-3.8-4.4-6.9-5c-2.1,1.2-3.7,3.2-5.4,3.2c-3.8-0.1-5-3.4-8-4.5
							c-3.1,0.1-1.6,4-5.9,4.4c-0.8-0.6-1.9-0.7-2.9-1.7c-5.2-5.3-9.7-10.3-14.9-15.6c-22.4-22.6-43.4-45.1-65.8-67.7
							c-1.8-1.8-3.6-3.7-4.3-4.3c-3-6.5-5.5-10.4-6.3-15.3c-2.5-3.1-4.8-6.1-7.2-9.1c-0.3-0.4-0.6-0.9-1-1.1
							c-7.5-4.7-12.9-11.6-19.1-17.7c-13.6-13.2-26.9-26.8-40.3-40.1c-7.5-7.4-15.1-14.6-22.5-22.1c-2.7-2.7-5.1-5.7-7.6-8.6
							c-0.7-0.8-1.2-1.8-2-2.3c-6-3.7-10.2-9.3-15.3-13.9c-0.5-0.5-2.2-2-2.9-2.4c-1.6,1.7-2.5,4-5.3,4c-0.3,0-0.5,0-0.8-0.1
							c-0.2-0.1-0.5-0.2-0.7-0.4c-18.3-18.3-35-36.2-53.5-54.8c-34.2-130.9-68.7-261.2-102.7-392c0.7-2.4,2.5-2.8,4.3-3.1
							c1.5-0.2-1.6-1.3-0.1-1.7c1-0.2,2.6-0.7,3.7-0.5c-0.6-1.6,1.8-3.3,1.1-5.4c-0.2-0.7,0-1.5,0-2.6c1.6-0.7,3.2-1.6,4.8-2
							c18.2-4.1,36.4-8.1,54.6-12.1c20-4.4,40-8.7,59.9-13.1c14.7-3.2,29.4-6.7,44.1-9.9c21.7-4.8,43.4-9.6,65.1-14.4
							c24.7-5.5,49.4-11.1,74.1-16.5c23.2-5.1,46.4-10.2,69.6-15.3c4.4-1,8.6-0.9,12.9,0.1c31.9,7.1,63.9,14.1,95.8,21.3
							c21.7,4.8,43.4,9.8,65.1,14.7c25.9,5.8,51.9,11.4,77.9,17.2c31.9,7.1,63.9,14.2,95.8,21.3c10.5,2.3,21,4.5,31.5,6.8
							c2.2,0.5,4.4,1.3,6.2,1.8c2,3.6-1.5,6.8-1.5,10.1c7.3-3.3,12.1-0.4,11.6,0.8c-0.5,1.1-2.1-0.3-3,0.7c1.2,0.2,1.2,0.2,2.2,0.5
							c1.3,2.4,0.5,4.4,0,6.3c-5.4,21-11,42-16.4,63.1c-4.6,17.8-9.2,35.6-13.9,53.4c-0.5,2-1.2,3.9-1.8,5.7
							c-3.4,2.6-6.7,5-10.2,7.6c-0.9,2.8-1.7,5.7-2.7,8.6c-0.9,2.7-1.7,5.3-2.6,8c-0.3,1-1,1.9-1.1,2.9c0,6-2.2,11.5-3.2,17.3
							c-0.1,0.7,0.2,1.5,0.3,2.2c2.2,0.8,4.3,1.6,6.3,2.3c0.7,2.7-0.3,4.9-0.8,7c-4.7,18.3-9.5,36.6-14.3,54.9
							c-11.1,42.8-22.1,85.6-33.2,128.4c-2.2,8.4-4.5,16.8-6.8,25.5c-1.6,1.6-3.3,3.5-5.1,5.3c-10.3,10.4-20.6,20.7-30.9,31.1
							c-49.2,49.7-98.4,99.4-147.6,149.2c-28.1,28.4-56.2,56.9-84.3,85.3C977,801.6,975.5,802.7,972.9,803.9z"/>
					</defs>
					<clipPath id="SVGID_38_">
						<use xlink:href="#SVGID_37_"  style="overflow:visible;"/>
					</clipPath>
					<polyline class="st23" points="960.5,802 960,328.1 1344.5,131 					"/>
				</g>
			</g>
			<g>
				<g>
					<defs>
						<path id="SVGID_39_" d="M972.9,803.9c-3.4-0.9-3.8-4.4-6.9-5c-2.1,1.2-3.7,3.2-5.4,3.2c-3.8-0.1-5-3.4-8-4.5
							c-3.1,0.1-1.6,4-5.9,4.4c-0.8-0.6-1.9-0.7-2.9-1.7c-5.2-5.3-9.7-10.3-14.9-15.6c-22.4-22.6-43.4-45.1-65.8-67.7
							c-1.8-1.8-3.6-3.7-4.3-4.3c-3-6.5-5.5-10.4-6.3-15.3c-2.5-3.1-4.8-6.1-7.2-9.1c-0.3-0.4-0.6-0.9-1-1.1
							c-7.5-4.7-12.9-11.6-19.1-17.7c-13.6-13.2-26.9-26.8-40.3-40.1c-7.5-7.4-15.1-14.6-22.5-22.1c-2.7-2.7-5.1-5.7-7.6-8.6
							c-0.7-0.8-1.2-1.8-2-2.3c-6-3.7-10.2-9.3-15.3-13.9c-0.5-0.5-2.2-2-2.9-2.4c-1.6,1.7-2.5,4-5.3,4c-0.3,0-0.5,0-0.8-0.1
							c-0.2-0.1-0.5-0.2-0.7-0.4c-18.3-18.3-35-36.2-53.5-54.8c-34.2-130.9-68.7-261.2-102.7-392c0.7-2.4,2.5-2.8,4.3-3.1
							c1.5-0.2-1.6-1.3-0.1-1.7c1-0.2,2.6-0.7,3.7-0.5c-0.6-1.6,1.8-3.3,1.1-5.4c-0.2-0.7,0-1.5,0-2.6c1.6-0.7,3.2-1.6,4.8-2
							c18.2-4.1,36.4-8.1,54.6-12.1c20-4.4,40-8.7,59.9-13.1c14.7-3.2,29.4-6.7,44.1-9.9c21.7-4.8,43.4-9.6,65.1-14.4
							c24.7-5.5,49.4-11.1,74.1-16.5c23.2-5.1,46.4-10.2,69.6-15.3c4.4-1,8.6-0.9,12.9,0.1c31.9,7.1,63.9,14.1,95.8,21.3
							c21.7,4.8,43.4,9.8,65.1,14.7c25.9,5.8,51.9,11.4,77.9,17.2c31.9,7.1,63.9,14.2,95.8,21.3c10.5,2.3,21,4.5,31.5,6.8
							c2.2,0.5,4.4,1.3,6.2,1.8c2,3.6-1.5,6.8-1.5,10.1c7.3-3.3,12.1-0.4,11.6,0.8c-0.5,1.1-2.1-0.3-3,0.7c1.2,0.2,1.2,0.2,2.2,0.5
							c1.3,2.4,0.5,4.4,0,6.3c-5.4,21-11,42-16.4,63.1c-4.6,17.8-9.2,35.6-13.9,53.4c-0.5,2-1.2,3.9-1.8,5.7
							c-3.4,2.6-6.7,5-10.2,7.6c-0.9,2.8-1.7,5.7-2.7,8.6c-0.9,2.7-1.7,5.3-2.6,8c-0.3,1-1,1.9-1.1,2.9c0,6-2.2,11.5-3.2,17.3
							c-0.1,0.7,0.2,1.5,0.3,2.2c2.2,0.8,4.3,1.6,6.3,2.3c0.7,2.7-0.3,4.9-0.8,7c-4.7,18.3-9.5,36.6-14.3,54.9
							c-11.1,42.8-22.1,85.6-33.2,128.4c-2.2,8.4-4.5,16.8-6.8,25.5c-1.6,1.6-3.3,3.5-5.1,5.3c-10.3,10.4-20.6,20.7-30.9,31.1
							c-49.2,49.7-98.4,99.4-147.6,149.2c-28.1,28.4-56.2,56.9-84.3,85.3C977,801.6,975.5,802.7,972.9,803.9z"/>
					</defs>
					<clipPath id="SVGID_40_">
						<use xlink:href="#SVGID_39_"  style="overflow:visible;"/>
					</clipPath>
					<line class="st24" x1="574.9" y1="130.8" x2="959" y2="328.2"/>
				</g>
			</g>
		</g>
	</g>
	<g id="Leters">
		<g id="Letters_x5F_Base">
			<path id="Letter_x5F_S_x5F_Shadow" class="st25" d="M1100.4,456.9c11.1-8.4,21.6-16.2,32-24c53.2-40,106.4-80.1,159.7-120
				c1.4-1.1,3.6-1.8,5.4-1.6c3.2,0.3,4.3,2,3.3,5.6c-18.2,69.8-36.3,139.6-54.5,209.4c-0.5,2-1.8,4-3.3,5.4
				c-73.8,74.6-147.6,149.2-221.4,223.8c-15.8,16-31.6,31.9-47.4,47.8c-1.2,1.2-3.3-0.9-3.8-1.3c-4.5-2.8-4.8-3.3-5.2-5.8
				c-0.3-1.8-0.3-5.1-0.2-6.4c0.2-25.4,0.4-48.1,0.8-73.5c0-2,1.1-4.6,2.6-5.9c76-69.5,152.1-137.1,228.2-206.5
				c2.3-2.1,3.7-2.9,4.3-6c1.5-8.1,3.4-16.2,5.4-25.5c-5.2,4.6-9.6,8.3-13.9,12.1c-71.4,62.8-142.7,125.7-214.1,188.4
				c-1.7,1.5-3.2,2.7-6.1,1c-3-1.7-5.1-4-5.1-8.2c0.9-77,1.6-152.2,2.3-229.2c0.3-35.8,0.7-71.6,0.9-107.4c0-3.9,1.3-6,4.8-7.8
				c97.2-50.1,194.3-100.3,291.5-150.5c23.5-12.1,47-24.2,70.5-36.2c1-0.5,2-1.2,3.1-1.4c5.1-1,7.6,1.5,6.3,6.4
				c-10.4,40.2-20.8,80.4-31.3,120.5c-0.6,2.1-2.2,4.4-3.9,5.7c-67.1,47.3-134.3,94.4-201.5,141.5c-3,2.1-4.4,4.4-4.7,8.1
				c-1.3,12.9-3,25.7-4.5,38.6C1100.4,454.8,1100.4,455.4,1100.4,456.9z"/>
			<path id="Letter_x5F_S_3_" class="st26" d="M1102.4,455.9c11.1-8.4,21.6-16.2,32-24c53.2-40,106.4-80.1,159.7-120
				c1.4-1.1,3.6-1.8,5.4-1.6c3.2,0.3,4.3,2,3.3,5.6c-18.2,69.8-36.3,139.6-54.5,209.4c-0.5,2-1.8,4-3.3,5.4
				c-73.8,74.6-147.6,149.2-221.4,223.8c-15.8,16-31.7,32.5-47.5,48.4c-3.2,2.9-4.2,2-5.3,1.4c-1.8-1-2.5-2-3.5-3.5
				c-0.5-1-0.2-4.8-0.2-6c0.2-25.4,0.4-50.8,0.8-76.2c0-2,1.1-4.6,2.6-5.9c76-69.5,152.1-139,228.3-208.4c2.3-2.1,3.7-4.3,4.3-7.4
				c1.5-8.1,3.4-16.2,5.4-25.5c-5.2,4.6-9.6,8.3-13.9,12.1c-71.4,62.8-142.7,125.7-214.1,188.4c-1.7,1.5-3.2,4.4-6.1,2.8
				c-3-1.7-5.1-4-5.1-8.2c0.9-77,1.6-154,2.3-230.9c0.3-35.8,0.7-71.6,0.9-107.4c0-3.9,1.3-6,4.8-7.8
				c97.2-50.1,194.3-100.3,291.5-150.5c23.5-12.1,47-24.2,70.5-36.2c1-0.5,2-1.2,3.1-1.4c5.1-1,7.6,1.5,6.3,6.4
				c-10.4,40.2-20.8,80.4-31.3,120.5c-0.6,2.1-2.2,4.4-3.9,5.7c-67.1,47.3-134.3,94.4-201.5,141.5c-3,2.1-4.4,4.4-4.7,8.1
				c-1.3,12.9-3,25.7-4.5,38.6C1102.4,453.8,1102.4,454.4,1102.4,455.9z"/>
			
				<radialGradient id="Letter_x5F_A_1_" cx="942.5496" cy="260.7309" r="335.6125" gradientTransform="matrix(1 0 0 1 0 62)" gradientUnits="userSpaceOnUse">
				<stop  offset="0" style="stop-color:#3C3FF0"/>
				<stop  offset="1" style="stop-color:#0A0CD9"/>
			</radialGradient>
			<path id="Letter_x5F_A_3_" class="st27" d="M711.3,471.1c2.6,12.3,5,23.7,7.5,35.1c5.2,24.2,10.3,48.4,15.6,72.5
				c0.6,2.7-0.1,4.3-2.5,5.7c-2.5,1.5-3.8,0-5.2-1.5c-17.2-17.4-34.5-34.8-51.6-52.3c-1.3-1.3-2.3-3.1-2.7-4.9
				C638.6,396.5,605.1,267.2,571.7,138c-0.4-1.5-1-3.8,0.4-4.7c2-1.5,5.5-1.5,7.6-0.6c6.8,3,13.3,6.6,19.9,10.1
				C714,202,828.4,261.3,942.9,320.5c3.5,1.8,5,3.9,5,8c1.4,155.4,2.9,310.7,4.4,466.1c0,3-0.1,5.7-2.6,8c-2.4,2.2-3.9,2-6-0.2
				c-12.9-13.2-26-26.3-39-39.4c-16.1-16.2-32.2-32.4-48.1-48.8c-1.6-1.7-2.9-4.3-3.2-6.6c-4.8-40.5-9.4-81-14.1-121.5
				c-0.2-1.7-1.4-3.6-2.7-4.7c-28.7-25.4-57.5-50.7-86.3-76.1c-11.7-10.3-23.5-20.7-35.2-31C713.9,473.3,712.9,472.5,711.3,471.1z
				 M678.4,315.5c0,0.9-0.1,1.5,0,2c2.6,12.4,5.2,24.8,8.1,37.2c0.5,2,2.1,4.1,3.8,5.4c43.5,32.8,87.1,65.6,130.6,98.3
				c1.1,0.8,2.2,1.5,3.9,2.7c-0.2-2.4-0.3-3.9-0.4-5.4c-1.4-12.3-3-24.7-4.2-37.1c-0.3-3-1.4-4.9-3.8-6.6
				c-44.9-31.4-89.7-62.9-134.5-94.3C680.8,317,679.7,316.3,678.4,315.5z"/>
			
				<radialGradient id="Letter_x5F_F_2_" cx="849.6011" cy="21.1573" r="500.5325" gradientTransform="matrix(1 0 0 1 0 62)" gradientUnits="userSpaceOnUse">
				<stop  offset="0" style="stop-color:#D5D5D5"/>
				<stop  offset="1" style="stop-color:#FFFFFF"/>
			</radialGradient>
			<path id="Letter_x5F_F" class="st28" d="M915.9,98.7c14.8,4.2,30.6,8.8,45.3,12.9c27.1,7.7,54.3,15.3,81.4,23
				c2,0.6,4.2,0.8,4,3.7c-0.2,2.8,0.2,5.3-3.6,6.7c-34.2,12.2-57.7,20.7-91.9,32.9c-1.9,0.7-4.6,0.5-6.6-0.3
				c-45.1-16.2-90.2-32.5-135.3-48.7c-2.4-0.9-5.6-1-8.1-0.4c-51,13.6-90.3,23.4-141.2,37.2c-3.1,0.8-5.6,0.6-8.4-0.9
				c-22.3-11.5-44.8-22.8-67.1-34.3c-1.3-0.7-2.9-1.5-3.6-2.7c-2.9-4.4-1.7-6.8,3.5-8c98.1-21.6,196.2-43.3,294.3-65
				c3.2-0.7,28.4-6.4,77-17c2.3-0.5,4.9-0.5,7.2,0c101,22.3,201.9,44.8,302.9,67.2c23.3,5.2,46.5,10.3,69.8,15.6
				c1.7,0.4,4.6,1,4.6,2.8c0,2.6-0.3,5.6-3.5,7.1c-8.4,4.1-16.7,8.4-25,12.7c-14.3,7.3-28.6,14.5-42.8,21.9
				c-2.8,1.5-5.3,1.7-8.4,0.9c-78.9-21.4-157.8-42.7-236.7-64c-20.4-5.5-40.6-11-60.7-16.4c-1.3-0.4-2.8-0.8-4.1-0.5
				c-6.6,1.6-35.3,11.3-41.8,13C917,98.5,915.9,98.4,915.9,98.7z"/>
			<g id="Letter_x5F_F_x5F_OverShadow">
				<g>
					<g>
						<defs>
							<path id="SVGID_41_" d="M916,98.7c10.5,10.7,11.6,23.7,26.6,27.6c27.1,7.7,73,0.7,100.1,8.3c2,0.6,4.2,0.8,4,3.7
								c-0.2,2.8,0.2,5.3-3.6,6.7c-34.2,12.2-57.7,20.7-91.9,32.9c-1.9,0.7-4.6,0.5-6.6-0.3c-45.1-16.2-90.2-32.5-135.3-48.7
								c-2.4-0.9-5.6-1-8.1-0.4c-51,13.6-90.3,23.4-141.2,37.2c-3.1,0.8-5.6,0.6-8.4-0.9c-22.3-11.5-44.8-22.8-67.1-34.3
								c-1.3-0.7-2.9-1.5-3.6-2.7c-2.9-4.4-1.7-6.8,3.5-8c98-21.6,196.1-43.3,294.2-65c3.2-0.7,28.4-6.4,77-17
								c2.3-0.5,4.9-0.5,7.2,0c101,22.3,201.9,44.8,302.9,67.2c23.3,5.2,46.5,10.3,69.8,15.6c1.7,0.4,4.5,1.4,4.6,2.4
								c0,2.6,0,5.8-3.5,7.6c-8.4,4.1-16.7,8.4-25,12.7c-14.3,7.3-28.6,14.5-42.8,21.9c-2.8,1.5-5.3,1.7-8.4,0.9
								c-78.9-21.4-157.8-42.7-236.7-64c-20.4-5.6-40.6-11.1-60.7-16.5c-1.3-0.4-2.8-0.8-4.1-0.5c-6.6,1.6-35,11.2-41.6,13
								C917.3,98.4,917,98.9,916,98.7z"/>
						</defs>
						<clipPath id="SVGID_42_">
							<use xlink:href="#SVGID_41_"  style="overflow:visible;"/>
						</clipPath>
						<path id="Shadow" class="st29" d="M576.2,121.2c0,0,76.3,37.2,77.3,37.8c1,0.7,2.2-0.2,7-1.2s140.1-35,141.1-35.2s2.7-1,5.3,0
							c2.6,1,136,48,137.8,48.8s4.5,1,7.7,0s96.9-33.7,96.9-33.7l22.2,45l-297.7,9l-311-29L576.2,121.2z"/>
					</g>
				</g>
				<g>
					<g>
						<defs>
							<path id="SVGID_43_" d="M916,98.7c10.5,10.7,11.6,23.7,26.6,27.6c27.1,7.7,73,0.7,100.1,8.3c2,0.6,4.2,0.8,4,3.7
								c-0.2,2.8,0.2,5.3-3.6,6.7c-34.2,12.2-57.7,20.7-91.9,32.9c-1.9,0.7-4.6,0.5-6.6-0.3c-45.1-16.2-90.2-32.5-135.3-48.7
								c-2.4-0.9-5.6-1-8.1-0.4c-51,13.6-90.3,23.4-141.2,37.2c-3.1,0.8-5.6,0.6-8.4-0.9c-22.3-11.5-44.8-22.8-67.1-34.3
								c-1.3-0.7-2.9-1.5-3.6-2.7c-2.9-4.4-1.7-6.8,3.5-8c98-21.6,196.1-43.3,294.2-65c3.2-0.7,28.4-6.4,77-17
								c2.3-0.5,4.9-0.5,7.2,0c101,22.3,201.9,44.8,302.9,67.2c23.3,5.2,46.5,10.3,69.8,15.6c1.7,0.4,4.5,1.4,4.6,2.4
								c0,2.6,0,5.8-3.5,7.6c-8.4,4.1-16.7,8.4-25,12.7c-14.3,7.3-28.6,14.5-42.8,21.9c-2.8,1.5-5.3,1.7-8.4,0.9
								c-78.9-21.4-157.8-42.7-236.7-64c-20.4-5.6-40.6-11.1-60.7-16.5c-1.3-0.4-2.8-0.8-4.1-0.5c-6.6,1.6-35,11.2-41.6,13
								C917.3,98.4,917,98.9,916,98.7z"/>
						</defs>
						<clipPath id="SVGID_44_">
							<use xlink:href="#SVGID_43_"  style="overflow:visible;"/>
						</clipPath>
						<path class="st30" d="M917.6,98.8l-7.3-2.6c-0.4-0.1-0.4-0.7,0-0.8l49.2-14.8c0.1,0,0.2,0,0.2,0l300.7,79
							c2.1,0.6,4.4,0.3,6.4-0.6l76.7-36.6c0.2-0.1,0.2-1.8,0.4-1.6l21.4,24.9c0.2,0.2,0.1,0.6-0.2,0.7l-88.6,27.9
							c-0.1,0-0.1,0-0.2,0l-193-38.2l0,0L949.2,95.5c-0.1,0-0.1,0-0.2,0l-31.3,3.3H917.6z"/>
					</g>
				</g>
				<g>
					<g>
						<defs>
							<path id="SVGID_45_" d="M916,98.7c10.5,10.7,11.6,23.7,26.6,27.6c27.1,7.7,73,0.7,100.1,8.3c2,0.6,4.2,0.8,4,3.7
								c-0.2,2.8,0.2,5.3-3.6,6.7c-34.2,12.2-57.7,20.7-91.9,32.9c-1.9,0.7-4.6,0.5-6.6-0.3c-45.1-16.2-90.2-32.5-135.3-48.7
								c-2.4-0.9-5.6-1-8.1-0.4c-51,13.6-90.3,23.4-141.2,37.2c-3.1,0.8-5.6,0.6-8.4-0.9c-22.3-11.5-44.8-22.8-67.1-34.3
								c-1.3-0.7-2.9-1.5-3.6-2.7c-2.9-4.4-1.7-6.8,3.5-8c98-21.6,196.1-43.3,294.2-65c3.2-0.7,28.4-6.4,77-17
								c2.3-0.5,4.9-0.5,7.2,0c101,22.3,201.9,44.8,302.9,67.2c23.3,5.2,46.5,10.3,69.8,15.6c1.7,0.4,4.5,1.4,4.6,2.4
								c0,2.6,0,5.8-3.5,7.6c-8.4,4.1-16.7,8.4-25,12.7c-14.3,7.3-28.6,14.5-42.8,21.9c-2.8,1.5-5.3,1.7-8.4,0.9
								c-78.9-21.4-157.8-42.7-236.7-64c-20.4-5.6-40.6-11.1-60.7-16.5c-1.3-0.4-2.8-0.8-4.1-0.5c-6.6,1.6-35,11.2-41.6,13
								C917.3,98.4,917,98.9,916,98.7z"/>
						</defs>
						<clipPath id="SVGID_46_">
							<use xlink:href="#SVGID_45_"  style="overflow:visible;"/>
						</clipPath>
						<line class="st31" x1="654" y1="166.2" x2="654" y2="159.4"/>
					</g>
				</g>
				<g>
					<g>
						<defs>
							<path id="SVGID_47_" d="M916,98.7c10.5,10.7,11.6,23.7,26.6,27.6c27.1,7.7,73,0.7,100.1,8.3c2,0.6,4.2,0.8,4,3.7
								c-0.2,2.8,0.2,5.3-3.6,6.7c-34.2,12.2-57.7,20.7-91.9,32.9c-1.9,0.7-4.6,0.5-6.6-0.3c-45.1-16.2-90.2-32.5-135.3-48.7
								c-2.4-0.9-5.6-1-8.1-0.4c-51,13.6-90.3,23.4-141.2,37.2c-3.1,0.8-5.6,0.6-8.4-0.9c-22.3-11.5-44.8-22.8-67.1-34.3
								c-1.3-0.7-2.9-1.5-3.6-2.7c-2.9-4.4-1.7-6.8,3.5-8c98-21.6,196.1-43.3,294.2-65c3.2-0.7,28.4-6.4,77-17
								c2.3-0.5,4.9-0.5,7.2,0c101,22.3,201.9,44.8,302.9,67.2c23.3,5.2,46.5,10.3,69.8,15.6c1.7,0.4,4.5,1.4,4.6,2.4
								c0,2.6,0,5.8-3.5,7.6c-8.4,4.1-16.7,8.4-25,12.7c-14.3,7.3-28.6,14.5-42.8,21.9c-2.8,1.5-5.3,1.7-8.4,0.9
								c-78.9-21.4-157.8-42.7-236.7-64c-20.4-5.6-40.6-11.1-60.7-16.5c-1.3-0.4-2.8-0.8-4.1-0.5c-6.6,1.6-35,11.2-41.6,13
								C917.3,98.4,917,98.9,916,98.7z"/>
						</defs>
						<clipPath id="SVGID_48_">
							<use xlink:href="#SVGID_47_"  style="overflow:visible;"/>
						</clipPath>
						<path class="st32" d="M804.6,128.8c0-1.6,0-6.6,0-6.6"/>
					</g>
				</g>
			</g>
			<g class="st33">
				<g>
					<g>
						<defs>
							<path id="SVGID_49_" d="M711.3,471.1c2.6,12.3,5,23.7,7.5,35.1c5.2,24.2,10.3,48.4,15.6,72.5c0.6,2.7-0.1,4.3-2.5,5.7
								c-2.5,1.5-3.8,0-5.2-1.5c-17.2-17.4-34.5-34.8-51.6-52.3c-1.3-1.3-2.3-3.1-2.7-4.9C638.6,396.5,605.1,267.2,571.7,138
								c-0.4-1.5-0.2-4.6,0.4-4.7c2.4-0.7,5.5-1.5,7.6-0.6c6.8,3,13.3,6.6,19.9,10.1C714,202,828.4,261.3,942.9,320.5
								c3.5,1.8,5,3.9,5,8c1.4,155.4,2.9,310.7,4.4,466.1c0,3-0.1,5.7-2.6,8c-2.4,2.2-3.9,2-6-0.2c-12.9-13.2-26-26.3-39-39.4
								c-16.1-16.2-32.2-32.4-48.1-48.8c-1.6-1.7-2.9-4.3-3.2-6.6c-4.8-40.5-9.4-81-14.1-121.5c-0.2-1.7-1.4-3.6-2.7-4.7
								c-28.7-25.4-57.5-50.7-86.3-76.1c-11.7-10.3-23.5-20.7-35.2-31C713.9,473.3,712.9,472.5,711.3,471.1z M678.4,315.5
								c0,0.9-0.1,1.5,0,2c2.6,12.4,5.2,24.8,8.1,37.2c0.5,2,2.1,4.1,3.8,5.4c43.5,32.8,87.1,65.6,130.6,98.3
								c1.1,0.8,2.2,1.5,3.9,2.7c-0.2-2.4-0.3-3.9-0.4-5.4c-1.4-12.3-3-24.7-4.2-37.1c-0.3-3-1.4-4.9-3.8-6.6
								c-44.9-31.4-89.7-62.9-134.5-94.3C680.8,317,679.7,316.3,678.4,315.5z"/>
						</defs>
						<clipPath id="SVGID_50_">
							<use xlink:href="#SVGID_49_"  style="overflow:visible;"/>
						</clipPath>
						<path class="st34" d="M671.6,311.9l6.8,3.6l8.1,39.1c0,0,0.3,2.7,4.4,5.9c4.2,3.2,133.8,100.5,133.8,100.5l0.5,8L685.4,363.4
							c0,0-4.3-3-5.3-8.5S671.6,311.9,671.6,311.9z"/>
					</g>
				</g>
				<g>
					<g>
						<defs>
							<path id="SVGID_51_" d="M711.3,471.1c2.6,12.3,5,23.7,7.5,35.1c5.2,24.2,10.3,48.4,15.6,72.5c0.6,2.7-0.1,4.3-2.5,5.7
								c-2.5,1.5-3.8,0-5.2-1.5c-17.2-17.4-34.5-34.8-51.6-52.3c-1.3-1.3-2.3-3.1-2.7-4.9C638.6,396.5,605.1,267.2,571.7,138
								c-0.4-1.5-0.2-4.6,0.4-4.7c2.4-0.7,5.5-1.5,7.6-0.6c6.8,3,13.3,6.6,19.9,10.1C714,202,828.4,261.3,942.9,320.5
								c3.5,1.8,5,3.9,5,8c1.4,155.4,2.9,310.7,4.4,466.1c0,3-0.1,5.7-2.6,8c-2.4,2.2-3.9,2-6-0.2c-12.9-13.2-26-26.3-39-39.4
								c-16.1-16.2-32.2-32.4-48.1-48.8c-1.6-1.7-2.9-4.3-3.2-6.6c-4.8-40.5-9.4-81-14.1-121.5c-0.2-1.7-1.4-3.6-2.7-4.7
								c-28.7-25.4-57.5-50.7-86.3-76.1c-11.7-10.3-23.5-20.7-35.2-31C713.9,473.3,712.9,472.5,711.3,471.1z M678.4,315.5
								c0,0.9-0.1,1.5,0,2c2.6,12.4,5.2,24.8,8.1,37.2c0.5,2,2.1,4.1,3.8,5.4c43.5,32.8,87.1,65.6,130.6,98.3
								c1.1,0.8,2.2,1.5,3.9,2.7c-0.2-2.4-0.3-3.9-0.4-5.4c-1.4-12.3-3-24.7-4.2-37.1c-0.3-3-1.4-4.9-3.8-6.6
								c-44.9-31.4-89.7-62.9-134.5-94.3C680.8,317,679.7,316.3,678.4,315.5z"/>
						</defs>
						<clipPath id="SVGID_52_">
							<use xlink:href="#SVGID_51_"  style="overflow:visible;"/>
						</clipPath>
						<polyline class="st35" points="711.3,471.1 704.7,466.2 729.9,587.5 740.3,582.3 711.3,471.1 						"/>
					</g>
				</g>
			</g>
		</g>
		<g id="Calque_14">
			<path class="st36" d="M916,98.2c26.1,9,126,36.3,126,36.3c0.7,0.2,1.6,0.4,2.3,0.8c1.5,0.7,2.2,1.6,1.9,3.5"/>
		</g>
	</g>
	<g id="Relief_x5F_A">
		<g id="Letter_x5F_A_x5F_Edges">
			<g>
				<g>
					<defs>
						<path id="SVGID_53_" d="M711.3,471.1c2.6,12.3,5,23.7,7.5,35.1c5.2,24.2,10.3,48.4,15.6,72.5c0.6,2.7-0.1,4.3-2.5,5.7
							c-2.5,1.5-3.8,0-5.2-1.5c-17.2-17.4-34.5-34.8-51.6-52.3c-1.3-1.3-2.3-3.1-2.7-4.9C638.6,396.5,605.1,267.2,571.7,138
							c-0.4-1.5-1-3.8,0.4-4.7c2.1-1.4,5.5-1.5,7.6-0.6c6.8,3,13.3,6.6,19.9,10.1C714,202,828.4,261.3,942.9,320.5
							c3.5,1.8,5,3.9,5,8c1.4,155.4,2.9,310.7,4.4,466.1c0,3-0.1,5.7-2.6,8c-2.4,2.2-3.9,2-6-0.2c-12.9-13.2-26-26.3-39-39.4
							c-16.1-16.2-32.2-32.4-48.1-48.8c-1.6-1.7-2.9-4.3-3.2-6.6c-4.8-40.5-9.4-81-14.1-121.5c-0.2-1.7-1.4-3.6-2.7-4.7
							c-28.7-25.4-57.5-50.7-86.3-76.1c-11.7-10.3-23.5-20.7-35.2-31C713.9,473.3,712.9,472.5,711.3,471.1z M678.4,315.5
							c0,0.9-0.1,1.5,0,2c2.6,12.4,5.2,24.8,8.1,37.2c0.5,2,2.1,4.1,3.8,5.4c43.5,32.8,87.1,65.6,130.6,98.3
							c1.1,0.8,2.2,1.5,3.9,2.7c-0.2-2.4-0.3-3.9-0.4-5.4c-1.4-12.3-3-24.7-4.2-37.1c-0.3-3-1.4-4.9-3.8-6.6
							c-44.9-31.4-89.7-62.9-134.5-94.3C680.8,317,679.7,316.3,678.4,315.5z"/>
					</defs>
					<clipPath id="SVGID_54_">
						<use xlink:href="#SVGID_53_"  style="overflow:visible;"/>
					</clipPath>
					<path id="Epaisseur_x5F_Clair_x5F_A" class="st37" d="M571.1,136.9l-3.9-23.9l390,202.5l-2,517.2l-9.5-29.6l-7.6-471.3
						c0-2.1-1.2-3.5-3.1-4.5L571.1,136.9z"/>
				</g>
			</g>
			<g>
				<g>
					<defs>
						<path id="SVGID_55_" d="M711.3,471.1c2.6,12.3,5,23.7,7.5,35.1c5.2,24.2,10.3,48.4,15.6,72.5c0.6,2.7-0.1,4.3-2.5,5.7
							c-2.5,1.5-3.8,0-5.2-1.5c-17.2-17.4-34.5-34.8-51.6-52.3c-1.3-1.3-2.3-3.1-2.7-4.9C638.6,396.5,605.1,267.2,571.7,138
							c-0.4-1.5-1-3.8,0.4-4.7c2.1-1.4,5.5-1.5,7.6-0.6c6.8,3,13.3,6.6,19.9,10.1C714,202,828.4,261.3,942.9,320.5
							c3.5,1.8,5,3.9,5,8c1.4,155.4,2.9,310.7,4.4,466.1c0,3-0.1,5.7-2.6,8c-2.4,2.2-3.9,2-6-0.2c-12.9-13.2-26-26.3-39-39.4
							c-16.1-16.2-32.2-32.4-48.1-48.8c-1.6-1.7-2.9-4.3-3.2-6.6c-4.8-40.5-9.4-81-14.1-121.5c-0.2-1.7-1.4-3.6-2.7-4.7
							c-28.7-25.4-57.5-50.7-86.3-76.1c-11.7-10.3-23.5-20.7-35.2-31C713.9,473.3,712.9,472.5,711.3,471.1z M678.4,315.5
							c0,0.9-0.1,1.5,0,2c2.6,12.4,5.2,24.8,8.1,37.2c0.5,2,2.1,4.1,3.8,5.4c43.5,32.8,87.1,65.6,130.6,98.3
							c1.1,0.8,2.2,1.5,3.9,2.7c-0.2-2.4-0.3-3.9-0.4-5.4c-1.4-12.3-3-24.7-4.2-37.1c-0.3-3-1.4-4.9-3.8-6.6
							c-44.9-31.4-89.7-62.9-134.5-94.3C680.8,317,679.7,316.3,678.4,315.5z"/>
					</defs>
					<clipPath id="SVGID_56_">
						<use xlink:href="#SVGID_55_"  style="overflow:visible;"/>
					</clipPath>
					<line class="st38" x1="570.5" y1="136.2" x2="936.2" y2="328.1"/>
				</g>
			</g>
			<g>
				<g>
					<defs>
						<path id="SVGID_57_" d="M711.3,471.1c2.6,12.3,5,23.7,7.5,35.1c5.2,24.2,10.3,48.4,15.6,72.5c0.6,2.7-0.1,4.3-2.5,5.7
							c-2.5,1.5-3.8,0-5.2-1.5c-17.2-17.4-34.5-34.8-51.6-52.3c-1.3-1.3-2.3-3.1-2.7-4.9C638.6,396.5,605.1,267.2,571.7,138
							c-0.4-1.5-1-3.8,0.4-4.7c2.1-1.4,5.5-1.5,7.6-0.6c6.8,3,13.3,6.6,19.9,10.1C714,202,828.4,261.3,942.9,320.5
							c3.5,1.8,5,3.9,5,8c1.4,155.4,2.9,310.7,4.4,466.1c0,3-0.1,5.7-2.6,8c-2.4,2.2-3.9,2-6-0.2c-12.9-13.2-26-26.3-39-39.4
							c-16.1-16.2-32.2-32.4-48.1-48.8c-1.6-1.7-2.9-4.3-3.2-6.6c-4.8-40.5-9.4-81-14.1-121.5c-0.2-1.7-1.4-3.6-2.7-4.7
							c-28.7-25.4-57.5-50.7-86.3-76.1c-11.7-10.3-23.5-20.7-35.2-31C713.9,473.3,712.9,472.5,711.3,471.1z M678.4,315.5
							c0,0.9-0.1,1.5,0,2c2.6,12.4,5.2,24.8,8.1,37.2c0.5,2,2.1,4.1,3.8,5.4c43.5,32.8,87.1,65.6,130.6,98.3
							c1.1,0.8,2.2,1.5,3.9,2.7c-0.2-2.4-0.3-3.9-0.4-5.4c-1.4-12.3-3-24.7-4.2-37.1c-0.3-3-1.4-4.9-3.8-6.6
							c-44.9-31.4-89.7-62.9-134.5-94.3C680.8,317,679.7,316.3,678.4,315.5z"/>
					</defs>
					<clipPath id="SVGID_58_">
						<use xlink:href="#SVGID_57_"  style="overflow:visible;"/>
					</clipPath>
					<path class="st39" d="M936.2,328.1c0,0,2,1.2,2.1,2.7c0.1,1.5,7.7,473.1,7.7,473.1"/>
				</g>
			</g>
		</g>
	</g>
	<g id="Relief_x5F_S">
		<g>
			<g>
				<g>
					<defs>
						<path id="SVGID_59_" d="M1102.4,455.9c11.1-8.4,21.6-16.2,32-24c53.2-40,106.4-80.1,159.7-120c1.4-1.1,3.6-1.8,5.4-1.6
							c3.2,0.3,4.3,2,3.3,5.6c-18.2,69.8-36.3,139.6-54.5,209.4c-0.5,2-1.8,4-3.3,5.4c-73.8,74.6-147.6,149.2-221.4,223.8
							c-15.8,16-31.6,31.9-47.4,47.8c-1.2,1.2-4,2.8-4.5,2.4c-1.1-0.4-3.1-1.6-4.5-3.8c-0.5-1-0.3-4.9-0.2-6.2
							c0.2-25.4,0.4-50.8,0.8-76.2c0-2,1.1-4.6,2.6-5.9c76-69.5,152.1-139,228.3-208.4c2.3-2.1,3.7-4.3,4.3-7.4
							c1.5-8.1,3.4-16.2,5.4-25.5c-5.2,4.6-9.6,8.3-13.9,12.1c-71.4,62.8-142.7,125.7-214.1,188.4c-1.7,1.5-3.2,4.4-6.1,2.8
							c-3-1.7-5.1-4-5.1-8.2c0.9-77,1.6-154,2.3-230.9c0.3-35.8,0.7-71.6,0.9-107.4c0-3.9,1.3-6,4.8-7.8
							c97.2-50.1,194.3-100.3,291.5-150.5c23.5-12.1,46.9-24.2,70.4-36.3c1-0.5,2.1-1.1,3.2-1.3c5.1-1.2,7.6,1.5,6.3,6.4
							c-10.4,40.2-20.8,80.4-31.3,120.5c-0.6,2.1-2.2,4.4-3.9,5.7c-67.1,47.3-134.3,94.4-201.5,141.5c-3,2.1-4.4,4.4-4.7,8.1
							c-1.3,12.9-3,25.7-4.5,38.6C1102.4,453.8,1102.4,454.4,1102.4,455.9z"/>
					</defs>
					<clipPath id="SVGID_60_">
						<use xlink:href="#SVGID_59_"  style="overflow:visible;"/>
					</clipPath>
					<path class="st40" d="M971.8,808.9l2.3-85.3c0-2.2,1-4.3,2.6-5.7l228.4-211.2c0.8-0.8,1.4-1.8,1.6-2.9l7.3-36.8l-6,5l-8,27.6
						l-224.5,206l5.4-372.1c0-2.8,1.6-5.3,4-6.6l373-195.9l-16.3-19.3l-375,209l-2.5,488.2H971.8z"/>
				</g>
			</g>
			<g>
				<g>
					<defs>
						<path id="SVGID_61_" d="M1102.4,455.9c11.1-8.4,21.6-16.2,32-24c53.2-40,106.4-80.1,159.7-120c1.4-1.1,3.6-1.8,5.4-1.6
							c3.2,0.3,4.3,2,3.3,5.6c-18.2,69.8-36.3,139.6-54.5,209.4c-0.5,2-1.8,4-3.3,5.4c-73.8,74.6-147.6,149.2-221.4,223.8
							c-15.8,16-31.6,31.9-47.4,47.8c-1.2,1.2-4,2.8-4.5,2.4c-1.1-0.4-3.1-1.6-4.5-3.8c-0.5-1-0.3-4.9-0.2-6.2
							c0.2-25.4,0.4-50.8,0.8-76.2c0-2,1.1-4.6,2.6-5.9c76-69.5,152.1-139,228.3-208.4c2.3-2.1,3.7-4.3,4.3-7.4
							c1.5-8.1,3.4-16.2,5.4-25.5c-5.2,4.6-9.6,8.3-13.9,12.1c-71.4,62.8-142.7,125.7-214.1,188.4c-1.7,1.5-3.2,4.4-6.1,2.8
							c-3-1.7-5.1-4-5.1-8.2c0.9-77,1.6-154,2.3-230.9c0.3-35.8,0.7-71.6,0.9-107.4c0-3.9,1.3-6,4.8-7.8
							c97.2-50.1,194.3-100.3,291.5-150.5c23.5-12.1,46.9-24.2,70.4-36.3c1-0.5,2.1-1.1,3.2-1.3c5.1-1.2,7.6,1.5,6.3,6.4
							c-10.4,40.2-20.8,80.4-31.3,120.5c-0.6,2.1-2.2,4.4-3.9,5.7c-67.1,47.3-134.3,94.4-201.5,141.5c-3,2.1-4.4,4.4-4.7,8.1
							c-1.3,12.9-3,25.7-4.5,38.6C1102.4,453.8,1102.4,454.4,1102.4,455.9z"/>
					</defs>
					<clipPath id="SVGID_62_">
						<use xlink:href="#SVGID_61_"  style="overflow:visible;"/>
					</clipPath>
					<path class="st41" d="M1101.2,465.6l1.5-11.7l200.5-152.8c0,0,8.3,0.8,9,3.8c0.7,3-10.8,10-10.8,10L1101.2,465.6z"/>
				</g>
			</g>
		</g>
	</g>
	<g id="Edges_x5F_S">
		<g>
			<g>
				<g>
					<defs>
						<path id="SVGID_63_" d="M1102.4,455.9c11.1-8.4,21.6-16.2,32-24c53.2-40,106.4-80.1,159.7-120c1.4-1.1,3.6-1.8,5.4-1.6
							c3.2,0.3,4.3,2,3.3,5.6c-18.2,69.8-36.3,139.6-54.5,209.4c-0.5,2-1.8,4-3.3,5.4c-73.8,74.6-147.6,149.2-221.4,223.8
							c-15.8,16-31.6,31.9-47.4,47.8c-1.2,1.2-2.7,3.1-4.5,2.4c-2-0.7-3.4-4-4.6-6.2c-0.5-1-0.1-2.5-0.1-3.8
							c0.2-25.4,0.4-50.8,0.8-76.2c0-2,1.1-4.6,2.6-5.9c76-69.5,152.1-139,228.3-208.4c2.3-2.1,3.7-4.3,4.3-7.4
							c1.5-8.1,3.4-16.2,5.4-25.5c-5.2,4.6-9.6,8.3-13.9,12.1c-71.4,62.8-142.7,125.7-214.1,188.4c-1.7,1.5-3.2,4.4-6.1,2.8
							c-3-1.7-5.1-4-5.1-8.2c0.9-77,1.6-154,2.3-230.9c0.3-35.8,0.7-71.6,0.9-107.4c0-3.9,1.3-6,4.8-7.8
							c97.2-50.1,194.3-100.3,291.5-150.5c23.5-12.1,47-24.2,70.5-36.2c1-0.5,2-1.2,3.1-1.4c5.1-1,7.6,1.5,6.3,6.4
							c-10.4,40.2-20.8,80.4-31.3,120.5c-0.6,2.1-2.2,4.4-3.9,5.7c-67.1,47.3-134.3,94.4-201.5,141.5c-3,2.1-4.4,4.4-4.7,8.1
							c-1.3,12.9-3,25.7-4.5,38.6C1102.4,453.8,1102.4,454.4,1102.4,455.9z"/>
					</defs>
					<clipPath id="SVGID_64_">
						<use xlink:href="#SVGID_63_"  style="overflow:visible;"/>
					</clipPath>
					<path class="st42" d="M976.1,676.4l5.4-343.7c0-2.3,1.4-4.5,3.4-5.6l375.2-197.2"/>
				</g>
			</g>
			<g>
				<g>
					<defs>
						<path id="SVGID_65_" d="M1102.4,455.9c11.1-8.4,21.6-16.2,32-24c53.2-40,106.4-80.1,159.7-120c1.4-1.1,3.6-1.8,5.4-1.6
							c3.2,0.3,4.3,2,3.3,5.6c-18.2,69.8-36.3,139.6-54.5,209.4c-0.5,2-1.8,4-3.3,5.4c-73.8,74.6-147.6,149.2-221.4,223.8
							c-15.8,16-31.6,31.9-47.4,47.8c-1.2,1.2-2.7,3.1-4.5,2.4c-2-0.7-3.4-4-4.6-6.2c-0.5-1-0.1-2.5-0.1-3.8
							c0.2-25.4,0.4-50.8,0.8-76.2c0-2,1.1-4.6,2.6-5.9c76-69.5,152.1-139,228.3-208.4c2.3-2.1,3.7-4.3,4.3-7.4
							c1.5-8.1,3.4-16.2,5.4-25.5c-5.2,4.6-9.6,8.3-13.9,12.1c-71.4,62.8-142.7,125.7-214.1,188.4c-1.7,1.5-3.2,4.4-6.1,2.8
							c-3-1.7-5.1-4-5.1-8.2c0.9-77,1.6-154,2.3-230.9c0.3-35.8,0.7-71.6,0.9-107.4c0-3.9,1.3-6,4.8-7.8
							c97.2-50.1,194.3-100.3,291.5-150.5c23.5-12.1,47-24.2,70.5-36.2c1-0.5,2-1.2,3.1-1.4c5.1-1,7.6,1.5,6.3,6.4
							c-10.4,40.2-20.8,80.4-31.3,120.5c-0.6,2.1-2.2,4.4-3.9,5.7c-67.1,47.3-134.3,94.4-201.5,141.5c-3,2.1-4.4,4.4-4.7,8.1
							c-1.3,12.9-3,25.7-4.5,38.6C1102.4,453.8,1102.4,454.4,1102.4,455.9z"/>
					</defs>
					<clipPath id="SVGID_66_">
						<use xlink:href="#SVGID_65_"  style="overflow:visible;"/>
					</clipPath>
					<path class="st43" d="M972,806.8c0,0,1.9-79.7,2.2-83.3s0.5-3.8,2.9-6c2.3-2.2,211.8-196.1,227.9-211c0.6-0.6,1.1-1.4,1.3-2.2
						l7.9-37.4"/>
				</g>
			</g>
			<g>
				<g>
					<defs>
						<path id="SVGID_67_" d="M1102.4,455.9c11.1-8.4,21.6-16.2,32-24c53.2-40,106.4-80.1,159.7-120c1.4-1.1,3.6-1.8,5.4-1.6
							c3.2,0.3,4.3,2,3.3,5.6c-18.2,69.8-36.3,139.6-54.5,209.4c-0.5,2-1.8,4-3.3,5.4c-73.8,74.6-147.6,149.2-221.4,223.8
							c-15.8,16-31.6,31.9-47.4,47.8c-1.2,1.2-2.7,3.1-4.5,2.4c-2-0.7-3.4-4-4.6-6.2c-0.5-1-0.1-2.5-0.1-3.8
							c0.2-25.4,0.4-50.8,0.8-76.2c0-2,1.1-4.6,2.6-5.9c76-69.5,152.1-139,228.3-208.4c2.3-2.1,3.7-4.3,4.3-7.4
							c1.5-8.1,3.4-16.2,5.4-25.5c-5.2,4.6-9.6,8.3-13.9,12.1c-71.4,62.8-142.7,125.7-214.1,188.4c-1.7,1.5-3.2,4.4-6.1,2.8
							c-3-1.7-5.1-4-5.1-8.2c0.9-77,1.6-154,2.3-230.9c0.3-35.8,0.7-71.6,0.9-107.4c0-3.9,1.3-6,4.8-7.8
							c97.2-50.1,194.3-100.3,291.5-150.5c23.5-12.1,47-24.2,70.5-36.2c1-0.5,2-1.2,3.1-1.4c5.1-1,7.6,1.5,6.3,6.4
							c-10.4,40.2-20.8,80.4-31.3,120.5c-0.6,2.1-2.2,4.4-3.9,5.7c-67.1,47.3-134.3,94.4-201.5,141.5c-3,2.1-4.4,4.4-4.7,8.1
							c-1.3,12.9-3,25.7-4.5,38.6C1102.4,453.8,1102.4,454.4,1102.4,455.9z"/>
					</defs>
					<clipPath id="SVGID_68_">
						<use xlink:href="#SVGID_67_"  style="overflow:visible;"/>
					</clipPath>
					<line class="st44" x1="1101.2" y1="465.6" x2="1308.9" y2="309.5"/>
				</g>
			</g>
		</g>
	</g>
</g>
<g id="Texte">
	<g id="Back">
		<g>
			<path class="st45" d="M566,887h-20.9l-4.7,12.7h-3.9l17.3-45.5h3.5l17.2,45.5h-3.9L566,887z M546.4,883.7h18.4l-9.1-24.7h-0.2
				L546.4,883.7z"/>
			<path class="st45" d="M607.6,888.5c0-2.5-0.9-4.5-2.8-6.1c-1.9-1.6-5.1-3-9.7-4.2c-5-1.3-8.8-2.9-11.3-4.9
				c-2.6-2-3.8-4.7-3.8-8.1c0-3.5,1.4-6.3,4.3-8.5c2.9-2.2,6.6-3.3,11.1-3.3c4.7,0,8.5,1.3,11.4,3.9c2.9,2.6,4.3,5.8,4.2,9.5
				l-0.1,0.2h-3.4c0-3-1.1-5.5-3.2-7.5c-2.2-2-5.1-2.9-8.8-2.9c-3.6,0-6.5,0.8-8.6,2.4c-2.1,1.6-3.1,3.6-3.1,6.1
				c0,2.3,0.9,4.2,2.8,5.7c1.9,1.5,5.2,2.9,9.8,4.1c4.9,1.3,8.6,2.9,11.2,5.1c2.6,2.1,3.8,4.9,3.8,8.4c0,3.6-1.5,6.5-4.5,8.7
				c-3,2.1-6.8,3.2-11.4,3.2c-4.5,0-8.5-1.1-11.9-3.4c-3.4-2.3-5-5.6-4.9-10l0.1-0.2h3.4c0,3.5,1.3,6.2,4,7.9
				c2.6,1.7,5.8,2.6,9.4,2.6c3.6,0,6.5-0.8,8.7-2.4C606.5,893.2,607.6,891.1,607.6,888.5z"/>
			<path class="st45" d="M646.1,888.5c0-2.5-0.9-4.5-2.8-6.1c-1.9-1.6-5.1-3-9.7-4.2c-5-1.3-8.8-2.9-11.3-4.9
				c-2.6-2-3.8-4.7-3.8-8.1c0-3.5,1.4-6.3,4.3-8.5c2.9-2.2,6.6-3.3,11.1-3.3c4.7,0,8.5,1.3,11.4,3.9c2.9,2.6,4.3,5.8,4.2,9.5
				l-0.1,0.2h-3.4c0-3-1.1-5.5-3.2-7.5c-2.2-2-5.1-2.9-8.8-2.9c-3.6,0-6.5,0.8-8.6,2.4c-2.1,1.6-3.1,3.6-3.1,6.1
				c0,2.3,0.9,4.2,2.8,5.7c1.9,1.5,5.2,2.9,9.8,4.1c4.9,1.3,8.6,2.9,11.2,5.1c2.6,2.1,3.8,4.9,3.8,8.4c0,3.6-1.5,6.5-4.5,8.7
				c-3,2.1-6.8,3.2-11.4,3.2c-4.5,0-8.5-1.1-11.9-3.4c-3.4-2.3-5-5.6-4.9-10l0.1-0.2h3.4c0,3.5,1.3,6.2,4,7.9
				c2.6,1.7,5.8,2.6,9.4,2.6c3.6,0,6.5-0.8,8.7-2.4C645,893.2,646.1,891.1,646.1,888.5z"/>
			<path class="st45" d="M691.8,880.7c0,5.9-1.6,10.6-4.8,14.3s-7.5,5.4-13,5.4c-5.3,0-9.6-1.8-12.8-5.4c-3.2-3.6-4.8-8.4-4.8-14.3
				v-7.4c0-5.9,1.6-10.6,4.8-14.3c3.2-3.6,7.4-5.5,12.8-5.5c5.4,0,9.7,1.8,13,5.5c3.2,3.7,4.8,8.4,4.8,14.3V880.7z M688.1,873.2
				c0-4.9-1.2-8.9-3.7-11.9c-2.5-3-5.9-4.5-10.4-4.5c-4.3,0-7.7,1.5-10.1,4.5c-2.4,3-3.6,7-3.6,11.9v7.5c0,5,1.2,9,3.6,12
				c2.4,3,5.8,4.5,10.2,4.5c4.4,0,7.9-1.5,10.4-4.5c2.5-3,3.7-7,3.7-12V873.2z"/>
			<path class="st45" d="M733.1,885.5l0.1,0.2c-0.4,4.6-2,8.2-4.9,10.8c-2.9,2.6-6.7,3.9-11.5,3.9c-5.1,0-9.2-1.8-12.3-5.5
				s-4.7-8.4-4.7-14.2v-7.4c0-5.8,1.6-10.5,4.7-14.2c3.1-3.7,7.2-5.5,12.3-5.5c4.8,0,8.7,1.3,11.5,3.8c2.8,2.6,4.5,6.2,4.8,10.8
				l-0.1,0.2h-3.5c-0.5-3.8-1.8-6.7-3.9-8.7c-2.1-2-5.1-3-8.9-3c-4,0-7.2,1.5-9.6,4.6c-2.4,3.1-3.6,7-3.6,11.8v7.5
				c0,4.9,1.2,8.9,3.6,11.9c2.4,3.1,5.6,4.6,9.6,4.6c3.8,0,6.8-1,8.9-2.9c2.1-2,3.4-4.9,3.9-8.8H733.1z"/>
			<path class="st45" d="M747.3,899.7h-3.8v-45.5h3.8V899.7z"/>
			<path class="st45" d="M785.1,887h-20.9l-4.7,12.7h-3.9l17.3-45.5h3.5l17.2,45.5h-3.9L785.1,887z M765.5,883.7h18.4l-9.1-24.7
				h-0.2L765.5,883.7z"/>
			<path class="st45" d="M827.2,857.4h-15.7v42.4h-3.8v-42.4h-15.7v-3.2h35.1V857.4z"/>
			<path class="st45" d="M839.1,899.7h-3.8v-45.5h3.8V899.7z"/>
			<path class="st45" d="M885.2,880.7c0,5.9-1.6,10.6-4.8,14.3s-7.5,5.4-13,5.4c-5.3,0-9.6-1.8-12.8-5.4c-3.2-3.6-4.8-8.4-4.8-14.3
				v-7.4c0-5.9,1.6-10.6,4.8-14.3c3.2-3.6,7.4-5.5,12.8-5.5c5.4,0,9.7,1.8,13,5.5c3.2,3.7,4.8,8.4,4.8,14.3V880.7z M881.4,873.2
				c0-4.9-1.2-8.9-3.7-11.9c-2.5-3-5.9-4.5-10.4-4.5c-4.3,0-7.7,1.5-10.1,4.5c-2.4,3-3.6,7-3.6,11.9v7.5c0,5,1.2,9,3.6,12
				c2.4,3,5.8,4.5,10.2,4.5c4.4,0,7.9-1.5,10.4-4.5c2.5-3,3.7-7,3.7-12V873.2z"/>
			<path class="st45" d="M928.5,899.7h-3.7l-25.9-39.2l-0.2,0v39.1H895v-45.5h3.8l25.9,39.1l0.2,0v-39.1h3.7V899.7z"/>
			<path class="st45" d="M981.9,878.4h-22.1v21.4h-3.7v-45.5h29.1v3.2h-25.3v17.8h22.1V878.4z"/>
			<path class="st45" d="M996.6,879.1v20.6h-3.7v-45.5h15.4c4.9,0,8.6,1.1,11.2,3.2c2.6,2.1,3.9,5.3,3.9,9.4c0,2.4-0.7,4.6-2.1,6.5
				c-1.4,1.9-3.4,3.3-5.9,4.2c2.8,0.7,4.8,2,6.1,3.8c1.2,1.8,1.9,4.1,1.9,6.9v4.3c0,1.4,0.2,2.7,0.5,3.8c0.3,1.1,0.9,2,1.7,2.8v0.8
				h-3.8c-0.8-0.8-1.3-1.8-1.6-3.2c-0.3-1.4-0.5-2.8-0.5-4.2v-4.2c0-2.8-0.9-5-2.7-6.6s-4.3-2.4-7.6-2.4H996.6z M996.6,876h11.2
				c4.1,0,7.1-0.8,9-2.5c1.9-1.7,2.8-3.9,2.8-6.7c0-3-0.9-5.3-2.8-6.9c-1.9-1.6-4.7-2.4-8.6-2.4h-11.7V876z"/>
			<path class="st45" d="M1059.6,887h-20.9l-4.7,12.7h-3.9l17.3-45.5h3.5l17.2,45.5h-3.9L1059.6,887z M1040,883.7h18.4l-9.1-24.7
				h-0.2L1040,883.7z"/>
			<path class="st45" d="M1108.7,899.7h-3.7l-25.9-39.2l-0.2,0v39.1h-3.8v-45.5h3.8l25.9,39.1l0.2,0v-39.1h3.7V899.7z"/>
			<path class="st45" d="M1152,885.5l0.1,0.2c-0.4,4.6-2,8.2-4.9,10.8c-2.9,2.6-6.7,3.9-11.5,3.9c-5.1,0-9.2-1.8-12.3-5.5
				s-4.7-8.4-4.7-14.2v-7.4c0-5.8,1.6-10.5,4.7-14.2c3.1-3.7,7.2-5.5,12.3-5.5c4.8,0,8.7,1.3,11.5,3.8c2.8,2.6,4.5,6.2,4.8,10.8
				l-0.1,0.2h-3.5c-0.5-3.8-1.8-6.7-3.9-8.7s-5.1-3-8.9-3c-4,0-7.2,1.5-9.6,4.6c-2.4,3.1-3.6,7-3.6,11.8v7.5c0,4.9,1.2,8.9,3.6,11.9
				c2.4,3.1,5.6,4.6,9.6,4.6c3.8,0,6.8-1,8.9-2.9s3.4-4.9,3.9-8.8H1152z"/>
			<path class="st45" d="M1186.2,887h-20.9l-4.7,12.7h-3.9l17.3-45.5h3.5l17.2,45.5h-3.9L1186.2,887z M1166.6,883.7h18.4l-9.1-24.7
				h-0.2L1166.6,883.7z"/>
			<path class="st45" d="M1206.3,899.7h-3.8v-45.5h3.8V899.7z"/>
			<path class="st45" d="M1245.1,888.5c0-2.5-0.9-4.5-2.8-6.1c-1.9-1.6-5.1-3-9.7-4.2c-5-1.3-8.8-2.9-11.3-4.9
				c-2.6-2-3.8-4.7-3.8-8.1c0-3.5,1.4-6.3,4.3-8.5s6.6-3.3,11.1-3.3c4.7,0,8.5,1.3,11.4,3.9c2.9,2.6,4.3,5.8,4.2,9.5l-0.1,0.2h-3.4
				c0-3-1.1-5.5-3.2-7.5c-2.2-2-5.1-2.9-8.8-2.9c-3.7,0-6.5,0.8-8.6,2.4c-2.1,1.6-3.1,3.6-3.1,6.1c0,2.3,0.9,4.2,2.8,5.7
				s5.2,2.9,9.8,4.1c4.9,1.3,8.6,2.9,11.2,5.1c2.6,2.1,3.8,4.9,3.8,8.4c0,3.6-1.5,6.5-4.5,8.7c-3,2.1-6.8,3.2-11.4,3.2
				c-4.5,0-8.5-1.1-11.9-3.4s-5-5.6-4.9-10l0.1-0.2h3.4c0,3.5,1.3,6.2,4,7.9c2.6,1.7,5.8,2.6,9.4,2.6c3.6,0,6.5-0.8,8.7-2.4
				C1244,893.2,1245.1,891.1,1245.1,888.5z"/>
			<path class="st45" d="M1283.2,877.7h-21.9v18.9h25.1v3.2h-28.8v-45.5h28.7v3.2h-25v17.1h21.9V877.7z"/>
			<path class="st45" d="M1310.1,899.7v-45.5h13.2c5.6,0,10.2,1.9,13.8,5.6c3.6,3.7,5.4,8.5,5.4,14.3v5.8c0,5.8-1.8,10.6-5.4,14.3
				c-3.6,3.7-8.2,5.5-13.8,5.5H1310.1z M1313.8,857.4v39.2h9.5c4.5,0,8.2-1.6,11.1-4.7c2.9-3.1,4.4-7.1,4.4-11.9v-5.9
				c0-4.8-1.5-8.7-4.4-11.8c-2.9-3.1-6.6-4.7-11.1-4.7H1313.8z"/>
			<path class="st45" d="M1377.8,877.7h-21.9v18.9h25.1v3.2h-28.8v-45.5h28.7v3.2h-25v17.1h21.9V877.7z"/>
			<path class="st45" d="M592.3,987.7c0-5-1.9-9.2-5.7-12.4c-3.8-3.2-10.4-6-19.8-8.5c-10.2-2.5-17.8-5.9-23.1-9.9
				c-5.2-4.1-7.8-9.6-7.8-16.5c0-7.1,2.9-12.9,8.8-17.3c5.8-4.5,13.4-6.7,22.5-6.7c9.6,0,17.3,2.7,23.1,8c5.9,5.3,8.7,11.8,8.5,19.4
				l-0.2,0.4h-7c0-6.2-2.2-11.3-6.6-15.3c-4.4-4-10.4-6-17.9-6c-7.4,0-13.2,1.7-17.4,5c-4.2,3.3-6.3,7.4-6.3,12.4
				c0,4.7,1.9,8.6,5.8,11.7c3.9,3.1,10.5,5.9,20,8.3c10,2.5,17.6,6,22.8,10.3c5.2,4.3,7.8,10,7.8,17.1c0,7.4-3,13.3-9.1,17.7
				c-6.1,4.4-13.8,6.6-23.2,6.6c-9.3,0-17.3-2.3-24.2-7c-6.9-4.7-10.3-11.4-10-20.4l0.1-0.4h7c0,7.2,2.7,12.5,8.1,16
				c5.4,3.5,11.7,5.2,19.1,5.2c7.3,0,13.3-1.6,17.8-4.8C590,997.2,592.3,993,592.3,987.7z"/>
			<path class="st45" d="M625.2,971.9v38.6h-7.6v-92.8h31.9c9.7,0,17.3,2.5,22.6,7.4c5.3,4.9,8,11.5,8,19.7c0,8.2-2.7,14.8-8,19.8
				c-5.3,4.9-12.9,7.4-22.6,7.4H625.2z M625.2,965.4h24.3c7.6,0,13.4-1.9,17.2-5.8c3.8-3.9,5.8-8.8,5.8-14.7
				c0-5.9-1.9-10.9-5.7-14.8c-3.8-3.9-9.6-5.9-17.3-5.9h-24.3V965.4z"/>
			<path class="st45" d="M750.7,965.5H706v38.4h51.2v6.5h-58.8v-92.8h58.4v6.5H706V959h44.7V965.5z"/>
			<path class="st45" d="M825.9,965.5h-44.7v38.4h51.2v6.5h-58.8v-92.8H832v6.5h-50.9V959h44.7V965.5z"/>
			<path class="st45" d="M848.8,1010.5v-92.8h27c11.3,0,20.7,3.8,28.1,11.3c7.4,7.6,11.1,17.3,11.1,29.1v11.9
				c0,11.9-3.7,21.6-11.1,29.1s-16.8,11.3-28.1,11.3H848.8z M856.4,924.2v79.8h19.4c9.2,0,16.7-3.2,22.7-9.6
				c5.9-6.4,8.9-14.5,8.9-24.3v-12.1c0-9.7-3-17.7-8.9-24.1c-5.9-6.4-13.5-9.6-22.6-9.6H856.4z"/>
			<path class="st45" d="M998.4,981.5l0.1,0.4c-0.8,9.3-4.1,16.6-9.9,22c-5.8,5.3-13.6,8-23.4,8c-10.3,0-18.6-3.7-25-11.2
				c-6.3-7.5-9.5-17.1-9.5-29v-15.1c0-11.8,3.2-21.5,9.5-29c6.3-7.5,14.7-11.2,25-11.2c9.9,0,17.7,2.6,23.5,7.8
				c5.8,5.2,9.1,12.6,9.9,22l-0.1,0.4h-7.1c-1-7.7-3.7-13.6-7.9-17.7s-10.3-6.1-18.1-6.1c-8.1,0-14.6,3.1-19.5,9.4
				c-4.9,6.3-7.4,14.3-7.4,24.1v15.2c0,9.9,2.5,18,7.4,24.3s11.4,9.4,19.5,9.4c7.8,0,13.9-2,18.2-6c4.3-4,6.9-9.9,7.9-17.9H998.4z"
				/>
			<path class="st45" d="M1083,917.7v62.9c0,10.1-3.1,17.8-9.3,23.2c-6.2,5.4-14.2,8-24.2,8c-9.8,0-17.8-2.7-23.8-8.1
				c-6.1-5.4-9.1-13.1-9.1-23.2v-62.9h7.6v62.8c0,7.9,2.3,14,7,18.3c4.7,4.3,10.8,6.5,18.3,6.5c7.6,0,13.9-2.1,18.7-6.4
				c4.8-4.3,7.2-10.4,7.2-18.3v-62.8H1083z"/>
			<path class="st45" d="M1105.7,1010.5v-92.8h27.1c9.6,0,17.2,2,22.5,6.1c5.4,4.1,8.1,10.2,8.1,18.3c0,4.8-1.3,8.9-4,12.4
				c-2.7,3.5-6.4,6-11,7.3c5.6,1,10.2,3.7,13.8,8c3.5,4.3,5.3,9.2,5.3,14.8c0,8.3-2.7,14.6-8.1,19.1c-5.4,4.5-12.6,6.7-21.6,6.7
				H1105.7z M1113.2,959.3h21.3c6.7,0,11.9-1.5,15.6-4.4c3.7-3,5.5-7.3,5.5-13c0-5.9-2-10.3-5.9-13.2c-3.9-3-9.6-4.4-17.1-4.4h-19.5
				V959.3z M1113.2,965.8v38.2h24.5c6.8,0,12.2-1.7,16.1-5c3.9-3.4,5.9-8.1,5.9-14.1c0-5.5-1.8-10.1-5.3-13.7
				c-3.5-3.6-8.7-5.3-15.5-5.3H1113.2z"/>
			<path class="st45" d="M1195.8,1010.5h-7.6v-92.8h7.6V1010.5z"/>
			<path class="st45" d="M1290.1,1010.5h-7.6l-52.7-79.8l-0.4,0.1v79.7h-7.6v-92.8h7.6l52.7,79.7l0.4-0.1v-79.6h7.6V1010.5z"/>
			<path class="st45" d="M1380.7,999.4c-2.1,3-5.9,5.8-11.4,8.4c-5.5,2.6-12.4,3.9-20.8,3.9c-10.8,0-19.6-3.7-26.5-11
				c-6.9-7.3-10.4-16.9-10.4-28.5v-17c0-11.5,3.3-20.8,9.8-28c6.6-7.2,15.1-10.8,25.5-10.8c10,0,17.8,2.5,23.4,7.5
				c5.6,5,8.9,11.5,9.8,19.5l-0.1,0.4h-7.1c-1.1-6.2-3.7-11.2-7.8-15.1c-4.1-3.8-10.2-5.8-18.2-5.8c-8.3,0-15,3-20.1,9
				c-5.1,6-7.6,13.8-7.6,23.2v17.1c0,9.7,2.7,17.6,8.1,23.8c5.4,6.2,12.4,9.3,21.2,9.3c6.2,0,11.4-0.9,15.7-2.6
				c4.3-1.7,7.3-3.6,8.8-5.6v-24.2h-24.7v-6.5h32.3V999.4z"/>
		</g>
	</g>
	<g id="Front_1_">
		<g>
			<path d="M566,887h-20.9l-4.7,12.7h-3.9l17.3-45.5h3.5l17.2,45.5h-3.9L566,887z M546.4,883.7h18.4l-9.1-24.7h-0.2L546.4,883.7z"/>
			<path d="M607.6,888.5c0-2.5-0.9-4.5-2.8-6.1c-1.9-1.6-5.1-3-9.7-4.2c-5-1.3-8.8-2.9-11.3-4.9c-2.6-2-3.8-4.7-3.8-8.1
				c0-3.5,1.4-6.3,4.3-8.5c2.9-2.2,6.6-3.3,11.1-3.3c4.7,0,8.5,1.3,11.4,3.9c2.9,2.6,4.3,5.8,4.2,9.5l-0.1,0.2h-3.4
				c0-3-1.1-5.5-3.2-7.5c-2.2-2-5.1-2.9-8.8-2.9c-3.6,0-6.5,0.8-8.6,2.4c-2.1,1.6-3.1,3.6-3.1,6.1c0,2.3,0.9,4.2,2.8,5.7
				c1.9,1.5,5.2,2.9,9.8,4.1c4.9,1.3,8.6,2.9,11.2,5.1c2.6,2.1,3.8,4.9,3.8,8.4c0,3.6-1.5,6.5-4.5,8.7c-3,2.1-6.8,3.2-11.4,3.2
				c-4.5,0-8.5-1.1-11.9-3.4c-3.4-2.3-5-5.6-4.9-10l0.1-0.2h3.4c0,3.5,1.3,6.2,4,7.9c2.6,1.7,5.8,2.6,9.4,2.6c3.6,0,6.5-0.8,8.7-2.4
				C606.5,893.2,607.6,891.1,607.6,888.5z"/>
			<path d="M646.1,888.5c0-2.5-0.9-4.5-2.8-6.1c-1.9-1.6-5.1-3-9.7-4.2c-5-1.3-8.8-2.9-11.3-4.9c-2.6-2-3.8-4.7-3.8-8.1
				c0-3.5,1.4-6.3,4.3-8.5c2.9-2.2,6.6-3.3,11.1-3.3c4.7,0,8.5,1.3,11.4,3.9c2.9,2.6,4.3,5.8,4.2,9.5l-0.1,0.2h-3.4
				c0-3-1.1-5.5-3.2-7.5c-2.2-2-5.1-2.9-8.8-2.9c-3.6,0-6.5,0.8-8.6,2.4c-2.1,1.6-3.1,3.6-3.1,6.1c0,2.3,0.9,4.2,2.8,5.7
				c1.9,1.5,5.2,2.9,9.8,4.1c4.9,1.3,8.6,2.9,11.2,5.1c2.6,2.1,3.8,4.9,3.8,8.4c0,3.6-1.5,6.5-4.5,8.7c-3,2.1-6.8,3.2-11.4,3.2
				c-4.5,0-8.5-1.1-11.9-3.4c-3.4-2.3-5-5.6-4.9-10l0.1-0.2h3.4c0,3.5,1.3,6.2,4,7.9c2.6,1.7,5.8,2.6,9.4,2.6c3.6,0,6.5-0.8,8.7-2.4
				C645,893.2,646.1,891.1,646.1,888.5z"/>
			<path d="M691.8,880.7c0,5.9-1.6,10.6-4.8,14.3s-7.5,5.4-13,5.4c-5.3,0-9.6-1.8-12.8-5.4c-3.2-3.6-4.8-8.4-4.8-14.3v-7.4
				c0-5.9,1.6-10.6,4.8-14.3c3.2-3.6,7.4-5.5,12.8-5.5c5.4,0,9.7,1.8,13,5.5c3.2,3.7,4.8,8.4,4.8,14.3V880.7z M688.1,873.2
				c0-4.9-1.2-8.9-3.7-11.9c-2.5-3-5.9-4.5-10.4-4.5c-4.3,0-7.7,1.5-10.1,4.5c-2.4,3-3.6,7-3.6,11.9v7.5c0,5,1.2,9,3.6,12
				c2.4,3,5.8,4.5,10.2,4.5c4.4,0,7.9-1.5,10.4-4.5c2.5-3,3.7-7,3.7-12V873.2z"/>
			<path d="M733.1,885.5l0.1,0.2c-0.4,4.6-2,8.2-4.9,10.8c-2.9,2.6-6.7,3.9-11.5,3.9c-5.1,0-9.2-1.8-12.3-5.5s-4.7-8.4-4.7-14.2
				v-7.4c0-5.8,1.6-10.5,4.7-14.2c3.1-3.7,7.2-5.5,12.3-5.5c4.8,0,8.7,1.3,11.5,3.8c2.8,2.6,4.5,6.2,4.8,10.8l-0.1,0.2h-3.5
				c-0.5-3.8-1.8-6.7-3.9-8.7c-2.1-2-5.1-3-8.9-3c-4,0-7.2,1.5-9.6,4.6c-2.4,3.1-3.6,7-3.6,11.8v7.5c0,4.9,1.2,8.9,3.6,11.9
				c2.4,3.1,5.6,4.6,9.6,4.6c3.8,0,6.8-1,8.9-2.9c2.1-2,3.4-4.9,3.9-8.8H733.1z"/>
			<path d="M747.3,899.7h-3.8v-45.5h3.8V899.7z"/>
			<path d="M785.1,887h-20.9l-4.7,12.7h-3.9l17.3-45.5h3.5l17.2,45.5h-3.9L785.1,887z M765.5,883.7h18.4l-9.1-24.7h-0.2L765.5,883.7
				z"/>
			<path d="M827.2,857.4h-15.7v42.4h-3.8v-42.4h-15.7v-3.2h35.1V857.4z"/>
			<path d="M839.1,899.7h-3.8v-45.5h3.8V899.7z"/>
			<path d="M885.2,880.7c0,5.9-1.6,10.6-4.8,14.3s-7.5,5.4-13,5.4c-5.3,0-9.6-1.8-12.8-5.4c-3.2-3.6-4.8-8.4-4.8-14.3v-7.4
				c0-5.9,1.6-10.6,4.8-14.3c3.2-3.6,7.4-5.5,12.8-5.5c5.4,0,9.7,1.8,13,5.5c3.2,3.7,4.8,8.4,4.8,14.3V880.7z M881.4,873.2
				c0-4.9-1.2-8.9-3.7-11.9c-2.5-3-5.9-4.5-10.4-4.5c-4.3,0-7.7,1.5-10.1,4.5c-2.4,3-3.6,7-3.6,11.9v7.5c0,5,1.2,9,3.6,12
				c2.4,3,5.8,4.5,10.2,4.5c4.4,0,7.9-1.5,10.4-4.5c2.5-3,3.7-7,3.7-12V873.2z"/>
			<path d="M928.5,899.7h-3.7l-25.9-39.2l-0.2,0v39.1H895v-45.5h3.8l25.9,39.1l0.2,0v-39.1h3.7V899.7z"/>
			<path d="M981.9,878.4h-22.1v21.4h-3.7v-45.5h29.1v3.2h-25.3v17.8h22.1V878.4z"/>
			<path d="M996.6,879.1v20.6h-3.7v-45.5h15.4c4.9,0,8.6,1.1,11.2,3.2c2.6,2.1,3.9,5.3,3.9,9.4c0,2.4-0.7,4.6-2.1,6.5
				c-1.4,1.9-3.4,3.3-5.9,4.2c2.8,0.7,4.8,2,6.1,3.8c1.2,1.8,1.9,4.1,1.9,6.9v4.3c0,1.4,0.2,2.7,0.5,3.8c0.3,1.1,0.9,2,1.7,2.8v0.8
				h-3.8c-0.8-0.8-1.3-1.8-1.6-3.2c-0.3-1.4-0.5-2.8-0.5-4.2v-4.2c0-2.8-0.9-5-2.7-6.6s-4.3-2.4-7.6-2.4H996.6z M996.6,876h11.2
				c4.1,0,7.1-0.8,9-2.5c1.9-1.7,2.8-3.9,2.8-6.7c0-3-0.9-5.3-2.8-6.9c-1.9-1.6-4.7-2.4-8.6-2.4h-11.7V876z"/>
			<path d="M1059.6,887h-20.9l-4.7,12.7h-3.9l17.3-45.5h3.5l17.2,45.5h-3.9L1059.6,887z M1040,883.7h18.4l-9.1-24.7h-0.2L1040,883.7
				z"/>
			<path d="M1108.7,899.7h-3.7l-25.9-39.2l-0.2,0v39.1h-3.8v-45.5h3.8l25.9,39.1l0.2,0v-39.1h3.7V899.7z"/>
			<path d="M1152,885.5l0.1,0.2c-0.4,4.6-2,8.2-4.9,10.8c-2.9,2.6-6.7,3.9-11.5,3.9c-5.1,0-9.2-1.8-12.3-5.5s-4.7-8.4-4.7-14.2v-7.4
				c0-5.8,1.6-10.5,4.7-14.2c3.1-3.7,7.2-5.5,12.3-5.5c4.8,0,8.7,1.3,11.5,3.8c2.8,2.6,4.5,6.2,4.8,10.8l-0.1,0.2h-3.5
				c-0.5-3.8-1.8-6.7-3.9-8.7s-5.1-3-8.9-3c-4,0-7.2,1.5-9.6,4.6c-2.4,3.1-3.6,7-3.6,11.8v7.5c0,4.9,1.2,8.9,3.6,11.9
				c2.4,3.1,5.6,4.6,9.6,4.6c3.8,0,6.8-1,8.9-2.9s3.4-4.9,3.9-8.8H1152z"/>
			<path d="M1186.2,887h-20.9l-4.7,12.7h-3.9l17.3-45.5h3.5l17.2,45.5h-3.9L1186.2,887z M1166.6,883.7h18.4l-9.1-24.7h-0.2
				L1166.6,883.7z"/>
			<path d="M1206.3,899.7h-3.8v-45.5h3.8V899.7z"/>
			<path d="M1245.1,888.5c0-2.5-0.9-4.5-2.8-6.1c-1.9-1.6-5.1-3-9.7-4.2c-5-1.3-8.8-2.9-11.3-4.9c-2.6-2-3.8-4.7-3.8-8.1
				c0-3.5,1.4-6.3,4.3-8.5s6.6-3.3,11.1-3.3c4.7,0,8.5,1.3,11.4,3.9c2.9,2.6,4.3,5.8,4.2,9.5l-0.1,0.2h-3.4c0-3-1.1-5.5-3.2-7.5
				c-2.2-2-5.1-2.9-8.8-2.9c-3.7,0-6.5,0.8-8.6,2.4c-2.1,1.6-3.1,3.6-3.1,6.1c0,2.3,0.9,4.2,2.8,5.7s5.2,2.9,9.8,4.1
				c4.9,1.3,8.6,2.9,11.2,5.1c2.6,2.1,3.8,4.9,3.8,8.4c0,3.6-1.5,6.5-4.5,8.7c-3,2.1-6.8,3.2-11.4,3.2c-4.5,0-8.5-1.1-11.9-3.4
				s-5-5.6-4.9-10l0.1-0.2h3.4c0,3.5,1.3,6.2,4,7.9c2.6,1.7,5.8,2.6,9.4,2.6c3.6,0,6.5-0.8,8.7-2.4
				C1244,893.2,1245.1,891.1,1245.1,888.5z"/>
			<path d="M1283.2,877.7h-21.9v18.9h25.1v3.2h-28.8v-45.5h28.7v3.2h-25v17.1h21.9V877.7z"/>
			<path d="M1310.1,899.7v-45.5h13.2c5.6,0,10.2,1.9,13.8,5.6c3.6,3.7,5.4,8.5,5.4,14.3v5.8c0,5.8-1.8,10.6-5.4,14.3
				c-3.6,3.7-8.2,5.5-13.8,5.5H1310.1z M1313.8,857.4v39.2h9.5c4.5,0,8.2-1.6,11.1-4.7c2.9-3.1,4.4-7.1,4.4-11.9v-5.9
				c0-4.8-1.5-8.7-4.4-11.8c-2.9-3.1-6.6-4.7-11.1-4.7H1313.8z"/>
			<path d="M1377.8,877.7h-21.9v18.9h25.1v3.2h-28.8v-45.5h28.7v3.2h-25v17.1h21.9V877.7z"/>
			<path d="M592.3,987.7c0-5-1.9-9.2-5.7-12.4c-3.8-3.2-10.4-6-19.8-8.5c-10.2-2.5-17.8-5.9-23.1-9.9c-5.2-4.1-7.8-9.6-7.8-16.5
				c0-7.1,2.9-12.9,8.8-17.3c5.8-4.5,13.4-6.7,22.5-6.7c9.6,0,17.3,2.7,23.1,8c5.9,5.3,8.7,11.8,8.5,19.4l-0.2,0.4h-7
				c0-6.2-2.2-11.3-6.6-15.3c-4.4-4-10.4-6-17.9-6c-7.4,0-13.2,1.7-17.4,5c-4.2,3.3-6.3,7.4-6.3,12.4c0,4.7,1.9,8.6,5.8,11.7
				c3.9,3.1,10.5,5.9,20,8.3c10,2.5,17.6,6,22.8,10.3c5.2,4.3,7.8,10,7.8,17.1c0,7.4-3,13.3-9.1,17.7c-6.1,4.4-13.8,6.6-23.2,6.6
				c-9.3,0-17.3-2.3-24.2-7c-6.9-4.7-10.3-11.4-10-20.4l0.1-0.4h7c0,7.2,2.7,12.5,8.1,16c5.4,3.5,11.7,5.2,19.1,5.2
				c7.3,0,13.3-1.6,17.8-4.8C590,997.2,592.3,993,592.3,987.7z"/>
			<path d="M625.2,971.9v38.6h-7.6v-92.8h31.9c9.7,0,17.3,2.5,22.6,7.4c5.3,4.9,8,11.5,8,19.7c0,8.2-2.7,14.8-8,19.8
				c-5.3,4.9-12.9,7.4-22.6,7.4H625.2z M625.2,965.4h24.3c7.6,0,13.4-1.9,17.2-5.8c3.8-3.9,5.8-8.8,5.8-14.7
				c0-5.9-1.9-10.9-5.7-14.8c-3.8-3.9-9.6-5.9-17.3-5.9h-24.3V965.4z"/>
			<path d="M750.7,965.5H706v38.4h51.2v6.5h-58.8v-92.8h58.4v6.5H706V959h44.7V965.5z"/>
			<path d="M825.9,965.5h-44.7v38.4h51.2v6.5h-58.8v-92.8H832v6.5h-50.9V959h44.7V965.5z"/>
			<path d="M848.8,1010.5v-92.8h27c11.3,0,20.7,3.8,28.1,11.3c7.4,7.6,11.1,17.3,11.1,29.1v11.9c0,11.9-3.7,21.6-11.1,29.1
				s-16.8,11.3-28.1,11.3H848.8z M856.4,924.2v79.8h19.4c9.2,0,16.7-3.2,22.7-9.6c5.9-6.4,8.9-14.5,8.9-24.3v-12.1
				c0-9.7-3-17.7-8.9-24.1c-5.9-6.4-13.5-9.6-22.6-9.6H856.4z"/>
			<path d="M998.4,981.5l0.1,0.4c-0.8,9.3-4.1,16.6-9.9,22c-5.8,5.3-13.6,8-23.4,8c-10.3,0-18.6-3.7-25-11.2
				c-6.3-7.5-9.5-17.1-9.5-29v-15.1c0-11.8,3.2-21.5,9.5-29c6.3-7.5,14.7-11.2,25-11.2c9.9,0,17.7,2.6,23.5,7.8
				c5.8,5.2,9.1,12.6,9.9,22l-0.1,0.4h-7.1c-1-7.7-3.7-13.6-7.9-17.7s-10.3-6.1-18.1-6.1c-8.1,0-14.6,3.1-19.5,9.4
				c-4.9,6.3-7.4,14.3-7.4,24.1v15.2c0,9.9,2.5,18,7.4,24.3s11.4,9.4,19.5,9.4c7.8,0,13.9-2,18.2-6c4.3-4,6.9-9.9,7.9-17.9H998.4z"
				/>
			<path d="M1083,917.7v62.9c0,10.1-3.1,17.8-9.3,23.2c-6.2,5.4-14.2,8-24.2,8c-9.8,0-17.8-2.7-23.8-8.1c-6.1-5.4-9.1-13.1-9.1-23.2
				v-62.9h7.6v62.8c0,7.9,2.3,14,7,18.3c4.7,4.3,10.8,6.5,18.3,6.5c7.6,0,13.9-2.1,18.7-6.4c4.8-4.3,7.2-10.4,7.2-18.3v-62.8H1083z"
				/>
			<path d="M1105.7,1010.5v-92.8h27.1c9.6,0,17.2,2,22.5,6.1c5.4,4.1,8.1,10.2,8.1,18.3c0,4.8-1.3,8.9-4,12.4c-2.7,3.5-6.4,6-11,7.3
				c5.6,1,10.2,3.7,13.8,8c3.5,4.3,5.3,9.2,5.3,14.8c0,8.3-2.7,14.6-8.1,19.1c-5.4,4.5-12.6,6.7-21.6,6.7H1105.7z M1113.2,959.3
				h21.3c6.7,0,11.9-1.5,15.6-4.4c3.7-3,5.5-7.3,5.5-13c0-5.9-2-10.3-5.9-13.2c-3.9-3-9.6-4.4-17.1-4.4h-19.5V959.3z M1113.2,965.8
				v38.2h24.5c6.8,0,12.2-1.7,16.1-5c3.9-3.4,5.9-8.1,5.9-14.1c0-5.5-1.8-10.1-5.3-13.7c-3.5-3.6-8.7-5.3-15.5-5.3H1113.2z"/>
			<path d="M1195.8,1010.5h-7.6v-92.8h7.6V1010.5z"/>
			<path d="M1290.1,1010.5h-7.6l-52.7-79.8l-0.4,0.1v79.7h-7.6v-92.8h7.6l52.7,79.7l0.4-0.1v-79.6h7.6V1010.5z"/>
			<path d="M1380.7,999.4c-2.1,3-5.9,5.8-11.4,8.4c-5.5,2.6-12.4,3.9-20.8,3.9c-10.8,0-19.6-3.7-26.5-11
				c-6.9-7.3-10.4-16.9-10.4-28.5v-17c0-11.5,3.3-20.8,9.8-28c6.6-7.2,15.1-10.8,25.5-10.8c10,0,17.8,2.5,23.4,7.5
				c5.6,5,8.9,11.5,9.8,19.5l-0.1,0.4h-7.1c-1.1-6.2-3.7-11.2-7.8-15.1c-4.1-3.8-10.2-5.8-18.2-5.8c-8.3,0-15,3-20.1,9
				c-5.1,6-7.6,13.8-7.6,23.2v17.1c0,9.7,2.7,17.6,8.1,23.8c5.4,6.2,12.4,9.3,21.2,9.3c6.2,0,11.4-0.9,15.7-2.6
				c4.3-1.7,7.3-3.6,8.8-5.6v-24.2h-24.7v-6.5h32.3V999.4z"/>
		</g>
	</g>
</g>
</svg>
